solid ascii
  facet normal 0.000000e+000 -2.731848e-016 -1.000000e+000
    outer loop
      vertex   3.914000e+000 2.540000e-002 -1.270000e-002
      vertex   3.914000e+000 -3.504894e-019 -1.270000e-002
      vertex   3.904000e+000 2.540000e-002 -1.270000e-002
    endloop
  endfacet
  facet normal -0.000000e+000 -2.731848e-016 -1.000000e+000
    outer loop
      vertex   3.904000e+000 2.540000e-002 -1.270000e-002
      vertex   3.914000e+000 -3.504894e-019 -1.270000e-002
      vertex   3.904000e+000 -3.504894e-019 -1.270000e-002
    endloop
  endfacet
  facet normal 0.000000e+000 1.000000e+000 1.365924e-016
    outer loop
      vertex   3.914000e+000 2.540000e-002 1.270000e-002
      vertex   3.914000e+000 2.540000e-002 -1.270000e-002
      vertex   3.904000e+000 2.540000e-002 1.270000e-002
    endloop
  endfacet
  facet normal 0.000000e+000 1.000000e+000 1.365924e-016
    outer loop
      vertex   3.904000e+000 2.540000e-002 1.270000e-002
      vertex   3.914000e+000 2.540000e-002 -1.270000e-002
      vertex   3.904000e+000 2.540000e-002 -1.270000e-002
    endloop
  endfacet
  facet normal 1.734723e-016 6.829620e-017 1.000000e+000
    outer loop
      vertex   3.914000e+000 -3.318875e-018 1.270000e-002
      vertex   3.914000e+000 2.540000e-002 1.270000e-002
      vertex   3.904000e+000 -3.318875e-018 1.270000e-002
    endloop
  endfacet
  facet normal 0.000000e+000 1.365924e-016 1.000000e+000
    outer loop
      vertex   3.904000e+000 -3.318875e-018 1.270000e-002
      vertex   3.914000e+000 2.540000e-002 1.270000e-002
      vertex   3.904000e+000 2.540000e-002 1.270000e-002
    endloop
  endfacet
  facet normal 0.000000e+000 -1.000000e+000 -1.168656e-016
    outer loop
      vertex   3.914000e+000 -3.504894e-019 -1.270000e-002
      vertex   3.914000e+000 -3.318875e-018 1.270000e-002
      vertex   3.904000e+000 -3.504894e-019 -1.270000e-002
    endloop
  endfacet
  facet normal 5.676425e-032 -1.000000e+000 -1.168656e-016
    outer loop
      vertex   3.904000e+000 -3.504894e-019 -1.270000e-002
      vertex   3.914000e+000 -3.318875e-018 1.270000e-002
      vertex   3.904000e+000 -3.318875e-018 1.270000e-002
    endloop
  endfacet
  facet normal -1.000000e+000 0.000000e+000 -0.000000e+000
    outer loop
      vertex   3.904000e+000 -3.318875e-018 1.270000e-002
      vertex   3.904000e+000 2.540000e-002 1.270000e-002
      vertex   3.904000e+000 -3.504894e-019 -1.270000e-002
    endloop
  endfacet
  facet normal -1.000000e+000 0.000000e+000 0.000000e+000
    outer loop
      vertex   3.904000e+000 -3.504894e-019 -1.270000e-002
      vertex   3.904000e+000 2.540000e-002 1.270000e-002
      vertex   3.904000e+000 2.540000e-002 -1.270000e-002
    endloop
  endfacet
  facet normal 1.000000e+000 -0.000000e+000 -0.000000e+000
    outer loop
      vertex   3.914000e+000 -3.504894e-019 -1.270000e-002
      vertex   3.914000e+000 2.540000e-002 -1.270000e-002
      vertex   3.914000e+000 -3.318875e-018 1.270000e-002
    endloop
  endfacet
  facet normal 1.000000e+000 -0.000000e+000 -0.000000e+000
    outer loop
      vertex   3.914000e+000 -3.318875e-018 1.270000e-002
      vertex   3.914000e+000 2.540000e-002 -1.270000e-002
      vertex   3.914000e+000 2.540000e-002 1.270000e-002
    endloop
  endfacet
  facet normal 0.000000e+000 -2.731848e-016 -1.000000e+000
    outer loop
      vertex   4.066000e+000 2.540000e-002 -1.270000e-002
      vertex   4.066000e+000 -3.504894e-019 -1.270000e-002
      vertex   4.056000e+000 2.540000e-002 -1.270000e-002
    endloop
  endfacet
  facet normal -0.000000e+000 -2.731848e-016 -1.000000e+000
    outer loop
      vertex   4.056000e+000 2.540000e-002 -1.270000e-002
      vertex   4.066000e+000 -3.504894e-019 -1.270000e-002
      vertex   4.056000e+000 -3.504894e-019 -1.270000e-002
    endloop
  endfacet
  facet normal 0.000000e+000 1.000000e+000 1.365924e-016
    outer loop
      vertex   4.066000e+000 2.540000e-002 1.270000e-002
      vertex   4.066000e+000 2.540000e-002 -1.270000e-002
      vertex   4.056000e+000 2.540000e-002 1.270000e-002
    endloop
  endfacet
  facet normal 0.000000e+000 1.000000e+000 1.365924e-016
    outer loop
      vertex   4.056000e+000 2.540000e-002 1.270000e-002
      vertex   4.066000e+000 2.540000e-002 -1.270000e-002
      vertex   4.056000e+000 2.540000e-002 -1.270000e-002
    endloop
  endfacet
  facet normal 1.734723e-016 6.829620e-017 1.000000e+000
    outer loop
      vertex   4.066000e+000 -3.318875e-018 1.270000e-002
      vertex   4.066000e+000 2.540000e-002 1.270000e-002
      vertex   4.056000e+000 -3.318875e-018 1.270000e-002
    endloop
  endfacet
  facet normal 0.000000e+000 1.365924e-016 1.000000e+000
    outer loop
      vertex   4.056000e+000 -3.318875e-018 1.270000e-002
      vertex   4.066000e+000 2.540000e-002 1.270000e-002
      vertex   4.056000e+000 2.540000e-002 1.270000e-002
    endloop
  endfacet
  facet normal 0.000000e+000 -1.000000e+000 -1.168656e-016
    outer loop
      vertex   4.066000e+000 -3.504894e-019 -1.270000e-002
      vertex   4.066000e+000 -3.318875e-018 1.270000e-002
      vertex   4.056000e+000 -3.504894e-019 -1.270000e-002
    endloop
  endfacet
  facet normal 5.676425e-032 -1.000000e+000 -1.168656e-016
    outer loop
      vertex   4.056000e+000 -3.504894e-019 -1.270000e-002
      vertex   4.066000e+000 -3.318875e-018 1.270000e-002
      vertex   4.056000e+000 -3.318875e-018 1.270000e-002
    endloop
  endfacet
  facet normal -1.000000e+000 0.000000e+000 -0.000000e+000
    outer loop
      vertex   4.056000e+000 -3.318875e-018 1.270000e-002
      vertex   4.056000e+000 2.540000e-002 1.270000e-002
      vertex   4.056000e+000 -3.504894e-019 -1.270000e-002
    endloop
  endfacet
  facet normal -1.000000e+000 0.000000e+000 0.000000e+000
    outer loop
      vertex   4.056000e+000 -3.504894e-019 -1.270000e-002
      vertex   4.056000e+000 2.540000e-002 1.270000e-002
      vertex   4.056000e+000 2.540000e-002 -1.270000e-002
    endloop
  endfacet
  facet normal 1.000000e+000 -0.000000e+000 -0.000000e+000
    outer loop
      vertex   4.066000e+000 -3.504894e-019 -1.270000e-002
      vertex   4.066000e+000 2.540000e-002 -1.270000e-002
      vertex   4.066000e+000 -3.318875e-018 1.270000e-002
    endloop
  endfacet
  facet normal 1.000000e+000 -0.000000e+000 -0.000000e+000
    outer loop
      vertex   4.066000e+000 -3.318875e-018 1.270000e-002
      vertex   4.066000e+000 2.540000e-002 -1.270000e-002
      vertex   4.066000e+000 2.540000e-002 1.270000e-002
    endloop
  endfacet
  facet normal 0.000000e+000 -2.731848e-016 -1.000000e+000
    outer loop
      vertex   4.218000e+000 2.540000e-002 -1.270000e-002
      vertex   4.218000e+000 -3.504894e-019 -1.270000e-002
      vertex   4.208000e+000 2.540000e-002 -1.270000e-002
    endloop
  endfacet
  facet normal -0.000000e+000 -2.731848e-016 -1.000000e+000
    outer loop
      vertex   4.208000e+000 2.540000e-002 -1.270000e-002
      vertex   4.218000e+000 -3.504894e-019 -1.270000e-002
      vertex   4.208000e+000 -3.504894e-019 -1.270000e-002
    endloop
  endfacet
  facet normal 0.000000e+000 1.000000e+000 1.365924e-016
    outer loop
      vertex   4.218000e+000 2.540000e-002 1.270000e-002
      vertex   4.218000e+000 2.540000e-002 -1.270000e-002
      vertex   4.208000e+000 2.540000e-002 1.270000e-002
    endloop
  endfacet
  facet normal 0.000000e+000 1.000000e+000 1.365924e-016
    outer loop
      vertex   4.208000e+000 2.540000e-002 1.270000e-002
      vertex   4.218000e+000 2.540000e-002 -1.270000e-002
      vertex   4.208000e+000 2.540000e-002 -1.270000e-002
    endloop
  endfacet
  facet normal 1.734723e-016 6.829620e-017 1.000000e+000
    outer loop
      vertex   4.218000e+000 -3.318875e-018 1.270000e-002
      vertex   4.218000e+000 2.540000e-002 1.270000e-002
      vertex   4.208000e+000 -3.318875e-018 1.270000e-002
    endloop
  endfacet
  facet normal 0.000000e+000 1.365924e-016 1.000000e+000
    outer loop
      vertex   4.208000e+000 -3.318875e-018 1.270000e-002
      vertex   4.218000e+000 2.540000e-002 1.270000e-002
      vertex   4.208000e+000 2.540000e-002 1.270000e-002
    endloop
  endfacet
  facet normal 0.000000e+000 -1.000000e+000 -1.168656e-016
    outer loop
      vertex   4.218000e+000 -3.504894e-019 -1.270000e-002
      vertex   4.218000e+000 -3.318875e-018 1.270000e-002
      vertex   4.208000e+000 -3.504894e-019 -1.270000e-002
    endloop
  endfacet
  facet normal 5.676425e-032 -1.000000e+000 -1.168656e-016
    outer loop
      vertex   4.208000e+000 -3.504894e-019 -1.270000e-002
      vertex   4.218000e+000 -3.318875e-018 1.270000e-002
      vertex   4.208000e+000 -3.318875e-018 1.270000e-002
    endloop
  endfacet
  facet normal -1.000000e+000 0.000000e+000 -0.000000e+000
    outer loop
      vertex   4.208000e+000 -3.318875e-018 1.270000e-002
      vertex   4.208000e+000 2.540000e-002 1.270000e-002
      vertex   4.208000e+000 -3.504894e-019 -1.270000e-002
    endloop
  endfacet
  facet normal -1.000000e+000 0.000000e+000 0.000000e+000
    outer loop
      vertex   4.208000e+000 -3.504894e-019 -1.270000e-002
      vertex   4.208000e+000 2.540000e-002 1.270000e-002
      vertex   4.208000e+000 2.540000e-002 -1.270000e-002
    endloop
  endfacet
  facet normal 1.000000e+000 -0.000000e+000 -0.000000e+000
    outer loop
      vertex   4.218000e+000 -3.504894e-019 -1.270000e-002
      vertex   4.218000e+000 2.540000e-002 -1.270000e-002
      vertex   4.218000e+000 -3.318875e-018 1.270000e-002
    endloop
  endfacet
  facet normal 1.000000e+000 -0.000000e+000 -0.000000e+000
    outer loop
      vertex   4.218000e+000 -3.318875e-018 1.270000e-002
      vertex   4.218000e+000 2.540000e-002 -1.270000e-002
      vertex   4.218000e+000 2.540000e-002 1.270000e-002
    endloop
  endfacet
  facet normal 0.000000e+000 -2.731848e-016 -1.000000e+000
    outer loop
      vertex   4.370000e+000 2.540000e-002 -1.270000e-002
      vertex   4.370000e+000 -3.504894e-019 -1.270000e-002
      vertex   4.360000e+000 2.540000e-002 -1.270000e-002
    endloop
  endfacet
  facet normal -0.000000e+000 -2.731848e-016 -1.000000e+000
    outer loop
      vertex   4.360000e+000 2.540000e-002 -1.270000e-002
      vertex   4.370000e+000 -3.504894e-019 -1.270000e-002
      vertex   4.360000e+000 -3.504894e-019 -1.270000e-002
    endloop
  endfacet
  facet normal 0.000000e+000 1.000000e+000 1.365924e-016
    outer loop
      vertex   4.370000e+000 2.540000e-002 1.270000e-002
      vertex   4.370000e+000 2.540000e-002 -1.270000e-002
      vertex   4.360000e+000 2.540000e-002 1.270000e-002
    endloop
  endfacet
  facet normal 0.000000e+000 1.000000e+000 1.365924e-016
    outer loop
      vertex   4.360000e+000 2.540000e-002 1.270000e-002
      vertex   4.370000e+000 2.540000e-002 -1.270000e-002
      vertex   4.360000e+000 2.540000e-002 -1.270000e-002
    endloop
  endfacet
  facet normal 1.734723e-016 6.829620e-017 1.000000e+000
    outer loop
      vertex   4.370000e+000 -3.318875e-018 1.270000e-002
      vertex   4.370000e+000 2.540000e-002 1.270000e-002
      vertex   4.360000e+000 -3.318875e-018 1.270000e-002
    endloop
  endfacet
  facet normal 0.000000e+000 1.365924e-016 1.000000e+000
    outer loop
      vertex   4.360000e+000 -3.318875e-018 1.270000e-002
      vertex   4.370000e+000 2.540000e-002 1.270000e-002
      vertex   4.360000e+000 2.540000e-002 1.270000e-002
    endloop
  endfacet
  facet normal 0.000000e+000 -1.000000e+000 -1.168656e-016
    outer loop
      vertex   4.370000e+000 -3.504894e-019 -1.270000e-002
      vertex   4.370000e+000 -3.318875e-018 1.270000e-002
      vertex   4.360000e+000 -3.504894e-019 -1.270000e-002
    endloop
  endfacet
  facet normal 5.676425e-032 -1.000000e+000 -1.168656e-016
    outer loop
      vertex   4.360000e+000 -3.504894e-019 -1.270000e-002
      vertex   4.370000e+000 -3.318875e-018 1.270000e-002
      vertex   4.360000e+000 -3.318875e-018 1.270000e-002
    endloop
  endfacet
  facet normal -1.000000e+000 0.000000e+000 -0.000000e+000
    outer loop
      vertex   4.360000e+000 -3.318875e-018 1.270000e-002
      vertex   4.360000e+000 2.540000e-002 1.270000e-002
      vertex   4.360000e+000 -3.504894e-019 -1.270000e-002
    endloop
  endfacet
  facet normal -1.000000e+000 0.000000e+000 0.000000e+000
    outer loop
      vertex   4.360000e+000 -3.504894e-019 -1.270000e-002
      vertex   4.360000e+000 2.540000e-002 1.270000e-002
      vertex   4.360000e+000 2.540000e-002 -1.270000e-002
    endloop
  endfacet
  facet normal 1.000000e+000 -0.000000e+000 -0.000000e+000
    outer loop
      vertex   4.370000e+000 -3.504894e-019 -1.270000e-002
      vertex   4.370000e+000 2.540000e-002 -1.270000e-002
      vertex   4.370000e+000 -3.318875e-018 1.270000e-002
    endloop
  endfacet
  facet normal 1.000000e+000 -0.000000e+000 -0.000000e+000
    outer loop
      vertex   4.370000e+000 -3.318875e-018 1.270000e-002
      vertex   4.370000e+000 2.540000e-002 -1.270000e-002
      vertex   4.370000e+000 2.540000e-002 1.270000e-002
    endloop
  endfacet
  facet normal 0.000000e+000 -2.731848e-016 -1.000000e+000
    outer loop
      vertex   4.522000e+000 2.540000e-002 -1.270000e-002
      vertex   4.522000e+000 -3.504894e-019 -1.270000e-002
      vertex   4.512000e+000 2.540000e-002 -1.270000e-002
    endloop
  endfacet
  facet normal -0.000000e+000 -2.731848e-016 -1.000000e+000
    outer loop
      vertex   4.512000e+000 2.540000e-002 -1.270000e-002
      vertex   4.522000e+000 -3.504894e-019 -1.270000e-002
      vertex   4.512000e+000 -3.504894e-019 -1.270000e-002
    endloop
  endfacet
  facet normal 0.000000e+000 1.000000e+000 1.365924e-016
    outer loop
      vertex   4.522000e+000 2.540000e-002 1.270000e-002
      vertex   4.522000e+000 2.540000e-002 -1.270000e-002
      vertex   4.512000e+000 2.540000e-002 1.270000e-002
    endloop
  endfacet
  facet normal 0.000000e+000 1.000000e+000 1.365924e-016
    outer loop
      vertex   4.512000e+000 2.540000e-002 1.270000e-002
      vertex   4.522000e+000 2.540000e-002 -1.270000e-002
      vertex   4.512000e+000 2.540000e-002 -1.270000e-002
    endloop
  endfacet
  facet normal 1.734723e-016 6.829620e-017 1.000000e+000
    outer loop
      vertex   4.522000e+000 -3.318875e-018 1.270000e-002
      vertex   4.522000e+000 2.540000e-002 1.270000e-002
      vertex   4.512000e+000 -3.318875e-018 1.270000e-002
    endloop
  endfacet
  facet normal 0.000000e+000 1.365924e-016 1.000000e+000
    outer loop
      vertex   4.512000e+000 -3.318875e-018 1.270000e-002
      vertex   4.522000e+000 2.540000e-002 1.270000e-002
      vertex   4.512000e+000 2.540000e-002 1.270000e-002
    endloop
  endfacet
  facet normal 0.000000e+000 -1.000000e+000 -1.168656e-016
    outer loop
      vertex   4.522000e+000 -3.504894e-019 -1.270000e-002
      vertex   4.522000e+000 -3.318875e-018 1.270000e-002
      vertex   4.512000e+000 -3.504894e-019 -1.270000e-002
    endloop
  endfacet
  facet normal 5.676425e-032 -1.000000e+000 -1.168656e-016
    outer loop
      vertex   4.512000e+000 -3.504894e-019 -1.270000e-002
      vertex   4.522000e+000 -3.318875e-018 1.270000e-002
      vertex   4.512000e+000 -3.318875e-018 1.270000e-002
    endloop
  endfacet
  facet normal -1.000000e+000 0.000000e+000 -0.000000e+000
    outer loop
      vertex   4.512000e+000 -3.318875e-018 1.270000e-002
      vertex   4.512000e+000 2.540000e-002 1.270000e-002
      vertex   4.512000e+000 -3.504894e-019 -1.270000e-002
    endloop
  endfacet
  facet normal -1.000000e+000 0.000000e+000 0.000000e+000
    outer loop
      vertex   4.512000e+000 -3.504894e-019 -1.270000e-002
      vertex   4.512000e+000 2.540000e-002 1.270000e-002
      vertex   4.512000e+000 2.540000e-002 -1.270000e-002
    endloop
  endfacet
  facet normal 1.000000e+000 -0.000000e+000 -0.000000e+000
    outer loop
      vertex   4.522000e+000 -3.504894e-019 -1.270000e-002
      vertex   4.522000e+000 2.540000e-002 -1.270000e-002
      vertex   4.522000e+000 -3.318875e-018 1.270000e-002
    endloop
  endfacet
  facet normal 1.000000e+000 -0.000000e+000 -0.000000e+000
    outer loop
      vertex   4.522000e+000 -3.318875e-018 1.270000e-002
      vertex   4.522000e+000 2.540000e-002 -1.270000e-002
      vertex   4.522000e+000 2.540000e-002 1.270000e-002
    endloop
  endfacet
  facet normal 0.000000e+000 -2.731848e-016 -1.000000e+000
    outer loop
      vertex   4.674000e+000 2.540000e-002 -1.270000e-002
      vertex   4.674000e+000 -3.504894e-019 -1.270000e-002
      vertex   4.664000e+000 2.540000e-002 -1.270000e-002
    endloop
  endfacet
  facet normal -0.000000e+000 -2.731848e-016 -1.000000e+000
    outer loop
      vertex   4.664000e+000 2.540000e-002 -1.270000e-002
      vertex   4.674000e+000 -3.504894e-019 -1.270000e-002
      vertex   4.664000e+000 -3.504894e-019 -1.270000e-002
    endloop
  endfacet
  facet normal 0.000000e+000 1.000000e+000 1.365924e-016
    outer loop
      vertex   4.674000e+000 2.540000e-002 1.270000e-002
      vertex   4.674000e+000 2.540000e-002 -1.270000e-002
      vertex   4.664000e+000 2.540000e-002 1.270000e-002
    endloop
  endfacet
  facet normal 0.000000e+000 1.000000e+000 1.365924e-016
    outer loop
      vertex   4.664000e+000 2.540000e-002 1.270000e-002
      vertex   4.674000e+000 2.540000e-002 -1.270000e-002
      vertex   4.664000e+000 2.540000e-002 -1.270000e-002
    endloop
  endfacet
  facet normal 1.734723e-016 6.829620e-017 1.000000e+000
    outer loop
      vertex   4.674000e+000 -3.318875e-018 1.270000e-002
      vertex   4.674000e+000 2.540000e-002 1.270000e-002
      vertex   4.664000e+000 -3.318875e-018 1.270000e-002
    endloop
  endfacet
  facet normal 0.000000e+000 1.365924e-016 1.000000e+000
    outer loop
      vertex   4.664000e+000 -3.318875e-018 1.270000e-002
      vertex   4.674000e+000 2.540000e-002 1.270000e-002
      vertex   4.664000e+000 2.540000e-002 1.270000e-002
    endloop
  endfacet
  facet normal 0.000000e+000 -1.000000e+000 -1.168656e-016
    outer loop
      vertex   4.674000e+000 -3.504894e-019 -1.270000e-002
      vertex   4.674000e+000 -3.318875e-018 1.270000e-002
      vertex   4.664000e+000 -3.504894e-019 -1.270000e-002
    endloop
  endfacet
  facet normal 5.676425e-032 -1.000000e+000 -1.168656e-016
    outer loop
      vertex   4.664000e+000 -3.504894e-019 -1.270000e-002
      vertex   4.674000e+000 -3.318875e-018 1.270000e-002
      vertex   4.664000e+000 -3.318875e-018 1.270000e-002
    endloop
  endfacet
  facet normal -1.000000e+000 0.000000e+000 -0.000000e+000
    outer loop
      vertex   4.664000e+000 -3.318875e-018 1.270000e-002
      vertex   4.664000e+000 2.540000e-002 1.270000e-002
      vertex   4.664000e+000 -3.504894e-019 -1.270000e-002
    endloop
  endfacet
  facet normal -1.000000e+000 0.000000e+000 0.000000e+000
    outer loop
      vertex   4.664000e+000 -3.504894e-019 -1.270000e-002
      vertex   4.664000e+000 2.540000e-002 1.270000e-002
      vertex   4.664000e+000 2.540000e-002 -1.270000e-002
    endloop
  endfacet
  facet normal 1.000000e+000 -0.000000e+000 -0.000000e+000
    outer loop
      vertex   4.674000e+000 -3.504894e-019 -1.270000e-002
      vertex   4.674000e+000 2.540000e-002 -1.270000e-002
      vertex   4.674000e+000 -3.318875e-018 1.270000e-002
    endloop
  endfacet
  facet normal 1.000000e+000 -0.000000e+000 -0.000000e+000
    outer loop
      vertex   4.674000e+000 -3.318875e-018 1.270000e-002
      vertex   4.674000e+000 2.540000e-002 -1.270000e-002
      vertex   4.674000e+000 2.540000e-002 1.270000e-002
    endloop
  endfacet
  facet normal 0.000000e+000 -2.731848e-016 -1.000000e+000
    outer loop
      vertex   4.826000e+000 2.540000e-002 -1.270000e-002
      vertex   4.826000e+000 -3.504894e-019 -1.270000e-002
      vertex   4.816000e+000 2.540000e-002 -1.270000e-002
    endloop
  endfacet
  facet normal -0.000000e+000 -2.731848e-016 -1.000000e+000
    outer loop
      vertex   4.816000e+000 2.540000e-002 -1.270000e-002
      vertex   4.826000e+000 -3.504894e-019 -1.270000e-002
      vertex   4.816000e+000 -3.504894e-019 -1.270000e-002
    endloop
  endfacet
  facet normal 0.000000e+000 1.000000e+000 1.365924e-016
    outer loop
      vertex   4.826000e+000 2.540000e-002 1.270000e-002
      vertex   4.826000e+000 2.540000e-002 -1.270000e-002
      vertex   4.816000e+000 2.540000e-002 1.270000e-002
    endloop
  endfacet
  facet normal 0.000000e+000 1.000000e+000 1.365924e-016
    outer loop
      vertex   4.816000e+000 2.540000e-002 1.270000e-002
      vertex   4.826000e+000 2.540000e-002 -1.270000e-002
      vertex   4.816000e+000 2.540000e-002 -1.270000e-002
    endloop
  endfacet
  facet normal 1.734723e-016 6.829620e-017 1.000000e+000
    outer loop
      vertex   4.826000e+000 -3.318875e-018 1.270000e-002
      vertex   4.826000e+000 2.540000e-002 1.270000e-002
      vertex   4.816000e+000 -3.318875e-018 1.270000e-002
    endloop
  endfacet
  facet normal 0.000000e+000 1.365924e-016 1.000000e+000
    outer loop
      vertex   4.816000e+000 -3.318875e-018 1.270000e-002
      vertex   4.826000e+000 2.540000e-002 1.270000e-002
      vertex   4.816000e+000 2.540000e-002 1.270000e-002
    endloop
  endfacet
  facet normal 0.000000e+000 -1.000000e+000 -1.168656e-016
    outer loop
      vertex   4.826000e+000 -3.504894e-019 -1.270000e-002
      vertex   4.826000e+000 -3.318875e-018 1.270000e-002
      vertex   4.816000e+000 -3.504894e-019 -1.270000e-002
    endloop
  endfacet
  facet normal 5.676425e-032 -1.000000e+000 -1.168656e-016
    outer loop
      vertex   4.816000e+000 -3.504894e-019 -1.270000e-002
      vertex   4.826000e+000 -3.318875e-018 1.270000e-002
      vertex   4.816000e+000 -3.318875e-018 1.270000e-002
    endloop
  endfacet
  facet normal -1.000000e+000 0.000000e+000 -0.000000e+000
    outer loop
      vertex   4.816000e+000 -3.318875e-018 1.270000e-002
      vertex   4.816000e+000 2.540000e-002 1.270000e-002
      vertex   4.816000e+000 -3.504894e-019 -1.270000e-002
    endloop
  endfacet
  facet normal -1.000000e+000 0.000000e+000 0.000000e+000
    outer loop
      vertex   4.816000e+000 -3.504894e-019 -1.270000e-002
      vertex   4.816000e+000 2.540000e-002 1.270000e-002
      vertex   4.816000e+000 2.540000e-002 -1.270000e-002
    endloop
  endfacet
  facet normal 1.000000e+000 -0.000000e+000 -0.000000e+000
    outer loop
      vertex   4.826000e+000 -3.504894e-019 -1.270000e-002
      vertex   4.826000e+000 2.540000e-002 -1.270000e-002
      vertex   4.826000e+000 -3.318875e-018 1.270000e-002
    endloop
  endfacet
  facet normal 1.000000e+000 -0.000000e+000 -0.000000e+000
    outer loop
      vertex   4.826000e+000 -3.318875e-018 1.270000e-002
      vertex   4.826000e+000 2.540000e-002 -1.270000e-002
      vertex   4.826000e+000 2.540000e-002 1.270000e-002
    endloop
  endfacet
  facet normal 0.000000e+000 -2.731848e-016 -1.000000e+000
    outer loop
      vertex   4.978000e+000 2.540000e-002 -1.270000e-002
      vertex   4.978000e+000 -3.504894e-019 -1.270000e-002
      vertex   4.968000e+000 2.540000e-002 -1.270000e-002
    endloop
  endfacet
  facet normal -0.000000e+000 -2.731848e-016 -1.000000e+000
    outer loop
      vertex   4.968000e+000 2.540000e-002 -1.270000e-002
      vertex   4.978000e+000 -3.504894e-019 -1.270000e-002
      vertex   4.968000e+000 -3.504894e-019 -1.270000e-002
    endloop
  endfacet
  facet normal 0.000000e+000 1.000000e+000 1.365924e-016
    outer loop
      vertex   4.978000e+000 2.540000e-002 1.270000e-002
      vertex   4.978000e+000 2.540000e-002 -1.270000e-002
      vertex   4.968000e+000 2.540000e-002 1.270000e-002
    endloop
  endfacet
  facet normal 0.000000e+000 1.000000e+000 1.365924e-016
    outer loop
      vertex   4.968000e+000 2.540000e-002 1.270000e-002
      vertex   4.978000e+000 2.540000e-002 -1.270000e-002
      vertex   4.968000e+000 2.540000e-002 -1.270000e-002
    endloop
  endfacet
  facet normal 1.734723e-016 6.829620e-017 1.000000e+000
    outer loop
      vertex   4.978000e+000 -3.318875e-018 1.270000e-002
      vertex   4.978000e+000 2.540000e-002 1.270000e-002
      vertex   4.968000e+000 -3.318875e-018 1.270000e-002
    endloop
  endfacet
  facet normal 0.000000e+000 1.365924e-016 1.000000e+000
    outer loop
      vertex   4.968000e+000 -3.318875e-018 1.270000e-002
      vertex   4.978000e+000 2.540000e-002 1.270000e-002
      vertex   4.968000e+000 2.540000e-002 1.270000e-002
    endloop
  endfacet
  facet normal 0.000000e+000 -1.000000e+000 -1.168656e-016
    outer loop
      vertex   4.978000e+000 -3.504894e-019 -1.270000e-002
      vertex   4.978000e+000 -3.318875e-018 1.270000e-002
      vertex   4.968000e+000 -3.504894e-019 -1.270000e-002
    endloop
  endfacet
  facet normal 5.676425e-032 -1.000000e+000 -1.168656e-016
    outer loop
      vertex   4.968000e+000 -3.504894e-019 -1.270000e-002
      vertex   4.978000e+000 -3.318875e-018 1.270000e-002
      vertex   4.968000e+000 -3.318875e-018 1.270000e-002
    endloop
  endfacet
  facet normal -1.000000e+000 0.000000e+000 -0.000000e+000
    outer loop
      vertex   4.968000e+000 -3.318875e-018 1.270000e-002
      vertex   4.968000e+000 2.540000e-002 1.270000e-002
      vertex   4.968000e+000 -3.504894e-019 -1.270000e-002
    endloop
  endfacet
  facet normal -1.000000e+000 0.000000e+000 0.000000e+000
    outer loop
      vertex   4.968000e+000 -3.504894e-019 -1.270000e-002
      vertex   4.968000e+000 2.540000e-002 1.270000e-002
      vertex   4.968000e+000 2.540000e-002 -1.270000e-002
    endloop
  endfacet
  facet normal 1.000000e+000 -0.000000e+000 -0.000000e+000
    outer loop
      vertex   4.978000e+000 -3.504894e-019 -1.270000e-002
      vertex   4.978000e+000 2.540000e-002 -1.270000e-002
      vertex   4.978000e+000 -3.318875e-018 1.270000e-002
    endloop
  endfacet
  facet normal 1.000000e+000 -0.000000e+000 -0.000000e+000
    outer loop
      vertex   4.978000e+000 -3.318875e-018 1.270000e-002
      vertex   4.978000e+000 2.540000e-002 -1.270000e-002
      vertex   4.978000e+000 2.540000e-002 1.270000e-002
    endloop
  endfacet
  facet normal 0.000000e+000 -2.731848e-016 -1.000000e+000
    outer loop
      vertex   5.130000e+000 2.540000e-002 -1.270000e-002
      vertex   5.130000e+000 -3.504894e-019 -1.270000e-002
      vertex   5.120000e+000 2.540000e-002 -1.270000e-002
    endloop
  endfacet
  facet normal -0.000000e+000 -2.731848e-016 -1.000000e+000
    outer loop
      vertex   5.120000e+000 2.540000e-002 -1.270000e-002
      vertex   5.130000e+000 -3.504894e-019 -1.270000e-002
      vertex   5.120000e+000 -3.504894e-019 -1.270000e-002
    endloop
  endfacet
  facet normal 0.000000e+000 1.000000e+000 1.365924e-016
    outer loop
      vertex   5.130000e+000 2.540000e-002 1.270000e-002
      vertex   5.130000e+000 2.540000e-002 -1.270000e-002
      vertex   5.120000e+000 2.540000e-002 1.270000e-002
    endloop
  endfacet
  facet normal 0.000000e+000 1.000000e+000 1.365924e-016
    outer loop
      vertex   5.120000e+000 2.540000e-002 1.270000e-002
      vertex   5.130000e+000 2.540000e-002 -1.270000e-002
      vertex   5.120000e+000 2.540000e-002 -1.270000e-002
    endloop
  endfacet
  facet normal 1.734723e-016 6.829620e-017 1.000000e+000
    outer loop
      vertex   5.130000e+000 -3.318875e-018 1.270000e-002
      vertex   5.130000e+000 2.540000e-002 1.270000e-002
      vertex   5.120000e+000 -3.318875e-018 1.270000e-002
    endloop
  endfacet
  facet normal 0.000000e+000 1.365924e-016 1.000000e+000
    outer loop
      vertex   5.120000e+000 -3.318875e-018 1.270000e-002
      vertex   5.130000e+000 2.540000e-002 1.270000e-002
      vertex   5.120000e+000 2.540000e-002 1.270000e-002
    endloop
  endfacet
  facet normal 0.000000e+000 -1.000000e+000 -1.168656e-016
    outer loop
      vertex   5.130000e+000 -3.504894e-019 -1.270000e-002
      vertex   5.130000e+000 -3.318875e-018 1.270000e-002
      vertex   5.120000e+000 -3.504894e-019 -1.270000e-002
    endloop
  endfacet
  facet normal 5.676425e-032 -1.000000e+000 -1.168656e-016
    outer loop
      vertex   5.120000e+000 -3.504894e-019 -1.270000e-002
      vertex   5.130000e+000 -3.318875e-018 1.270000e-002
      vertex   5.120000e+000 -3.318875e-018 1.270000e-002
    endloop
  endfacet
  facet normal -1.000000e+000 0.000000e+000 -0.000000e+000
    outer loop
      vertex   5.120000e+000 -3.318875e-018 1.270000e-002
      vertex   5.120000e+000 2.540000e-002 1.270000e-002
      vertex   5.120000e+000 -3.504894e-019 -1.270000e-002
    endloop
  endfacet
  facet normal -1.000000e+000 0.000000e+000 0.000000e+000
    outer loop
      vertex   5.120000e+000 -3.504894e-019 -1.270000e-002
      vertex   5.120000e+000 2.540000e-002 1.270000e-002
      vertex   5.120000e+000 2.540000e-002 -1.270000e-002
    endloop
  endfacet
  facet normal 1.000000e+000 -0.000000e+000 -0.000000e+000
    outer loop
      vertex   5.130000e+000 -3.504894e-019 -1.270000e-002
      vertex   5.130000e+000 2.540000e-002 -1.270000e-002
      vertex   5.130000e+000 -3.318875e-018 1.270000e-002
    endloop
  endfacet
  facet normal 1.000000e+000 -0.000000e+000 -0.000000e+000
    outer loop
      vertex   5.130000e+000 -3.318875e-018 1.270000e-002
      vertex   5.130000e+000 2.540000e-002 -1.270000e-002
      vertex   5.130000e+000 2.540000e-002 1.270000e-002
    endloop
  endfacet
  facet normal 0.000000e+000 -2.731848e-016 -1.000000e+000
    outer loop
      vertex   5.282000e+000 2.540000e-002 -1.270000e-002
      vertex   5.282000e+000 -3.504894e-019 -1.270000e-002
      vertex   5.272000e+000 2.540000e-002 -1.270000e-002
    endloop
  endfacet
  facet normal -0.000000e+000 -2.731848e-016 -1.000000e+000
    outer loop
      vertex   5.272000e+000 2.540000e-002 -1.270000e-002
      vertex   5.282000e+000 -3.504894e-019 -1.270000e-002
      vertex   5.272000e+000 -3.504894e-019 -1.270000e-002
    endloop
  endfacet
  facet normal 0.000000e+000 1.000000e+000 1.365924e-016
    outer loop
      vertex   5.282000e+000 2.540000e-002 1.270000e-002
      vertex   5.282000e+000 2.540000e-002 -1.270000e-002
      vertex   5.272000e+000 2.540000e-002 1.270000e-002
    endloop
  endfacet
  facet normal 0.000000e+000 1.000000e+000 1.365924e-016
    outer loop
      vertex   5.272000e+000 2.540000e-002 1.270000e-002
      vertex   5.282000e+000 2.540000e-002 -1.270000e-002
      vertex   5.272000e+000 2.540000e-002 -1.270000e-002
    endloop
  endfacet
  facet normal 1.734723e-016 6.829620e-017 1.000000e+000
    outer loop
      vertex   5.282000e+000 -3.318875e-018 1.270000e-002
      vertex   5.282000e+000 2.540000e-002 1.270000e-002
      vertex   5.272000e+000 -3.318875e-018 1.270000e-002
    endloop
  endfacet
  facet normal 0.000000e+000 1.365924e-016 1.000000e+000
    outer loop
      vertex   5.272000e+000 -3.318875e-018 1.270000e-002
      vertex   5.282000e+000 2.540000e-002 1.270000e-002
      vertex   5.272000e+000 2.540000e-002 1.270000e-002
    endloop
  endfacet
  facet normal 0.000000e+000 -1.000000e+000 -1.168656e-016
    outer loop
      vertex   5.282000e+000 -3.504894e-019 -1.270000e-002
      vertex   5.282000e+000 -3.318875e-018 1.270000e-002
      vertex   5.272000e+000 -3.504894e-019 -1.270000e-002
    endloop
  endfacet
  facet normal 5.676425e-032 -1.000000e+000 -1.168656e-016
    outer loop
      vertex   5.272000e+000 -3.504894e-019 -1.270000e-002
      vertex   5.282000e+000 -3.318875e-018 1.270000e-002
      vertex   5.272000e+000 -3.318875e-018 1.270000e-002
    endloop
  endfacet
  facet normal -1.000000e+000 0.000000e+000 -0.000000e+000
    outer loop
      vertex   5.272000e+000 -3.318875e-018 1.270000e-002
      vertex   5.272000e+000 2.540000e-002 1.270000e-002
      vertex   5.272000e+000 -3.504894e-019 -1.270000e-002
    endloop
  endfacet
  facet normal -1.000000e+000 0.000000e+000 0.000000e+000
    outer loop
      vertex   5.272000e+000 -3.504894e-019 -1.270000e-002
      vertex   5.272000e+000 2.540000e-002 1.270000e-002
      vertex   5.272000e+000 2.540000e-002 -1.270000e-002
    endloop
  endfacet
  facet normal 1.000000e+000 -0.000000e+000 -0.000000e+000
    outer loop
      vertex   5.282000e+000 -3.504894e-019 -1.270000e-002
      vertex   5.282000e+000 2.540000e-002 -1.270000e-002
      vertex   5.282000e+000 -3.318875e-018 1.270000e-002
    endloop
  endfacet
  facet normal 1.000000e+000 -0.000000e+000 -0.000000e+000
    outer loop
      vertex   5.282000e+000 -3.318875e-018 1.270000e-002
      vertex   5.282000e+000 2.540000e-002 -1.270000e-002
      vertex   5.282000e+000 2.540000e-002 1.270000e-002
    endloop
  endfacet
endsolid
