solid ascii
  facet normal 0.000000e+000 -2.739037e-016 -1.000000e+000
    outer loop
      vertex   4.066000e+000 3.800000e-002 -1.900000e-002
      vertex   4.066000e+000 5.423419e-033 -1.900000e-002
      vertex   4.056000e+000 3.800000e-002 -1.900000e-002
    endloop
  endfacet
  facet normal -0.000000e+000 -2.739037e-016 -1.000000e+000
    outer loop
      vertex   4.056000e+000 3.800000e-002 -1.900000e-002
      vertex   4.066000e+000 5.423419e-033 -1.900000e-002
      vertex   4.056000e+000 5.423419e-033 -1.900000e-002
    endloop
  endfacet
  facet normal 0.000000e+000 1.000000e+000 0.000000e+000
    outer loop
      vertex   4.066000e+000 3.800000e-002 1.900000e-002
      vertex   4.066000e+000 3.800000e-002 -1.900000e-002
      vertex   4.056000e+000 3.800000e-002 1.900000e-002
    endloop
  endfacet
  facet normal 0.000000e+000 1.000000e+000 0.000000e+000
    outer loop
      vertex   4.056000e+000 3.800000e-002 1.900000e-002
      vertex   4.066000e+000 3.800000e-002 -1.900000e-002
      vertex   4.056000e+000 3.800000e-002 -1.900000e-002
    endloop
  endfacet
  facet normal 0.000000e+000 1.826025e-016 1.000000e+000
    outer loop
      vertex   4.066000e+000 -4.437343e-033 1.900000e-002
      vertex   4.066000e+000 3.800000e-002 1.900000e-002
      vertex   4.056000e+000 -4.437343e-033 1.900000e-002
    endloop
  endfacet
  facet normal 0.000000e+000 1.826025e-016 1.000000e+000
    outer loop
      vertex   4.056000e+000 -4.437343e-033 1.900000e-002
      vertex   4.066000e+000 3.800000e-002 1.900000e-002
      vertex   4.056000e+000 3.800000e-002 1.900000e-002
    endloop
  endfacet
  facet normal 0.000000e+000 -1.000000e+000 -2.594937e-031
    outer loop
      vertex   4.066000e+000 5.423419e-033 -1.900000e-002
      vertex   4.066000e+000 -4.437343e-033 1.900000e-002
      vertex   4.056000e+000 5.423419e-033 -1.900000e-002
    endloop
  endfacet
  facet normal -0.000000e+000 -1.000000e+000 -2.594937e-031
    outer loop
      vertex   4.056000e+000 5.423419e-033 -1.900000e-002
      vertex   4.066000e+000 -4.437343e-033 1.900000e-002
      vertex   4.056000e+000 -4.437343e-033 1.900000e-002
    endloop
  endfacet
  facet normal -1.000000e+000 0.000000e+000 -0.000000e+000
    outer loop
      vertex   4.056000e+000 -4.437343e-033 1.900000e-002
      vertex   4.056000e+000 3.800000e-002 1.900000e-002
      vertex   4.056000e+000 5.423419e-033 -1.900000e-002
    endloop
  endfacet
  facet normal -1.000000e+000 0.000000e+000 0.000000e+000
    outer loop
      vertex   4.056000e+000 5.423419e-033 -1.900000e-002
      vertex   4.056000e+000 3.800000e-002 1.900000e-002
      vertex   4.056000e+000 3.800000e-002 -1.900000e-002
    endloop
  endfacet
  facet normal 1.000000e+000 -0.000000e+000 -0.000000e+000
    outer loop
      vertex   4.066000e+000 5.423419e-033 -1.900000e-002
      vertex   4.066000e+000 3.800000e-002 -1.900000e-002
      vertex   4.066000e+000 -4.437343e-033 1.900000e-002
    endloop
  endfacet
  facet normal 1.000000e+000 -0.000000e+000 0.000000e+000
    outer loop
      vertex   4.066000e+000 -4.437343e-033 1.900000e-002
      vertex   4.066000e+000 3.800000e-002 -1.900000e-002
      vertex   4.066000e+000 3.800000e-002 1.900000e-002
    endloop
  endfacet
  facet normal 8.559491e-016 5.000000e-001 -8.660254e-001
    outer loop
      vertex   3.916000e+000 5.942374e-002 -6.095448e-002
      vertex   3.916000e+000 2.651477e-002 -7.995448e-002
      vertex   3.906000e+000 5.942374e-002 -6.095448e-002
    endloop
  endfacet
  facet normal -5.204170e-016 5.000000e-001 -8.660254e-001
    outer loop
      vertex   3.906000e+000 5.942374e-002 -6.095448e-002
      vertex   3.916000e+000 2.651477e-002 -7.995448e-002
      vertex   3.906000e+000 2.651477e-002 -7.995448e-002
    endloop
  endfacet
  facet normal -5.706327e-016 8.660254e-001 5.000000e-001
    outer loop
      vertex   3.916000e+000 4.042374e-002 -2.804552e-002
      vertex   3.916000e+000 5.942374e-002 -6.095448e-002
      vertex   3.906000e+000 4.042374e-002 -2.804552e-002
    endloop
  endfacet
  facet normal -1.294815e-015 8.660254e-001 5.000000e-001
    outer loop
      vertex   3.906000e+000 4.042374e-002 -2.804552e-002
      vertex   3.916000e+000 5.942374e-002 -6.095448e-002
      vertex   3.906000e+000 5.942374e-002 -6.095448e-002
    endloop
  endfacet
  facet normal 2.853164e-016 -5.000000e-001 8.660254e-001
    outer loop
      vertex   3.916000e+000 7.514774e-003 -4.704552e-002
      vertex   3.916000e+000 4.042374e-002 -2.804552e-002
      vertex   3.906000e+000 7.514774e-003 -4.704552e-002
    endloop
  endfacet
  facet normal 3.469447e-016 -5.000000e-001 8.660254e-001
    outer loop
      vertex   3.906000e+000 7.514774e-003 -4.704552e-002
      vertex   3.916000e+000 4.042374e-002 -2.804552e-002
      vertex   3.906000e+000 4.042374e-002 -2.804552e-002
    endloop
  endfacet
  facet normal 8.559491e-016 -8.660254e-001 -5.000000e-001
    outer loop
      vertex   3.916000e+000 2.651477e-002 -7.995448e-002
      vertex   3.916000e+000 7.514774e-003 -4.704552e-002
      vertex   3.906000e+000 2.651477e-002 -7.995448e-002
    endloop
  endfacet
  facet normal 7.511573e-016 -8.660254e-001 -5.000000e-001
    outer loop
      vertex   3.906000e+000 2.651477e-002 -7.995448e-002
      vertex   3.916000e+000 7.514774e-003 -4.704552e-002
      vertex   3.906000e+000 7.514774e-003 -4.704552e-002
    endloop
  endfacet
  facet normal -1.000000e+000 0.000000e+000 -0.000000e+000
    outer loop
      vertex   3.906000e+000 7.514774e-003 -4.704552e-002
      vertex   3.906000e+000 4.042374e-002 -2.804552e-002
      vertex   3.906000e+000 2.651477e-002 -7.995448e-002
    endloop
  endfacet
  facet normal -1.000000e+000 0.000000e+000 0.000000e+000
    outer loop
      vertex   3.906000e+000 2.651477e-002 -7.995448e-002
      vertex   3.906000e+000 4.042374e-002 -2.804552e-002
      vertex   3.906000e+000 5.942374e-002 -6.095448e-002
    endloop
  endfacet
  facet normal 1.000000e+000 0.000000e+000 -0.000000e+000
    outer loop
      vertex   3.916000e+000 2.651477e-002 -7.995448e-002
      vertex   3.916000e+000 5.942374e-002 -6.095448e-002
      vertex   3.916000e+000 7.514774e-003 -4.704552e-002
    endloop
  endfacet
  facet normal 1.000000e+000 -0.000000e+000 -0.000000e+000
    outer loop
      vertex   3.916000e+000 7.514774e-003 -4.704552e-002
      vertex   3.916000e+000 5.942374e-002 -6.095448e-002
      vertex   3.916000e+000 4.042374e-002 -2.804552e-002
    endloop
  endfacet
  facet normal -2.853164e-016 -5.000000e-001 -8.660254e-001
    outer loop
      vertex   3.916000e+000 4.042374e-002 2.804552e-002
      vertex   3.916000e+000 7.514774e-003 4.704552e-002
      vertex   3.906000e+000 4.042374e-002 2.804552e-002
    endloop
  endfacet
  facet normal -4.770490e-016 -5.000000e-001 -8.660254e-001
    outer loop
      vertex   3.906000e+000 4.042374e-002 2.804552e-002
      vertex   3.916000e+000 7.514774e-003 4.704552e-002
      vertex   3.906000e+000 7.514774e-003 4.704552e-002
    endloop
  endfacet
  facet normal 5.706327e-016 8.660254e-001 -5.000000e-001
    outer loop
      vertex   3.916000e+000 5.942374e-002 6.095448e-002
      vertex   3.916000e+000 4.042374e-002 2.804552e-002
      vertex   3.906000e+000 5.942374e-002 6.095448e-002
    endloop
  endfacet
  facet normal 6.009258e-016 8.660254e-001 -5.000000e-001
    outer loop
      vertex   3.906000e+000 5.942374e-002 6.095448e-002
      vertex   3.916000e+000 4.042374e-002 2.804552e-002
      vertex   3.906000e+000 4.042374e-002 2.804552e-002
    endloop
  endfacet
  facet normal 8.559491e-016 5.000000e-001 8.660254e-001
    outer loop
      vertex   3.916000e+000 2.651477e-002 7.995448e-002
      vertex   3.916000e+000 5.942374e-002 6.095448e-002
      vertex   3.906000e+000 2.651477e-002 7.995448e-002
    endloop
  endfacet
  facet normal -1.201852e-015 5.000000e-001 8.660254e-001
    outer loop
      vertex   3.906000e+000 2.651477e-002 7.995448e-002
      vertex   3.916000e+000 5.942374e-002 6.095448e-002
      vertex   3.906000e+000 5.942374e-002 6.095448e-002
    endloop
  endfacet
  facet normal -5.706327e-016 -8.660254e-001 5.000000e-001
    outer loop
      vertex   3.916000e+000 7.514774e-003 4.704552e-002
      vertex   3.916000e+000 2.651477e-002 7.995448e-002
      vertex   3.906000e+000 7.514774e-003 4.704552e-002
    endloop
  endfacet
  facet normal -6.009258e-016 -8.660254e-001 5.000000e-001
    outer loop
      vertex   3.906000e+000 7.514774e-003 4.704552e-002
      vertex   3.916000e+000 2.651477e-002 7.995448e-002
      vertex   3.906000e+000 2.651477e-002 7.995448e-002
    endloop
  endfacet
  facet normal -1.000000e+000 0.000000e+000 -0.000000e+000
    outer loop
      vertex   3.906000e+000 2.651477e-002 7.995448e-002
      vertex   3.906000e+000 5.942374e-002 6.095448e-002
      vertex   3.906000e+000 7.514774e-003 4.704552e-002
    endloop
  endfacet
  facet normal -1.000000e+000 0.000000e+000 -0.000000e+000
    outer loop
      vertex   3.906000e+000 7.514774e-003 4.704552e-002
      vertex   3.906000e+000 5.942374e-002 6.095448e-002
      vertex   3.906000e+000 4.042374e-002 2.804552e-002
    endloop
  endfacet
  facet normal 1.000000e+000 -0.000000e+000 -0.000000e+000
    outer loop
      vertex   3.916000e+000 7.514774e-003 4.704552e-002
      vertex   3.916000e+000 4.042374e-002 2.804552e-002
      vertex   3.916000e+000 2.651477e-002 7.995448e-002
    endloop
  endfacet
  facet normal 1.000000e+000 -0.000000e+000 0.000000e+000
    outer loop
      vertex   3.916000e+000 2.651477e-002 7.995448e-002
      vertex   3.916000e+000 4.042374e-002 2.804552e-002
      vertex   3.916000e+000 5.942374e-002 6.095448e-002
    endloop
  endfacet
  facet normal 8.559491e-016 5.000000e-001 -8.660254e-001
    outer loop
      vertex   4.220000e+000 5.942374e-002 -6.095448e-002
      vertex   4.220000e+000 2.651477e-002 -7.995448e-002
      vertex   4.210000e+000 5.942374e-002 -6.095448e-002
    endloop
  endfacet
  facet normal -5.204170e-016 5.000000e-001 -8.660254e-001
    outer loop
      vertex   4.210000e+000 5.942374e-002 -6.095448e-002
      vertex   4.220000e+000 2.651477e-002 -7.995448e-002
      vertex   4.210000e+000 2.651477e-002 -7.995448e-002
    endloop
  endfacet
  facet normal -5.706327e-016 8.660254e-001 5.000000e-001
    outer loop
      vertex   4.220000e+000 4.042374e-002 -2.804552e-002
      vertex   4.220000e+000 5.942374e-002 -6.095448e-002
      vertex   4.210000e+000 4.042374e-002 -2.804552e-002
    endloop
  endfacet
  facet normal -1.294815e-015 8.660254e-001 5.000000e-001
    outer loop
      vertex   4.210000e+000 4.042374e-002 -2.804552e-002
      vertex   4.220000e+000 5.942374e-002 -6.095448e-002
      vertex   4.210000e+000 5.942374e-002 -6.095448e-002
    endloop
  endfacet
  facet normal 2.853164e-016 -5.000000e-001 8.660254e-001
    outer loop
      vertex   4.220000e+000 7.514774e-003 -4.704552e-002
      vertex   4.220000e+000 4.042374e-002 -2.804552e-002
      vertex   4.210000e+000 7.514774e-003 -4.704552e-002
    endloop
  endfacet
  facet normal 3.469447e-016 -5.000000e-001 8.660254e-001
    outer loop
      vertex   4.210000e+000 7.514774e-003 -4.704552e-002
      vertex   4.220000e+000 4.042374e-002 -2.804552e-002
      vertex   4.210000e+000 4.042374e-002 -2.804552e-002
    endloop
  endfacet
  facet normal 8.559491e-016 -8.660254e-001 -5.000000e-001
    outer loop
      vertex   4.220000e+000 2.651477e-002 -7.995448e-002
      vertex   4.220000e+000 7.514774e-003 -4.704552e-002
      vertex   4.210000e+000 2.651477e-002 -7.995448e-002
    endloop
  endfacet
  facet normal 7.511573e-016 -8.660254e-001 -5.000000e-001
    outer loop
      vertex   4.210000e+000 2.651477e-002 -7.995448e-002
      vertex   4.220000e+000 7.514774e-003 -4.704552e-002
      vertex   4.210000e+000 7.514774e-003 -4.704552e-002
    endloop
  endfacet
  facet normal -1.000000e+000 0.000000e+000 -0.000000e+000
    outer loop
      vertex   4.210000e+000 7.514774e-003 -4.704552e-002
      vertex   4.210000e+000 4.042374e-002 -2.804552e-002
      vertex   4.210000e+000 2.651477e-002 -7.995448e-002
    endloop
  endfacet
  facet normal -1.000000e+000 0.000000e+000 0.000000e+000
    outer loop
      vertex   4.210000e+000 2.651477e-002 -7.995448e-002
      vertex   4.210000e+000 4.042374e-002 -2.804552e-002
      vertex   4.210000e+000 5.942374e-002 -6.095448e-002
    endloop
  endfacet
  facet normal 1.000000e+000 0.000000e+000 -0.000000e+000
    outer loop
      vertex   4.220000e+000 2.651477e-002 -7.995448e-002
      vertex   4.220000e+000 5.942374e-002 -6.095448e-002
      vertex   4.220000e+000 7.514774e-003 -4.704552e-002
    endloop
  endfacet
  facet normal 1.000000e+000 -0.000000e+000 -0.000000e+000
    outer loop
      vertex   4.220000e+000 7.514774e-003 -4.704552e-002
      vertex   4.220000e+000 5.942374e-002 -6.095448e-002
      vertex   4.220000e+000 4.042374e-002 -2.804552e-002
    endloop
  endfacet
  facet normal -2.853164e-016 -5.000000e-001 -8.660254e-001
    outer loop
      vertex   4.220000e+000 4.042374e-002 2.804552e-002
      vertex   4.220000e+000 7.514774e-003 4.704552e-002
      vertex   4.210000e+000 4.042374e-002 2.804552e-002
    endloop
  endfacet
  facet normal -4.770490e-016 -5.000000e-001 -8.660254e-001
    outer loop
      vertex   4.210000e+000 4.042374e-002 2.804552e-002
      vertex   4.220000e+000 7.514774e-003 4.704552e-002
      vertex   4.210000e+000 7.514774e-003 4.704552e-002
    endloop
  endfacet
  facet normal 5.706327e-016 8.660254e-001 -5.000000e-001
    outer loop
      vertex   4.220000e+000 5.942374e-002 6.095448e-002
      vertex   4.220000e+000 4.042374e-002 2.804552e-002
      vertex   4.210000e+000 5.942374e-002 6.095448e-002
    endloop
  endfacet
  facet normal 6.009258e-016 8.660254e-001 -5.000000e-001
    outer loop
      vertex   4.210000e+000 5.942374e-002 6.095448e-002
      vertex   4.220000e+000 4.042374e-002 2.804552e-002
      vertex   4.210000e+000 4.042374e-002 2.804552e-002
    endloop
  endfacet
  facet normal 8.559491e-016 5.000000e-001 8.660254e-001
    outer loop
      vertex   4.220000e+000 2.651477e-002 7.995448e-002
      vertex   4.220000e+000 5.942374e-002 6.095448e-002
      vertex   4.210000e+000 2.651477e-002 7.995448e-002
    endloop
  endfacet
  facet normal -1.201852e-015 5.000000e-001 8.660254e-001
    outer loop
      vertex   4.210000e+000 2.651477e-002 7.995448e-002
      vertex   4.220000e+000 5.942374e-002 6.095448e-002
      vertex   4.210000e+000 5.942374e-002 6.095448e-002
    endloop
  endfacet
  facet normal -5.706327e-016 -8.660254e-001 5.000000e-001
    outer loop
      vertex   4.220000e+000 7.514774e-003 4.704552e-002
      vertex   4.220000e+000 2.651477e-002 7.995448e-002
      vertex   4.210000e+000 7.514774e-003 4.704552e-002
    endloop
  endfacet
  facet normal -6.009258e-016 -8.660254e-001 5.000000e-001
    outer loop
      vertex   4.210000e+000 7.514774e-003 4.704552e-002
      vertex   4.220000e+000 2.651477e-002 7.995448e-002
      vertex   4.210000e+000 2.651477e-002 7.995448e-002
    endloop
  endfacet
  facet normal -1.000000e+000 0.000000e+000 -0.000000e+000
    outer loop
      vertex   4.210000e+000 2.651477e-002 7.995448e-002
      vertex   4.210000e+000 5.942374e-002 6.095448e-002
      vertex   4.210000e+000 7.514774e-003 4.704552e-002
    endloop
  endfacet
  facet normal -1.000000e+000 0.000000e+000 -0.000000e+000
    outer loop
      vertex   4.210000e+000 7.514774e-003 4.704552e-002
      vertex   4.210000e+000 5.942374e-002 6.095448e-002
      vertex   4.210000e+000 4.042374e-002 2.804552e-002
    endloop
  endfacet
  facet normal 1.000000e+000 -0.000000e+000 -0.000000e+000
    outer loop
      vertex   4.220000e+000 7.514774e-003 4.704552e-002
      vertex   4.220000e+000 4.042374e-002 2.804552e-002
      vertex   4.220000e+000 2.651477e-002 7.995448e-002
    endloop
  endfacet
  facet normal 1.000000e+000 -0.000000e+000 0.000000e+000
    outer loop
      vertex   4.220000e+000 2.651477e-002 7.995448e-002
      vertex   4.220000e+000 4.042374e-002 2.804552e-002
      vertex   4.220000e+000 5.942374e-002 6.095448e-002
    endloop
  endfacet
  facet normal 0.000000e+000 -2.739037e-016 -1.000000e+000
    outer loop
      vertex   4.370000e+000 3.800000e-002 -1.900000e-002
      vertex   4.370000e+000 5.423419e-033 -1.900000e-002
      vertex   4.360000e+000 3.800000e-002 -1.900000e-002
    endloop
  endfacet
  facet normal -0.000000e+000 -2.739037e-016 -1.000000e+000
    outer loop
      vertex   4.360000e+000 3.800000e-002 -1.900000e-002
      vertex   4.370000e+000 5.423419e-033 -1.900000e-002
      vertex   4.360000e+000 5.423419e-033 -1.900000e-002
    endloop
  endfacet
  facet normal 0.000000e+000 1.000000e+000 0.000000e+000
    outer loop
      vertex   4.370000e+000 3.800000e-002 1.900000e-002
      vertex   4.370000e+000 3.800000e-002 -1.900000e-002
      vertex   4.360000e+000 3.800000e-002 1.900000e-002
    endloop
  endfacet
  facet normal 0.000000e+000 1.000000e+000 0.000000e+000
    outer loop
      vertex   4.360000e+000 3.800000e-002 1.900000e-002
      vertex   4.370000e+000 3.800000e-002 -1.900000e-002
      vertex   4.360000e+000 3.800000e-002 -1.900000e-002
    endloop
  endfacet
  facet normal 0.000000e+000 1.826025e-016 1.000000e+000
    outer loop
      vertex   4.370000e+000 -4.437343e-033 1.900000e-002
      vertex   4.370000e+000 3.800000e-002 1.900000e-002
      vertex   4.360000e+000 -4.437343e-033 1.900000e-002
    endloop
  endfacet
  facet normal 0.000000e+000 1.826025e-016 1.000000e+000
    outer loop
      vertex   4.360000e+000 -4.437343e-033 1.900000e-002
      vertex   4.370000e+000 3.800000e-002 1.900000e-002
      vertex   4.360000e+000 3.800000e-002 1.900000e-002
    endloop
  endfacet
  facet normal 0.000000e+000 -1.000000e+000 -2.594937e-031
    outer loop
      vertex   4.370000e+000 5.423419e-033 -1.900000e-002
      vertex   4.370000e+000 -4.437343e-033 1.900000e-002
      vertex   4.360000e+000 5.423419e-033 -1.900000e-002
    endloop
  endfacet
  facet normal -0.000000e+000 -1.000000e+000 -2.594937e-031
    outer loop
      vertex   4.360000e+000 5.423419e-033 -1.900000e-002
      vertex   4.370000e+000 -4.437343e-033 1.900000e-002
      vertex   4.360000e+000 -4.437343e-033 1.900000e-002
    endloop
  endfacet
  facet normal -1.000000e+000 0.000000e+000 -0.000000e+000
    outer loop
      vertex   4.360000e+000 -4.437343e-033 1.900000e-002
      vertex   4.360000e+000 3.800000e-002 1.900000e-002
      vertex   4.360000e+000 5.423419e-033 -1.900000e-002
    endloop
  endfacet
  facet normal -1.000000e+000 0.000000e+000 0.000000e+000
    outer loop
      vertex   4.360000e+000 5.423419e-033 -1.900000e-002
      vertex   4.360000e+000 3.800000e-002 1.900000e-002
      vertex   4.360000e+000 3.800000e-002 -1.900000e-002
    endloop
  endfacet
  facet normal 1.000000e+000 -0.000000e+000 -0.000000e+000
    outer loop
      vertex   4.370000e+000 5.423419e-033 -1.900000e-002
      vertex   4.370000e+000 3.800000e-002 -1.900000e-002
      vertex   4.370000e+000 -4.437343e-033 1.900000e-002
    endloop
  endfacet
  facet normal 1.000000e+000 -0.000000e+000 0.000000e+000
    outer loop
      vertex   4.370000e+000 -4.437343e-033 1.900000e-002
      vertex   4.370000e+000 3.800000e-002 -1.900000e-002
      vertex   4.370000e+000 3.800000e-002 1.900000e-002
    endloop
  endfacet
  facet normal 8.559491e-016 5.000000e-001 -8.660254e-001
    outer loop
      vertex   4.524000e+000 5.942374e-002 -6.095448e-002
      vertex   4.524000e+000 2.651477e-002 -7.995448e-002
      vertex   4.514000e+000 5.942374e-002 -6.095448e-002
    endloop
  endfacet
  facet normal -5.204170e-016 5.000000e-001 -8.660254e-001
    outer loop
      vertex   4.514000e+000 5.942374e-002 -6.095448e-002
      vertex   4.524000e+000 2.651477e-002 -7.995448e-002
      vertex   4.514000e+000 2.651477e-002 -7.995448e-002
    endloop
  endfacet
  facet normal -5.706327e-016 8.660254e-001 5.000000e-001
    outer loop
      vertex   4.524000e+000 4.042374e-002 -2.804552e-002
      vertex   4.524000e+000 5.942374e-002 -6.095448e-002
      vertex   4.514000e+000 4.042374e-002 -2.804552e-002
    endloop
  endfacet
  facet normal -1.294815e-015 8.660254e-001 5.000000e-001
    outer loop
      vertex   4.514000e+000 4.042374e-002 -2.804552e-002
      vertex   4.524000e+000 5.942374e-002 -6.095448e-002
      vertex   4.514000e+000 5.942374e-002 -6.095448e-002
    endloop
  endfacet
  facet normal 2.853164e-016 -5.000000e-001 8.660254e-001
    outer loop
      vertex   4.524000e+000 7.514774e-003 -4.704552e-002
      vertex   4.524000e+000 4.042374e-002 -2.804552e-002
      vertex   4.514000e+000 7.514774e-003 -4.704552e-002
    endloop
  endfacet
  facet normal 3.469447e-016 -5.000000e-001 8.660254e-001
    outer loop
      vertex   4.514000e+000 7.514774e-003 -4.704552e-002
      vertex   4.524000e+000 4.042374e-002 -2.804552e-002
      vertex   4.514000e+000 4.042374e-002 -2.804552e-002
    endloop
  endfacet
  facet normal 8.559491e-016 -8.660254e-001 -5.000000e-001
    outer loop
      vertex   4.524000e+000 2.651477e-002 -7.995448e-002
      vertex   4.524000e+000 7.514774e-003 -4.704552e-002
      vertex   4.514000e+000 2.651477e-002 -7.995448e-002
    endloop
  endfacet
  facet normal 7.511573e-016 -8.660254e-001 -5.000000e-001
    outer loop
      vertex   4.514000e+000 2.651477e-002 -7.995448e-002
      vertex   4.524000e+000 7.514774e-003 -4.704552e-002
      vertex   4.514000e+000 7.514774e-003 -4.704552e-002
    endloop
  endfacet
  facet normal -1.000000e+000 0.000000e+000 -0.000000e+000
    outer loop
      vertex   4.514000e+000 7.514774e-003 -4.704552e-002
      vertex   4.514000e+000 4.042374e-002 -2.804552e-002
      vertex   4.514000e+000 2.651477e-002 -7.995448e-002
    endloop
  endfacet
  facet normal -1.000000e+000 0.000000e+000 0.000000e+000
    outer loop
      vertex   4.514000e+000 2.651477e-002 -7.995448e-002
      vertex   4.514000e+000 4.042374e-002 -2.804552e-002
      vertex   4.514000e+000 5.942374e-002 -6.095448e-002
    endloop
  endfacet
  facet normal 1.000000e+000 0.000000e+000 -0.000000e+000
    outer loop
      vertex   4.524000e+000 2.651477e-002 -7.995448e-002
      vertex   4.524000e+000 5.942374e-002 -6.095448e-002
      vertex   4.524000e+000 7.514774e-003 -4.704552e-002
    endloop
  endfacet
  facet normal 1.000000e+000 -0.000000e+000 -0.000000e+000
    outer loop
      vertex   4.524000e+000 7.514774e-003 -4.704552e-002
      vertex   4.524000e+000 5.942374e-002 -6.095448e-002
      vertex   4.524000e+000 4.042374e-002 -2.804552e-002
    endloop
  endfacet
  facet normal -2.853164e-016 -5.000000e-001 -8.660254e-001
    outer loop
      vertex   4.524000e+000 4.042374e-002 2.804552e-002
      vertex   4.524000e+000 7.514774e-003 4.704552e-002
      vertex   4.514000e+000 4.042374e-002 2.804552e-002
    endloop
  endfacet
  facet normal -4.770490e-016 -5.000000e-001 -8.660254e-001
    outer loop
      vertex   4.514000e+000 4.042374e-002 2.804552e-002
      vertex   4.524000e+000 7.514774e-003 4.704552e-002
      vertex   4.514000e+000 7.514774e-003 4.704552e-002
    endloop
  endfacet
  facet normal 5.706327e-016 8.660254e-001 -5.000000e-001
    outer loop
      vertex   4.524000e+000 5.942374e-002 6.095448e-002
      vertex   4.524000e+000 4.042374e-002 2.804552e-002
      vertex   4.514000e+000 5.942374e-002 6.095448e-002
    endloop
  endfacet
  facet normal 6.009258e-016 8.660254e-001 -5.000000e-001
    outer loop
      vertex   4.514000e+000 5.942374e-002 6.095448e-002
      vertex   4.524000e+000 4.042374e-002 2.804552e-002
      vertex   4.514000e+000 4.042374e-002 2.804552e-002
    endloop
  endfacet
  facet normal 8.559491e-016 5.000000e-001 8.660254e-001
    outer loop
      vertex   4.524000e+000 2.651477e-002 7.995448e-002
      vertex   4.524000e+000 5.942374e-002 6.095448e-002
      vertex   4.514000e+000 2.651477e-002 7.995448e-002
    endloop
  endfacet
  facet normal -1.201852e-015 5.000000e-001 8.660254e-001
    outer loop
      vertex   4.514000e+000 2.651477e-002 7.995448e-002
      vertex   4.524000e+000 5.942374e-002 6.095448e-002
      vertex   4.514000e+000 5.942374e-002 6.095448e-002
    endloop
  endfacet
  facet normal -5.706327e-016 -8.660254e-001 5.000000e-001
    outer loop
      vertex   4.524000e+000 7.514774e-003 4.704552e-002
      vertex   4.524000e+000 2.651477e-002 7.995448e-002
      vertex   4.514000e+000 7.514774e-003 4.704552e-002
    endloop
  endfacet
  facet normal -6.009258e-016 -8.660254e-001 5.000000e-001
    outer loop
      vertex   4.514000e+000 7.514774e-003 4.704552e-002
      vertex   4.524000e+000 2.651477e-002 7.995448e-002
      vertex   4.514000e+000 2.651477e-002 7.995448e-002
    endloop
  endfacet
  facet normal -1.000000e+000 0.000000e+000 -0.000000e+000
    outer loop
      vertex   4.514000e+000 2.651477e-002 7.995448e-002
      vertex   4.514000e+000 5.942374e-002 6.095448e-002
      vertex   4.514000e+000 7.514774e-003 4.704552e-002
    endloop
  endfacet
  facet normal -1.000000e+000 0.000000e+000 -0.000000e+000
    outer loop
      vertex   4.514000e+000 7.514774e-003 4.704552e-002
      vertex   4.514000e+000 5.942374e-002 6.095448e-002
      vertex   4.514000e+000 4.042374e-002 2.804552e-002
    endloop
  endfacet
  facet normal 1.000000e+000 -0.000000e+000 -0.000000e+000
    outer loop
      vertex   4.524000e+000 7.514774e-003 4.704552e-002
      vertex   4.524000e+000 4.042374e-002 2.804552e-002
      vertex   4.524000e+000 2.651477e-002 7.995448e-002
    endloop
  endfacet
  facet normal 1.000000e+000 -0.000000e+000 0.000000e+000
    outer loop
      vertex   4.524000e+000 2.651477e-002 7.995448e-002
      vertex   4.524000e+000 4.042374e-002 2.804552e-002
      vertex   4.524000e+000 5.942374e-002 6.095448e-002
    endloop
  endfacet
  facet normal 0.000000e+000 -2.739037e-016 -1.000000e+000
    outer loop
      vertex   4.674000e+000 3.800000e-002 -1.900000e-002
      vertex   4.674000e+000 5.423419e-033 -1.900000e-002
      vertex   4.664000e+000 3.800000e-002 -1.900000e-002
    endloop
  endfacet
  facet normal -0.000000e+000 -2.739037e-016 -1.000000e+000
    outer loop
      vertex   4.664000e+000 3.800000e-002 -1.900000e-002
      vertex   4.674000e+000 5.423419e-033 -1.900000e-002
      vertex   4.664000e+000 5.423419e-033 -1.900000e-002
    endloop
  endfacet
  facet normal 0.000000e+000 1.000000e+000 0.000000e+000
    outer loop
      vertex   4.674000e+000 3.800000e-002 1.900000e-002
      vertex   4.674000e+000 3.800000e-002 -1.900000e-002
      vertex   4.664000e+000 3.800000e-002 1.900000e-002
    endloop
  endfacet
  facet normal 0.000000e+000 1.000000e+000 0.000000e+000
    outer loop
      vertex   4.664000e+000 3.800000e-002 1.900000e-002
      vertex   4.674000e+000 3.800000e-002 -1.900000e-002
      vertex   4.664000e+000 3.800000e-002 -1.900000e-002
    endloop
  endfacet
  facet normal 0.000000e+000 1.826025e-016 1.000000e+000
    outer loop
      vertex   4.674000e+000 -4.437343e-033 1.900000e-002
      vertex   4.674000e+000 3.800000e-002 1.900000e-002
      vertex   4.664000e+000 -4.437343e-033 1.900000e-002
    endloop
  endfacet
  facet normal 0.000000e+000 1.826025e-016 1.000000e+000
    outer loop
      vertex   4.664000e+000 -4.437343e-033 1.900000e-002
      vertex   4.674000e+000 3.800000e-002 1.900000e-002
      vertex   4.664000e+000 3.800000e-002 1.900000e-002
    endloop
  endfacet
  facet normal 0.000000e+000 -1.000000e+000 -2.594937e-031
    outer loop
      vertex   4.674000e+000 5.423419e-033 -1.900000e-002
      vertex   4.674000e+000 -4.437343e-033 1.900000e-002
      vertex   4.664000e+000 5.423419e-033 -1.900000e-002
    endloop
  endfacet
  facet normal -0.000000e+000 -1.000000e+000 -2.594937e-031
    outer loop
      vertex   4.664000e+000 5.423419e-033 -1.900000e-002
      vertex   4.674000e+000 -4.437343e-033 1.900000e-002
      vertex   4.664000e+000 -4.437343e-033 1.900000e-002
    endloop
  endfacet
  facet normal -1.000000e+000 0.000000e+000 -0.000000e+000
    outer loop
      vertex   4.664000e+000 -4.437343e-033 1.900000e-002
      vertex   4.664000e+000 3.800000e-002 1.900000e-002
      vertex   4.664000e+000 5.423419e-033 -1.900000e-002
    endloop
  endfacet
  facet normal -1.000000e+000 0.000000e+000 0.000000e+000
    outer loop
      vertex   4.664000e+000 5.423419e-033 -1.900000e-002
      vertex   4.664000e+000 3.800000e-002 1.900000e-002
      vertex   4.664000e+000 3.800000e-002 -1.900000e-002
    endloop
  endfacet
  facet normal 1.000000e+000 -0.000000e+000 -0.000000e+000
    outer loop
      vertex   4.674000e+000 5.423419e-033 -1.900000e-002
      vertex   4.674000e+000 3.800000e-002 -1.900000e-002
      vertex   4.674000e+000 -4.437343e-033 1.900000e-002
    endloop
  endfacet
  facet normal 1.000000e+000 -0.000000e+000 0.000000e+000
    outer loop
      vertex   4.674000e+000 -4.437343e-033 1.900000e-002
      vertex   4.674000e+000 3.800000e-002 -1.900000e-002
      vertex   4.674000e+000 3.800000e-002 1.900000e-002
    endloop
  endfacet
  facet normal -2.853164e-016 5.000000e-001 -8.660254e-001
    outer loop
      vertex   4.828000e+000 5.942374e-002 -6.095448e-002
      vertex   4.828000e+000 2.651477e-002 -7.995448e-002
      vertex   4.818000e+000 5.942374e-002 -6.095448e-002
    endloop
  endfacet
  facet normal -5.204170e-016 5.000000e-001 -8.660254e-001
    outer loop
      vertex   4.818000e+000 5.942374e-002 -6.095448e-002
      vertex   4.828000e+000 2.651477e-002 -7.995448e-002
      vertex   4.818000e+000 2.651477e-002 -7.995448e-002
    endloop
  endfacet
  facet normal 0.000000e+000 8.660254e-001 5.000000e-001
    outer loop
      vertex   4.828000e+000 4.042374e-002 -2.804552e-002
      vertex   4.828000e+000 5.942374e-002 -6.095448e-002
      vertex   4.818000e+000 4.042374e-002 -2.804552e-002
    endloop
  endfacet
  facet normal -6.009258e-016 8.660254e-001 5.000000e-001
    outer loop
      vertex   4.818000e+000 4.042374e-002 -2.804552e-002
      vertex   4.828000e+000 5.942374e-002 -6.095448e-002
      vertex   4.818000e+000 5.942374e-002 -6.095448e-002
    endloop
  endfacet
  facet normal 2.853164e-016 -5.000000e-001 8.660254e-001
    outer loop
      vertex   4.828000e+000 7.514774e-003 -4.704552e-002
      vertex   4.828000e+000 4.042374e-002 -2.804552e-002
      vertex   4.818000e+000 7.514774e-003 -4.704552e-002
    endloop
  endfacet
  facet normal 0.000000e+000 -5.000000e-001 8.660254e-001
    outer loop
      vertex   4.818000e+000 7.514774e-003 -4.704552e-002
      vertex   4.828000e+000 4.042374e-002 -2.804552e-002
      vertex   4.818000e+000 4.042374e-002 -2.804552e-002
    endloop
  endfacet
  facet normal 8.559491e-016 -8.660254e-001 -5.000000e-001
    outer loop
      vertex   4.828000e+000 2.651477e-002 -7.995448e-002
      vertex   4.828000e+000 7.514774e-003 -4.704552e-002
      vertex   4.818000e+000 2.651477e-002 -7.995448e-002
    endloop
  endfacet
  facet normal 7.511573e-016 -8.660254e-001 -5.000000e-001
    outer loop
      vertex   4.818000e+000 2.651477e-002 -7.995448e-002
      vertex   4.828000e+000 7.514774e-003 -4.704552e-002
      vertex   4.818000e+000 7.514774e-003 -4.704552e-002
    endloop
  endfacet
  facet normal -1.000000e+000 0.000000e+000 -0.000000e+000
    outer loop
      vertex   4.818000e+000 7.514774e-003 -4.704552e-002
      vertex   4.818000e+000 4.042374e-002 -2.804552e-002
      vertex   4.818000e+000 2.651477e-002 -7.995448e-002
    endloop
  endfacet
  facet normal -1.000000e+000 0.000000e+000 0.000000e+000
    outer loop
      vertex   4.818000e+000 2.651477e-002 -7.995448e-002
      vertex   4.818000e+000 4.042374e-002 -2.804552e-002
      vertex   4.818000e+000 5.942374e-002 -6.095448e-002
    endloop
  endfacet
  facet normal 1.000000e+000 0.000000e+000 -0.000000e+000
    outer loop
      vertex   4.828000e+000 2.651477e-002 -7.995448e-002
      vertex   4.828000e+000 5.942374e-002 -6.095448e-002
      vertex   4.828000e+000 7.514774e-003 -4.704552e-002
    endloop
  endfacet
  facet normal 1.000000e+000 -0.000000e+000 -0.000000e+000
    outer loop
      vertex   4.828000e+000 7.514774e-003 -4.704552e-002
      vertex   4.828000e+000 5.942374e-002 -6.095448e-002
      vertex   4.828000e+000 4.042374e-002 -2.804552e-002
    endloop
  endfacet
  facet normal -5.706327e-016 -5.000000e-001 -8.660254e-001
    outer loop
      vertex   4.828000e+000 4.042374e-002 2.804552e-002
      vertex   4.828000e+000 7.514774e-003 4.704552e-002
      vertex   4.818000e+000 4.042374e-002 2.804552e-002
    endloop
  endfacet
  facet normal -4.336809e-016 -5.000000e-001 -8.660254e-001
    outer loop
      vertex   4.818000e+000 4.042374e-002 2.804552e-002
      vertex   4.828000e+000 7.514774e-003 4.704552e-002
      vertex   4.818000e+000 7.514774e-003 4.704552e-002
    endloop
  endfacet
  facet normal 5.706327e-016 8.660254e-001 -5.000000e-001
    outer loop
      vertex   4.828000e+000 5.942374e-002 6.095448e-002
      vertex   4.828000e+000 4.042374e-002 2.804552e-002
      vertex   4.818000e+000 5.942374e-002 6.095448e-002
    endloop
  endfacet
  facet normal 6.009258e-016 8.660254e-001 -5.000000e-001
    outer loop
      vertex   4.818000e+000 5.942374e-002 6.095448e-002
      vertex   4.828000e+000 4.042374e-002 2.804552e-002
      vertex   4.818000e+000 4.042374e-002 2.804552e-002
    endloop
  endfacet
  facet normal 8.559491e-016 5.000000e-001 8.660254e-001
    outer loop
      vertex   4.828000e+000 2.651477e-002 7.995448e-002
      vertex   4.828000e+000 5.942374e-002 6.095448e-002
      vertex   4.818000e+000 2.651477e-002 7.995448e-002
    endloop
  endfacet
  facet normal -1.201852e-015 5.000000e-001 8.660254e-001
    outer loop
      vertex   4.818000e+000 2.651477e-002 7.995448e-002
      vertex   4.828000e+000 5.942374e-002 6.095448e-002
      vertex   4.818000e+000 5.942374e-002 6.095448e-002
    endloop
  endfacet
  facet normal -5.706327e-016 -8.660254e-001 5.000000e-001
    outer loop
      vertex   4.828000e+000 7.514774e-003 4.704552e-002
      vertex   4.828000e+000 2.651477e-002 7.995448e-002
      vertex   4.818000e+000 7.514774e-003 4.704552e-002
    endloop
  endfacet
  facet normal -9.013888e-016 -8.660254e-001 5.000000e-001
    outer loop
      vertex   4.818000e+000 7.514774e-003 4.704552e-002
      vertex   4.828000e+000 2.651477e-002 7.995448e-002
      vertex   4.818000e+000 2.651477e-002 7.995448e-002
    endloop
  endfacet
  facet normal -1.000000e+000 0.000000e+000 -0.000000e+000
    outer loop
      vertex   4.818000e+000 2.651477e-002 7.995448e-002
      vertex   4.818000e+000 5.942374e-002 6.095448e-002
      vertex   4.818000e+000 7.514774e-003 4.704552e-002
    endloop
  endfacet
  facet normal -1.000000e+000 0.000000e+000 -0.000000e+000
    outer loop
      vertex   4.818000e+000 7.514774e-003 4.704552e-002
      vertex   4.818000e+000 5.942374e-002 6.095448e-002
      vertex   4.818000e+000 4.042374e-002 2.804552e-002
    endloop
  endfacet
  facet normal 1.000000e+000 -0.000000e+000 -0.000000e+000
    outer loop
      vertex   4.828000e+000 7.514774e-003 4.704552e-002
      vertex   4.828000e+000 4.042374e-002 2.804552e-002
      vertex   4.828000e+000 2.651477e-002 7.995448e-002
    endloop
  endfacet
  facet normal 1.000000e+000 -0.000000e+000 0.000000e+000
    outer loop
      vertex   4.828000e+000 2.651477e-002 7.995448e-002
      vertex   4.828000e+000 4.042374e-002 2.804552e-002
      vertex   4.828000e+000 5.942374e-002 6.095448e-002
    endloop
  endfacet
  facet normal 0.000000e+000 -2.739037e-016 -1.000000e+000
    outer loop
      vertex   4.978000e+000 3.800000e-002 -1.900000e-002
      vertex   4.978000e+000 5.423419e-033 -1.900000e-002
      vertex   4.968000e+000 3.800000e-002 -1.900000e-002
    endloop
  endfacet
  facet normal -0.000000e+000 -2.739037e-016 -1.000000e+000
    outer loop
      vertex   4.968000e+000 3.800000e-002 -1.900000e-002
      vertex   4.978000e+000 5.423419e-033 -1.900000e-002
      vertex   4.968000e+000 5.423419e-033 -1.900000e-002
    endloop
  endfacet
  facet normal 0.000000e+000 1.000000e+000 0.000000e+000
    outer loop
      vertex   4.978000e+000 3.800000e-002 1.900000e-002
      vertex   4.978000e+000 3.800000e-002 -1.900000e-002
      vertex   4.968000e+000 3.800000e-002 1.900000e-002
    endloop
  endfacet
  facet normal 0.000000e+000 1.000000e+000 0.000000e+000
    outer loop
      vertex   4.968000e+000 3.800000e-002 1.900000e-002
      vertex   4.978000e+000 3.800000e-002 -1.900000e-002
      vertex   4.968000e+000 3.800000e-002 -1.900000e-002
    endloop
  endfacet
  facet normal 0.000000e+000 1.826025e-016 1.000000e+000
    outer loop
      vertex   4.978000e+000 -4.437343e-033 1.900000e-002
      vertex   4.978000e+000 3.800000e-002 1.900000e-002
      vertex   4.968000e+000 -4.437343e-033 1.900000e-002
    endloop
  endfacet
  facet normal 0.000000e+000 1.826025e-016 1.000000e+000
    outer loop
      vertex   4.968000e+000 -4.437343e-033 1.900000e-002
      vertex   4.978000e+000 3.800000e-002 1.900000e-002
      vertex   4.968000e+000 3.800000e-002 1.900000e-002
    endloop
  endfacet
  facet normal 0.000000e+000 -1.000000e+000 -2.594937e-031
    outer loop
      vertex   4.978000e+000 5.423419e-033 -1.900000e-002
      vertex   4.978000e+000 -4.437343e-033 1.900000e-002
      vertex   4.968000e+000 5.423419e-033 -1.900000e-002
    endloop
  endfacet
  facet normal -0.000000e+000 -1.000000e+000 -2.594937e-031
    outer loop
      vertex   4.968000e+000 5.423419e-033 -1.900000e-002
      vertex   4.978000e+000 -4.437343e-033 1.900000e-002
      vertex   4.968000e+000 -4.437343e-033 1.900000e-002
    endloop
  endfacet
  facet normal -1.000000e+000 0.000000e+000 -0.000000e+000
    outer loop
      vertex   4.968000e+000 -4.437343e-033 1.900000e-002
      vertex   4.968000e+000 3.800000e-002 1.900000e-002
      vertex   4.968000e+000 5.423419e-033 -1.900000e-002
    endloop
  endfacet
  facet normal -1.000000e+000 0.000000e+000 0.000000e+000
    outer loop
      vertex   4.968000e+000 5.423419e-033 -1.900000e-002
      vertex   4.968000e+000 3.800000e-002 1.900000e-002
      vertex   4.968000e+000 3.800000e-002 -1.900000e-002
    endloop
  endfacet
  facet normal 1.000000e+000 -0.000000e+000 -0.000000e+000
    outer loop
      vertex   4.978000e+000 5.423419e-033 -1.900000e-002
      vertex   4.978000e+000 3.800000e-002 -1.900000e-002
      vertex   4.978000e+000 -4.437343e-033 1.900000e-002
    endloop
  endfacet
  facet normal 1.000000e+000 -0.000000e+000 0.000000e+000
    outer loop
      vertex   4.978000e+000 -4.437343e-033 1.900000e-002
      vertex   4.978000e+000 3.800000e-002 -1.900000e-002
      vertex   4.978000e+000 3.800000e-002 1.900000e-002
    endloop
  endfacet
  facet normal -2.853164e-016 5.000000e-001 -8.660254e-001
    outer loop
      vertex   5.132000e+000 5.942374e-002 -6.095448e-002
      vertex   5.132000e+000 2.651477e-002 -7.995448e-002
      vertex   5.122000e+000 5.942374e-002 -6.095448e-002
    endloop
  endfacet
  facet normal -5.204170e-016 5.000000e-001 -8.660254e-001
    outer loop
      vertex   5.122000e+000 5.942374e-002 -6.095448e-002
      vertex   5.132000e+000 2.651477e-002 -7.995448e-002
      vertex   5.122000e+000 2.651477e-002 -7.995448e-002
    endloop
  endfacet
  facet normal 0.000000e+000 8.660254e-001 5.000000e-001
    outer loop
      vertex   5.132000e+000 4.042374e-002 -2.804552e-002
      vertex   5.132000e+000 5.942374e-002 -6.095448e-002
      vertex   5.122000e+000 4.042374e-002 -2.804552e-002
    endloop
  endfacet
  facet normal -6.009258e-016 8.660254e-001 5.000000e-001
    outer loop
      vertex   5.122000e+000 4.042374e-002 -2.804552e-002
      vertex   5.132000e+000 5.942374e-002 -6.095448e-002
      vertex   5.122000e+000 5.942374e-002 -6.095448e-002
    endloop
  endfacet
  facet normal 2.853164e-016 -5.000000e-001 8.660254e-001
    outer loop
      vertex   5.132000e+000 7.514774e-003 -4.704552e-002
      vertex   5.132000e+000 4.042374e-002 -2.804552e-002
      vertex   5.122000e+000 7.514774e-003 -4.704552e-002
    endloop
  endfacet
  facet normal 0.000000e+000 -5.000000e-001 8.660254e-001
    outer loop
      vertex   5.122000e+000 7.514774e-003 -4.704552e-002
      vertex   5.132000e+000 4.042374e-002 -2.804552e-002
      vertex   5.122000e+000 4.042374e-002 -2.804552e-002
    endloop
  endfacet
  facet normal 8.559491e-016 -8.660254e-001 -5.000000e-001
    outer loop
      vertex   5.132000e+000 2.651477e-002 -7.995448e-002
      vertex   5.132000e+000 7.514774e-003 -4.704552e-002
      vertex   5.122000e+000 2.651477e-002 -7.995448e-002
    endloop
  endfacet
  facet normal 7.511573e-016 -8.660254e-001 -5.000000e-001
    outer loop
      vertex   5.122000e+000 2.651477e-002 -7.995448e-002
      vertex   5.132000e+000 7.514774e-003 -4.704552e-002
      vertex   5.122000e+000 7.514774e-003 -4.704552e-002
    endloop
  endfacet
  facet normal -1.000000e+000 0.000000e+000 -0.000000e+000
    outer loop
      vertex   5.122000e+000 7.514774e-003 -4.704552e-002
      vertex   5.122000e+000 4.042374e-002 -2.804552e-002
      vertex   5.122000e+000 2.651477e-002 -7.995448e-002
    endloop
  endfacet
  facet normal -1.000000e+000 0.000000e+000 0.000000e+000
    outer loop
      vertex   5.122000e+000 2.651477e-002 -7.995448e-002
      vertex   5.122000e+000 4.042374e-002 -2.804552e-002
      vertex   5.122000e+000 5.942374e-002 -6.095448e-002
    endloop
  endfacet
  facet normal 1.000000e+000 0.000000e+000 -0.000000e+000
    outer loop
      vertex   5.132000e+000 2.651477e-002 -7.995448e-002
      vertex   5.132000e+000 5.942374e-002 -6.095448e-002
      vertex   5.132000e+000 7.514774e-003 -4.704552e-002
    endloop
  endfacet
  facet normal 1.000000e+000 -0.000000e+000 -0.000000e+000
    outer loop
      vertex   5.132000e+000 7.514774e-003 -4.704552e-002
      vertex   5.132000e+000 5.942374e-002 -6.095448e-002
      vertex   5.132000e+000 4.042374e-002 -2.804552e-002
    endloop
  endfacet
  facet normal -5.706327e-016 -5.000000e-001 -8.660254e-001
    outer loop
      vertex   5.132000e+000 4.042374e-002 2.804552e-002
      vertex   5.132000e+000 7.514774e-003 4.704552e-002
      vertex   5.122000e+000 4.042374e-002 2.804552e-002
    endloop
  endfacet
  facet normal -4.336809e-016 -5.000000e-001 -8.660254e-001
    outer loop
      vertex   5.122000e+000 4.042374e-002 2.804552e-002
      vertex   5.132000e+000 7.514774e-003 4.704552e-002
      vertex   5.122000e+000 7.514774e-003 4.704552e-002
    endloop
  endfacet
  facet normal 5.706327e-016 8.660254e-001 -5.000000e-001
    outer loop
      vertex   5.132000e+000 5.942374e-002 6.095448e-002
      vertex   5.132000e+000 4.042374e-002 2.804552e-002
      vertex   5.122000e+000 5.942374e-002 6.095448e-002
    endloop
  endfacet
  facet normal 6.009258e-016 8.660254e-001 -5.000000e-001
    outer loop
      vertex   5.122000e+000 5.942374e-002 6.095448e-002
      vertex   5.132000e+000 4.042374e-002 2.804552e-002
      vertex   5.122000e+000 4.042374e-002 2.804552e-002
    endloop
  endfacet
  facet normal 8.559491e-016 5.000000e-001 8.660254e-001
    outer loop
      vertex   5.132000e+000 2.651477e-002 7.995448e-002
      vertex   5.132000e+000 5.942374e-002 6.095448e-002
      vertex   5.122000e+000 2.651477e-002 7.995448e-002
    endloop
  endfacet
  facet normal -1.201852e-015 5.000000e-001 8.660254e-001
    outer loop
      vertex   5.122000e+000 2.651477e-002 7.995448e-002
      vertex   5.132000e+000 5.942374e-002 6.095448e-002
      vertex   5.122000e+000 5.942374e-002 6.095448e-002
    endloop
  endfacet
  facet normal -5.706327e-016 -8.660254e-001 5.000000e-001
    outer loop
      vertex   5.132000e+000 7.514774e-003 4.704552e-002
      vertex   5.132000e+000 2.651477e-002 7.995448e-002
      vertex   5.122000e+000 7.514774e-003 4.704552e-002
    endloop
  endfacet
  facet normal -9.013888e-016 -8.660254e-001 5.000000e-001
    outer loop
      vertex   5.122000e+000 7.514774e-003 4.704552e-002
      vertex   5.132000e+000 2.651477e-002 7.995448e-002
      vertex   5.122000e+000 2.651477e-002 7.995448e-002
    endloop
  endfacet
  facet normal -1.000000e+000 0.000000e+000 -0.000000e+000
    outer loop
      vertex   5.122000e+000 2.651477e-002 7.995448e-002
      vertex   5.122000e+000 5.942374e-002 6.095448e-002
      vertex   5.122000e+000 7.514774e-003 4.704552e-002
    endloop
  endfacet
  facet normal -1.000000e+000 0.000000e+000 -0.000000e+000
    outer loop
      vertex   5.122000e+000 7.514774e-003 4.704552e-002
      vertex   5.122000e+000 5.942374e-002 6.095448e-002
      vertex   5.122000e+000 4.042374e-002 2.804552e-002
    endloop
  endfacet
  facet normal 1.000000e+000 -0.000000e+000 -0.000000e+000
    outer loop
      vertex   5.132000e+000 7.514774e-003 4.704552e-002
      vertex   5.132000e+000 4.042374e-002 2.804552e-002
      vertex   5.132000e+000 2.651477e-002 7.995448e-002
    endloop
  endfacet
  facet normal 1.000000e+000 -0.000000e+000 0.000000e+000
    outer loop
      vertex   5.132000e+000 2.651477e-002 7.995448e-002
      vertex   5.132000e+000 4.042374e-002 2.804552e-002
      vertex   5.132000e+000 5.942374e-002 6.095448e-002
    endloop
  endfacet
  facet normal 0.000000e+000 -2.739037e-016 -1.000000e+000
    outer loop
      vertex   5.282000e+000 3.800000e-002 -1.900000e-002
      vertex   5.282000e+000 5.423419e-033 -1.900000e-002
      vertex   5.272000e+000 3.800000e-002 -1.900000e-002
    endloop
  endfacet
  facet normal -0.000000e+000 -2.739037e-016 -1.000000e+000
    outer loop
      vertex   5.272000e+000 3.800000e-002 -1.900000e-002
      vertex   5.282000e+000 5.423419e-033 -1.900000e-002
      vertex   5.272000e+000 5.423419e-033 -1.900000e-002
    endloop
  endfacet
  facet normal 0.000000e+000 1.000000e+000 0.000000e+000
    outer loop
      vertex   5.282000e+000 3.800000e-002 1.900000e-002
      vertex   5.282000e+000 3.800000e-002 -1.900000e-002
      vertex   5.272000e+000 3.800000e-002 1.900000e-002
    endloop
  endfacet
  facet normal 0.000000e+000 1.000000e+000 0.000000e+000
    outer loop
      vertex   5.272000e+000 3.800000e-002 1.900000e-002
      vertex   5.282000e+000 3.800000e-002 -1.900000e-002
      vertex   5.272000e+000 3.800000e-002 -1.900000e-002
    endloop
  endfacet
  facet normal 0.000000e+000 1.826025e-016 1.000000e+000
    outer loop
      vertex   5.282000e+000 -4.437343e-033 1.900000e-002
      vertex   5.282000e+000 3.800000e-002 1.900000e-002
      vertex   5.272000e+000 -4.437343e-033 1.900000e-002
    endloop
  endfacet
  facet normal 0.000000e+000 1.826025e-016 1.000000e+000
    outer loop
      vertex   5.272000e+000 -4.437343e-033 1.900000e-002
      vertex   5.282000e+000 3.800000e-002 1.900000e-002
      vertex   5.272000e+000 3.800000e-002 1.900000e-002
    endloop
  endfacet
  facet normal 0.000000e+000 -1.000000e+000 -2.594937e-031
    outer loop
      vertex   5.282000e+000 5.423419e-033 -1.900000e-002
      vertex   5.282000e+000 -4.437343e-033 1.900000e-002
      vertex   5.272000e+000 5.423419e-033 -1.900000e-002
    endloop
  endfacet
  facet normal -0.000000e+000 -1.000000e+000 -2.594937e-031
    outer loop
      vertex   5.272000e+000 5.423419e-033 -1.900000e-002
      vertex   5.282000e+000 -4.437343e-033 1.900000e-002
      vertex   5.272000e+000 -4.437343e-033 1.900000e-002
    endloop
  endfacet
  facet normal -1.000000e+000 0.000000e+000 -0.000000e+000
    outer loop
      vertex   5.272000e+000 -4.437343e-033 1.900000e-002
      vertex   5.272000e+000 3.800000e-002 1.900000e-002
      vertex   5.272000e+000 5.423419e-033 -1.900000e-002
    endloop
  endfacet
  facet normal -1.000000e+000 0.000000e+000 0.000000e+000
    outer loop
      vertex   5.272000e+000 5.423419e-033 -1.900000e-002
      vertex   5.272000e+000 3.800000e-002 1.900000e-002
      vertex   5.272000e+000 3.800000e-002 -1.900000e-002
    endloop
  endfacet
  facet normal 1.000000e+000 -0.000000e+000 -0.000000e+000
    outer loop
      vertex   5.282000e+000 5.423419e-033 -1.900000e-002
      vertex   5.282000e+000 3.800000e-002 -1.900000e-002
      vertex   5.282000e+000 -4.437343e-033 1.900000e-002
    endloop
  endfacet
  facet normal 1.000000e+000 -0.000000e+000 0.000000e+000
    outer loop
      vertex   5.282000e+000 -4.437343e-033 1.900000e-002
      vertex   5.282000e+000 3.800000e-002 -1.900000e-002
      vertex   5.282000e+000 3.800000e-002 1.900000e-002
    endloop
  endfacet
endsolid
