solid ascii
  facet normal 0.000000e+000 -2.731848e-016 -1.000000e+000
    outer loop
      vertex   4.066000e+000 2.540000e-002 -1.270000e-002
      vertex   4.066000e+000 -3.504894e-019 -1.270000e-002
      vertex   4.056000e+000 2.540000e-002 -1.270000e-002
    endloop
  endfacet
  facet normal -0.000000e+000 -2.731848e-016 -1.000000e+000
    outer loop
      vertex   4.056000e+000 2.540000e-002 -1.270000e-002
      vertex   4.066000e+000 -3.504894e-019 -1.270000e-002
      vertex   4.056000e+000 -3.504894e-019 -1.270000e-002
    endloop
  endfacet
  facet normal 0.000000e+000 1.000000e+000 1.365924e-016
    outer loop
      vertex   4.066000e+000 2.540000e-002 1.270000e-002
      vertex   4.066000e+000 2.540000e-002 -1.270000e-002
      vertex   4.056000e+000 2.540000e-002 1.270000e-002
    endloop
  endfacet
  facet normal 0.000000e+000 1.000000e+000 1.365924e-016
    outer loop
      vertex   4.056000e+000 2.540000e-002 1.270000e-002
      vertex   4.066000e+000 2.540000e-002 -1.270000e-002
      vertex   4.056000e+000 2.540000e-002 -1.270000e-002
    endloop
  endfacet
  facet normal 1.734723e-016 6.829620e-017 1.000000e+000
    outer loop
      vertex   4.066000e+000 -3.318875e-018 1.270000e-002
      vertex   4.066000e+000 2.540000e-002 1.270000e-002
      vertex   4.056000e+000 -3.318875e-018 1.270000e-002
    endloop
  endfacet
  facet normal 0.000000e+000 1.365924e-016 1.000000e+000
    outer loop
      vertex   4.056000e+000 -3.318875e-018 1.270000e-002
      vertex   4.066000e+000 2.540000e-002 1.270000e-002
      vertex   4.056000e+000 2.540000e-002 1.270000e-002
    endloop
  endfacet
  facet normal 0.000000e+000 -1.000000e+000 -1.168656e-016
    outer loop
      vertex   4.066000e+000 -3.504894e-019 -1.270000e-002
      vertex   4.066000e+000 -3.318875e-018 1.270000e-002
      vertex   4.056000e+000 -3.504894e-019 -1.270000e-002
    endloop
  endfacet
  facet normal 5.676425e-032 -1.000000e+000 -1.168656e-016
    outer loop
      vertex   4.056000e+000 -3.504894e-019 -1.270000e-002
      vertex   4.066000e+000 -3.318875e-018 1.270000e-002
      vertex   4.056000e+000 -3.318875e-018 1.270000e-002
    endloop
  endfacet
  facet normal -1.000000e+000 0.000000e+000 -0.000000e+000
    outer loop
      vertex   4.056000e+000 -3.318875e-018 1.270000e-002
      vertex   4.056000e+000 2.540000e-002 1.270000e-002
      vertex   4.056000e+000 -3.504894e-019 -1.270000e-002
    endloop
  endfacet
  facet normal -1.000000e+000 0.000000e+000 0.000000e+000
    outer loop
      vertex   4.056000e+000 -3.504894e-019 -1.270000e-002
      vertex   4.056000e+000 2.540000e-002 1.270000e-002
      vertex   4.056000e+000 2.540000e-002 -1.270000e-002
    endloop
  endfacet
  facet normal 1.000000e+000 -0.000000e+000 -0.000000e+000
    outer loop
      vertex   4.066000e+000 -3.504894e-019 -1.270000e-002
      vertex   4.066000e+000 2.540000e-002 -1.270000e-002
      vertex   4.066000e+000 -3.318875e-018 1.270000e-002
    endloop
  endfacet
  facet normal 1.000000e+000 -0.000000e+000 -0.000000e+000
    outer loop
      vertex   4.066000e+000 -3.318875e-018 1.270000e-002
      vertex   4.066000e+000 2.540000e-002 -1.270000e-002
      vertex   4.066000e+000 2.540000e-002 1.270000e-002
    endloop
  endfacet
  facet normal -2.134256e-016 5.000000e-001 -8.660254e-001
    outer loop
      vertex   3.916000e+000 4.536182e-002 -6.179852e-002
      vertex   3.916000e+000 2.336477e-002 -7.449852e-002
      vertex   3.906000e+000 4.536182e-002 -6.179852e-002
    endloop
  endfacet
  facet normal -5.204170e-016 5.000000e-001 -8.660254e-001
    outer loop
      vertex   3.906000e+000 4.536182e-002 -6.179852e-002
      vertex   3.916000e+000 2.336477e-002 -7.449852e-002
      vertex   3.906000e+000 2.336477e-002 -7.449852e-002
    endloop
  endfacet
  facet normal -8.537025e-016 8.660254e-001 5.000000e-001
    outer loop
      vertex   3.916000e+000 3.266182e-002 -3.980148e-002
      vertex   3.916000e+000 4.536182e-002 -6.179852e-002
      vertex   3.906000e+000 3.266182e-002 -3.980148e-002
    endloop
  endfacet
  facet normal -6.009258e-016 8.660254e-001 5.000000e-001
    outer loop
      vertex   3.906000e+000 3.266182e-002 -3.980148e-002
      vertex   3.916000e+000 4.536182e-002 -6.179852e-002
      vertex   3.906000e+000 4.536182e-002 -6.179852e-002
    endloop
  endfacet
  facet normal 2.134256e-016 -5.000000e-001 8.660254e-001
    outer loop
      vertex   3.916000e+000 1.066477e-002 -5.250148e-002
      vertex   3.916000e+000 3.266182e-002 -3.980148e-002
      vertex   3.906000e+000 1.066477e-002 -5.250148e-002
    endloop
  endfacet
  facet normal -2.539811e-016 -5.000000e-001 8.660254e-001
    outer loop
      vertex   3.906000e+000 1.066477e-002 -5.250148e-002
      vertex   3.916000e+000 3.266182e-002 -3.980148e-002
      vertex   3.906000e+000 3.266182e-002 -3.980148e-002
    endloop
  endfacet
  facet normal 8.537025e-016 -8.660254e-001 -5.000000e-001
    outer loop
      vertex   3.916000e+000 2.336477e-002 -7.449852e-002
      vertex   3.916000e+000 1.066477e-002 -5.250148e-002
      vertex   3.906000e+000 2.336477e-002 -7.449852e-002
    endloop
  endfacet
  facet normal 9.013888e-016 -8.660254e-001 -5.000000e-001
    outer loop
      vertex   3.906000e+000 2.336477e-002 -7.449852e-002
      vertex   3.916000e+000 1.066477e-002 -5.250148e-002
      vertex   3.906000e+000 1.066477e-002 -5.250148e-002
    endloop
  endfacet
  facet normal -1.000000e+000 0.000000e+000 -0.000000e+000
    outer loop
      vertex   3.906000e+000 1.066477e-002 -5.250148e-002
      vertex   3.906000e+000 3.266182e-002 -3.980148e-002
      vertex   3.906000e+000 2.336477e-002 -7.449852e-002
    endloop
  endfacet
  facet normal -1.000000e+000 0.000000e+000 0.000000e+000
    outer loop
      vertex   3.906000e+000 2.336477e-002 -7.449852e-002
      vertex   3.906000e+000 3.266182e-002 -3.980148e-002
      vertex   3.906000e+000 4.536182e-002 -6.179852e-002
    endloop
  endfacet
  facet normal 1.000000e+000 0.000000e+000 -0.000000e+000
    outer loop
      vertex   3.916000e+000 2.336477e-002 -7.449852e-002
      vertex   3.916000e+000 4.536182e-002 -6.179852e-002
      vertex   3.916000e+000 1.066477e-002 -5.250148e-002
    endloop
  endfacet
  facet normal 1.000000e+000 -0.000000e+000 -0.000000e+000
    outer loop
      vertex   3.916000e+000 1.066477e-002 -5.250148e-002
      vertex   3.916000e+000 4.536182e-002 -6.179852e-002
      vertex   3.916000e+000 3.266182e-002 -3.980148e-002
    endloop
  endfacet
  facet normal -4.268512e-016 -5.000000e-001 -8.660254e-001
    outer loop
      vertex   3.916000e+000 3.266182e-002 3.980148e-002
      vertex   3.916000e+000 1.066477e-002 5.250148e-002
      vertex   3.906000e+000 3.266182e-002 3.980148e-002
    endloop
  endfacet
  facet normal 1.672450e-016 -5.000000e-001 -8.660254e-001
    outer loop
      vertex   3.906000e+000 3.266182e-002 3.980148e-002
      vertex   3.916000e+000 1.066477e-002 5.250148e-002
      vertex   3.906000e+000 1.066477e-002 5.250148e-002
    endloop
  endfacet
  facet normal 0.000000e+000 8.660254e-001 -5.000000e-001
    outer loop
      vertex   3.916000e+000 4.536182e-002 6.179852e-002
      vertex   3.916000e+000 3.266182e-002 3.980148e-002
      vertex   3.906000e+000 4.536182e-002 6.179852e-002
    endloop
  endfacet
  facet normal 6.009258e-016 8.660254e-001 -5.000000e-001
    outer loop
      vertex   3.906000e+000 4.536182e-002 6.179852e-002
      vertex   3.916000e+000 3.266182e-002 3.980148e-002
      vertex   3.906000e+000 3.266182e-002 3.980148e-002
    endloop
  endfacet
  facet normal 4.268512e-016 5.000000e-001 8.660254e-001
    outer loop
      vertex   3.916000e+000 2.336477e-002 7.449852e-002
      vertex   3.916000e+000 4.536182e-002 6.179852e-002
      vertex   3.906000e+000 2.336477e-002 7.449852e-002
    endloop
  endfacet
  facet normal 0.000000e+000 5.000000e-001 8.660254e-001
    outer loop
      vertex   3.906000e+000 2.336477e-002 7.449852e-002
      vertex   3.916000e+000 4.536182e-002 6.179852e-002
      vertex   3.906000e+000 4.536182e-002 6.179852e-002
    endloop
  endfacet
  facet normal -1.067128e-015 -8.660254e-001 5.000000e-001
    outer loop
      vertex   3.916000e+000 1.066477e-002 5.250148e-002
      vertex   3.916000e+000 2.336477e-002 7.449852e-002
      vertex   3.906000e+000 1.066477e-002 5.250148e-002
    endloop
  endfacet
  facet normal -9.013888e-016 -8.660254e-001 5.000000e-001
    outer loop
      vertex   3.906000e+000 1.066477e-002 5.250148e-002
      vertex   3.916000e+000 2.336477e-002 7.449852e-002
      vertex   3.906000e+000 2.336477e-002 7.449852e-002
    endloop
  endfacet
  facet normal -1.000000e+000 0.000000e+000 -0.000000e+000
    outer loop
      vertex   3.906000e+000 2.336477e-002 7.449852e-002
      vertex   3.906000e+000 4.536182e-002 6.179852e-002
      vertex   3.906000e+000 1.066477e-002 5.250148e-002
    endloop
  endfacet
  facet normal -1.000000e+000 0.000000e+000 -0.000000e+000
    outer loop
      vertex   3.906000e+000 1.066477e-002 5.250148e-002
      vertex   3.906000e+000 4.536182e-002 6.179852e-002
      vertex   3.906000e+000 3.266182e-002 3.980148e-002
    endloop
  endfacet
  facet normal 1.000000e+000 -0.000000e+000 -0.000000e+000
    outer loop
      vertex   3.916000e+000 1.066477e-002 5.250148e-002
      vertex   3.916000e+000 3.266182e-002 3.980148e-002
      vertex   3.916000e+000 2.336477e-002 7.449852e-002
    endloop
  endfacet
  facet normal 1.000000e+000 -0.000000e+000 0.000000e+000
    outer loop
      vertex   3.916000e+000 2.336477e-002 7.449852e-002
      vertex   3.916000e+000 3.266182e-002 3.980148e-002
      vertex   3.916000e+000 4.536182e-002 6.179852e-002
    endloop
  endfacet
  facet normal -2.134256e-016 5.000000e-001 -8.660254e-001
    outer loop
      vertex   4.220000e+000 4.536182e-002 -6.179852e-002
      vertex   4.220000e+000 2.336477e-002 -7.449852e-002
      vertex   4.210000e+000 4.536182e-002 -6.179852e-002
    endloop
  endfacet
  facet normal -5.204170e-016 5.000000e-001 -8.660254e-001
    outer loop
      vertex   4.210000e+000 4.536182e-002 -6.179852e-002
      vertex   4.220000e+000 2.336477e-002 -7.449852e-002
      vertex   4.210000e+000 2.336477e-002 -7.449852e-002
    endloop
  endfacet
  facet normal -8.537025e-016 8.660254e-001 5.000000e-001
    outer loop
      vertex   4.220000e+000 3.266182e-002 -3.980148e-002
      vertex   4.220000e+000 4.536182e-002 -6.179852e-002
      vertex   4.210000e+000 3.266182e-002 -3.980148e-002
    endloop
  endfacet
  facet normal -6.009258e-016 8.660254e-001 5.000000e-001
    outer loop
      vertex   4.210000e+000 3.266182e-002 -3.980148e-002
      vertex   4.220000e+000 4.536182e-002 -6.179852e-002
      vertex   4.210000e+000 4.536182e-002 -6.179852e-002
    endloop
  endfacet
  facet normal 2.134256e-016 -5.000000e-001 8.660254e-001
    outer loop
      vertex   4.220000e+000 1.066477e-002 -5.250148e-002
      vertex   4.220000e+000 3.266182e-002 -3.980148e-002
      vertex   4.210000e+000 1.066477e-002 -5.250148e-002
    endloop
  endfacet
  facet normal -2.539811e-016 -5.000000e-001 8.660254e-001
    outer loop
      vertex   4.210000e+000 1.066477e-002 -5.250148e-002
      vertex   4.220000e+000 3.266182e-002 -3.980148e-002
      vertex   4.210000e+000 3.266182e-002 -3.980148e-002
    endloop
  endfacet
  facet normal 8.537025e-016 -8.660254e-001 -5.000000e-001
    outer loop
      vertex   4.220000e+000 2.336477e-002 -7.449852e-002
      vertex   4.220000e+000 1.066477e-002 -5.250148e-002
      vertex   4.210000e+000 2.336477e-002 -7.449852e-002
    endloop
  endfacet
  facet normal 9.013888e-016 -8.660254e-001 -5.000000e-001
    outer loop
      vertex   4.210000e+000 2.336477e-002 -7.449852e-002
      vertex   4.220000e+000 1.066477e-002 -5.250148e-002
      vertex   4.210000e+000 1.066477e-002 -5.250148e-002
    endloop
  endfacet
  facet normal -1.000000e+000 0.000000e+000 -0.000000e+000
    outer loop
      vertex   4.210000e+000 1.066477e-002 -5.250148e-002
      vertex   4.210000e+000 3.266182e-002 -3.980148e-002
      vertex   4.210000e+000 2.336477e-002 -7.449852e-002
    endloop
  endfacet
  facet normal -1.000000e+000 0.000000e+000 0.000000e+000
    outer loop
      vertex   4.210000e+000 2.336477e-002 -7.449852e-002
      vertex   4.210000e+000 3.266182e-002 -3.980148e-002
      vertex   4.210000e+000 4.536182e-002 -6.179852e-002
    endloop
  endfacet
  facet normal 1.000000e+000 0.000000e+000 -0.000000e+000
    outer loop
      vertex   4.220000e+000 2.336477e-002 -7.449852e-002
      vertex   4.220000e+000 4.536182e-002 -6.179852e-002
      vertex   4.220000e+000 1.066477e-002 -5.250148e-002
    endloop
  endfacet
  facet normal 1.000000e+000 -0.000000e+000 -0.000000e+000
    outer loop
      vertex   4.220000e+000 1.066477e-002 -5.250148e-002
      vertex   4.220000e+000 4.536182e-002 -6.179852e-002
      vertex   4.220000e+000 3.266182e-002 -3.980148e-002
    endloop
  endfacet
  facet normal -4.268512e-016 -5.000000e-001 -8.660254e-001
    outer loop
      vertex   4.220000e+000 3.266182e-002 3.980148e-002
      vertex   4.220000e+000 1.066477e-002 5.250148e-002
      vertex   4.210000e+000 3.266182e-002 3.980148e-002
    endloop
  endfacet
  facet normal 1.672450e-016 -5.000000e-001 -8.660254e-001
    outer loop
      vertex   4.210000e+000 3.266182e-002 3.980148e-002
      vertex   4.220000e+000 1.066477e-002 5.250148e-002
      vertex   4.210000e+000 1.066477e-002 5.250148e-002
    endloop
  endfacet
  facet normal 0.000000e+000 8.660254e-001 -5.000000e-001
    outer loop
      vertex   4.220000e+000 4.536182e-002 6.179852e-002
      vertex   4.220000e+000 3.266182e-002 3.980148e-002
      vertex   4.210000e+000 4.536182e-002 6.179852e-002
    endloop
  endfacet
  facet normal 6.009258e-016 8.660254e-001 -5.000000e-001
    outer loop
      vertex   4.210000e+000 4.536182e-002 6.179852e-002
      vertex   4.220000e+000 3.266182e-002 3.980148e-002
      vertex   4.210000e+000 3.266182e-002 3.980148e-002
    endloop
  endfacet
  facet normal 4.268512e-016 5.000000e-001 8.660254e-001
    outer loop
      vertex   4.220000e+000 2.336477e-002 7.449852e-002
      vertex   4.220000e+000 4.536182e-002 6.179852e-002
      vertex   4.210000e+000 2.336477e-002 7.449852e-002
    endloop
  endfacet
  facet normal 0.000000e+000 5.000000e-001 8.660254e-001
    outer loop
      vertex   4.210000e+000 2.336477e-002 7.449852e-002
      vertex   4.220000e+000 4.536182e-002 6.179852e-002
      vertex   4.210000e+000 4.536182e-002 6.179852e-002
    endloop
  endfacet
  facet normal -1.067128e-015 -8.660254e-001 5.000000e-001
    outer loop
      vertex   4.220000e+000 1.066477e-002 5.250148e-002
      vertex   4.220000e+000 2.336477e-002 7.449852e-002
      vertex   4.210000e+000 1.066477e-002 5.250148e-002
    endloop
  endfacet
  facet normal -9.013888e-016 -8.660254e-001 5.000000e-001
    outer loop
      vertex   4.210000e+000 1.066477e-002 5.250148e-002
      vertex   4.220000e+000 2.336477e-002 7.449852e-002
      vertex   4.210000e+000 2.336477e-002 7.449852e-002
    endloop
  endfacet
  facet normal -1.000000e+000 0.000000e+000 -0.000000e+000
    outer loop
      vertex   4.210000e+000 2.336477e-002 7.449852e-002
      vertex   4.210000e+000 4.536182e-002 6.179852e-002
      vertex   4.210000e+000 1.066477e-002 5.250148e-002
    endloop
  endfacet
  facet normal -1.000000e+000 0.000000e+000 -0.000000e+000
    outer loop
      vertex   4.210000e+000 1.066477e-002 5.250148e-002
      vertex   4.210000e+000 4.536182e-002 6.179852e-002
      vertex   4.210000e+000 3.266182e-002 3.980148e-002
    endloop
  endfacet
  facet normal 1.000000e+000 -0.000000e+000 -0.000000e+000
    outer loop
      vertex   4.220000e+000 1.066477e-002 5.250148e-002
      vertex   4.220000e+000 3.266182e-002 3.980148e-002
      vertex   4.220000e+000 2.336477e-002 7.449852e-002
    endloop
  endfacet
  facet normal 1.000000e+000 -0.000000e+000 0.000000e+000
    outer loop
      vertex   4.220000e+000 2.336477e-002 7.449852e-002
      vertex   4.220000e+000 3.266182e-002 3.980148e-002
      vertex   4.220000e+000 4.536182e-002 6.179852e-002
    endloop
  endfacet
  facet normal 0.000000e+000 -2.731848e-016 -1.000000e+000
    outer loop
      vertex   4.370000e+000 2.540000e-002 -1.270000e-002
      vertex   4.370000e+000 -3.504894e-019 -1.270000e-002
      vertex   4.360000e+000 2.540000e-002 -1.270000e-002
    endloop
  endfacet
  facet normal -0.000000e+000 -2.731848e-016 -1.000000e+000
    outer loop
      vertex   4.360000e+000 2.540000e-002 -1.270000e-002
      vertex   4.370000e+000 -3.504894e-019 -1.270000e-002
      vertex   4.360000e+000 -3.504894e-019 -1.270000e-002
    endloop
  endfacet
  facet normal 0.000000e+000 1.000000e+000 1.365924e-016
    outer loop
      vertex   4.370000e+000 2.540000e-002 1.270000e-002
      vertex   4.370000e+000 2.540000e-002 -1.270000e-002
      vertex   4.360000e+000 2.540000e-002 1.270000e-002
    endloop
  endfacet
  facet normal 0.000000e+000 1.000000e+000 1.365924e-016
    outer loop
      vertex   4.360000e+000 2.540000e-002 1.270000e-002
      vertex   4.370000e+000 2.540000e-002 -1.270000e-002
      vertex   4.360000e+000 2.540000e-002 -1.270000e-002
    endloop
  endfacet
  facet normal 1.734723e-016 6.829620e-017 1.000000e+000
    outer loop
      vertex   4.370000e+000 -3.318875e-018 1.270000e-002
      vertex   4.370000e+000 2.540000e-002 1.270000e-002
      vertex   4.360000e+000 -3.318875e-018 1.270000e-002
    endloop
  endfacet
  facet normal 0.000000e+000 1.365924e-016 1.000000e+000
    outer loop
      vertex   4.360000e+000 -3.318875e-018 1.270000e-002
      vertex   4.370000e+000 2.540000e-002 1.270000e-002
      vertex   4.360000e+000 2.540000e-002 1.270000e-002
    endloop
  endfacet
  facet normal 0.000000e+000 -1.000000e+000 -1.168656e-016
    outer loop
      vertex   4.370000e+000 -3.504894e-019 -1.270000e-002
      vertex   4.370000e+000 -3.318875e-018 1.270000e-002
      vertex   4.360000e+000 -3.504894e-019 -1.270000e-002
    endloop
  endfacet
  facet normal 5.676425e-032 -1.000000e+000 -1.168656e-016
    outer loop
      vertex   4.360000e+000 -3.504894e-019 -1.270000e-002
      vertex   4.370000e+000 -3.318875e-018 1.270000e-002
      vertex   4.360000e+000 -3.318875e-018 1.270000e-002
    endloop
  endfacet
  facet normal -1.000000e+000 0.000000e+000 -0.000000e+000
    outer loop
      vertex   4.360000e+000 -3.318875e-018 1.270000e-002
      vertex   4.360000e+000 2.540000e-002 1.270000e-002
      vertex   4.360000e+000 -3.504894e-019 -1.270000e-002
    endloop
  endfacet
  facet normal -1.000000e+000 0.000000e+000 0.000000e+000
    outer loop
      vertex   4.360000e+000 -3.504894e-019 -1.270000e-002
      vertex   4.360000e+000 2.540000e-002 1.270000e-002
      vertex   4.360000e+000 2.540000e-002 -1.270000e-002
    endloop
  endfacet
  facet normal 1.000000e+000 -0.000000e+000 -0.000000e+000
    outer loop
      vertex   4.370000e+000 -3.504894e-019 -1.270000e-002
      vertex   4.370000e+000 2.540000e-002 -1.270000e-002
      vertex   4.370000e+000 -3.318875e-018 1.270000e-002
    endloop
  endfacet
  facet normal 1.000000e+000 -0.000000e+000 -0.000000e+000
    outer loop
      vertex   4.370000e+000 -3.318875e-018 1.270000e-002
      vertex   4.370000e+000 2.540000e-002 -1.270000e-002
      vertex   4.370000e+000 2.540000e-002 1.270000e-002
    endloop
  endfacet
  facet normal -2.134256e-016 5.000000e-001 -8.660254e-001
    outer loop
      vertex   4.524000e+000 4.536182e-002 -6.179852e-002
      vertex   4.524000e+000 2.336477e-002 -7.449852e-002
      vertex   4.514000e+000 4.536182e-002 -6.179852e-002
    endloop
  endfacet
  facet normal -5.204170e-016 5.000000e-001 -8.660254e-001
    outer loop
      vertex   4.514000e+000 4.536182e-002 -6.179852e-002
      vertex   4.524000e+000 2.336477e-002 -7.449852e-002
      vertex   4.514000e+000 2.336477e-002 -7.449852e-002
    endloop
  endfacet
  facet normal -8.537025e-016 8.660254e-001 5.000000e-001
    outer loop
      vertex   4.524000e+000 3.266182e-002 -3.980148e-002
      vertex   4.524000e+000 4.536182e-002 -6.179852e-002
      vertex   4.514000e+000 3.266182e-002 -3.980148e-002
    endloop
  endfacet
  facet normal -6.009258e-016 8.660254e-001 5.000000e-001
    outer loop
      vertex   4.514000e+000 3.266182e-002 -3.980148e-002
      vertex   4.524000e+000 4.536182e-002 -6.179852e-002
      vertex   4.514000e+000 4.536182e-002 -6.179852e-002
    endloop
  endfacet
  facet normal 2.134256e-016 -5.000000e-001 8.660254e-001
    outer loop
      vertex   4.524000e+000 1.066477e-002 -5.250148e-002
      vertex   4.524000e+000 3.266182e-002 -3.980148e-002
      vertex   4.514000e+000 1.066477e-002 -5.250148e-002
    endloop
  endfacet
  facet normal -2.539811e-016 -5.000000e-001 8.660254e-001
    outer loop
      vertex   4.514000e+000 1.066477e-002 -5.250148e-002
      vertex   4.524000e+000 3.266182e-002 -3.980148e-002
      vertex   4.514000e+000 3.266182e-002 -3.980148e-002
    endloop
  endfacet
  facet normal 8.537025e-016 -8.660254e-001 -5.000000e-001
    outer loop
      vertex   4.524000e+000 2.336477e-002 -7.449852e-002
      vertex   4.524000e+000 1.066477e-002 -5.250148e-002
      vertex   4.514000e+000 2.336477e-002 -7.449852e-002
    endloop
  endfacet
  facet normal 9.013888e-016 -8.660254e-001 -5.000000e-001
    outer loop
      vertex   4.514000e+000 2.336477e-002 -7.449852e-002
      vertex   4.524000e+000 1.066477e-002 -5.250148e-002
      vertex   4.514000e+000 1.066477e-002 -5.250148e-002
    endloop
  endfacet
  facet normal -1.000000e+000 0.000000e+000 -0.000000e+000
    outer loop
      vertex   4.514000e+000 1.066477e-002 -5.250148e-002
      vertex   4.514000e+000 3.266182e-002 -3.980148e-002
      vertex   4.514000e+000 2.336477e-002 -7.449852e-002
    endloop
  endfacet
  facet normal -1.000000e+000 0.000000e+000 0.000000e+000
    outer loop
      vertex   4.514000e+000 2.336477e-002 -7.449852e-002
      vertex   4.514000e+000 3.266182e-002 -3.980148e-002
      vertex   4.514000e+000 4.536182e-002 -6.179852e-002
    endloop
  endfacet
  facet normal 1.000000e+000 0.000000e+000 -0.000000e+000
    outer loop
      vertex   4.524000e+000 2.336477e-002 -7.449852e-002
      vertex   4.524000e+000 4.536182e-002 -6.179852e-002
      vertex   4.524000e+000 1.066477e-002 -5.250148e-002
    endloop
  endfacet
  facet normal 1.000000e+000 -0.000000e+000 -0.000000e+000
    outer loop
      vertex   4.524000e+000 1.066477e-002 -5.250148e-002
      vertex   4.524000e+000 4.536182e-002 -6.179852e-002
      vertex   4.524000e+000 3.266182e-002 -3.980148e-002
    endloop
  endfacet
  facet normal -4.268512e-016 -5.000000e-001 -8.660254e-001
    outer loop
      vertex   4.524000e+000 3.266182e-002 3.980148e-002
      vertex   4.524000e+000 1.066477e-002 5.250148e-002
      vertex   4.514000e+000 3.266182e-002 3.980148e-002
    endloop
  endfacet
  facet normal 1.672450e-016 -5.000000e-001 -8.660254e-001
    outer loop
      vertex   4.514000e+000 3.266182e-002 3.980148e-002
      vertex   4.524000e+000 1.066477e-002 5.250148e-002
      vertex   4.514000e+000 1.066477e-002 5.250148e-002
    endloop
  endfacet
  facet normal 0.000000e+000 8.660254e-001 -5.000000e-001
    outer loop
      vertex   4.524000e+000 4.536182e-002 6.179852e-002
      vertex   4.524000e+000 3.266182e-002 3.980148e-002
      vertex   4.514000e+000 4.536182e-002 6.179852e-002
    endloop
  endfacet
  facet normal 6.009258e-016 8.660254e-001 -5.000000e-001
    outer loop
      vertex   4.514000e+000 4.536182e-002 6.179852e-002
      vertex   4.524000e+000 3.266182e-002 3.980148e-002
      vertex   4.514000e+000 3.266182e-002 3.980148e-002
    endloop
  endfacet
  facet normal 4.268512e-016 5.000000e-001 8.660254e-001
    outer loop
      vertex   4.524000e+000 2.336477e-002 7.449852e-002
      vertex   4.524000e+000 4.536182e-002 6.179852e-002
      vertex   4.514000e+000 2.336477e-002 7.449852e-002
    endloop
  endfacet
  facet normal 0.000000e+000 5.000000e-001 8.660254e-001
    outer loop
      vertex   4.514000e+000 2.336477e-002 7.449852e-002
      vertex   4.524000e+000 4.536182e-002 6.179852e-002
      vertex   4.514000e+000 4.536182e-002 6.179852e-002
    endloop
  endfacet
  facet normal -1.067128e-015 -8.660254e-001 5.000000e-001
    outer loop
      vertex   4.524000e+000 1.066477e-002 5.250148e-002
      vertex   4.524000e+000 2.336477e-002 7.449852e-002
      vertex   4.514000e+000 1.066477e-002 5.250148e-002
    endloop
  endfacet
  facet normal -9.013888e-016 -8.660254e-001 5.000000e-001
    outer loop
      vertex   4.514000e+000 1.066477e-002 5.250148e-002
      vertex   4.524000e+000 2.336477e-002 7.449852e-002
      vertex   4.514000e+000 2.336477e-002 7.449852e-002
    endloop
  endfacet
  facet normal -1.000000e+000 0.000000e+000 -0.000000e+000
    outer loop
      vertex   4.514000e+000 2.336477e-002 7.449852e-002
      vertex   4.514000e+000 4.536182e-002 6.179852e-002
      vertex   4.514000e+000 1.066477e-002 5.250148e-002
    endloop
  endfacet
  facet normal -1.000000e+000 0.000000e+000 -0.000000e+000
    outer loop
      vertex   4.514000e+000 1.066477e-002 5.250148e-002
      vertex   4.514000e+000 4.536182e-002 6.179852e-002
      vertex   4.514000e+000 3.266182e-002 3.980148e-002
    endloop
  endfacet
  facet normal 1.000000e+000 -0.000000e+000 -0.000000e+000
    outer loop
      vertex   4.524000e+000 1.066477e-002 5.250148e-002
      vertex   4.524000e+000 3.266182e-002 3.980148e-002
      vertex   4.524000e+000 2.336477e-002 7.449852e-002
    endloop
  endfacet
  facet normal 1.000000e+000 -0.000000e+000 0.000000e+000
    outer loop
      vertex   4.524000e+000 2.336477e-002 7.449852e-002
      vertex   4.524000e+000 3.266182e-002 3.980148e-002
      vertex   4.524000e+000 4.536182e-002 6.179852e-002
    endloop
  endfacet
  facet normal 0.000000e+000 -2.731848e-016 -1.000000e+000
    outer loop
      vertex   4.674000e+000 2.540000e-002 -1.270000e-002
      vertex   4.674000e+000 -3.504894e-019 -1.270000e-002
      vertex   4.664000e+000 2.540000e-002 -1.270000e-002
    endloop
  endfacet
  facet normal -0.000000e+000 -2.731848e-016 -1.000000e+000
    outer loop
      vertex   4.664000e+000 2.540000e-002 -1.270000e-002
      vertex   4.674000e+000 -3.504894e-019 -1.270000e-002
      vertex   4.664000e+000 -3.504894e-019 -1.270000e-002
    endloop
  endfacet
  facet normal 0.000000e+000 1.000000e+000 1.365924e-016
    outer loop
      vertex   4.674000e+000 2.540000e-002 1.270000e-002
      vertex   4.674000e+000 2.540000e-002 -1.270000e-002
      vertex   4.664000e+000 2.540000e-002 1.270000e-002
    endloop
  endfacet
  facet normal 0.000000e+000 1.000000e+000 1.365924e-016
    outer loop
      vertex   4.664000e+000 2.540000e-002 1.270000e-002
      vertex   4.674000e+000 2.540000e-002 -1.270000e-002
      vertex   4.664000e+000 2.540000e-002 -1.270000e-002
    endloop
  endfacet
  facet normal 1.734723e-016 6.829620e-017 1.000000e+000
    outer loop
      vertex   4.674000e+000 -3.318875e-018 1.270000e-002
      vertex   4.674000e+000 2.540000e-002 1.270000e-002
      vertex   4.664000e+000 -3.318875e-018 1.270000e-002
    endloop
  endfacet
  facet normal 0.000000e+000 1.365924e-016 1.000000e+000
    outer loop
      vertex   4.664000e+000 -3.318875e-018 1.270000e-002
      vertex   4.674000e+000 2.540000e-002 1.270000e-002
      vertex   4.664000e+000 2.540000e-002 1.270000e-002
    endloop
  endfacet
  facet normal 0.000000e+000 -1.000000e+000 -1.168656e-016
    outer loop
      vertex   4.674000e+000 -3.504894e-019 -1.270000e-002
      vertex   4.674000e+000 -3.318875e-018 1.270000e-002
      vertex   4.664000e+000 -3.504894e-019 -1.270000e-002
    endloop
  endfacet
  facet normal 5.676425e-032 -1.000000e+000 -1.168656e-016
    outer loop
      vertex   4.664000e+000 -3.504894e-019 -1.270000e-002
      vertex   4.674000e+000 -3.318875e-018 1.270000e-002
      vertex   4.664000e+000 -3.318875e-018 1.270000e-002
    endloop
  endfacet
  facet normal -1.000000e+000 0.000000e+000 -0.000000e+000
    outer loop
      vertex   4.664000e+000 -3.318875e-018 1.270000e-002
      vertex   4.664000e+000 2.540000e-002 1.270000e-002
      vertex   4.664000e+000 -3.504894e-019 -1.270000e-002
    endloop
  endfacet
  facet normal -1.000000e+000 0.000000e+000 0.000000e+000
    outer loop
      vertex   4.664000e+000 -3.504894e-019 -1.270000e-002
      vertex   4.664000e+000 2.540000e-002 1.270000e-002
      vertex   4.664000e+000 2.540000e-002 -1.270000e-002
    endloop
  endfacet
  facet normal 1.000000e+000 -0.000000e+000 -0.000000e+000
    outer loop
      vertex   4.674000e+000 -3.504894e-019 -1.270000e-002
      vertex   4.674000e+000 2.540000e-002 -1.270000e-002
      vertex   4.674000e+000 -3.318875e-018 1.270000e-002
    endloop
  endfacet
  facet normal 1.000000e+000 -0.000000e+000 -0.000000e+000
    outer loop
      vertex   4.674000e+000 -3.318875e-018 1.270000e-002
      vertex   4.674000e+000 2.540000e-002 -1.270000e-002
      vertex   4.674000e+000 2.540000e-002 1.270000e-002
    endloop
  endfacet
  facet normal -2.134256e-016 5.000000e-001 -8.660254e-001
    outer loop
      vertex   4.828000e+000 4.536182e-002 -6.179852e-002
      vertex   4.828000e+000 2.336477e-002 -7.449852e-002
      vertex   4.818000e+000 4.536182e-002 -6.179852e-002
    endloop
  endfacet
  facet normal -3.469447e-016 5.000000e-001 -8.660254e-001
    outer loop
      vertex   4.818000e+000 4.536182e-002 -6.179852e-002
      vertex   4.828000e+000 2.336477e-002 -7.449852e-002
      vertex   4.818000e+000 2.336477e-002 -7.449852e-002
    endloop
  endfacet
  facet normal -8.537025e-016 8.660254e-001 5.000000e-001
    outer loop
      vertex   4.828000e+000 3.266182e-002 -3.980148e-002
      vertex   4.828000e+000 4.536182e-002 -6.179852e-002
      vertex   4.818000e+000 3.266182e-002 -3.980148e-002
    endloop
  endfacet
  facet normal -6.009258e-016 8.660254e-001 5.000000e-001
    outer loop
      vertex   4.818000e+000 3.266182e-002 -3.980148e-002
      vertex   4.828000e+000 4.536182e-002 -6.179852e-002
      vertex   4.818000e+000 4.536182e-002 -6.179852e-002
    endloop
  endfacet
  facet normal 6.402769e-016 -5.000000e-001 8.660254e-001
    outer loop
      vertex   4.828000e+000 1.066477e-002 -5.250148e-002
      vertex   4.828000e+000 3.266182e-002 -3.980148e-002
      vertex   4.818000e+000 1.066477e-002 -5.250148e-002
    endloop
  endfacet
  facet normal -2.539811e-016 -5.000000e-001 8.660254e-001
    outer loop
      vertex   4.818000e+000 1.066477e-002 -5.250148e-002
      vertex   4.828000e+000 3.266182e-002 -3.980148e-002
      vertex   4.818000e+000 3.266182e-002 -3.980148e-002
    endloop
  endfacet
  facet normal 6.402769e-016 -8.660254e-001 -5.000000e-001
    outer loop
      vertex   4.828000e+000 2.336477e-002 -7.449852e-002
      vertex   4.828000e+000 1.066477e-002 -5.250148e-002
      vertex   4.818000e+000 2.336477e-002 -7.449852e-002
    endloop
  endfacet
  facet normal 1.051620e-015 -8.660254e-001 -5.000000e-001
    outer loop
      vertex   4.818000e+000 2.336477e-002 -7.449852e-002
      vertex   4.828000e+000 1.066477e-002 -5.250148e-002
      vertex   4.818000e+000 1.066477e-002 -5.250148e-002
    endloop
  endfacet
  facet normal -1.000000e+000 0.000000e+000 -0.000000e+000
    outer loop
      vertex   4.818000e+000 1.066477e-002 -5.250148e-002
      vertex   4.818000e+000 3.266182e-002 -3.980148e-002
      vertex   4.818000e+000 2.336477e-002 -7.449852e-002
    endloop
  endfacet
  facet normal -1.000000e+000 0.000000e+000 0.000000e+000
    outer loop
      vertex   4.818000e+000 2.336477e-002 -7.449852e-002
      vertex   4.818000e+000 3.266182e-002 -3.980148e-002
      vertex   4.818000e+000 4.536182e-002 -6.179852e-002
    endloop
  endfacet
  facet normal 1.000000e+000 0.000000e+000 -0.000000e+000
    outer loop
      vertex   4.828000e+000 2.336477e-002 -7.449852e-002
      vertex   4.828000e+000 4.536182e-002 -6.179852e-002
      vertex   4.828000e+000 1.066477e-002 -5.250148e-002
    endloop
  endfacet
  facet normal 1.000000e+000 -0.000000e+000 -0.000000e+000
    outer loop
      vertex   4.828000e+000 1.066477e-002 -5.250148e-002
      vertex   4.828000e+000 4.536182e-002 -6.179852e-002
      vertex   4.828000e+000 3.266182e-002 -3.980148e-002
    endloop
  endfacet
  facet normal -4.268512e-016 -5.000000e-001 -8.660254e-001
    outer loop
      vertex   4.828000e+000 3.266182e-002 3.980148e-002
      vertex   4.828000e+000 1.066477e-002 5.250148e-002
      vertex   4.818000e+000 3.266182e-002 3.980148e-002
    endloop
  endfacet
  facet normal 1.672450e-016 -5.000000e-001 -8.660254e-001
    outer loop
      vertex   4.818000e+000 3.266182e-002 3.980148e-002
      vertex   4.828000e+000 1.066477e-002 5.250148e-002
      vertex   4.818000e+000 1.066477e-002 5.250148e-002
    endloop
  endfacet
  facet normal 1.280554e-015 8.660254e-001 -5.000000e-001
    outer loop
      vertex   4.828000e+000 4.536182e-002 6.179852e-002
      vertex   4.828000e+000 3.266182e-002 3.980148e-002
      vertex   4.818000e+000 4.536182e-002 6.179852e-002
    endloop
  endfacet
  facet normal 6.009258e-016 8.660254e-001 -5.000000e-001
    outer loop
      vertex   4.818000e+000 4.536182e-002 6.179852e-002
      vertex   4.828000e+000 3.266182e-002 3.980148e-002
      vertex   4.818000e+000 3.266182e-002 3.980148e-002
    endloop
  endfacet
  facet normal 6.402769e-016 5.000000e-001 8.660254e-001
    outer loop
      vertex   4.828000e+000 2.336477e-002 7.449852e-002
      vertex   4.828000e+000 4.536182e-002 6.179852e-002
      vertex   4.818000e+000 2.336477e-002 7.449852e-002
    endloop
  endfacet
  facet normal 6.938894e-016 5.000000e-001 8.660254e-001
    outer loop
      vertex   4.818000e+000 2.336477e-002 7.449852e-002
      vertex   4.828000e+000 4.536182e-002 6.179852e-002
      vertex   4.818000e+000 4.536182e-002 6.179852e-002
    endloop
  endfacet
  facet normal -1.067128e-015 -8.660254e-001 5.000000e-001
    outer loop
      vertex   4.828000e+000 1.066477e-002 5.250148e-002
      vertex   4.828000e+000 2.336477e-002 7.449852e-002
      vertex   4.818000e+000 1.066477e-002 5.250148e-002
    endloop
  endfacet
  facet normal -1.201852e-015 -8.660254e-001 5.000000e-001
    outer loop
      vertex   4.818000e+000 1.066477e-002 5.250148e-002
      vertex   4.828000e+000 2.336477e-002 7.449852e-002
      vertex   4.818000e+000 2.336477e-002 7.449852e-002
    endloop
  endfacet
  facet normal -1.000000e+000 0.000000e+000 -0.000000e+000
    outer loop
      vertex   4.818000e+000 2.336477e-002 7.449852e-002
      vertex   4.818000e+000 4.536182e-002 6.179852e-002
      vertex   4.818000e+000 1.066477e-002 5.250148e-002
    endloop
  endfacet
  facet normal -1.000000e+000 0.000000e+000 -0.000000e+000
    outer loop
      vertex   4.818000e+000 1.066477e-002 5.250148e-002
      vertex   4.818000e+000 4.536182e-002 6.179852e-002
      vertex   4.818000e+000 3.266182e-002 3.980148e-002
    endloop
  endfacet
  facet normal 1.000000e+000 -0.000000e+000 -0.000000e+000
    outer loop
      vertex   4.828000e+000 1.066477e-002 5.250148e-002
      vertex   4.828000e+000 3.266182e-002 3.980148e-002
      vertex   4.828000e+000 2.336477e-002 7.449852e-002
    endloop
  endfacet
  facet normal 1.000000e+000 -0.000000e+000 0.000000e+000
    outer loop
      vertex   4.828000e+000 2.336477e-002 7.449852e-002
      vertex   4.828000e+000 3.266182e-002 3.980148e-002
      vertex   4.828000e+000 4.536182e-002 6.179852e-002
    endloop
  endfacet
  facet normal 0.000000e+000 -2.731848e-016 -1.000000e+000
    outer loop
      vertex   4.978000e+000 2.540000e-002 -1.270000e-002
      vertex   4.978000e+000 -3.504894e-019 -1.270000e-002
      vertex   4.968000e+000 2.540000e-002 -1.270000e-002
    endloop
  endfacet
  facet normal -0.000000e+000 -2.731848e-016 -1.000000e+000
    outer loop
      vertex   4.968000e+000 2.540000e-002 -1.270000e-002
      vertex   4.978000e+000 -3.504894e-019 -1.270000e-002
      vertex   4.968000e+000 -3.504894e-019 -1.270000e-002
    endloop
  endfacet
  facet normal 0.000000e+000 1.000000e+000 1.365924e-016
    outer loop
      vertex   4.978000e+000 2.540000e-002 1.270000e-002
      vertex   4.978000e+000 2.540000e-002 -1.270000e-002
      vertex   4.968000e+000 2.540000e-002 1.270000e-002
    endloop
  endfacet
  facet normal 0.000000e+000 1.000000e+000 1.365924e-016
    outer loop
      vertex   4.968000e+000 2.540000e-002 1.270000e-002
      vertex   4.978000e+000 2.540000e-002 -1.270000e-002
      vertex   4.968000e+000 2.540000e-002 -1.270000e-002
    endloop
  endfacet
  facet normal 1.734723e-016 6.829620e-017 1.000000e+000
    outer loop
      vertex   4.978000e+000 -3.318875e-018 1.270000e-002
      vertex   4.978000e+000 2.540000e-002 1.270000e-002
      vertex   4.968000e+000 -3.318875e-018 1.270000e-002
    endloop
  endfacet
  facet normal 0.000000e+000 1.365924e-016 1.000000e+000
    outer loop
      vertex   4.968000e+000 -3.318875e-018 1.270000e-002
      vertex   4.978000e+000 2.540000e-002 1.270000e-002
      vertex   4.968000e+000 2.540000e-002 1.270000e-002
    endloop
  endfacet
  facet normal 0.000000e+000 -1.000000e+000 -1.168656e-016
    outer loop
      vertex   4.978000e+000 -3.504894e-019 -1.270000e-002
      vertex   4.978000e+000 -3.318875e-018 1.270000e-002
      vertex   4.968000e+000 -3.504894e-019 -1.270000e-002
    endloop
  endfacet
  facet normal 5.676425e-032 -1.000000e+000 -1.168656e-016
    outer loop
      vertex   4.968000e+000 -3.504894e-019 -1.270000e-002
      vertex   4.978000e+000 -3.318875e-018 1.270000e-002
      vertex   4.968000e+000 -3.318875e-018 1.270000e-002
    endloop
  endfacet
  facet normal -1.000000e+000 0.000000e+000 -0.000000e+000
    outer loop
      vertex   4.968000e+000 -3.318875e-018 1.270000e-002
      vertex   4.968000e+000 2.540000e-002 1.270000e-002
      vertex   4.968000e+000 -3.504894e-019 -1.270000e-002
    endloop
  endfacet
  facet normal -1.000000e+000 0.000000e+000 0.000000e+000
    outer loop
      vertex   4.968000e+000 -3.504894e-019 -1.270000e-002
      vertex   4.968000e+000 2.540000e-002 1.270000e-002
      vertex   4.968000e+000 2.540000e-002 -1.270000e-002
    endloop
  endfacet
  facet normal 1.000000e+000 -0.000000e+000 -0.000000e+000
    outer loop
      vertex   4.978000e+000 -3.504894e-019 -1.270000e-002
      vertex   4.978000e+000 2.540000e-002 -1.270000e-002
      vertex   4.978000e+000 -3.318875e-018 1.270000e-002
    endloop
  endfacet
  facet normal 1.000000e+000 -0.000000e+000 -0.000000e+000
    outer loop
      vertex   4.978000e+000 -3.318875e-018 1.270000e-002
      vertex   4.978000e+000 2.540000e-002 -1.270000e-002
      vertex   4.978000e+000 2.540000e-002 1.270000e-002
    endloop
  endfacet
  facet normal -2.134256e-016 5.000000e-001 -8.660254e-001
    outer loop
      vertex   5.132000e+000 4.536182e-002 -6.179852e-002
      vertex   5.132000e+000 2.336477e-002 -7.449852e-002
      vertex   5.122000e+000 4.536182e-002 -6.179852e-002
    endloop
  endfacet
  facet normal -3.469447e-016 5.000000e-001 -8.660254e-001
    outer loop
      vertex   5.122000e+000 4.536182e-002 -6.179852e-002
      vertex   5.132000e+000 2.336477e-002 -7.449852e-002
      vertex   5.122000e+000 2.336477e-002 -7.449852e-002
    endloop
  endfacet
  facet normal -8.537025e-016 8.660254e-001 5.000000e-001
    outer loop
      vertex   5.132000e+000 3.266182e-002 -3.980148e-002
      vertex   5.132000e+000 4.536182e-002 -6.179852e-002
      vertex   5.122000e+000 3.266182e-002 -3.980148e-002
    endloop
  endfacet
  facet normal -6.009258e-016 8.660254e-001 5.000000e-001
    outer loop
      vertex   5.122000e+000 3.266182e-002 -3.980148e-002
      vertex   5.132000e+000 4.536182e-002 -6.179852e-002
      vertex   5.122000e+000 4.536182e-002 -6.179852e-002
    endloop
  endfacet
  facet normal 6.402769e-016 -5.000000e-001 8.660254e-001
    outer loop
      vertex   5.132000e+000 1.066477e-002 -5.250148e-002
      vertex   5.132000e+000 3.266182e-002 -3.980148e-002
      vertex   5.122000e+000 1.066477e-002 -5.250148e-002
    endloop
  endfacet
  facet normal -2.539811e-016 -5.000000e-001 8.660254e-001
    outer loop
      vertex   5.122000e+000 1.066477e-002 -5.250148e-002
      vertex   5.132000e+000 3.266182e-002 -3.980148e-002
      vertex   5.122000e+000 3.266182e-002 -3.980148e-002
    endloop
  endfacet
  facet normal 6.402769e-016 -8.660254e-001 -5.000000e-001
    outer loop
      vertex   5.132000e+000 2.336477e-002 -7.449852e-002
      vertex   5.132000e+000 1.066477e-002 -5.250148e-002
      vertex   5.122000e+000 2.336477e-002 -7.449852e-002
    endloop
  endfacet
  facet normal 1.051620e-015 -8.660254e-001 -5.000000e-001
    outer loop
      vertex   5.122000e+000 2.336477e-002 -7.449852e-002
      vertex   5.132000e+000 1.066477e-002 -5.250148e-002
      vertex   5.122000e+000 1.066477e-002 -5.250148e-002
    endloop
  endfacet
  facet normal -1.000000e+000 0.000000e+000 -0.000000e+000
    outer loop
      vertex   5.122000e+000 1.066477e-002 -5.250148e-002
      vertex   5.122000e+000 3.266182e-002 -3.980148e-002
      vertex   5.122000e+000 2.336477e-002 -7.449852e-002
    endloop
  endfacet
  facet normal -1.000000e+000 0.000000e+000 0.000000e+000
    outer loop
      vertex   5.122000e+000 2.336477e-002 -7.449852e-002
      vertex   5.122000e+000 3.266182e-002 -3.980148e-002
      vertex   5.122000e+000 4.536182e-002 -6.179852e-002
    endloop
  endfacet
  facet normal 1.000000e+000 0.000000e+000 -0.000000e+000
    outer loop
      vertex   5.132000e+000 2.336477e-002 -7.449852e-002
      vertex   5.132000e+000 4.536182e-002 -6.179852e-002
      vertex   5.132000e+000 1.066477e-002 -5.250148e-002
    endloop
  endfacet
  facet normal 1.000000e+000 -0.000000e+000 -0.000000e+000
    outer loop
      vertex   5.132000e+000 1.066477e-002 -5.250148e-002
      vertex   5.132000e+000 4.536182e-002 -6.179852e-002
      vertex   5.132000e+000 3.266182e-002 -3.980148e-002
    endloop
  endfacet
  facet normal -4.268512e-016 -5.000000e-001 -8.660254e-001
    outer loop
      vertex   5.132000e+000 3.266182e-002 3.980148e-002
      vertex   5.132000e+000 1.066477e-002 5.250148e-002
      vertex   5.122000e+000 3.266182e-002 3.980148e-002
    endloop
  endfacet
  facet normal 1.672450e-016 -5.000000e-001 -8.660254e-001
    outer loop
      vertex   5.122000e+000 3.266182e-002 3.980148e-002
      vertex   5.132000e+000 1.066477e-002 5.250148e-002
      vertex   5.122000e+000 1.066477e-002 5.250148e-002
    endloop
  endfacet
  facet normal 1.280554e-015 8.660254e-001 -5.000000e-001
    outer loop
      vertex   5.132000e+000 4.536182e-002 6.179852e-002
      vertex   5.132000e+000 3.266182e-002 3.980148e-002
      vertex   5.122000e+000 4.536182e-002 6.179852e-002
    endloop
  endfacet
  facet normal 6.009258e-016 8.660254e-001 -5.000000e-001
    outer loop
      vertex   5.122000e+000 4.536182e-002 6.179852e-002
      vertex   5.132000e+000 3.266182e-002 3.980148e-002
      vertex   5.122000e+000 3.266182e-002 3.980148e-002
    endloop
  endfacet
  facet normal 6.402769e-016 5.000000e-001 8.660254e-001
    outer loop
      vertex   5.132000e+000 2.336477e-002 7.449852e-002
      vertex   5.132000e+000 4.536182e-002 6.179852e-002
      vertex   5.122000e+000 2.336477e-002 7.449852e-002
    endloop
  endfacet
  facet normal 6.938894e-016 5.000000e-001 8.660254e-001
    outer loop
      vertex   5.122000e+000 2.336477e-002 7.449852e-002
      vertex   5.132000e+000 4.536182e-002 6.179852e-002
      vertex   5.122000e+000 4.536182e-002 6.179852e-002
    endloop
  endfacet
  facet normal -1.067128e-015 -8.660254e-001 5.000000e-001
    outer loop
      vertex   5.132000e+000 1.066477e-002 5.250148e-002
      vertex   5.132000e+000 2.336477e-002 7.449852e-002
      vertex   5.122000e+000 1.066477e-002 5.250148e-002
    endloop
  endfacet
  facet normal -1.201852e-015 -8.660254e-001 5.000000e-001
    outer loop
      vertex   5.122000e+000 1.066477e-002 5.250148e-002
      vertex   5.132000e+000 2.336477e-002 7.449852e-002
      vertex   5.122000e+000 2.336477e-002 7.449852e-002
    endloop
  endfacet
  facet normal -1.000000e+000 0.000000e+000 -0.000000e+000
    outer loop
      vertex   5.122000e+000 2.336477e-002 7.449852e-002
      vertex   5.122000e+000 4.536182e-002 6.179852e-002
      vertex   5.122000e+000 1.066477e-002 5.250148e-002
    endloop
  endfacet
  facet normal -1.000000e+000 0.000000e+000 -0.000000e+000
    outer loop
      vertex   5.122000e+000 1.066477e-002 5.250148e-002
      vertex   5.122000e+000 4.536182e-002 6.179852e-002
      vertex   5.122000e+000 3.266182e-002 3.980148e-002
    endloop
  endfacet
  facet normal 1.000000e+000 -0.000000e+000 -0.000000e+000
    outer loop
      vertex   5.132000e+000 1.066477e-002 5.250148e-002
      vertex   5.132000e+000 3.266182e-002 3.980148e-002
      vertex   5.132000e+000 2.336477e-002 7.449852e-002
    endloop
  endfacet
  facet normal 1.000000e+000 -0.000000e+000 0.000000e+000
    outer loop
      vertex   5.132000e+000 2.336477e-002 7.449852e-002
      vertex   5.132000e+000 3.266182e-002 3.980148e-002
      vertex   5.132000e+000 4.536182e-002 6.179852e-002
    endloop
  endfacet
  facet normal 0.000000e+000 -2.731848e-016 -1.000000e+000
    outer loop
      vertex   5.282000e+000 2.540000e-002 -1.270000e-002
      vertex   5.282000e+000 -3.504894e-019 -1.270000e-002
      vertex   5.272000e+000 2.540000e-002 -1.270000e-002
    endloop
  endfacet
  facet normal -0.000000e+000 -2.731848e-016 -1.000000e+000
    outer loop
      vertex   5.272000e+000 2.540000e-002 -1.270000e-002
      vertex   5.282000e+000 -3.504894e-019 -1.270000e-002
      vertex   5.272000e+000 -3.504894e-019 -1.270000e-002
    endloop
  endfacet
  facet normal 0.000000e+000 1.000000e+000 1.365924e-016
    outer loop
      vertex   5.282000e+000 2.540000e-002 1.270000e-002
      vertex   5.282000e+000 2.540000e-002 -1.270000e-002
      vertex   5.272000e+000 2.540000e-002 1.270000e-002
    endloop
  endfacet
  facet normal 0.000000e+000 1.000000e+000 1.365924e-016
    outer loop
      vertex   5.272000e+000 2.540000e-002 1.270000e-002
      vertex   5.282000e+000 2.540000e-002 -1.270000e-002
      vertex   5.272000e+000 2.540000e-002 -1.270000e-002
    endloop
  endfacet
  facet normal 1.734723e-016 6.829620e-017 1.000000e+000
    outer loop
      vertex   5.282000e+000 -3.318875e-018 1.270000e-002
      vertex   5.282000e+000 2.540000e-002 1.270000e-002
      vertex   5.272000e+000 -3.318875e-018 1.270000e-002
    endloop
  endfacet
  facet normal 0.000000e+000 1.365924e-016 1.000000e+000
    outer loop
      vertex   5.272000e+000 -3.318875e-018 1.270000e-002
      vertex   5.282000e+000 2.540000e-002 1.270000e-002
      vertex   5.272000e+000 2.540000e-002 1.270000e-002
    endloop
  endfacet
  facet normal 0.000000e+000 -1.000000e+000 -1.168656e-016
    outer loop
      vertex   5.282000e+000 -3.504894e-019 -1.270000e-002
      vertex   5.282000e+000 -3.318875e-018 1.270000e-002
      vertex   5.272000e+000 -3.504894e-019 -1.270000e-002
    endloop
  endfacet
  facet normal 5.676425e-032 -1.000000e+000 -1.168656e-016
    outer loop
      vertex   5.272000e+000 -3.504894e-019 -1.270000e-002
      vertex   5.282000e+000 -3.318875e-018 1.270000e-002
      vertex   5.272000e+000 -3.318875e-018 1.270000e-002
    endloop
  endfacet
  facet normal -1.000000e+000 0.000000e+000 -0.000000e+000
    outer loop
      vertex   5.272000e+000 -3.318875e-018 1.270000e-002
      vertex   5.272000e+000 2.540000e-002 1.270000e-002
      vertex   5.272000e+000 -3.504894e-019 -1.270000e-002
    endloop
  endfacet
  facet normal -1.000000e+000 0.000000e+000 0.000000e+000
    outer loop
      vertex   5.272000e+000 -3.504894e-019 -1.270000e-002
      vertex   5.272000e+000 2.540000e-002 1.270000e-002
      vertex   5.272000e+000 2.540000e-002 -1.270000e-002
    endloop
  endfacet
  facet normal 1.000000e+000 -0.000000e+000 -0.000000e+000
    outer loop
      vertex   5.282000e+000 -3.504894e-019 -1.270000e-002
      vertex   5.282000e+000 2.540000e-002 -1.270000e-002
      vertex   5.282000e+000 -3.318875e-018 1.270000e-002
    endloop
  endfacet
  facet normal 1.000000e+000 -0.000000e+000 -0.000000e+000
    outer loop
      vertex   5.282000e+000 -3.318875e-018 1.270000e-002
      vertex   5.282000e+000 2.540000e-002 -1.270000e-002
      vertex   5.282000e+000 2.540000e-002 1.270000e-002
    endloop
  endfacet
endsolid
