solid ascii
  facet normal 0.000000e+000 -6.829620e-017 -1.000000e+000
    outer loop
      vertex   3.914000e+000 2.540000e-002 -1.270000e-002
      vertex   3.914000e+000 2.582342e-018 -1.270000e-002
      vertex   3.904000e+000 2.540000e-002 -1.270000e-002
    endloop
  endfacet
  facet normal -0.000000e+000 -6.829620e-017 -1.000000e+000
    outer loop
      vertex   3.904000e+000 2.540000e-002 -1.270000e-002
      vertex   3.914000e+000 2.582342e-018 -1.270000e-002
      vertex   3.904000e+000 2.582342e-018 -1.270000e-002
    endloop
  endfacet
  facet normal 0.000000e+000 1.000000e+000 1.365924e-016
    outer loop
      vertex   3.914000e+000 2.540000e-002 1.270000e-002
      vertex   3.914000e+000 2.540000e-002 -1.270000e-002
      vertex   3.904000e+000 2.540000e-002 1.270000e-002
    endloop
  endfacet
  facet normal 0.000000e+000 1.000000e+000 1.365924e-016
    outer loop
      vertex   3.904000e+000 2.540000e-002 1.270000e-002
      vertex   3.914000e+000 2.540000e-002 -1.270000e-002
      vertex   3.904000e+000 2.540000e-002 -1.270000e-002
    endloop
  endfacet
  facet normal -3.469447e-016 -1.365924e-016 1.000000e+000
    outer loop
      vertex   3.914000e+000 -6.251707e-018 1.270000e-002
      vertex   3.914000e+000 2.540000e-002 1.270000e-002
      vertex   3.904000e+000 -6.251707e-018 1.270000e-002
    endloop
  endfacet
  facet normal 0.000000e+000 -2.731848e-016 1.000000e+000
    outer loop
      vertex   3.904000e+000 -6.251707e-018 1.270000e-002
      vertex   3.914000e+000 2.540000e-002 1.270000e-002
      vertex   3.904000e+000 2.540000e-002 1.270000e-002
    endloop
  endfacet
  facet normal 0.000000e+000 -1.000000e+000 -3.477972e-016
    outer loop
      vertex   3.914000e+000 2.582342e-018 -1.270000e-002
      vertex   3.914000e+000 -6.251707e-018 1.270000e-002
      vertex   3.904000e+000 2.582342e-018 -1.270000e-002
    endloop
  endfacet
  facet normal 4.362919e-032 -1.000000e+000 -3.477972e-016
    outer loop
      vertex   3.904000e+000 2.582342e-018 -1.270000e-002
      vertex   3.914000e+000 -6.251707e-018 1.270000e-002
      vertex   3.904000e+000 -6.251707e-018 1.270000e-002
    endloop
  endfacet
  facet normal -1.000000e+000 0.000000e+000 -0.000000e+000
    outer loop
      vertex   3.904000e+000 -6.251707e-018 1.270000e-002
      vertex   3.904000e+000 2.540000e-002 1.270000e-002
      vertex   3.904000e+000 2.582342e-018 -1.270000e-002
    endloop
  endfacet
  facet normal -1.000000e+000 0.000000e+000 0.000000e+000
    outer loop
      vertex   3.904000e+000 2.582342e-018 -1.270000e-002
      vertex   3.904000e+000 2.540000e-002 1.270000e-002
      vertex   3.904000e+000 2.540000e-002 -1.270000e-002
    endloop
  endfacet
  facet normal 1.000000e+000 -0.000000e+000 -0.000000e+000
    outer loop
      vertex   3.914000e+000 2.582342e-018 -1.270000e-002
      vertex   3.914000e+000 2.540000e-002 -1.270000e-002
      vertex   3.914000e+000 -6.251707e-018 1.270000e-002
    endloop
  endfacet
  facet normal 1.000000e+000 -0.000000e+000 -0.000000e+000
    outer loop
      vertex   3.914000e+000 -6.251707e-018 1.270000e-002
      vertex   3.914000e+000 2.540000e-002 -1.270000e-002
      vertex   3.914000e+000 2.540000e-002 1.270000e-002
    endloop
  endfacet
  facet normal -1.067128e-015 5.000000e-001 -8.660254e-001
    outer loop
      vertex   3.914000e+000 4.536182e-002 -6.179852e-002
      vertex   3.914000e+000 2.336477e-002 -7.449852e-002
      vertex   3.904000e+000 4.536182e-002 -6.179852e-002
    endloop
  endfacet
  facet normal -3.469447e-016 5.000000e-001 -8.660254e-001
    outer loop
      vertex   3.904000e+000 4.536182e-002 -6.179852e-002
      vertex   3.914000e+000 2.336477e-002 -7.449852e-002
      vertex   3.904000e+000 2.336477e-002 -7.449852e-002
    endloop
  endfacet
  facet normal -1.280554e-015 8.660254e-001 5.000000e-001
    outer loop
      vertex   3.914000e+000 3.266182e-002 -3.980148e-002
      vertex   3.914000e+000 4.536182e-002 -6.179852e-002
      vertex   3.904000e+000 3.266182e-002 -3.980148e-002
    endloop
  endfacet
  facet normal -1.802778e-015 8.660254e-001 5.000000e-001
    outer loop
      vertex   3.904000e+000 3.266182e-002 -3.980148e-002
      vertex   3.914000e+000 4.536182e-002 -6.179852e-002
      vertex   3.904000e+000 4.536182e-002 -6.179852e-002
    endloop
  endfacet
  facet normal 2.134256e-016 -5.000000e-001 8.660254e-001
    outer loop
      vertex   3.914000e+000 1.066477e-002 -5.250148e-002
      vertex   3.914000e+000 3.266182e-002 -3.980148e-002
      vertex   3.904000e+000 1.066477e-002 -5.250148e-002
    endloop
  endfacet
  facet normal 6.938894e-016 -5.000000e-001 8.660254e-001
    outer loop
      vertex   3.904000e+000 1.066477e-002 -5.250148e-002
      vertex   3.914000e+000 3.266182e-002 -3.980148e-002
      vertex   3.904000e+000 3.266182e-002 -3.980148e-002
    endloop
  endfacet
  facet normal 6.402769e-016 -8.660254e-001 -5.000000e-001
    outer loop
      vertex   3.914000e+000 2.336477e-002 -7.449852e-002
      vertex   3.914000e+000 1.066477e-002 -5.250148e-002
      vertex   3.904000e+000 2.336477e-002 -7.449852e-002
    endloop
  endfacet
  facet normal 7.511573e-016 -8.660254e-001 -5.000000e-001
    outer loop
      vertex   3.904000e+000 2.336477e-002 -7.449852e-002
      vertex   3.914000e+000 1.066477e-002 -5.250148e-002
      vertex   3.904000e+000 1.066477e-002 -5.250148e-002
    endloop
  endfacet
  facet normal -1.000000e+000 0.000000e+000 -0.000000e+000
    outer loop
      vertex   3.904000e+000 1.066477e-002 -5.250148e-002
      vertex   3.904000e+000 3.266182e-002 -3.980148e-002
      vertex   3.904000e+000 2.336477e-002 -7.449852e-002
    endloop
  endfacet
  facet normal -1.000000e+000 0.000000e+000 0.000000e+000
    outer loop
      vertex   3.904000e+000 2.336477e-002 -7.449852e-002
      vertex   3.904000e+000 3.266182e-002 -3.980148e-002
      vertex   3.904000e+000 4.536182e-002 -6.179852e-002
    endloop
  endfacet
  facet normal 1.000000e+000 0.000000e+000 -0.000000e+000
    outer loop
      vertex   3.914000e+000 2.336477e-002 -7.449852e-002
      vertex   3.914000e+000 4.536182e-002 -6.179852e-002
      vertex   3.914000e+000 1.066477e-002 -5.250148e-002
    endloop
  endfacet
  facet normal 1.000000e+000 -0.000000e+000 -0.000000e+000
    outer loop
      vertex   3.914000e+000 1.066477e-002 -5.250148e-002
      vertex   3.914000e+000 4.536182e-002 -6.179852e-002
      vertex   3.914000e+000 3.266182e-002 -3.980148e-002
    endloop
  endfacet
  facet normal 2.134256e-016 -5.000000e-001 -8.660254e-001
    outer loop
      vertex   3.914000e+000 3.266182e-002 3.980148e-002
      vertex   3.914000e+000 1.066477e-002 5.250148e-002
      vertex   3.904000e+000 3.266182e-002 3.980148e-002
    endloop
  endfacet
  facet normal -2.602085e-016 -5.000000e-001 -8.660254e-001
    outer loop
      vertex   3.904000e+000 3.266182e-002 3.980148e-002
      vertex   3.914000e+000 1.066477e-002 5.250148e-002
      vertex   3.904000e+000 1.066477e-002 5.250148e-002
    endloop
  endfacet
  facet normal 4.268512e-016 8.660254e-001 -5.000000e-001
    outer loop
      vertex   3.914000e+000 4.536182e-002 6.179852e-002
      vertex   3.914000e+000 3.266182e-002 3.980148e-002
      vertex   3.904000e+000 4.536182e-002 6.179852e-002
    endloop
  endfacet
  facet normal 9.478705e-016 8.660254e-001 -5.000000e-001
    outer loop
      vertex   3.904000e+000 4.536182e-002 6.179852e-002
      vertex   3.914000e+000 3.266182e-002 3.980148e-002
      vertex   3.904000e+000 3.266182e-002 3.980148e-002
    endloop
  endfacet
  facet normal 2.134256e-016 5.000000e-001 8.660254e-001
    outer loop
      vertex   3.914000e+000 2.336477e-002 7.449852e-002
      vertex   3.914000e+000 4.536182e-002 6.179852e-002
      vertex   3.904000e+000 2.336477e-002 7.449852e-002
    endloop
  endfacet
  facet normal 3.469447e-016 5.000000e-001 8.660254e-001
    outer loop
      vertex   3.904000e+000 2.336477e-002 7.449852e-002
      vertex   3.914000e+000 4.536182e-002 6.179852e-002
      vertex   3.904000e+000 4.536182e-002 6.179852e-002
    endloop
  endfacet
  facet normal -4.268512e-016 -8.660254e-001 5.000000e-001
    outer loop
      vertex   3.914000e+000 1.066477e-002 5.250148e-002
      vertex   3.914000e+000 2.336477e-002 7.449852e-002
      vertex   3.904000e+000 1.066477e-002 5.250148e-002
    endloop
  endfacet
  facet normal -3.004629e-016 -8.660254e-001 5.000000e-001
    outer loop
      vertex   3.904000e+000 1.066477e-002 5.250148e-002
      vertex   3.914000e+000 2.336477e-002 7.449852e-002
      vertex   3.904000e+000 2.336477e-002 7.449852e-002
    endloop
  endfacet
  facet normal -1.000000e+000 0.000000e+000 -0.000000e+000
    outer loop
      vertex   3.904000e+000 2.336477e-002 7.449852e-002
      vertex   3.904000e+000 4.536182e-002 6.179852e-002
      vertex   3.904000e+000 1.066477e-002 5.250148e-002
    endloop
  endfacet
  facet normal -1.000000e+000 0.000000e+000 -0.000000e+000
    outer loop
      vertex   3.904000e+000 1.066477e-002 5.250148e-002
      vertex   3.904000e+000 4.536182e-002 6.179852e-002
      vertex   3.904000e+000 3.266182e-002 3.980148e-002
    endloop
  endfacet
  facet normal 1.000000e+000 -0.000000e+000 -0.000000e+000
    outer loop
      vertex   3.914000e+000 1.066477e-002 5.250148e-002
      vertex   3.914000e+000 3.266182e-002 3.980148e-002
      vertex   3.914000e+000 2.336477e-002 7.449852e-002
    endloop
  endfacet
  facet normal 1.000000e+000 -0.000000e+000 0.000000e+000
    outer loop
      vertex   3.914000e+000 2.336477e-002 7.449852e-002
      vertex   3.914000e+000 3.266182e-002 3.980148e-002
      vertex   3.914000e+000 4.536182e-002 6.179852e-002
    endloop
  endfacet
  facet normal 0.000000e+000 -6.829620e-017 -1.000000e+000
    outer loop
      vertex   4.066000e+000 2.540000e-002 -1.270000e-002
      vertex   4.066000e+000 2.582342e-018 -1.270000e-002
      vertex   4.056000e+000 2.540000e-002 -1.270000e-002
    endloop
  endfacet
  facet normal -0.000000e+000 -6.829620e-017 -1.000000e+000
    outer loop
      vertex   4.056000e+000 2.540000e-002 -1.270000e-002
      vertex   4.066000e+000 2.582342e-018 -1.270000e-002
      vertex   4.056000e+000 2.582342e-018 -1.270000e-002
    endloop
  endfacet
  facet normal 0.000000e+000 1.000000e+000 1.365924e-016
    outer loop
      vertex   4.066000e+000 2.540000e-002 1.270000e-002
      vertex   4.066000e+000 2.540000e-002 -1.270000e-002
      vertex   4.056000e+000 2.540000e-002 1.270000e-002
    endloop
  endfacet
  facet normal 0.000000e+000 1.000000e+000 1.365924e-016
    outer loop
      vertex   4.056000e+000 2.540000e-002 1.270000e-002
      vertex   4.066000e+000 2.540000e-002 -1.270000e-002
      vertex   4.056000e+000 2.540000e-002 -1.270000e-002
    endloop
  endfacet
  facet normal -3.469447e-016 -1.365924e-016 1.000000e+000
    outer loop
      vertex   4.066000e+000 -6.251707e-018 1.270000e-002
      vertex   4.066000e+000 2.540000e-002 1.270000e-002
      vertex   4.056000e+000 -6.251707e-018 1.270000e-002
    endloop
  endfacet
  facet normal 0.000000e+000 -2.731848e-016 1.000000e+000
    outer loop
      vertex   4.056000e+000 -6.251707e-018 1.270000e-002
      vertex   4.066000e+000 2.540000e-002 1.270000e-002
      vertex   4.056000e+000 2.540000e-002 1.270000e-002
    endloop
  endfacet
  facet normal 0.000000e+000 -1.000000e+000 -3.477972e-016
    outer loop
      vertex   4.066000e+000 2.582342e-018 -1.270000e-002
      vertex   4.066000e+000 -6.251707e-018 1.270000e-002
      vertex   4.056000e+000 2.582342e-018 -1.270000e-002
    endloop
  endfacet
  facet normal 4.362919e-032 -1.000000e+000 -3.477972e-016
    outer loop
      vertex   4.056000e+000 2.582342e-018 -1.270000e-002
      vertex   4.066000e+000 -6.251707e-018 1.270000e-002
      vertex   4.056000e+000 -6.251707e-018 1.270000e-002
    endloop
  endfacet
  facet normal -1.000000e+000 0.000000e+000 -0.000000e+000
    outer loop
      vertex   4.056000e+000 -6.251707e-018 1.270000e-002
      vertex   4.056000e+000 2.540000e-002 1.270000e-002
      vertex   4.056000e+000 2.582342e-018 -1.270000e-002
    endloop
  endfacet
  facet normal -1.000000e+000 0.000000e+000 0.000000e+000
    outer loop
      vertex   4.056000e+000 2.582342e-018 -1.270000e-002
      vertex   4.056000e+000 2.540000e-002 1.270000e-002
      vertex   4.056000e+000 2.540000e-002 -1.270000e-002
    endloop
  endfacet
  facet normal 1.000000e+000 -0.000000e+000 -0.000000e+000
    outer loop
      vertex   4.066000e+000 2.582342e-018 -1.270000e-002
      vertex   4.066000e+000 2.540000e-002 -1.270000e-002
      vertex   4.066000e+000 -6.251707e-018 1.270000e-002
    endloop
  endfacet
  facet normal 1.000000e+000 -0.000000e+000 -0.000000e+000
    outer loop
      vertex   4.066000e+000 -6.251707e-018 1.270000e-002
      vertex   4.066000e+000 2.540000e-002 -1.270000e-002
      vertex   4.066000e+000 2.540000e-002 1.270000e-002
    endloop
  endfacet
  facet normal -1.067128e-015 5.000000e-001 -8.660254e-001
    outer loop
      vertex   4.066000e+000 4.536182e-002 -6.179852e-002
      vertex   4.066000e+000 2.336477e-002 -7.449852e-002
      vertex   4.056000e+000 4.536182e-002 -6.179852e-002
    endloop
  endfacet
  facet normal -3.469447e-016 5.000000e-001 -8.660254e-001
    outer loop
      vertex   4.056000e+000 4.536182e-002 -6.179852e-002
      vertex   4.066000e+000 2.336477e-002 -7.449852e-002
      vertex   4.056000e+000 2.336477e-002 -7.449852e-002
    endloop
  endfacet
  facet normal -1.280554e-015 8.660254e-001 5.000000e-001
    outer loop
      vertex   4.066000e+000 3.266182e-002 -3.980148e-002
      vertex   4.066000e+000 4.536182e-002 -6.179852e-002
      vertex   4.056000e+000 3.266182e-002 -3.980148e-002
    endloop
  endfacet
  facet normal -1.802778e-015 8.660254e-001 5.000000e-001
    outer loop
      vertex   4.056000e+000 3.266182e-002 -3.980148e-002
      vertex   4.066000e+000 4.536182e-002 -6.179852e-002
      vertex   4.056000e+000 4.536182e-002 -6.179852e-002
    endloop
  endfacet
  facet normal 2.134256e-016 -5.000000e-001 8.660254e-001
    outer loop
      vertex   4.066000e+000 1.066477e-002 -5.250148e-002
      vertex   4.066000e+000 3.266182e-002 -3.980148e-002
      vertex   4.056000e+000 1.066477e-002 -5.250148e-002
    endloop
  endfacet
  facet normal 6.938894e-016 -5.000000e-001 8.660254e-001
    outer loop
      vertex   4.056000e+000 1.066477e-002 -5.250148e-002
      vertex   4.066000e+000 3.266182e-002 -3.980148e-002
      vertex   4.056000e+000 3.266182e-002 -3.980148e-002
    endloop
  endfacet
  facet normal 6.402769e-016 -8.660254e-001 -5.000000e-001
    outer loop
      vertex   4.066000e+000 2.336477e-002 -7.449852e-002
      vertex   4.066000e+000 1.066477e-002 -5.250148e-002
      vertex   4.056000e+000 2.336477e-002 -7.449852e-002
    endloop
  endfacet
  facet normal 7.511573e-016 -8.660254e-001 -5.000000e-001
    outer loop
      vertex   4.056000e+000 2.336477e-002 -7.449852e-002
      vertex   4.066000e+000 1.066477e-002 -5.250148e-002
      vertex   4.056000e+000 1.066477e-002 -5.250148e-002
    endloop
  endfacet
  facet normal -1.000000e+000 0.000000e+000 -0.000000e+000
    outer loop
      vertex   4.056000e+000 1.066477e-002 -5.250148e-002
      vertex   4.056000e+000 3.266182e-002 -3.980148e-002
      vertex   4.056000e+000 2.336477e-002 -7.449852e-002
    endloop
  endfacet
  facet normal -1.000000e+000 0.000000e+000 0.000000e+000
    outer loop
      vertex   4.056000e+000 2.336477e-002 -7.449852e-002
      vertex   4.056000e+000 3.266182e-002 -3.980148e-002
      vertex   4.056000e+000 4.536182e-002 -6.179852e-002
    endloop
  endfacet
  facet normal 1.000000e+000 0.000000e+000 -0.000000e+000
    outer loop
      vertex   4.066000e+000 2.336477e-002 -7.449852e-002
      vertex   4.066000e+000 4.536182e-002 -6.179852e-002
      vertex   4.066000e+000 1.066477e-002 -5.250148e-002
    endloop
  endfacet
  facet normal 1.000000e+000 -0.000000e+000 -0.000000e+000
    outer loop
      vertex   4.066000e+000 1.066477e-002 -5.250148e-002
      vertex   4.066000e+000 4.536182e-002 -6.179852e-002
      vertex   4.066000e+000 3.266182e-002 -3.980148e-002
    endloop
  endfacet
  facet normal 2.134256e-016 -5.000000e-001 -8.660254e-001
    outer loop
      vertex   4.066000e+000 3.266182e-002 3.980148e-002
      vertex   4.066000e+000 1.066477e-002 5.250148e-002
      vertex   4.056000e+000 3.266182e-002 3.980148e-002
    endloop
  endfacet
  facet normal -2.602085e-016 -5.000000e-001 -8.660254e-001
    outer loop
      vertex   4.056000e+000 3.266182e-002 3.980148e-002
      vertex   4.066000e+000 1.066477e-002 5.250148e-002
      vertex   4.056000e+000 1.066477e-002 5.250148e-002
    endloop
  endfacet
  facet normal 4.268512e-016 8.660254e-001 -5.000000e-001
    outer loop
      vertex   4.066000e+000 4.536182e-002 6.179852e-002
      vertex   4.066000e+000 3.266182e-002 3.980148e-002
      vertex   4.056000e+000 4.536182e-002 6.179852e-002
    endloop
  endfacet
  facet normal 9.478705e-016 8.660254e-001 -5.000000e-001
    outer loop
      vertex   4.056000e+000 4.536182e-002 6.179852e-002
      vertex   4.066000e+000 3.266182e-002 3.980148e-002
      vertex   4.056000e+000 3.266182e-002 3.980148e-002
    endloop
  endfacet
  facet normal 2.134256e-016 5.000000e-001 8.660254e-001
    outer loop
      vertex   4.066000e+000 2.336477e-002 7.449852e-002
      vertex   4.066000e+000 4.536182e-002 6.179852e-002
      vertex   4.056000e+000 2.336477e-002 7.449852e-002
    endloop
  endfacet
  facet normal 3.469447e-016 5.000000e-001 8.660254e-001
    outer loop
      vertex   4.056000e+000 2.336477e-002 7.449852e-002
      vertex   4.066000e+000 4.536182e-002 6.179852e-002
      vertex   4.056000e+000 4.536182e-002 6.179852e-002
    endloop
  endfacet
  facet normal -4.268512e-016 -8.660254e-001 5.000000e-001
    outer loop
      vertex   4.066000e+000 1.066477e-002 5.250148e-002
      vertex   4.066000e+000 2.336477e-002 7.449852e-002
      vertex   4.056000e+000 1.066477e-002 5.250148e-002
    endloop
  endfacet
  facet normal -3.004629e-016 -8.660254e-001 5.000000e-001
    outer loop
      vertex   4.056000e+000 1.066477e-002 5.250148e-002
      vertex   4.066000e+000 2.336477e-002 7.449852e-002
      vertex   4.056000e+000 2.336477e-002 7.449852e-002
    endloop
  endfacet
  facet normal -1.000000e+000 0.000000e+000 -0.000000e+000
    outer loop
      vertex   4.056000e+000 2.336477e-002 7.449852e-002
      vertex   4.056000e+000 4.536182e-002 6.179852e-002
      vertex   4.056000e+000 1.066477e-002 5.250148e-002
    endloop
  endfacet
  facet normal -1.000000e+000 0.000000e+000 -0.000000e+000
    outer loop
      vertex   4.056000e+000 1.066477e-002 5.250148e-002
      vertex   4.056000e+000 4.536182e-002 6.179852e-002
      vertex   4.056000e+000 3.266182e-002 3.980148e-002
    endloop
  endfacet
  facet normal 1.000000e+000 -0.000000e+000 -0.000000e+000
    outer loop
      vertex   4.066000e+000 1.066477e-002 5.250148e-002
      vertex   4.066000e+000 3.266182e-002 3.980148e-002
      vertex   4.066000e+000 2.336477e-002 7.449852e-002
    endloop
  endfacet
  facet normal 1.000000e+000 -0.000000e+000 0.000000e+000
    outer loop
      vertex   4.066000e+000 2.336477e-002 7.449852e-002
      vertex   4.066000e+000 3.266182e-002 3.980148e-002
      vertex   4.066000e+000 4.536182e-002 6.179852e-002
    endloop
  endfacet
  facet normal 0.000000e+000 -6.829620e-017 -1.000000e+000
    outer loop
      vertex   4.218000e+000 2.540000e-002 -1.270000e-002
      vertex   4.218000e+000 2.582342e-018 -1.270000e-002
      vertex   4.208000e+000 2.540000e-002 -1.270000e-002
    endloop
  endfacet
  facet normal -0.000000e+000 -6.829620e-017 -1.000000e+000
    outer loop
      vertex   4.208000e+000 2.540000e-002 -1.270000e-002
      vertex   4.218000e+000 2.582342e-018 -1.270000e-002
      vertex   4.208000e+000 2.582342e-018 -1.270000e-002
    endloop
  endfacet
  facet normal 0.000000e+000 1.000000e+000 1.365924e-016
    outer loop
      vertex   4.218000e+000 2.540000e-002 1.270000e-002
      vertex   4.218000e+000 2.540000e-002 -1.270000e-002
      vertex   4.208000e+000 2.540000e-002 1.270000e-002
    endloop
  endfacet
  facet normal 0.000000e+000 1.000000e+000 1.365924e-016
    outer loop
      vertex   4.208000e+000 2.540000e-002 1.270000e-002
      vertex   4.218000e+000 2.540000e-002 -1.270000e-002
      vertex   4.208000e+000 2.540000e-002 -1.270000e-002
    endloop
  endfacet
  facet normal -3.469447e-016 -1.365924e-016 1.000000e+000
    outer loop
      vertex   4.218000e+000 -6.251707e-018 1.270000e-002
      vertex   4.218000e+000 2.540000e-002 1.270000e-002
      vertex   4.208000e+000 -6.251707e-018 1.270000e-002
    endloop
  endfacet
  facet normal 0.000000e+000 -2.731848e-016 1.000000e+000
    outer loop
      vertex   4.208000e+000 -6.251707e-018 1.270000e-002
      vertex   4.218000e+000 2.540000e-002 1.270000e-002
      vertex   4.208000e+000 2.540000e-002 1.270000e-002
    endloop
  endfacet
  facet normal 0.000000e+000 -1.000000e+000 -3.477972e-016
    outer loop
      vertex   4.218000e+000 2.582342e-018 -1.270000e-002
      vertex   4.218000e+000 -6.251707e-018 1.270000e-002
      vertex   4.208000e+000 2.582342e-018 -1.270000e-002
    endloop
  endfacet
  facet normal 4.362919e-032 -1.000000e+000 -3.477972e-016
    outer loop
      vertex   4.208000e+000 2.582342e-018 -1.270000e-002
      vertex   4.218000e+000 -6.251707e-018 1.270000e-002
      vertex   4.208000e+000 -6.251707e-018 1.270000e-002
    endloop
  endfacet
  facet normal -1.000000e+000 0.000000e+000 -0.000000e+000
    outer loop
      vertex   4.208000e+000 -6.251707e-018 1.270000e-002
      vertex   4.208000e+000 2.540000e-002 1.270000e-002
      vertex   4.208000e+000 2.582342e-018 -1.270000e-002
    endloop
  endfacet
  facet normal -1.000000e+000 0.000000e+000 0.000000e+000
    outer loop
      vertex   4.208000e+000 2.582342e-018 -1.270000e-002
      vertex   4.208000e+000 2.540000e-002 1.270000e-002
      vertex   4.208000e+000 2.540000e-002 -1.270000e-002
    endloop
  endfacet
  facet normal 1.000000e+000 -0.000000e+000 -0.000000e+000
    outer loop
      vertex   4.218000e+000 2.582342e-018 -1.270000e-002
      vertex   4.218000e+000 2.540000e-002 -1.270000e-002
      vertex   4.218000e+000 -6.251707e-018 1.270000e-002
    endloop
  endfacet
  facet normal 1.000000e+000 -0.000000e+000 -0.000000e+000
    outer loop
      vertex   4.218000e+000 -6.251707e-018 1.270000e-002
      vertex   4.218000e+000 2.540000e-002 -1.270000e-002
      vertex   4.218000e+000 2.540000e-002 1.270000e-002
    endloop
  endfacet
  facet normal -1.067128e-015 5.000000e-001 -8.660254e-001
    outer loop
      vertex   4.218000e+000 4.536182e-002 -6.179852e-002
      vertex   4.218000e+000 2.336477e-002 -7.449852e-002
      vertex   4.208000e+000 4.536182e-002 -6.179852e-002
    endloop
  endfacet
  facet normal -3.469447e-016 5.000000e-001 -8.660254e-001
    outer loop
      vertex   4.208000e+000 4.536182e-002 -6.179852e-002
      vertex   4.218000e+000 2.336477e-002 -7.449852e-002
      vertex   4.208000e+000 2.336477e-002 -7.449852e-002
    endloop
  endfacet
  facet normal -1.280554e-015 8.660254e-001 5.000000e-001
    outer loop
      vertex   4.218000e+000 3.266182e-002 -3.980148e-002
      vertex   4.218000e+000 4.536182e-002 -6.179852e-002
      vertex   4.208000e+000 3.266182e-002 -3.980148e-002
    endloop
  endfacet
  facet normal -1.802778e-015 8.660254e-001 5.000000e-001
    outer loop
      vertex   4.208000e+000 3.266182e-002 -3.980148e-002
      vertex   4.218000e+000 4.536182e-002 -6.179852e-002
      vertex   4.208000e+000 4.536182e-002 -6.179852e-002
    endloop
  endfacet
  facet normal 2.134256e-016 -5.000000e-001 8.660254e-001
    outer loop
      vertex   4.218000e+000 1.066477e-002 -5.250148e-002
      vertex   4.218000e+000 3.266182e-002 -3.980148e-002
      vertex   4.208000e+000 1.066477e-002 -5.250148e-002
    endloop
  endfacet
  facet normal 6.938894e-016 -5.000000e-001 8.660254e-001
    outer loop
      vertex   4.208000e+000 1.066477e-002 -5.250148e-002
      vertex   4.218000e+000 3.266182e-002 -3.980148e-002
      vertex   4.208000e+000 3.266182e-002 -3.980148e-002
    endloop
  endfacet
  facet normal 6.402769e-016 -8.660254e-001 -5.000000e-001
    outer loop
      vertex   4.218000e+000 2.336477e-002 -7.449852e-002
      vertex   4.218000e+000 1.066477e-002 -5.250148e-002
      vertex   4.208000e+000 2.336477e-002 -7.449852e-002
    endloop
  endfacet
  facet normal 7.511573e-016 -8.660254e-001 -5.000000e-001
    outer loop
      vertex   4.208000e+000 2.336477e-002 -7.449852e-002
      vertex   4.218000e+000 1.066477e-002 -5.250148e-002
      vertex   4.208000e+000 1.066477e-002 -5.250148e-002
    endloop
  endfacet
  facet normal -1.000000e+000 0.000000e+000 -0.000000e+000
    outer loop
      vertex   4.208000e+000 1.066477e-002 -5.250148e-002
      vertex   4.208000e+000 3.266182e-002 -3.980148e-002
      vertex   4.208000e+000 2.336477e-002 -7.449852e-002
    endloop
  endfacet
  facet normal -1.000000e+000 0.000000e+000 0.000000e+000
    outer loop
      vertex   4.208000e+000 2.336477e-002 -7.449852e-002
      vertex   4.208000e+000 3.266182e-002 -3.980148e-002
      vertex   4.208000e+000 4.536182e-002 -6.179852e-002
    endloop
  endfacet
  facet normal 1.000000e+000 0.000000e+000 -0.000000e+000
    outer loop
      vertex   4.218000e+000 2.336477e-002 -7.449852e-002
      vertex   4.218000e+000 4.536182e-002 -6.179852e-002
      vertex   4.218000e+000 1.066477e-002 -5.250148e-002
    endloop
  endfacet
  facet normal 1.000000e+000 -0.000000e+000 -0.000000e+000
    outer loop
      vertex   4.218000e+000 1.066477e-002 -5.250148e-002
      vertex   4.218000e+000 4.536182e-002 -6.179852e-002
      vertex   4.218000e+000 3.266182e-002 -3.980148e-002
    endloop
  endfacet
  facet normal 2.134256e-016 -5.000000e-001 -8.660254e-001
    outer loop
      vertex   4.218000e+000 3.266182e-002 3.980148e-002
      vertex   4.218000e+000 1.066477e-002 5.250148e-002
      vertex   4.208000e+000 3.266182e-002 3.980148e-002
    endloop
  endfacet
  facet normal -2.602085e-016 -5.000000e-001 -8.660254e-001
    outer loop
      vertex   4.208000e+000 3.266182e-002 3.980148e-002
      vertex   4.218000e+000 1.066477e-002 5.250148e-002
      vertex   4.208000e+000 1.066477e-002 5.250148e-002
    endloop
  endfacet
  facet normal 4.268512e-016 8.660254e-001 -5.000000e-001
    outer loop
      vertex   4.218000e+000 4.536182e-002 6.179852e-002
      vertex   4.218000e+000 3.266182e-002 3.980148e-002
      vertex   4.208000e+000 4.536182e-002 6.179852e-002
    endloop
  endfacet
  facet normal 9.478705e-016 8.660254e-001 -5.000000e-001
    outer loop
      vertex   4.208000e+000 4.536182e-002 6.179852e-002
      vertex   4.218000e+000 3.266182e-002 3.980148e-002
      vertex   4.208000e+000 3.266182e-002 3.980148e-002
    endloop
  endfacet
  facet normal 2.134256e-016 5.000000e-001 8.660254e-001
    outer loop
      vertex   4.218000e+000 2.336477e-002 7.449852e-002
      vertex   4.218000e+000 4.536182e-002 6.179852e-002
      vertex   4.208000e+000 2.336477e-002 7.449852e-002
    endloop
  endfacet
  facet normal 3.469447e-016 5.000000e-001 8.660254e-001
    outer loop
      vertex   4.208000e+000 2.336477e-002 7.449852e-002
      vertex   4.218000e+000 4.536182e-002 6.179852e-002
      vertex   4.208000e+000 4.536182e-002 6.179852e-002
    endloop
  endfacet
  facet normal -4.268512e-016 -8.660254e-001 5.000000e-001
    outer loop
      vertex   4.218000e+000 1.066477e-002 5.250148e-002
      vertex   4.218000e+000 2.336477e-002 7.449852e-002
      vertex   4.208000e+000 1.066477e-002 5.250148e-002
    endloop
  endfacet
  facet normal -3.004629e-016 -8.660254e-001 5.000000e-001
    outer loop
      vertex   4.208000e+000 1.066477e-002 5.250148e-002
      vertex   4.218000e+000 2.336477e-002 7.449852e-002
      vertex   4.208000e+000 2.336477e-002 7.449852e-002
    endloop
  endfacet
  facet normal -1.000000e+000 0.000000e+000 -0.000000e+000
    outer loop
      vertex   4.208000e+000 2.336477e-002 7.449852e-002
      vertex   4.208000e+000 4.536182e-002 6.179852e-002
      vertex   4.208000e+000 1.066477e-002 5.250148e-002
    endloop
  endfacet
  facet normal -1.000000e+000 0.000000e+000 -0.000000e+000
    outer loop
      vertex   4.208000e+000 1.066477e-002 5.250148e-002
      vertex   4.208000e+000 4.536182e-002 6.179852e-002
      vertex   4.208000e+000 3.266182e-002 3.980148e-002
    endloop
  endfacet
  facet normal 1.000000e+000 -0.000000e+000 -0.000000e+000
    outer loop
      vertex   4.218000e+000 1.066477e-002 5.250148e-002
      vertex   4.218000e+000 3.266182e-002 3.980148e-002
      vertex   4.218000e+000 2.336477e-002 7.449852e-002
    endloop
  endfacet
  facet normal 1.000000e+000 -0.000000e+000 0.000000e+000
    outer loop
      vertex   4.218000e+000 2.336477e-002 7.449852e-002
      vertex   4.218000e+000 3.266182e-002 3.980148e-002
      vertex   4.218000e+000 4.536182e-002 6.179852e-002
    endloop
  endfacet
  facet normal 0.000000e+000 -6.829620e-017 -1.000000e+000
    outer loop
      vertex   4.370000e+000 2.540000e-002 -1.270000e-002
      vertex   4.370000e+000 2.582342e-018 -1.270000e-002
      vertex   4.360000e+000 2.540000e-002 -1.270000e-002
    endloop
  endfacet
  facet normal -0.000000e+000 -6.829620e-017 -1.000000e+000
    outer loop
      vertex   4.360000e+000 2.540000e-002 -1.270000e-002
      vertex   4.370000e+000 2.582342e-018 -1.270000e-002
      vertex   4.360000e+000 2.582342e-018 -1.270000e-002
    endloop
  endfacet
  facet normal 0.000000e+000 1.000000e+000 1.365924e-016
    outer loop
      vertex   4.370000e+000 2.540000e-002 1.270000e-002
      vertex   4.370000e+000 2.540000e-002 -1.270000e-002
      vertex   4.360000e+000 2.540000e-002 1.270000e-002
    endloop
  endfacet
  facet normal 0.000000e+000 1.000000e+000 1.365924e-016
    outer loop
      vertex   4.360000e+000 2.540000e-002 1.270000e-002
      vertex   4.370000e+000 2.540000e-002 -1.270000e-002
      vertex   4.360000e+000 2.540000e-002 -1.270000e-002
    endloop
  endfacet
  facet normal -3.469447e-016 -1.365924e-016 1.000000e+000
    outer loop
      vertex   4.370000e+000 -6.251707e-018 1.270000e-002
      vertex   4.370000e+000 2.540000e-002 1.270000e-002
      vertex   4.360000e+000 -6.251707e-018 1.270000e-002
    endloop
  endfacet
  facet normal 0.000000e+000 -2.731848e-016 1.000000e+000
    outer loop
      vertex   4.360000e+000 -6.251707e-018 1.270000e-002
      vertex   4.370000e+000 2.540000e-002 1.270000e-002
      vertex   4.360000e+000 2.540000e-002 1.270000e-002
    endloop
  endfacet
  facet normal 0.000000e+000 -1.000000e+000 -3.477972e-016
    outer loop
      vertex   4.370000e+000 2.582342e-018 -1.270000e-002
      vertex   4.370000e+000 -6.251707e-018 1.270000e-002
      vertex   4.360000e+000 2.582342e-018 -1.270000e-002
    endloop
  endfacet
  facet normal 4.362919e-032 -1.000000e+000 -3.477972e-016
    outer loop
      vertex   4.360000e+000 2.582342e-018 -1.270000e-002
      vertex   4.370000e+000 -6.251707e-018 1.270000e-002
      vertex   4.360000e+000 -6.251707e-018 1.270000e-002
    endloop
  endfacet
  facet normal -1.000000e+000 0.000000e+000 -0.000000e+000
    outer loop
      vertex   4.360000e+000 -6.251707e-018 1.270000e-002
      vertex   4.360000e+000 2.540000e-002 1.270000e-002
      vertex   4.360000e+000 2.582342e-018 -1.270000e-002
    endloop
  endfacet
  facet normal -1.000000e+000 0.000000e+000 0.000000e+000
    outer loop
      vertex   4.360000e+000 2.582342e-018 -1.270000e-002
      vertex   4.360000e+000 2.540000e-002 1.270000e-002
      vertex   4.360000e+000 2.540000e-002 -1.270000e-002
    endloop
  endfacet
  facet normal 1.000000e+000 -0.000000e+000 -0.000000e+000
    outer loop
      vertex   4.370000e+000 2.582342e-018 -1.270000e-002
      vertex   4.370000e+000 2.540000e-002 -1.270000e-002
      vertex   4.370000e+000 -6.251707e-018 1.270000e-002
    endloop
  endfacet
  facet normal 1.000000e+000 -0.000000e+000 -0.000000e+000
    outer loop
      vertex   4.370000e+000 -6.251707e-018 1.270000e-002
      vertex   4.370000e+000 2.540000e-002 -1.270000e-002
      vertex   4.370000e+000 2.540000e-002 1.270000e-002
    endloop
  endfacet
  facet normal -1.067128e-015 5.000000e-001 -8.660254e-001
    outer loop
      vertex   4.370000e+000 4.536182e-002 -6.179852e-002
      vertex   4.370000e+000 2.336477e-002 -7.449852e-002
      vertex   4.360000e+000 4.536182e-002 -6.179852e-002
    endloop
  endfacet
  facet normal -3.469447e-016 5.000000e-001 -8.660254e-001
    outer loop
      vertex   4.360000e+000 4.536182e-002 -6.179852e-002
      vertex   4.370000e+000 2.336477e-002 -7.449852e-002
      vertex   4.360000e+000 2.336477e-002 -7.449852e-002
    endloop
  endfacet
  facet normal -1.280554e-015 8.660254e-001 5.000000e-001
    outer loop
      vertex   4.370000e+000 3.266182e-002 -3.980148e-002
      vertex   4.370000e+000 4.536182e-002 -6.179852e-002
      vertex   4.360000e+000 3.266182e-002 -3.980148e-002
    endloop
  endfacet
  facet normal -1.802778e-015 8.660254e-001 5.000000e-001
    outer loop
      vertex   4.360000e+000 3.266182e-002 -3.980148e-002
      vertex   4.370000e+000 4.536182e-002 -6.179852e-002
      vertex   4.360000e+000 4.536182e-002 -6.179852e-002
    endloop
  endfacet
  facet normal 2.134256e-016 -5.000000e-001 8.660254e-001
    outer loop
      vertex   4.370000e+000 1.066477e-002 -5.250148e-002
      vertex   4.370000e+000 3.266182e-002 -3.980148e-002
      vertex   4.360000e+000 1.066477e-002 -5.250148e-002
    endloop
  endfacet
  facet normal 6.938894e-016 -5.000000e-001 8.660254e-001
    outer loop
      vertex   4.360000e+000 1.066477e-002 -5.250148e-002
      vertex   4.370000e+000 3.266182e-002 -3.980148e-002
      vertex   4.360000e+000 3.266182e-002 -3.980148e-002
    endloop
  endfacet
  facet normal 6.402769e-016 -8.660254e-001 -5.000000e-001
    outer loop
      vertex   4.370000e+000 2.336477e-002 -7.449852e-002
      vertex   4.370000e+000 1.066477e-002 -5.250148e-002
      vertex   4.360000e+000 2.336477e-002 -7.449852e-002
    endloop
  endfacet
  facet normal 7.511573e-016 -8.660254e-001 -5.000000e-001
    outer loop
      vertex   4.360000e+000 2.336477e-002 -7.449852e-002
      vertex   4.370000e+000 1.066477e-002 -5.250148e-002
      vertex   4.360000e+000 1.066477e-002 -5.250148e-002
    endloop
  endfacet
  facet normal -1.000000e+000 0.000000e+000 -0.000000e+000
    outer loop
      vertex   4.360000e+000 1.066477e-002 -5.250148e-002
      vertex   4.360000e+000 3.266182e-002 -3.980148e-002
      vertex   4.360000e+000 2.336477e-002 -7.449852e-002
    endloop
  endfacet
  facet normal -1.000000e+000 0.000000e+000 0.000000e+000
    outer loop
      vertex   4.360000e+000 2.336477e-002 -7.449852e-002
      vertex   4.360000e+000 3.266182e-002 -3.980148e-002
      vertex   4.360000e+000 4.536182e-002 -6.179852e-002
    endloop
  endfacet
  facet normal 1.000000e+000 0.000000e+000 -0.000000e+000
    outer loop
      vertex   4.370000e+000 2.336477e-002 -7.449852e-002
      vertex   4.370000e+000 4.536182e-002 -6.179852e-002
      vertex   4.370000e+000 1.066477e-002 -5.250148e-002
    endloop
  endfacet
  facet normal 1.000000e+000 -0.000000e+000 -0.000000e+000
    outer loop
      vertex   4.370000e+000 1.066477e-002 -5.250148e-002
      vertex   4.370000e+000 4.536182e-002 -6.179852e-002
      vertex   4.370000e+000 3.266182e-002 -3.980148e-002
    endloop
  endfacet
  facet normal 2.134256e-016 -5.000000e-001 -8.660254e-001
    outer loop
      vertex   4.370000e+000 3.266182e-002 3.980148e-002
      vertex   4.370000e+000 1.066477e-002 5.250148e-002
      vertex   4.360000e+000 3.266182e-002 3.980148e-002
    endloop
  endfacet
  facet normal -2.602085e-016 -5.000000e-001 -8.660254e-001
    outer loop
      vertex   4.360000e+000 3.266182e-002 3.980148e-002
      vertex   4.370000e+000 1.066477e-002 5.250148e-002
      vertex   4.360000e+000 1.066477e-002 5.250148e-002
    endloop
  endfacet
  facet normal 4.268512e-016 8.660254e-001 -5.000000e-001
    outer loop
      vertex   4.370000e+000 4.536182e-002 6.179852e-002
      vertex   4.370000e+000 3.266182e-002 3.980148e-002
      vertex   4.360000e+000 4.536182e-002 6.179852e-002
    endloop
  endfacet
  facet normal 9.478705e-016 8.660254e-001 -5.000000e-001
    outer loop
      vertex   4.360000e+000 4.536182e-002 6.179852e-002
      vertex   4.370000e+000 3.266182e-002 3.980148e-002
      vertex   4.360000e+000 3.266182e-002 3.980148e-002
    endloop
  endfacet
  facet normal 2.134256e-016 5.000000e-001 8.660254e-001
    outer loop
      vertex   4.370000e+000 2.336477e-002 7.449852e-002
      vertex   4.370000e+000 4.536182e-002 6.179852e-002
      vertex   4.360000e+000 2.336477e-002 7.449852e-002
    endloop
  endfacet
  facet normal 3.469447e-016 5.000000e-001 8.660254e-001
    outer loop
      vertex   4.360000e+000 2.336477e-002 7.449852e-002
      vertex   4.370000e+000 4.536182e-002 6.179852e-002
      vertex   4.360000e+000 4.536182e-002 6.179852e-002
    endloop
  endfacet
  facet normal -4.268512e-016 -8.660254e-001 5.000000e-001
    outer loop
      vertex   4.370000e+000 1.066477e-002 5.250148e-002
      vertex   4.370000e+000 2.336477e-002 7.449852e-002
      vertex   4.360000e+000 1.066477e-002 5.250148e-002
    endloop
  endfacet
  facet normal -3.004629e-016 -8.660254e-001 5.000000e-001
    outer loop
      vertex   4.360000e+000 1.066477e-002 5.250148e-002
      vertex   4.370000e+000 2.336477e-002 7.449852e-002
      vertex   4.360000e+000 2.336477e-002 7.449852e-002
    endloop
  endfacet
  facet normal -1.000000e+000 0.000000e+000 -0.000000e+000
    outer loop
      vertex   4.360000e+000 2.336477e-002 7.449852e-002
      vertex   4.360000e+000 4.536182e-002 6.179852e-002
      vertex   4.360000e+000 1.066477e-002 5.250148e-002
    endloop
  endfacet
  facet normal -1.000000e+000 0.000000e+000 -0.000000e+000
    outer loop
      vertex   4.360000e+000 1.066477e-002 5.250148e-002
      vertex   4.360000e+000 4.536182e-002 6.179852e-002
      vertex   4.360000e+000 3.266182e-002 3.980148e-002
    endloop
  endfacet
  facet normal 1.000000e+000 -0.000000e+000 -0.000000e+000
    outer loop
      vertex   4.370000e+000 1.066477e-002 5.250148e-002
      vertex   4.370000e+000 3.266182e-002 3.980148e-002
      vertex   4.370000e+000 2.336477e-002 7.449852e-002
    endloop
  endfacet
  facet normal 1.000000e+000 -0.000000e+000 0.000000e+000
    outer loop
      vertex   4.370000e+000 2.336477e-002 7.449852e-002
      vertex   4.370000e+000 3.266182e-002 3.980148e-002
      vertex   4.370000e+000 4.536182e-002 6.179852e-002
    endloop
  endfacet
  facet normal 0.000000e+000 -6.829620e-017 -1.000000e+000
    outer loop
      vertex   4.522000e+000 2.540000e-002 -1.270000e-002
      vertex   4.522000e+000 2.582342e-018 -1.270000e-002
      vertex   4.512000e+000 2.540000e-002 -1.270000e-002
    endloop
  endfacet
  facet normal -0.000000e+000 -6.829620e-017 -1.000000e+000
    outer loop
      vertex   4.512000e+000 2.540000e-002 -1.270000e-002
      vertex   4.522000e+000 2.582342e-018 -1.270000e-002
      vertex   4.512000e+000 2.582342e-018 -1.270000e-002
    endloop
  endfacet
  facet normal 0.000000e+000 1.000000e+000 1.365924e-016
    outer loop
      vertex   4.522000e+000 2.540000e-002 1.270000e-002
      vertex   4.522000e+000 2.540000e-002 -1.270000e-002
      vertex   4.512000e+000 2.540000e-002 1.270000e-002
    endloop
  endfacet
  facet normal 0.000000e+000 1.000000e+000 1.365924e-016
    outer loop
      vertex   4.512000e+000 2.540000e-002 1.270000e-002
      vertex   4.522000e+000 2.540000e-002 -1.270000e-002
      vertex   4.512000e+000 2.540000e-002 -1.270000e-002
    endloop
  endfacet
  facet normal -3.469447e-016 -1.365924e-016 1.000000e+000
    outer loop
      vertex   4.522000e+000 -6.251707e-018 1.270000e-002
      vertex   4.522000e+000 2.540000e-002 1.270000e-002
      vertex   4.512000e+000 -6.251707e-018 1.270000e-002
    endloop
  endfacet
  facet normal 0.000000e+000 -2.731848e-016 1.000000e+000
    outer loop
      vertex   4.512000e+000 -6.251707e-018 1.270000e-002
      vertex   4.522000e+000 2.540000e-002 1.270000e-002
      vertex   4.512000e+000 2.540000e-002 1.270000e-002
    endloop
  endfacet
  facet normal 0.000000e+000 -1.000000e+000 -3.477972e-016
    outer loop
      vertex   4.522000e+000 2.582342e-018 -1.270000e-002
      vertex   4.522000e+000 -6.251707e-018 1.270000e-002
      vertex   4.512000e+000 2.582342e-018 -1.270000e-002
    endloop
  endfacet
  facet normal 4.362919e-032 -1.000000e+000 -3.477972e-016
    outer loop
      vertex   4.512000e+000 2.582342e-018 -1.270000e-002
      vertex   4.522000e+000 -6.251707e-018 1.270000e-002
      vertex   4.512000e+000 -6.251707e-018 1.270000e-002
    endloop
  endfacet
  facet normal -1.000000e+000 0.000000e+000 -0.000000e+000
    outer loop
      vertex   4.512000e+000 -6.251707e-018 1.270000e-002
      vertex   4.512000e+000 2.540000e-002 1.270000e-002
      vertex   4.512000e+000 2.582342e-018 -1.270000e-002
    endloop
  endfacet
  facet normal -1.000000e+000 0.000000e+000 0.000000e+000
    outer loop
      vertex   4.512000e+000 2.582342e-018 -1.270000e-002
      vertex   4.512000e+000 2.540000e-002 1.270000e-002
      vertex   4.512000e+000 2.540000e-002 -1.270000e-002
    endloop
  endfacet
  facet normal 1.000000e+000 -0.000000e+000 -0.000000e+000
    outer loop
      vertex   4.522000e+000 2.582342e-018 -1.270000e-002
      vertex   4.522000e+000 2.540000e-002 -1.270000e-002
      vertex   4.522000e+000 -6.251707e-018 1.270000e-002
    endloop
  endfacet
  facet normal 1.000000e+000 -0.000000e+000 -0.000000e+000
    outer loop
      vertex   4.522000e+000 -6.251707e-018 1.270000e-002
      vertex   4.522000e+000 2.540000e-002 -1.270000e-002
      vertex   4.522000e+000 2.540000e-002 1.270000e-002
    endloop
  endfacet
  facet normal -1.067128e-015 5.000000e-001 -8.660254e-001
    outer loop
      vertex   4.522000e+000 4.536182e-002 -6.179852e-002
      vertex   4.522000e+000 2.336477e-002 -7.449852e-002
      vertex   4.512000e+000 4.536182e-002 -6.179852e-002
    endloop
  endfacet
  facet normal -3.469447e-016 5.000000e-001 -8.660254e-001
    outer loop
      vertex   4.512000e+000 4.536182e-002 -6.179852e-002
      vertex   4.522000e+000 2.336477e-002 -7.449852e-002
      vertex   4.512000e+000 2.336477e-002 -7.449852e-002
    endloop
  endfacet
  facet normal -1.280554e-015 8.660254e-001 5.000000e-001
    outer loop
      vertex   4.522000e+000 3.266182e-002 -3.980148e-002
      vertex   4.522000e+000 4.536182e-002 -6.179852e-002
      vertex   4.512000e+000 3.266182e-002 -3.980148e-002
    endloop
  endfacet
  facet normal -1.802778e-015 8.660254e-001 5.000000e-001
    outer loop
      vertex   4.512000e+000 3.266182e-002 -3.980148e-002
      vertex   4.522000e+000 4.536182e-002 -6.179852e-002
      vertex   4.512000e+000 4.536182e-002 -6.179852e-002
    endloop
  endfacet
  facet normal 2.134256e-016 -5.000000e-001 8.660254e-001
    outer loop
      vertex   4.522000e+000 1.066477e-002 -5.250148e-002
      vertex   4.522000e+000 3.266182e-002 -3.980148e-002
      vertex   4.512000e+000 1.066477e-002 -5.250148e-002
    endloop
  endfacet
  facet normal 6.938894e-016 -5.000000e-001 8.660254e-001
    outer loop
      vertex   4.512000e+000 1.066477e-002 -5.250148e-002
      vertex   4.522000e+000 3.266182e-002 -3.980148e-002
      vertex   4.512000e+000 3.266182e-002 -3.980148e-002
    endloop
  endfacet
  facet normal 6.402769e-016 -8.660254e-001 -5.000000e-001
    outer loop
      vertex   4.522000e+000 2.336477e-002 -7.449852e-002
      vertex   4.522000e+000 1.066477e-002 -5.250148e-002
      vertex   4.512000e+000 2.336477e-002 -7.449852e-002
    endloop
  endfacet
  facet normal 7.511573e-016 -8.660254e-001 -5.000000e-001
    outer loop
      vertex   4.512000e+000 2.336477e-002 -7.449852e-002
      vertex   4.522000e+000 1.066477e-002 -5.250148e-002
      vertex   4.512000e+000 1.066477e-002 -5.250148e-002
    endloop
  endfacet
  facet normal -1.000000e+000 0.000000e+000 -0.000000e+000
    outer loop
      vertex   4.512000e+000 1.066477e-002 -5.250148e-002
      vertex   4.512000e+000 3.266182e-002 -3.980148e-002
      vertex   4.512000e+000 2.336477e-002 -7.449852e-002
    endloop
  endfacet
  facet normal -1.000000e+000 0.000000e+000 0.000000e+000
    outer loop
      vertex   4.512000e+000 2.336477e-002 -7.449852e-002
      vertex   4.512000e+000 3.266182e-002 -3.980148e-002
      vertex   4.512000e+000 4.536182e-002 -6.179852e-002
    endloop
  endfacet
  facet normal 1.000000e+000 0.000000e+000 -0.000000e+000
    outer loop
      vertex   4.522000e+000 2.336477e-002 -7.449852e-002
      vertex   4.522000e+000 4.536182e-002 -6.179852e-002
      vertex   4.522000e+000 1.066477e-002 -5.250148e-002
    endloop
  endfacet
  facet normal 1.000000e+000 -0.000000e+000 -0.000000e+000
    outer loop
      vertex   4.522000e+000 1.066477e-002 -5.250148e-002
      vertex   4.522000e+000 4.536182e-002 -6.179852e-002
      vertex   4.522000e+000 3.266182e-002 -3.980148e-002
    endloop
  endfacet
  facet normal 2.134256e-016 -5.000000e-001 -8.660254e-001
    outer loop
      vertex   4.522000e+000 3.266182e-002 3.980148e-002
      vertex   4.522000e+000 1.066477e-002 5.250148e-002
      vertex   4.512000e+000 3.266182e-002 3.980148e-002
    endloop
  endfacet
  facet normal -2.602085e-016 -5.000000e-001 -8.660254e-001
    outer loop
      vertex   4.512000e+000 3.266182e-002 3.980148e-002
      vertex   4.522000e+000 1.066477e-002 5.250148e-002
      vertex   4.512000e+000 1.066477e-002 5.250148e-002
    endloop
  endfacet
  facet normal 4.268512e-016 8.660254e-001 -5.000000e-001
    outer loop
      vertex   4.522000e+000 4.536182e-002 6.179852e-002
      vertex   4.522000e+000 3.266182e-002 3.980148e-002
      vertex   4.512000e+000 4.536182e-002 6.179852e-002
    endloop
  endfacet
  facet normal 9.478705e-016 8.660254e-001 -5.000000e-001
    outer loop
      vertex   4.512000e+000 4.536182e-002 6.179852e-002
      vertex   4.522000e+000 3.266182e-002 3.980148e-002
      vertex   4.512000e+000 3.266182e-002 3.980148e-002
    endloop
  endfacet
  facet normal 2.134256e-016 5.000000e-001 8.660254e-001
    outer loop
      vertex   4.522000e+000 2.336477e-002 7.449852e-002
      vertex   4.522000e+000 4.536182e-002 6.179852e-002
      vertex   4.512000e+000 2.336477e-002 7.449852e-002
    endloop
  endfacet
  facet normal 3.469447e-016 5.000000e-001 8.660254e-001
    outer loop
      vertex   4.512000e+000 2.336477e-002 7.449852e-002
      vertex   4.522000e+000 4.536182e-002 6.179852e-002
      vertex   4.512000e+000 4.536182e-002 6.179852e-002
    endloop
  endfacet
  facet normal -4.268512e-016 -8.660254e-001 5.000000e-001
    outer loop
      vertex   4.522000e+000 1.066477e-002 5.250148e-002
      vertex   4.522000e+000 2.336477e-002 7.449852e-002
      vertex   4.512000e+000 1.066477e-002 5.250148e-002
    endloop
  endfacet
  facet normal -3.004629e-016 -8.660254e-001 5.000000e-001
    outer loop
      vertex   4.512000e+000 1.066477e-002 5.250148e-002
      vertex   4.522000e+000 2.336477e-002 7.449852e-002
      vertex   4.512000e+000 2.336477e-002 7.449852e-002
    endloop
  endfacet
  facet normal -1.000000e+000 0.000000e+000 -0.000000e+000
    outer loop
      vertex   4.512000e+000 2.336477e-002 7.449852e-002
      vertex   4.512000e+000 4.536182e-002 6.179852e-002
      vertex   4.512000e+000 1.066477e-002 5.250148e-002
    endloop
  endfacet
  facet normal -1.000000e+000 0.000000e+000 -0.000000e+000
    outer loop
      vertex   4.512000e+000 1.066477e-002 5.250148e-002
      vertex   4.512000e+000 4.536182e-002 6.179852e-002
      vertex   4.512000e+000 3.266182e-002 3.980148e-002
    endloop
  endfacet
  facet normal 1.000000e+000 -0.000000e+000 -0.000000e+000
    outer loop
      vertex   4.522000e+000 1.066477e-002 5.250148e-002
      vertex   4.522000e+000 3.266182e-002 3.980148e-002
      vertex   4.522000e+000 2.336477e-002 7.449852e-002
    endloop
  endfacet
  facet normal 1.000000e+000 -0.000000e+000 0.000000e+000
    outer loop
      vertex   4.522000e+000 2.336477e-002 7.449852e-002
      vertex   4.522000e+000 3.266182e-002 3.980148e-002
      vertex   4.522000e+000 4.536182e-002 6.179852e-002
    endloop
  endfacet
  facet normal 0.000000e+000 -6.829620e-017 -1.000000e+000
    outer loop
      vertex   4.674000e+000 2.540000e-002 -1.270000e-002
      vertex   4.674000e+000 2.582342e-018 -1.270000e-002
      vertex   4.664000e+000 2.540000e-002 -1.270000e-002
    endloop
  endfacet
  facet normal -0.000000e+000 -6.829620e-017 -1.000000e+000
    outer loop
      vertex   4.664000e+000 2.540000e-002 -1.270000e-002
      vertex   4.674000e+000 2.582342e-018 -1.270000e-002
      vertex   4.664000e+000 2.582342e-018 -1.270000e-002
    endloop
  endfacet
  facet normal 0.000000e+000 1.000000e+000 1.365924e-016
    outer loop
      vertex   4.674000e+000 2.540000e-002 1.270000e-002
      vertex   4.674000e+000 2.540000e-002 -1.270000e-002
      vertex   4.664000e+000 2.540000e-002 1.270000e-002
    endloop
  endfacet
  facet normal 0.000000e+000 1.000000e+000 1.365924e-016
    outer loop
      vertex   4.664000e+000 2.540000e-002 1.270000e-002
      vertex   4.674000e+000 2.540000e-002 -1.270000e-002
      vertex   4.664000e+000 2.540000e-002 -1.270000e-002
    endloop
  endfacet
  facet normal -3.469447e-016 -1.365924e-016 1.000000e+000
    outer loop
      vertex   4.674000e+000 -6.251707e-018 1.270000e-002
      vertex   4.674000e+000 2.540000e-002 1.270000e-002
      vertex   4.664000e+000 -6.251707e-018 1.270000e-002
    endloop
  endfacet
  facet normal 0.000000e+000 -2.731848e-016 1.000000e+000
    outer loop
      vertex   4.664000e+000 -6.251707e-018 1.270000e-002
      vertex   4.674000e+000 2.540000e-002 1.270000e-002
      vertex   4.664000e+000 2.540000e-002 1.270000e-002
    endloop
  endfacet
  facet normal 0.000000e+000 -1.000000e+000 -3.477972e-016
    outer loop
      vertex   4.674000e+000 2.582342e-018 -1.270000e-002
      vertex   4.674000e+000 -6.251707e-018 1.270000e-002
      vertex   4.664000e+000 2.582342e-018 -1.270000e-002
    endloop
  endfacet
  facet normal 4.362919e-032 -1.000000e+000 -3.477972e-016
    outer loop
      vertex   4.664000e+000 2.582342e-018 -1.270000e-002
      vertex   4.674000e+000 -6.251707e-018 1.270000e-002
      vertex   4.664000e+000 -6.251707e-018 1.270000e-002
    endloop
  endfacet
  facet normal -1.000000e+000 0.000000e+000 -0.000000e+000
    outer loop
      vertex   4.664000e+000 -6.251707e-018 1.270000e-002
      vertex   4.664000e+000 2.540000e-002 1.270000e-002
      vertex   4.664000e+000 2.582342e-018 -1.270000e-002
    endloop
  endfacet
  facet normal -1.000000e+000 0.000000e+000 0.000000e+000
    outer loop
      vertex   4.664000e+000 2.582342e-018 -1.270000e-002
      vertex   4.664000e+000 2.540000e-002 1.270000e-002
      vertex   4.664000e+000 2.540000e-002 -1.270000e-002
    endloop
  endfacet
  facet normal 1.000000e+000 -0.000000e+000 -0.000000e+000
    outer loop
      vertex   4.674000e+000 2.582342e-018 -1.270000e-002
      vertex   4.674000e+000 2.540000e-002 -1.270000e-002
      vertex   4.674000e+000 -6.251707e-018 1.270000e-002
    endloop
  endfacet
  facet normal 1.000000e+000 -0.000000e+000 -0.000000e+000
    outer loop
      vertex   4.674000e+000 -6.251707e-018 1.270000e-002
      vertex   4.674000e+000 2.540000e-002 -1.270000e-002
      vertex   4.674000e+000 2.540000e-002 1.270000e-002
    endloop
  endfacet
  facet normal -1.067128e-015 5.000000e-001 -8.660254e-001
    outer loop
      vertex   4.674000e+000 4.536182e-002 -6.179852e-002
      vertex   4.674000e+000 2.336477e-002 -7.449852e-002
      vertex   4.664000e+000 4.536182e-002 -6.179852e-002
    endloop
  endfacet
  facet normal -3.469447e-016 5.000000e-001 -8.660254e-001
    outer loop
      vertex   4.664000e+000 4.536182e-002 -6.179852e-002
      vertex   4.674000e+000 2.336477e-002 -7.449852e-002
      vertex   4.664000e+000 2.336477e-002 -7.449852e-002
    endloop
  endfacet
  facet normal -1.280554e-015 8.660254e-001 5.000000e-001
    outer loop
      vertex   4.674000e+000 3.266182e-002 -3.980148e-002
      vertex   4.674000e+000 4.536182e-002 -6.179852e-002
      vertex   4.664000e+000 3.266182e-002 -3.980148e-002
    endloop
  endfacet
  facet normal -1.802778e-015 8.660254e-001 5.000000e-001
    outer loop
      vertex   4.664000e+000 3.266182e-002 -3.980148e-002
      vertex   4.674000e+000 4.536182e-002 -6.179852e-002
      vertex   4.664000e+000 4.536182e-002 -6.179852e-002
    endloop
  endfacet
  facet normal 2.134256e-016 -5.000000e-001 8.660254e-001
    outer loop
      vertex   4.674000e+000 1.066477e-002 -5.250148e-002
      vertex   4.674000e+000 3.266182e-002 -3.980148e-002
      vertex   4.664000e+000 1.066477e-002 -5.250148e-002
    endloop
  endfacet
  facet normal 6.938894e-016 -5.000000e-001 8.660254e-001
    outer loop
      vertex   4.664000e+000 1.066477e-002 -5.250148e-002
      vertex   4.674000e+000 3.266182e-002 -3.980148e-002
      vertex   4.664000e+000 3.266182e-002 -3.980148e-002
    endloop
  endfacet
  facet normal 6.402769e-016 -8.660254e-001 -5.000000e-001
    outer loop
      vertex   4.674000e+000 2.336477e-002 -7.449852e-002
      vertex   4.674000e+000 1.066477e-002 -5.250148e-002
      vertex   4.664000e+000 2.336477e-002 -7.449852e-002
    endloop
  endfacet
  facet normal 7.511573e-016 -8.660254e-001 -5.000000e-001
    outer loop
      vertex   4.664000e+000 2.336477e-002 -7.449852e-002
      vertex   4.674000e+000 1.066477e-002 -5.250148e-002
      vertex   4.664000e+000 1.066477e-002 -5.250148e-002
    endloop
  endfacet
  facet normal -1.000000e+000 0.000000e+000 -0.000000e+000
    outer loop
      vertex   4.664000e+000 1.066477e-002 -5.250148e-002
      vertex   4.664000e+000 3.266182e-002 -3.980148e-002
      vertex   4.664000e+000 2.336477e-002 -7.449852e-002
    endloop
  endfacet
  facet normal -1.000000e+000 0.000000e+000 0.000000e+000
    outer loop
      vertex   4.664000e+000 2.336477e-002 -7.449852e-002
      vertex   4.664000e+000 3.266182e-002 -3.980148e-002
      vertex   4.664000e+000 4.536182e-002 -6.179852e-002
    endloop
  endfacet
  facet normal 1.000000e+000 0.000000e+000 -0.000000e+000
    outer loop
      vertex   4.674000e+000 2.336477e-002 -7.449852e-002
      vertex   4.674000e+000 4.536182e-002 -6.179852e-002
      vertex   4.674000e+000 1.066477e-002 -5.250148e-002
    endloop
  endfacet
  facet normal 1.000000e+000 -0.000000e+000 -0.000000e+000
    outer loop
      vertex   4.674000e+000 1.066477e-002 -5.250148e-002
      vertex   4.674000e+000 4.536182e-002 -6.179852e-002
      vertex   4.674000e+000 3.266182e-002 -3.980148e-002
    endloop
  endfacet
  facet normal 2.134256e-016 -5.000000e-001 -8.660254e-001
    outer loop
      vertex   4.674000e+000 3.266182e-002 3.980148e-002
      vertex   4.674000e+000 1.066477e-002 5.250148e-002
      vertex   4.664000e+000 3.266182e-002 3.980148e-002
    endloop
  endfacet
  facet normal -2.602085e-016 -5.000000e-001 -8.660254e-001
    outer loop
      vertex   4.664000e+000 3.266182e-002 3.980148e-002
      vertex   4.674000e+000 1.066477e-002 5.250148e-002
      vertex   4.664000e+000 1.066477e-002 5.250148e-002
    endloop
  endfacet
  facet normal 4.268512e-016 8.660254e-001 -5.000000e-001
    outer loop
      vertex   4.674000e+000 4.536182e-002 6.179852e-002
      vertex   4.674000e+000 3.266182e-002 3.980148e-002
      vertex   4.664000e+000 4.536182e-002 6.179852e-002
    endloop
  endfacet
  facet normal 9.478705e-016 8.660254e-001 -5.000000e-001
    outer loop
      vertex   4.664000e+000 4.536182e-002 6.179852e-002
      vertex   4.674000e+000 3.266182e-002 3.980148e-002
      vertex   4.664000e+000 3.266182e-002 3.980148e-002
    endloop
  endfacet
  facet normal 2.134256e-016 5.000000e-001 8.660254e-001
    outer loop
      vertex   4.674000e+000 2.336477e-002 7.449852e-002
      vertex   4.674000e+000 4.536182e-002 6.179852e-002
      vertex   4.664000e+000 2.336477e-002 7.449852e-002
    endloop
  endfacet
  facet normal 3.469447e-016 5.000000e-001 8.660254e-001
    outer loop
      vertex   4.664000e+000 2.336477e-002 7.449852e-002
      vertex   4.674000e+000 4.536182e-002 6.179852e-002
      vertex   4.664000e+000 4.536182e-002 6.179852e-002
    endloop
  endfacet
  facet normal -4.268512e-016 -8.660254e-001 5.000000e-001
    outer loop
      vertex   4.674000e+000 1.066477e-002 5.250148e-002
      vertex   4.674000e+000 2.336477e-002 7.449852e-002
      vertex   4.664000e+000 1.066477e-002 5.250148e-002
    endloop
  endfacet
  facet normal -3.004629e-016 -8.660254e-001 5.000000e-001
    outer loop
      vertex   4.664000e+000 1.066477e-002 5.250148e-002
      vertex   4.674000e+000 2.336477e-002 7.449852e-002
      vertex   4.664000e+000 2.336477e-002 7.449852e-002
    endloop
  endfacet
  facet normal -1.000000e+000 0.000000e+000 -0.000000e+000
    outer loop
      vertex   4.664000e+000 2.336477e-002 7.449852e-002
      vertex   4.664000e+000 4.536182e-002 6.179852e-002
      vertex   4.664000e+000 1.066477e-002 5.250148e-002
    endloop
  endfacet
  facet normal -1.000000e+000 0.000000e+000 -0.000000e+000
    outer loop
      vertex   4.664000e+000 1.066477e-002 5.250148e-002
      vertex   4.664000e+000 4.536182e-002 6.179852e-002
      vertex   4.664000e+000 3.266182e-002 3.980148e-002
    endloop
  endfacet
  facet normal 1.000000e+000 -0.000000e+000 -0.000000e+000
    outer loop
      vertex   4.674000e+000 1.066477e-002 5.250148e-002
      vertex   4.674000e+000 3.266182e-002 3.980148e-002
      vertex   4.674000e+000 2.336477e-002 7.449852e-002
    endloop
  endfacet
  facet normal 1.000000e+000 -0.000000e+000 0.000000e+000
    outer loop
      vertex   4.674000e+000 2.336477e-002 7.449852e-002
      vertex   4.674000e+000 3.266182e-002 3.980148e-002
      vertex   4.674000e+000 4.536182e-002 6.179852e-002
    endloop
  endfacet
  facet normal 0.000000e+000 -6.829620e-017 -1.000000e+000
    outer loop
      vertex   4.826000e+000 2.540000e-002 -1.270000e-002
      vertex   4.826000e+000 2.582342e-018 -1.270000e-002
      vertex   4.816000e+000 2.540000e-002 -1.270000e-002
    endloop
  endfacet
  facet normal -0.000000e+000 -6.829620e-017 -1.000000e+000
    outer loop
      vertex   4.816000e+000 2.540000e-002 -1.270000e-002
      vertex   4.826000e+000 2.582342e-018 -1.270000e-002
      vertex   4.816000e+000 2.582342e-018 -1.270000e-002
    endloop
  endfacet
  facet normal 0.000000e+000 1.000000e+000 1.365924e-016
    outer loop
      vertex   4.826000e+000 2.540000e-002 1.270000e-002
      vertex   4.826000e+000 2.540000e-002 -1.270000e-002
      vertex   4.816000e+000 2.540000e-002 1.270000e-002
    endloop
  endfacet
  facet normal 0.000000e+000 1.000000e+000 1.365924e-016
    outer loop
      vertex   4.816000e+000 2.540000e-002 1.270000e-002
      vertex   4.826000e+000 2.540000e-002 -1.270000e-002
      vertex   4.816000e+000 2.540000e-002 -1.270000e-002
    endloop
  endfacet
  facet normal -3.469447e-016 -1.365924e-016 1.000000e+000
    outer loop
      vertex   4.826000e+000 -6.251707e-018 1.270000e-002
      vertex   4.826000e+000 2.540000e-002 1.270000e-002
      vertex   4.816000e+000 -6.251707e-018 1.270000e-002
    endloop
  endfacet
  facet normal 0.000000e+000 -2.731848e-016 1.000000e+000
    outer loop
      vertex   4.816000e+000 -6.251707e-018 1.270000e-002
      vertex   4.826000e+000 2.540000e-002 1.270000e-002
      vertex   4.816000e+000 2.540000e-002 1.270000e-002
    endloop
  endfacet
  facet normal 0.000000e+000 -1.000000e+000 -3.477972e-016
    outer loop
      vertex   4.826000e+000 2.582342e-018 -1.270000e-002
      vertex   4.826000e+000 -6.251707e-018 1.270000e-002
      vertex   4.816000e+000 2.582342e-018 -1.270000e-002
    endloop
  endfacet
  facet normal 4.362919e-032 -1.000000e+000 -3.477972e-016
    outer loop
      vertex   4.816000e+000 2.582342e-018 -1.270000e-002
      vertex   4.826000e+000 -6.251707e-018 1.270000e-002
      vertex   4.816000e+000 -6.251707e-018 1.270000e-002
    endloop
  endfacet
  facet normal -1.000000e+000 0.000000e+000 -0.000000e+000
    outer loop
      vertex   4.816000e+000 -6.251707e-018 1.270000e-002
      vertex   4.816000e+000 2.540000e-002 1.270000e-002
      vertex   4.816000e+000 2.582342e-018 -1.270000e-002
    endloop
  endfacet
  facet normal -1.000000e+000 0.000000e+000 0.000000e+000
    outer loop
      vertex   4.816000e+000 2.582342e-018 -1.270000e-002
      vertex   4.816000e+000 2.540000e-002 1.270000e-002
      vertex   4.816000e+000 2.540000e-002 -1.270000e-002
    endloop
  endfacet
  facet normal 1.000000e+000 -0.000000e+000 -0.000000e+000
    outer loop
      vertex   4.826000e+000 2.582342e-018 -1.270000e-002
      vertex   4.826000e+000 2.540000e-002 -1.270000e-002
      vertex   4.826000e+000 -6.251707e-018 1.270000e-002
    endloop
  endfacet
  facet normal 1.000000e+000 -0.000000e+000 -0.000000e+000
    outer loop
      vertex   4.826000e+000 -6.251707e-018 1.270000e-002
      vertex   4.826000e+000 2.540000e-002 -1.270000e-002
      vertex   4.826000e+000 2.540000e-002 1.270000e-002
    endloop
  endfacet
  facet normal -1.067128e-015 5.000000e-001 -8.660254e-001
    outer loop
      vertex   4.826000e+000 4.536182e-002 -6.179852e-002
      vertex   4.826000e+000 2.336477e-002 -7.449852e-002
      vertex   4.816000e+000 4.536182e-002 -6.179852e-002
    endloop
  endfacet
  facet normal -3.469447e-016 5.000000e-001 -8.660254e-001
    outer loop
      vertex   4.816000e+000 4.536182e-002 -6.179852e-002
      vertex   4.826000e+000 2.336477e-002 -7.449852e-002
      vertex   4.816000e+000 2.336477e-002 -7.449852e-002
    endloop
  endfacet
  facet normal -1.280554e-015 8.660254e-001 5.000000e-001
    outer loop
      vertex   4.826000e+000 3.266182e-002 -3.980148e-002
      vertex   4.826000e+000 4.536182e-002 -6.179852e-002
      vertex   4.816000e+000 3.266182e-002 -3.980148e-002
    endloop
  endfacet
  facet normal -1.802778e-015 8.660254e-001 5.000000e-001
    outer loop
      vertex   4.816000e+000 3.266182e-002 -3.980148e-002
      vertex   4.826000e+000 4.536182e-002 -6.179852e-002
      vertex   4.816000e+000 4.536182e-002 -6.179852e-002
    endloop
  endfacet
  facet normal 2.134256e-016 -5.000000e-001 8.660254e-001
    outer loop
      vertex   4.826000e+000 1.066477e-002 -5.250148e-002
      vertex   4.826000e+000 3.266182e-002 -3.980148e-002
      vertex   4.816000e+000 1.066477e-002 -5.250148e-002
    endloop
  endfacet
  facet normal 6.938894e-016 -5.000000e-001 8.660254e-001
    outer loop
      vertex   4.816000e+000 1.066477e-002 -5.250148e-002
      vertex   4.826000e+000 3.266182e-002 -3.980148e-002
      vertex   4.816000e+000 3.266182e-002 -3.980148e-002
    endloop
  endfacet
  facet normal 6.402769e-016 -8.660254e-001 -5.000000e-001
    outer loop
      vertex   4.826000e+000 2.336477e-002 -7.449852e-002
      vertex   4.826000e+000 1.066477e-002 -5.250148e-002
      vertex   4.816000e+000 2.336477e-002 -7.449852e-002
    endloop
  endfacet
  facet normal 7.511573e-016 -8.660254e-001 -5.000000e-001
    outer loop
      vertex   4.816000e+000 2.336477e-002 -7.449852e-002
      vertex   4.826000e+000 1.066477e-002 -5.250148e-002
      vertex   4.816000e+000 1.066477e-002 -5.250148e-002
    endloop
  endfacet
  facet normal -1.000000e+000 0.000000e+000 -0.000000e+000
    outer loop
      vertex   4.816000e+000 1.066477e-002 -5.250148e-002
      vertex   4.816000e+000 3.266182e-002 -3.980148e-002
      vertex   4.816000e+000 2.336477e-002 -7.449852e-002
    endloop
  endfacet
  facet normal -1.000000e+000 0.000000e+000 0.000000e+000
    outer loop
      vertex   4.816000e+000 2.336477e-002 -7.449852e-002
      vertex   4.816000e+000 3.266182e-002 -3.980148e-002
      vertex   4.816000e+000 4.536182e-002 -6.179852e-002
    endloop
  endfacet
  facet normal 1.000000e+000 0.000000e+000 -0.000000e+000
    outer loop
      vertex   4.826000e+000 2.336477e-002 -7.449852e-002
      vertex   4.826000e+000 4.536182e-002 -6.179852e-002
      vertex   4.826000e+000 1.066477e-002 -5.250148e-002
    endloop
  endfacet
  facet normal 1.000000e+000 -0.000000e+000 -0.000000e+000
    outer loop
      vertex   4.826000e+000 1.066477e-002 -5.250148e-002
      vertex   4.826000e+000 4.536182e-002 -6.179852e-002
      vertex   4.826000e+000 3.266182e-002 -3.980148e-002
    endloop
  endfacet
  facet normal 2.134256e-016 -5.000000e-001 -8.660254e-001
    outer loop
      vertex   4.826000e+000 3.266182e-002 3.980148e-002
      vertex   4.826000e+000 1.066477e-002 5.250148e-002
      vertex   4.816000e+000 3.266182e-002 3.980148e-002
    endloop
  endfacet
  facet normal -2.602085e-016 -5.000000e-001 -8.660254e-001
    outer loop
      vertex   4.816000e+000 3.266182e-002 3.980148e-002
      vertex   4.826000e+000 1.066477e-002 5.250148e-002
      vertex   4.816000e+000 1.066477e-002 5.250148e-002
    endloop
  endfacet
  facet normal 4.268512e-016 8.660254e-001 -5.000000e-001
    outer loop
      vertex   4.826000e+000 4.536182e-002 6.179852e-002
      vertex   4.826000e+000 3.266182e-002 3.980148e-002
      vertex   4.816000e+000 4.536182e-002 6.179852e-002
    endloop
  endfacet
  facet normal 9.478705e-016 8.660254e-001 -5.000000e-001
    outer loop
      vertex   4.816000e+000 4.536182e-002 6.179852e-002
      vertex   4.826000e+000 3.266182e-002 3.980148e-002
      vertex   4.816000e+000 3.266182e-002 3.980148e-002
    endloop
  endfacet
  facet normal 2.134256e-016 5.000000e-001 8.660254e-001
    outer loop
      vertex   4.826000e+000 2.336477e-002 7.449852e-002
      vertex   4.826000e+000 4.536182e-002 6.179852e-002
      vertex   4.816000e+000 2.336477e-002 7.449852e-002
    endloop
  endfacet
  facet normal 3.469447e-016 5.000000e-001 8.660254e-001
    outer loop
      vertex   4.816000e+000 2.336477e-002 7.449852e-002
      vertex   4.826000e+000 4.536182e-002 6.179852e-002
      vertex   4.816000e+000 4.536182e-002 6.179852e-002
    endloop
  endfacet
  facet normal -4.268512e-016 -8.660254e-001 5.000000e-001
    outer loop
      vertex   4.826000e+000 1.066477e-002 5.250148e-002
      vertex   4.826000e+000 2.336477e-002 7.449852e-002
      vertex   4.816000e+000 1.066477e-002 5.250148e-002
    endloop
  endfacet
  facet normal -3.004629e-016 -8.660254e-001 5.000000e-001
    outer loop
      vertex   4.816000e+000 1.066477e-002 5.250148e-002
      vertex   4.826000e+000 2.336477e-002 7.449852e-002
      vertex   4.816000e+000 2.336477e-002 7.449852e-002
    endloop
  endfacet
  facet normal -1.000000e+000 0.000000e+000 -0.000000e+000
    outer loop
      vertex   4.816000e+000 2.336477e-002 7.449852e-002
      vertex   4.816000e+000 4.536182e-002 6.179852e-002
      vertex   4.816000e+000 1.066477e-002 5.250148e-002
    endloop
  endfacet
  facet normal -1.000000e+000 0.000000e+000 -0.000000e+000
    outer loop
      vertex   4.816000e+000 1.066477e-002 5.250148e-002
      vertex   4.816000e+000 4.536182e-002 6.179852e-002
      vertex   4.816000e+000 3.266182e-002 3.980148e-002
    endloop
  endfacet
  facet normal 1.000000e+000 -0.000000e+000 -0.000000e+000
    outer loop
      vertex   4.826000e+000 1.066477e-002 5.250148e-002
      vertex   4.826000e+000 3.266182e-002 3.980148e-002
      vertex   4.826000e+000 2.336477e-002 7.449852e-002
    endloop
  endfacet
  facet normal 1.000000e+000 -0.000000e+000 0.000000e+000
    outer loop
      vertex   4.826000e+000 2.336477e-002 7.449852e-002
      vertex   4.826000e+000 3.266182e-002 3.980148e-002
      vertex   4.826000e+000 4.536182e-002 6.179852e-002
    endloop
  endfacet
  facet normal 0.000000e+000 -6.829620e-017 -1.000000e+000
    outer loop
      vertex   4.978000e+000 2.540000e-002 -1.270000e-002
      vertex   4.978000e+000 2.582342e-018 -1.270000e-002
      vertex   4.968000e+000 2.540000e-002 -1.270000e-002
    endloop
  endfacet
  facet normal -0.000000e+000 -6.829620e-017 -1.000000e+000
    outer loop
      vertex   4.968000e+000 2.540000e-002 -1.270000e-002
      vertex   4.978000e+000 2.582342e-018 -1.270000e-002
      vertex   4.968000e+000 2.582342e-018 -1.270000e-002
    endloop
  endfacet
  facet normal 0.000000e+000 1.000000e+000 1.365924e-016
    outer loop
      vertex   4.978000e+000 2.540000e-002 1.270000e-002
      vertex   4.978000e+000 2.540000e-002 -1.270000e-002
      vertex   4.968000e+000 2.540000e-002 1.270000e-002
    endloop
  endfacet
  facet normal 0.000000e+000 1.000000e+000 1.365924e-016
    outer loop
      vertex   4.968000e+000 2.540000e-002 1.270000e-002
      vertex   4.978000e+000 2.540000e-002 -1.270000e-002
      vertex   4.968000e+000 2.540000e-002 -1.270000e-002
    endloop
  endfacet
  facet normal -3.469447e-016 -1.365924e-016 1.000000e+000
    outer loop
      vertex   4.978000e+000 -6.251707e-018 1.270000e-002
      vertex   4.978000e+000 2.540000e-002 1.270000e-002
      vertex   4.968000e+000 -6.251707e-018 1.270000e-002
    endloop
  endfacet
  facet normal 0.000000e+000 -2.731848e-016 1.000000e+000
    outer loop
      vertex   4.968000e+000 -6.251707e-018 1.270000e-002
      vertex   4.978000e+000 2.540000e-002 1.270000e-002
      vertex   4.968000e+000 2.540000e-002 1.270000e-002
    endloop
  endfacet
  facet normal 0.000000e+000 -1.000000e+000 -3.477972e-016
    outer loop
      vertex   4.978000e+000 2.582342e-018 -1.270000e-002
      vertex   4.978000e+000 -6.251707e-018 1.270000e-002
      vertex   4.968000e+000 2.582342e-018 -1.270000e-002
    endloop
  endfacet
  facet normal 4.362919e-032 -1.000000e+000 -3.477972e-016
    outer loop
      vertex   4.968000e+000 2.582342e-018 -1.270000e-002
      vertex   4.978000e+000 -6.251707e-018 1.270000e-002
      vertex   4.968000e+000 -6.251707e-018 1.270000e-002
    endloop
  endfacet
  facet normal -1.000000e+000 0.000000e+000 -0.000000e+000
    outer loop
      vertex   4.968000e+000 -6.251707e-018 1.270000e-002
      vertex   4.968000e+000 2.540000e-002 1.270000e-002
      vertex   4.968000e+000 2.582342e-018 -1.270000e-002
    endloop
  endfacet
  facet normal -1.000000e+000 0.000000e+000 0.000000e+000
    outer loop
      vertex   4.968000e+000 2.582342e-018 -1.270000e-002
      vertex   4.968000e+000 2.540000e-002 1.270000e-002
      vertex   4.968000e+000 2.540000e-002 -1.270000e-002
    endloop
  endfacet
  facet normal 1.000000e+000 -0.000000e+000 -0.000000e+000
    outer loop
      vertex   4.978000e+000 2.582342e-018 -1.270000e-002
      vertex   4.978000e+000 2.540000e-002 -1.270000e-002
      vertex   4.978000e+000 -6.251707e-018 1.270000e-002
    endloop
  endfacet
  facet normal 1.000000e+000 -0.000000e+000 -0.000000e+000
    outer loop
      vertex   4.978000e+000 -6.251707e-018 1.270000e-002
      vertex   4.978000e+000 2.540000e-002 -1.270000e-002
      vertex   4.978000e+000 2.540000e-002 1.270000e-002
    endloop
  endfacet
  facet normal -1.067128e-015 5.000000e-001 -8.660254e-001
    outer loop
      vertex   4.978000e+000 4.536182e-002 -6.179852e-002
      vertex   4.978000e+000 2.336477e-002 -7.449852e-002
      vertex   4.968000e+000 4.536182e-002 -6.179852e-002
    endloop
  endfacet
  facet normal -3.469447e-016 5.000000e-001 -8.660254e-001
    outer loop
      vertex   4.968000e+000 4.536182e-002 -6.179852e-002
      vertex   4.978000e+000 2.336477e-002 -7.449852e-002
      vertex   4.968000e+000 2.336477e-002 -7.449852e-002
    endloop
  endfacet
  facet normal -1.280554e-015 8.660254e-001 5.000000e-001
    outer loop
      vertex   4.978000e+000 3.266182e-002 -3.980148e-002
      vertex   4.978000e+000 4.536182e-002 -6.179852e-002
      vertex   4.968000e+000 3.266182e-002 -3.980148e-002
    endloop
  endfacet
  facet normal -1.802778e-015 8.660254e-001 5.000000e-001
    outer loop
      vertex   4.968000e+000 3.266182e-002 -3.980148e-002
      vertex   4.978000e+000 4.536182e-002 -6.179852e-002
      vertex   4.968000e+000 4.536182e-002 -6.179852e-002
    endloop
  endfacet
  facet normal 2.134256e-016 -5.000000e-001 8.660254e-001
    outer loop
      vertex   4.978000e+000 1.066477e-002 -5.250148e-002
      vertex   4.978000e+000 3.266182e-002 -3.980148e-002
      vertex   4.968000e+000 1.066477e-002 -5.250148e-002
    endloop
  endfacet
  facet normal 6.938894e-016 -5.000000e-001 8.660254e-001
    outer loop
      vertex   4.968000e+000 1.066477e-002 -5.250148e-002
      vertex   4.978000e+000 3.266182e-002 -3.980148e-002
      vertex   4.968000e+000 3.266182e-002 -3.980148e-002
    endloop
  endfacet
  facet normal 6.402769e-016 -8.660254e-001 -5.000000e-001
    outer loop
      vertex   4.978000e+000 2.336477e-002 -7.449852e-002
      vertex   4.978000e+000 1.066477e-002 -5.250148e-002
      vertex   4.968000e+000 2.336477e-002 -7.449852e-002
    endloop
  endfacet
  facet normal 7.511573e-016 -8.660254e-001 -5.000000e-001
    outer loop
      vertex   4.968000e+000 2.336477e-002 -7.449852e-002
      vertex   4.978000e+000 1.066477e-002 -5.250148e-002
      vertex   4.968000e+000 1.066477e-002 -5.250148e-002
    endloop
  endfacet
  facet normal -1.000000e+000 0.000000e+000 -0.000000e+000
    outer loop
      vertex   4.968000e+000 1.066477e-002 -5.250148e-002
      vertex   4.968000e+000 3.266182e-002 -3.980148e-002
      vertex   4.968000e+000 2.336477e-002 -7.449852e-002
    endloop
  endfacet
  facet normal -1.000000e+000 0.000000e+000 0.000000e+000
    outer loop
      vertex   4.968000e+000 2.336477e-002 -7.449852e-002
      vertex   4.968000e+000 3.266182e-002 -3.980148e-002
      vertex   4.968000e+000 4.536182e-002 -6.179852e-002
    endloop
  endfacet
  facet normal 1.000000e+000 0.000000e+000 -0.000000e+000
    outer loop
      vertex   4.978000e+000 2.336477e-002 -7.449852e-002
      vertex   4.978000e+000 4.536182e-002 -6.179852e-002
      vertex   4.978000e+000 1.066477e-002 -5.250148e-002
    endloop
  endfacet
  facet normal 1.000000e+000 -0.000000e+000 -0.000000e+000
    outer loop
      vertex   4.978000e+000 1.066477e-002 -5.250148e-002
      vertex   4.978000e+000 4.536182e-002 -6.179852e-002
      vertex   4.978000e+000 3.266182e-002 -3.980148e-002
    endloop
  endfacet
  facet normal 2.134256e-016 -5.000000e-001 -8.660254e-001
    outer loop
      vertex   4.978000e+000 3.266182e-002 3.980148e-002
      vertex   4.978000e+000 1.066477e-002 5.250148e-002
      vertex   4.968000e+000 3.266182e-002 3.980148e-002
    endloop
  endfacet
  facet normal -2.602085e-016 -5.000000e-001 -8.660254e-001
    outer loop
      vertex   4.968000e+000 3.266182e-002 3.980148e-002
      vertex   4.978000e+000 1.066477e-002 5.250148e-002
      vertex   4.968000e+000 1.066477e-002 5.250148e-002
    endloop
  endfacet
  facet normal 4.268512e-016 8.660254e-001 -5.000000e-001
    outer loop
      vertex   4.978000e+000 4.536182e-002 6.179852e-002
      vertex   4.978000e+000 3.266182e-002 3.980148e-002
      vertex   4.968000e+000 4.536182e-002 6.179852e-002
    endloop
  endfacet
  facet normal 9.478705e-016 8.660254e-001 -5.000000e-001
    outer loop
      vertex   4.968000e+000 4.536182e-002 6.179852e-002
      vertex   4.978000e+000 3.266182e-002 3.980148e-002
      vertex   4.968000e+000 3.266182e-002 3.980148e-002
    endloop
  endfacet
  facet normal 2.134256e-016 5.000000e-001 8.660254e-001
    outer loop
      vertex   4.978000e+000 2.336477e-002 7.449852e-002
      vertex   4.978000e+000 4.536182e-002 6.179852e-002
      vertex   4.968000e+000 2.336477e-002 7.449852e-002
    endloop
  endfacet
  facet normal 3.469447e-016 5.000000e-001 8.660254e-001
    outer loop
      vertex   4.968000e+000 2.336477e-002 7.449852e-002
      vertex   4.978000e+000 4.536182e-002 6.179852e-002
      vertex   4.968000e+000 4.536182e-002 6.179852e-002
    endloop
  endfacet
  facet normal -4.268512e-016 -8.660254e-001 5.000000e-001
    outer loop
      vertex   4.978000e+000 1.066477e-002 5.250148e-002
      vertex   4.978000e+000 2.336477e-002 7.449852e-002
      vertex   4.968000e+000 1.066477e-002 5.250148e-002
    endloop
  endfacet
  facet normal -3.004629e-016 -8.660254e-001 5.000000e-001
    outer loop
      vertex   4.968000e+000 1.066477e-002 5.250148e-002
      vertex   4.978000e+000 2.336477e-002 7.449852e-002
      vertex   4.968000e+000 2.336477e-002 7.449852e-002
    endloop
  endfacet
  facet normal -1.000000e+000 0.000000e+000 -0.000000e+000
    outer loop
      vertex   4.968000e+000 2.336477e-002 7.449852e-002
      vertex   4.968000e+000 4.536182e-002 6.179852e-002
      vertex   4.968000e+000 1.066477e-002 5.250148e-002
    endloop
  endfacet
  facet normal -1.000000e+000 0.000000e+000 -0.000000e+000
    outer loop
      vertex   4.968000e+000 1.066477e-002 5.250148e-002
      vertex   4.968000e+000 4.536182e-002 6.179852e-002
      vertex   4.968000e+000 3.266182e-002 3.980148e-002
    endloop
  endfacet
  facet normal 1.000000e+000 -0.000000e+000 -0.000000e+000
    outer loop
      vertex   4.978000e+000 1.066477e-002 5.250148e-002
      vertex   4.978000e+000 3.266182e-002 3.980148e-002
      vertex   4.978000e+000 2.336477e-002 7.449852e-002
    endloop
  endfacet
  facet normal 1.000000e+000 -0.000000e+000 0.000000e+000
    outer loop
      vertex   4.978000e+000 2.336477e-002 7.449852e-002
      vertex   4.978000e+000 3.266182e-002 3.980148e-002
      vertex   4.978000e+000 4.536182e-002 6.179852e-002
    endloop
  endfacet
  facet normal 0.000000e+000 -6.829620e-017 -1.000000e+000
    outer loop
      vertex   5.130000e+000 2.540000e-002 -1.270000e-002
      vertex   5.130000e+000 2.582342e-018 -1.270000e-002
      vertex   5.120000e+000 2.540000e-002 -1.270000e-002
    endloop
  endfacet
  facet normal -0.000000e+000 -6.829620e-017 -1.000000e+000
    outer loop
      vertex   5.120000e+000 2.540000e-002 -1.270000e-002
      vertex   5.130000e+000 2.582342e-018 -1.270000e-002
      vertex   5.120000e+000 2.582342e-018 -1.270000e-002
    endloop
  endfacet
  facet normal 0.000000e+000 1.000000e+000 1.365924e-016
    outer loop
      vertex   5.130000e+000 2.540000e-002 1.270000e-002
      vertex   5.130000e+000 2.540000e-002 -1.270000e-002
      vertex   5.120000e+000 2.540000e-002 1.270000e-002
    endloop
  endfacet
  facet normal 0.000000e+000 1.000000e+000 1.365924e-016
    outer loop
      vertex   5.120000e+000 2.540000e-002 1.270000e-002
      vertex   5.130000e+000 2.540000e-002 -1.270000e-002
      vertex   5.120000e+000 2.540000e-002 -1.270000e-002
    endloop
  endfacet
  facet normal -3.469447e-016 -1.365924e-016 1.000000e+000
    outer loop
      vertex   5.130000e+000 -6.251707e-018 1.270000e-002
      vertex   5.130000e+000 2.540000e-002 1.270000e-002
      vertex   5.120000e+000 -6.251707e-018 1.270000e-002
    endloop
  endfacet
  facet normal 0.000000e+000 -2.731848e-016 1.000000e+000
    outer loop
      vertex   5.120000e+000 -6.251707e-018 1.270000e-002
      vertex   5.130000e+000 2.540000e-002 1.270000e-002
      vertex   5.120000e+000 2.540000e-002 1.270000e-002
    endloop
  endfacet
  facet normal 0.000000e+000 -1.000000e+000 -3.477972e-016
    outer loop
      vertex   5.130000e+000 2.582342e-018 -1.270000e-002
      vertex   5.130000e+000 -6.251707e-018 1.270000e-002
      vertex   5.120000e+000 2.582342e-018 -1.270000e-002
    endloop
  endfacet
  facet normal 4.362919e-032 -1.000000e+000 -3.477972e-016
    outer loop
      vertex   5.120000e+000 2.582342e-018 -1.270000e-002
      vertex   5.130000e+000 -6.251707e-018 1.270000e-002
      vertex   5.120000e+000 -6.251707e-018 1.270000e-002
    endloop
  endfacet
  facet normal -1.000000e+000 0.000000e+000 -0.000000e+000
    outer loop
      vertex   5.120000e+000 -6.251707e-018 1.270000e-002
      vertex   5.120000e+000 2.540000e-002 1.270000e-002
      vertex   5.120000e+000 2.582342e-018 -1.270000e-002
    endloop
  endfacet
  facet normal -1.000000e+000 0.000000e+000 0.000000e+000
    outer loop
      vertex   5.120000e+000 2.582342e-018 -1.270000e-002
      vertex   5.120000e+000 2.540000e-002 1.270000e-002
      vertex   5.120000e+000 2.540000e-002 -1.270000e-002
    endloop
  endfacet
  facet normal 1.000000e+000 -0.000000e+000 -0.000000e+000
    outer loop
      vertex   5.130000e+000 2.582342e-018 -1.270000e-002
      vertex   5.130000e+000 2.540000e-002 -1.270000e-002
      vertex   5.130000e+000 -6.251707e-018 1.270000e-002
    endloop
  endfacet
  facet normal 1.000000e+000 -0.000000e+000 -0.000000e+000
    outer loop
      vertex   5.130000e+000 -6.251707e-018 1.270000e-002
      vertex   5.130000e+000 2.540000e-002 -1.270000e-002
      vertex   5.130000e+000 2.540000e-002 1.270000e-002
    endloop
  endfacet
  facet normal -1.067128e-015 5.000000e-001 -8.660254e-001
    outer loop
      vertex   5.130000e+000 4.536182e-002 -6.179852e-002
      vertex   5.130000e+000 2.336477e-002 -7.449852e-002
      vertex   5.120000e+000 4.536182e-002 -6.179852e-002
    endloop
  endfacet
  facet normal -3.469447e-016 5.000000e-001 -8.660254e-001
    outer loop
      vertex   5.120000e+000 4.536182e-002 -6.179852e-002
      vertex   5.130000e+000 2.336477e-002 -7.449852e-002
      vertex   5.120000e+000 2.336477e-002 -7.449852e-002
    endloop
  endfacet
  facet normal -1.280554e-015 8.660254e-001 5.000000e-001
    outer loop
      vertex   5.130000e+000 3.266182e-002 -3.980148e-002
      vertex   5.130000e+000 4.536182e-002 -6.179852e-002
      vertex   5.120000e+000 3.266182e-002 -3.980148e-002
    endloop
  endfacet
  facet normal -1.802778e-015 8.660254e-001 5.000000e-001
    outer loop
      vertex   5.120000e+000 3.266182e-002 -3.980148e-002
      vertex   5.130000e+000 4.536182e-002 -6.179852e-002
      vertex   5.120000e+000 4.536182e-002 -6.179852e-002
    endloop
  endfacet
  facet normal 2.134256e-016 -5.000000e-001 8.660254e-001
    outer loop
      vertex   5.130000e+000 1.066477e-002 -5.250148e-002
      vertex   5.130000e+000 3.266182e-002 -3.980148e-002
      vertex   5.120000e+000 1.066477e-002 -5.250148e-002
    endloop
  endfacet
  facet normal 6.938894e-016 -5.000000e-001 8.660254e-001
    outer loop
      vertex   5.120000e+000 1.066477e-002 -5.250148e-002
      vertex   5.130000e+000 3.266182e-002 -3.980148e-002
      vertex   5.120000e+000 3.266182e-002 -3.980148e-002
    endloop
  endfacet
  facet normal 6.402769e-016 -8.660254e-001 -5.000000e-001
    outer loop
      vertex   5.130000e+000 2.336477e-002 -7.449852e-002
      vertex   5.130000e+000 1.066477e-002 -5.250148e-002
      vertex   5.120000e+000 2.336477e-002 -7.449852e-002
    endloop
  endfacet
  facet normal 7.511573e-016 -8.660254e-001 -5.000000e-001
    outer loop
      vertex   5.120000e+000 2.336477e-002 -7.449852e-002
      vertex   5.130000e+000 1.066477e-002 -5.250148e-002
      vertex   5.120000e+000 1.066477e-002 -5.250148e-002
    endloop
  endfacet
  facet normal -1.000000e+000 0.000000e+000 -0.000000e+000
    outer loop
      vertex   5.120000e+000 1.066477e-002 -5.250148e-002
      vertex   5.120000e+000 3.266182e-002 -3.980148e-002
      vertex   5.120000e+000 2.336477e-002 -7.449852e-002
    endloop
  endfacet
  facet normal -1.000000e+000 0.000000e+000 0.000000e+000
    outer loop
      vertex   5.120000e+000 2.336477e-002 -7.449852e-002
      vertex   5.120000e+000 3.266182e-002 -3.980148e-002
      vertex   5.120000e+000 4.536182e-002 -6.179852e-002
    endloop
  endfacet
  facet normal 1.000000e+000 0.000000e+000 -0.000000e+000
    outer loop
      vertex   5.130000e+000 2.336477e-002 -7.449852e-002
      vertex   5.130000e+000 4.536182e-002 -6.179852e-002
      vertex   5.130000e+000 1.066477e-002 -5.250148e-002
    endloop
  endfacet
  facet normal 1.000000e+000 -0.000000e+000 -0.000000e+000
    outer loop
      vertex   5.130000e+000 1.066477e-002 -5.250148e-002
      vertex   5.130000e+000 4.536182e-002 -6.179852e-002
      vertex   5.130000e+000 3.266182e-002 -3.980148e-002
    endloop
  endfacet
  facet normal 2.134256e-016 -5.000000e-001 -8.660254e-001
    outer loop
      vertex   5.130000e+000 3.266182e-002 3.980148e-002
      vertex   5.130000e+000 1.066477e-002 5.250148e-002
      vertex   5.120000e+000 3.266182e-002 3.980148e-002
    endloop
  endfacet
  facet normal -2.602085e-016 -5.000000e-001 -8.660254e-001
    outer loop
      vertex   5.120000e+000 3.266182e-002 3.980148e-002
      vertex   5.130000e+000 1.066477e-002 5.250148e-002
      vertex   5.120000e+000 1.066477e-002 5.250148e-002
    endloop
  endfacet
  facet normal 4.268512e-016 8.660254e-001 -5.000000e-001
    outer loop
      vertex   5.130000e+000 4.536182e-002 6.179852e-002
      vertex   5.130000e+000 3.266182e-002 3.980148e-002
      vertex   5.120000e+000 4.536182e-002 6.179852e-002
    endloop
  endfacet
  facet normal 9.478705e-016 8.660254e-001 -5.000000e-001
    outer loop
      vertex   5.120000e+000 4.536182e-002 6.179852e-002
      vertex   5.130000e+000 3.266182e-002 3.980148e-002
      vertex   5.120000e+000 3.266182e-002 3.980148e-002
    endloop
  endfacet
  facet normal 2.134256e-016 5.000000e-001 8.660254e-001
    outer loop
      vertex   5.130000e+000 2.336477e-002 7.449852e-002
      vertex   5.130000e+000 4.536182e-002 6.179852e-002
      vertex   5.120000e+000 2.336477e-002 7.449852e-002
    endloop
  endfacet
  facet normal 3.469447e-016 5.000000e-001 8.660254e-001
    outer loop
      vertex   5.120000e+000 2.336477e-002 7.449852e-002
      vertex   5.130000e+000 4.536182e-002 6.179852e-002
      vertex   5.120000e+000 4.536182e-002 6.179852e-002
    endloop
  endfacet
  facet normal -4.268512e-016 -8.660254e-001 5.000000e-001
    outer loop
      vertex   5.130000e+000 1.066477e-002 5.250148e-002
      vertex   5.130000e+000 2.336477e-002 7.449852e-002
      vertex   5.120000e+000 1.066477e-002 5.250148e-002
    endloop
  endfacet
  facet normal -3.004629e-016 -8.660254e-001 5.000000e-001
    outer loop
      vertex   5.120000e+000 1.066477e-002 5.250148e-002
      vertex   5.130000e+000 2.336477e-002 7.449852e-002
      vertex   5.120000e+000 2.336477e-002 7.449852e-002
    endloop
  endfacet
  facet normal -1.000000e+000 0.000000e+000 -0.000000e+000
    outer loop
      vertex   5.120000e+000 2.336477e-002 7.449852e-002
      vertex   5.120000e+000 4.536182e-002 6.179852e-002
      vertex   5.120000e+000 1.066477e-002 5.250148e-002
    endloop
  endfacet
  facet normal -1.000000e+000 0.000000e+000 -0.000000e+000
    outer loop
      vertex   5.120000e+000 1.066477e-002 5.250148e-002
      vertex   5.120000e+000 4.536182e-002 6.179852e-002
      vertex   5.120000e+000 3.266182e-002 3.980148e-002
    endloop
  endfacet
  facet normal 1.000000e+000 -0.000000e+000 -0.000000e+000
    outer loop
      vertex   5.130000e+000 1.066477e-002 5.250148e-002
      vertex   5.130000e+000 3.266182e-002 3.980148e-002
      vertex   5.130000e+000 2.336477e-002 7.449852e-002
    endloop
  endfacet
  facet normal 1.000000e+000 -0.000000e+000 0.000000e+000
    outer loop
      vertex   5.130000e+000 2.336477e-002 7.449852e-002
      vertex   5.130000e+000 3.266182e-002 3.980148e-002
      vertex   5.130000e+000 4.536182e-002 6.179852e-002
    endloop
  endfacet
  facet normal 0.000000e+000 -6.829620e-017 -1.000000e+000
    outer loop
      vertex   5.282000e+000 2.540000e-002 -1.270000e-002
      vertex   5.282000e+000 2.582342e-018 -1.270000e-002
      vertex   5.272000e+000 2.540000e-002 -1.270000e-002
    endloop
  endfacet
  facet normal -0.000000e+000 -6.829620e-017 -1.000000e+000
    outer loop
      vertex   5.272000e+000 2.540000e-002 -1.270000e-002
      vertex   5.282000e+000 2.582342e-018 -1.270000e-002
      vertex   5.272000e+000 2.582342e-018 -1.270000e-002
    endloop
  endfacet
  facet normal 0.000000e+000 1.000000e+000 1.365924e-016
    outer loop
      vertex   5.282000e+000 2.540000e-002 1.270000e-002
      vertex   5.282000e+000 2.540000e-002 -1.270000e-002
      vertex   5.272000e+000 2.540000e-002 1.270000e-002
    endloop
  endfacet
  facet normal 0.000000e+000 1.000000e+000 1.365924e-016
    outer loop
      vertex   5.272000e+000 2.540000e-002 1.270000e-002
      vertex   5.282000e+000 2.540000e-002 -1.270000e-002
      vertex   5.272000e+000 2.540000e-002 -1.270000e-002
    endloop
  endfacet
  facet normal -3.469447e-016 -1.365924e-016 1.000000e+000
    outer loop
      vertex   5.282000e+000 -6.251707e-018 1.270000e-002
      vertex   5.282000e+000 2.540000e-002 1.270000e-002
      vertex   5.272000e+000 -6.251707e-018 1.270000e-002
    endloop
  endfacet
  facet normal 0.000000e+000 -2.731848e-016 1.000000e+000
    outer loop
      vertex   5.272000e+000 -6.251707e-018 1.270000e-002
      vertex   5.282000e+000 2.540000e-002 1.270000e-002
      vertex   5.272000e+000 2.540000e-002 1.270000e-002
    endloop
  endfacet
  facet normal 0.000000e+000 -1.000000e+000 -3.477972e-016
    outer loop
      vertex   5.282000e+000 2.582342e-018 -1.270000e-002
      vertex   5.282000e+000 -6.251707e-018 1.270000e-002
      vertex   5.272000e+000 2.582342e-018 -1.270000e-002
    endloop
  endfacet
  facet normal 4.362919e-032 -1.000000e+000 -3.477972e-016
    outer loop
      vertex   5.272000e+000 2.582342e-018 -1.270000e-002
      vertex   5.282000e+000 -6.251707e-018 1.270000e-002
      vertex   5.272000e+000 -6.251707e-018 1.270000e-002
    endloop
  endfacet
  facet normal -1.000000e+000 0.000000e+000 -0.000000e+000
    outer loop
      vertex   5.272000e+000 -6.251707e-018 1.270000e-002
      vertex   5.272000e+000 2.540000e-002 1.270000e-002
      vertex   5.272000e+000 2.582342e-018 -1.270000e-002
    endloop
  endfacet
  facet normal -1.000000e+000 0.000000e+000 0.000000e+000
    outer loop
      vertex   5.272000e+000 2.582342e-018 -1.270000e-002
      vertex   5.272000e+000 2.540000e-002 1.270000e-002
      vertex   5.272000e+000 2.540000e-002 -1.270000e-002
    endloop
  endfacet
  facet normal 1.000000e+000 -0.000000e+000 -0.000000e+000
    outer loop
      vertex   5.282000e+000 2.582342e-018 -1.270000e-002
      vertex   5.282000e+000 2.540000e-002 -1.270000e-002
      vertex   5.282000e+000 -6.251707e-018 1.270000e-002
    endloop
  endfacet
  facet normal 1.000000e+000 -0.000000e+000 -0.000000e+000
    outer loop
      vertex   5.282000e+000 -6.251707e-018 1.270000e-002
      vertex   5.282000e+000 2.540000e-002 -1.270000e-002
      vertex   5.282000e+000 2.540000e-002 1.270000e-002
    endloop
  endfacet
  facet normal -1.067128e-015 5.000000e-001 -8.660254e-001
    outer loop
      vertex   5.282000e+000 4.536182e-002 -6.179852e-002
      vertex   5.282000e+000 2.336477e-002 -7.449852e-002
      vertex   5.272000e+000 4.536182e-002 -6.179852e-002
    endloop
  endfacet
  facet normal -3.469447e-016 5.000000e-001 -8.660254e-001
    outer loop
      vertex   5.272000e+000 4.536182e-002 -6.179852e-002
      vertex   5.282000e+000 2.336477e-002 -7.449852e-002
      vertex   5.272000e+000 2.336477e-002 -7.449852e-002
    endloop
  endfacet
  facet normal -1.280554e-015 8.660254e-001 5.000000e-001
    outer loop
      vertex   5.282000e+000 3.266182e-002 -3.980148e-002
      vertex   5.282000e+000 4.536182e-002 -6.179852e-002
      vertex   5.272000e+000 3.266182e-002 -3.980148e-002
    endloop
  endfacet
  facet normal -1.802778e-015 8.660254e-001 5.000000e-001
    outer loop
      vertex   5.272000e+000 3.266182e-002 -3.980148e-002
      vertex   5.282000e+000 4.536182e-002 -6.179852e-002
      vertex   5.272000e+000 4.536182e-002 -6.179852e-002
    endloop
  endfacet
  facet normal 2.134256e-016 -5.000000e-001 8.660254e-001
    outer loop
      vertex   5.282000e+000 1.066477e-002 -5.250148e-002
      vertex   5.282000e+000 3.266182e-002 -3.980148e-002
      vertex   5.272000e+000 1.066477e-002 -5.250148e-002
    endloop
  endfacet
  facet normal 6.938894e-016 -5.000000e-001 8.660254e-001
    outer loop
      vertex   5.272000e+000 1.066477e-002 -5.250148e-002
      vertex   5.282000e+000 3.266182e-002 -3.980148e-002
      vertex   5.272000e+000 3.266182e-002 -3.980148e-002
    endloop
  endfacet
  facet normal 6.402769e-016 -8.660254e-001 -5.000000e-001
    outer loop
      vertex   5.282000e+000 2.336477e-002 -7.449852e-002
      vertex   5.282000e+000 1.066477e-002 -5.250148e-002
      vertex   5.272000e+000 2.336477e-002 -7.449852e-002
    endloop
  endfacet
  facet normal 7.511573e-016 -8.660254e-001 -5.000000e-001
    outer loop
      vertex   5.272000e+000 2.336477e-002 -7.449852e-002
      vertex   5.282000e+000 1.066477e-002 -5.250148e-002
      vertex   5.272000e+000 1.066477e-002 -5.250148e-002
    endloop
  endfacet
  facet normal -1.000000e+000 0.000000e+000 -0.000000e+000
    outer loop
      vertex   5.272000e+000 1.066477e-002 -5.250148e-002
      vertex   5.272000e+000 3.266182e-002 -3.980148e-002
      vertex   5.272000e+000 2.336477e-002 -7.449852e-002
    endloop
  endfacet
  facet normal -1.000000e+000 0.000000e+000 0.000000e+000
    outer loop
      vertex   5.272000e+000 2.336477e-002 -7.449852e-002
      vertex   5.272000e+000 3.266182e-002 -3.980148e-002
      vertex   5.272000e+000 4.536182e-002 -6.179852e-002
    endloop
  endfacet
  facet normal 1.000000e+000 0.000000e+000 -0.000000e+000
    outer loop
      vertex   5.282000e+000 2.336477e-002 -7.449852e-002
      vertex   5.282000e+000 4.536182e-002 -6.179852e-002
      vertex   5.282000e+000 1.066477e-002 -5.250148e-002
    endloop
  endfacet
  facet normal 1.000000e+000 -0.000000e+000 -0.000000e+000
    outer loop
      vertex   5.282000e+000 1.066477e-002 -5.250148e-002
      vertex   5.282000e+000 4.536182e-002 -6.179852e-002
      vertex   5.282000e+000 3.266182e-002 -3.980148e-002
    endloop
  endfacet
  facet normal 2.134256e-016 -5.000000e-001 -8.660254e-001
    outer loop
      vertex   5.282000e+000 3.266182e-002 3.980148e-002
      vertex   5.282000e+000 1.066477e-002 5.250148e-002
      vertex   5.272000e+000 3.266182e-002 3.980148e-002
    endloop
  endfacet
  facet normal -2.602085e-016 -5.000000e-001 -8.660254e-001
    outer loop
      vertex   5.272000e+000 3.266182e-002 3.980148e-002
      vertex   5.282000e+000 1.066477e-002 5.250148e-002
      vertex   5.272000e+000 1.066477e-002 5.250148e-002
    endloop
  endfacet
  facet normal 4.268512e-016 8.660254e-001 -5.000000e-001
    outer loop
      vertex   5.282000e+000 4.536182e-002 6.179852e-002
      vertex   5.282000e+000 3.266182e-002 3.980148e-002
      vertex   5.272000e+000 4.536182e-002 6.179852e-002
    endloop
  endfacet
  facet normal 9.478705e-016 8.660254e-001 -5.000000e-001
    outer loop
      vertex   5.272000e+000 4.536182e-002 6.179852e-002
      vertex   5.282000e+000 3.266182e-002 3.980148e-002
      vertex   5.272000e+000 3.266182e-002 3.980148e-002
    endloop
  endfacet
  facet normal 2.134256e-016 5.000000e-001 8.660254e-001
    outer loop
      vertex   5.282000e+000 2.336477e-002 7.449852e-002
      vertex   5.282000e+000 4.536182e-002 6.179852e-002
      vertex   5.272000e+000 2.336477e-002 7.449852e-002
    endloop
  endfacet
  facet normal 3.469447e-016 5.000000e-001 8.660254e-001
    outer loop
      vertex   5.272000e+000 2.336477e-002 7.449852e-002
      vertex   5.282000e+000 4.536182e-002 6.179852e-002
      vertex   5.272000e+000 4.536182e-002 6.179852e-002
    endloop
  endfacet
  facet normal -4.268512e-016 -8.660254e-001 5.000000e-001
    outer loop
      vertex   5.282000e+000 1.066477e-002 5.250148e-002
      vertex   5.282000e+000 2.336477e-002 7.449852e-002
      vertex   5.272000e+000 1.066477e-002 5.250148e-002
    endloop
  endfacet
  facet normal -3.004629e-016 -8.660254e-001 5.000000e-001
    outer loop
      vertex   5.272000e+000 1.066477e-002 5.250148e-002
      vertex   5.282000e+000 2.336477e-002 7.449852e-002
      vertex   5.272000e+000 2.336477e-002 7.449852e-002
    endloop
  endfacet
  facet normal -1.000000e+000 0.000000e+000 -0.000000e+000
    outer loop
      vertex   5.272000e+000 2.336477e-002 7.449852e-002
      vertex   5.272000e+000 4.536182e-002 6.179852e-002
      vertex   5.272000e+000 1.066477e-002 5.250148e-002
    endloop
  endfacet
  facet normal -1.000000e+000 0.000000e+000 -0.000000e+000
    outer loop
      vertex   5.272000e+000 1.066477e-002 5.250148e-002
      vertex   5.272000e+000 4.536182e-002 6.179852e-002
      vertex   5.272000e+000 3.266182e-002 3.980148e-002
    endloop
  endfacet
  facet normal 1.000000e+000 -0.000000e+000 -0.000000e+000
    outer loop
      vertex   5.282000e+000 1.066477e-002 5.250148e-002
      vertex   5.282000e+000 3.266182e-002 3.980148e-002
      vertex   5.282000e+000 2.336477e-002 7.449852e-002
    endloop
  endfacet
  facet normal 1.000000e+000 -0.000000e+000 0.000000e+000
    outer loop
      vertex   5.282000e+000 2.336477e-002 7.449852e-002
      vertex   5.282000e+000 3.266182e-002 3.980148e-002
      vertex   5.282000e+000 4.536182e-002 6.179852e-002
    endloop
  endfacet
endsolid
