solid ascii
  facet normal -0.000000e+000 -0.000000e+000 -1.000000e+000
    outer loop
      vertex   3.914000e+000 3.800000e-002 -1.900000e-002
      vertex   3.914000e+000 4.387701e-018 -1.900000e-002
      vertex   3.904000e+000 3.800000e-002 -1.900000e-002
    endloop
  endfacet
  facet normal -0.000000e+000 -0.000000e+000 -1.000000e+000
    outer loop
      vertex   3.904000e+000 3.800000e-002 -1.900000e-002
      vertex   3.914000e+000 4.387701e-018 -1.900000e-002
      vertex   3.904000e+000 4.387701e-018 -1.900000e-002
    endloop
  endfacet
  facet normal 0.000000e+000 1.000000e+000 1.826025e-016
    outer loop
      vertex   3.914000e+000 3.800000e-002 1.900000e-002
      vertex   3.914000e+000 3.800000e-002 -1.900000e-002
      vertex   3.904000e+000 3.800000e-002 1.900000e-002
    endloop
  endfacet
  facet normal 0.000000e+000 1.000000e+000 1.826025e-016
    outer loop
      vertex   3.904000e+000 3.800000e-002 1.900000e-002
      vertex   3.914000e+000 3.800000e-002 -1.900000e-002
      vertex   3.904000e+000 3.800000e-002 -1.900000e-002
    endloop
  endfacet
  facet normal 0.000000e+000 -9.130124e-017 1.000000e+000
    outer loop
      vertex   3.914000e+000 -4.387701e-018 1.900000e-002
      vertex   3.914000e+000 3.800000e-002 1.900000e-002
      vertex   3.904000e+000 -4.387701e-018 1.900000e-002
    endloop
  endfacet
  facet normal -3.469447e-016 0.000000e+000 1.000000e+000
    outer loop
      vertex   3.904000e+000 -4.387701e-018 1.900000e-002
      vertex   3.914000e+000 3.800000e-002 1.900000e-002
      vertex   3.904000e+000 3.800000e-002 1.900000e-002
    endloop
  endfacet
  facet normal 0.000000e+000 -1.000000e+000 -2.309316e-016
    outer loop
      vertex   3.914000e+000 4.387701e-018 -1.900000e-002
      vertex   3.914000e+000 -4.387701e-018 1.900000e-002
      vertex   3.904000e+000 4.387701e-018 -1.900000e-002
    endloop
  endfacet
  facet normal 7.703720e-032 -1.000000e+000 -2.309316e-016
    outer loop
      vertex   3.904000e+000 4.387701e-018 -1.900000e-002
      vertex   3.914000e+000 -4.387701e-018 1.900000e-002
      vertex   3.904000e+000 -4.387701e-018 1.900000e-002
    endloop
  endfacet
  facet normal -1.000000e+000 0.000000e+000 -0.000000e+000
    outer loop
      vertex   3.904000e+000 -4.387701e-018 1.900000e-002
      vertex   3.904000e+000 3.800000e-002 1.900000e-002
      vertex   3.904000e+000 4.387701e-018 -1.900000e-002
    endloop
  endfacet
  facet normal -1.000000e+000 0.000000e+000 0.000000e+000
    outer loop
      vertex   3.904000e+000 4.387701e-018 -1.900000e-002
      vertex   3.904000e+000 3.800000e-002 1.900000e-002
      vertex   3.904000e+000 3.800000e-002 -1.900000e-002
    endloop
  endfacet
  facet normal 1.000000e+000 0.000000e+000 -0.000000e+000
    outer loop
      vertex   3.914000e+000 4.387701e-018 -1.900000e-002
      vertex   3.914000e+000 3.800000e-002 -1.900000e-002
      vertex   3.914000e+000 -4.387701e-018 1.900000e-002
    endloop
  endfacet
  facet normal 1.000000e+000 -0.000000e+000 -0.000000e+000
    outer loop
      vertex   3.914000e+000 -4.387701e-018 1.900000e-002
      vertex   3.914000e+000 3.800000e-002 -1.900000e-002
      vertex   3.914000e+000 3.800000e-002 1.900000e-002
    endloop
  endfacet
  facet normal -1.426582e-015 5.000000e-001 -8.660254e-001
    outer loop
      vertex   3.914000e+000 5.942374e-002 -6.095448e-002
      vertex   3.914000e+000 2.651477e-002 -7.995448e-002
      vertex   3.904000e+000 5.942374e-002 -6.095448e-002
    endloop
  endfacet
  facet normal -3.469447e-016 5.000000e-001 -8.660254e-001
    outer loop
      vertex   3.904000e+000 5.942374e-002 -6.095448e-002
      vertex   3.914000e+000 2.651477e-002 -7.995448e-002
      vertex   3.904000e+000 2.651477e-002 -7.995448e-002
    endloop
  endfacet
  facet normal -5.706327e-016 8.660254e-001 5.000000e-001
    outer loop
      vertex   3.914000e+000 4.042374e-002 -2.804552e-002
      vertex   3.914000e+000 5.942374e-002 -6.095448e-002
      vertex   3.904000e+000 4.042374e-002 -2.804552e-002
    endloop
  endfacet
  facet normal -8.549070e-016 8.660254e-001 5.000000e-001
    outer loop
      vertex   3.904000e+000 4.042374e-002 -2.804552e-002
      vertex   3.914000e+000 5.942374e-002 -6.095448e-002
      vertex   3.904000e+000 5.942374e-002 -6.095448e-002
    endloop
  endfacet
  facet normal 2.853164e-016 -5.000000e-001 8.660254e-001
    outer loop
      vertex   3.914000e+000 7.514774e-003 -4.704552e-002
      vertex   3.914000e+000 4.042374e-002 -2.804552e-002
      vertex   3.904000e+000 7.514774e-003 -4.704552e-002
    endloop
  endfacet
  facet normal 3.469447e-016 -5.000000e-001 8.660254e-001
    outer loop
      vertex   3.904000e+000 7.514774e-003 -4.704552e-002
      vertex   3.914000e+000 4.042374e-002 -2.804552e-002
      vertex   3.904000e+000 4.042374e-002 -2.804552e-002
    endloop
  endfacet
  facet normal 8.559491e-016 -8.660254e-001 -5.000000e-001
    outer loop
      vertex   3.914000e+000 2.651477e-002 -7.995448e-002
      vertex   3.914000e+000 7.514774e-003 -4.704552e-002
      vertex   3.904000e+000 2.651477e-002 -7.995448e-002
    endloop
  endfacet
  facet normal 9.013888e-016 -8.660254e-001 -5.000000e-001
    outer loop
      vertex   3.904000e+000 2.651477e-002 -7.995448e-002
      vertex   3.914000e+000 7.514774e-003 -4.704552e-002
      vertex   3.904000e+000 7.514774e-003 -4.704552e-002
    endloop
  endfacet
  facet normal -1.000000e+000 0.000000e+000 -0.000000e+000
    outer loop
      vertex   3.904000e+000 7.514774e-003 -4.704552e-002
      vertex   3.904000e+000 4.042374e-002 -2.804552e-002
      vertex   3.904000e+000 2.651477e-002 -7.995448e-002
    endloop
  endfacet
  facet normal -1.000000e+000 0.000000e+000 0.000000e+000
    outer loop
      vertex   3.904000e+000 2.651477e-002 -7.995448e-002
      vertex   3.904000e+000 4.042374e-002 -2.804552e-002
      vertex   3.904000e+000 5.942374e-002 -6.095448e-002
    endloop
  endfacet
  facet normal 1.000000e+000 0.000000e+000 -0.000000e+000
    outer loop
      vertex   3.914000e+000 2.651477e-002 -7.995448e-002
      vertex   3.914000e+000 5.942374e-002 -6.095448e-002
      vertex   3.914000e+000 7.514774e-003 -4.704552e-002
    endloop
  endfacet
  facet normal 1.000000e+000 -0.000000e+000 -0.000000e+000
    outer loop
      vertex   3.914000e+000 7.514774e-003 -4.704552e-002
      vertex   3.914000e+000 5.942374e-002 -6.095448e-002
      vertex   3.914000e+000 4.042374e-002 -2.804552e-002
    endloop
  endfacet
  facet normal 5.706327e-016 -5.000000e-001 -8.660254e-001
    outer loop
      vertex   3.914000e+000 4.042374e-002 2.804552e-002
      vertex   3.914000e+000 7.514774e-003 4.704552e-002
      vertex   3.904000e+000 4.042374e-002 2.804552e-002
    endloop
  endfacet
  facet normal 2.106131e-016 -5.000000e-001 -8.660254e-001
    outer loop
      vertex   3.904000e+000 4.042374e-002 2.804552e-002
      vertex   3.914000e+000 7.514774e-003 4.704552e-002
      vertex   3.904000e+000 7.514774e-003 4.704552e-002
    endloop
  endfacet
  facet normal 0.000000e+000 8.660254e-001 -5.000000e-001
    outer loop
      vertex   3.914000e+000 5.942374e-002 6.095448e-002
      vertex   3.914000e+000 4.042374e-002 2.804552e-002
      vertex   3.904000e+000 5.942374e-002 6.095448e-002
    endloop
  endfacet
  facet normal 1.121343e-015 8.660254e-001 -5.000000e-001
    outer loop
      vertex   3.904000e+000 5.942374e-002 6.095448e-002
      vertex   3.914000e+000 4.042374e-002 2.804552e-002
      vertex   3.904000e+000 4.042374e-002 2.804552e-002
    endloop
  endfacet
  facet normal -8.559491e-016 5.000000e-001 8.660254e-001
    outer loop
      vertex   3.914000e+000 2.651477e-002 7.995448e-002
      vertex   3.914000e+000 5.942374e-002 6.095448e-002
      vertex   3.904000e+000 2.651477e-002 7.995448e-002
    endloop
  endfacet
  facet normal 0.000000e+000 5.000000e-001 8.660254e-001
    outer loop
      vertex   3.904000e+000 2.651477e-002 7.995448e-002
      vertex   3.914000e+000 5.942374e-002 6.095448e-002
      vertex   3.904000e+000 5.942374e-002 6.095448e-002
    endloop
  endfacet
  facet normal -8.559491e-016 -8.660254e-001 5.000000e-001
    outer loop
      vertex   3.914000e+000 7.514774e-003 4.704552e-002
      vertex   3.914000e+000 2.651477e-002 7.995448e-002
      vertex   3.904000e+000 7.514774e-003 4.704552e-002
    endloop
  endfacet
  facet normal -1.294815e-015 -8.660254e-001 5.000000e-001
    outer loop
      vertex   3.904000e+000 7.514774e-003 4.704552e-002
      vertex   3.914000e+000 2.651477e-002 7.995448e-002
      vertex   3.904000e+000 2.651477e-002 7.995448e-002
    endloop
  endfacet
  facet normal -1.000000e+000 0.000000e+000 -0.000000e+000
    outer loop
      vertex   3.904000e+000 2.651477e-002 7.995448e-002
      vertex   3.904000e+000 5.942374e-002 6.095448e-002
      vertex   3.904000e+000 7.514774e-003 4.704552e-002
    endloop
  endfacet
  facet normal -1.000000e+000 0.000000e+000 -0.000000e+000
    outer loop
      vertex   3.904000e+000 7.514774e-003 4.704552e-002
      vertex   3.904000e+000 5.942374e-002 6.095448e-002
      vertex   3.904000e+000 4.042374e-002 2.804552e-002
    endloop
  endfacet
  facet normal 1.000000e+000 -0.000000e+000 -0.000000e+000
    outer loop
      vertex   3.914000e+000 7.514774e-003 4.704552e-002
      vertex   3.914000e+000 4.042374e-002 2.804552e-002
      vertex   3.914000e+000 2.651477e-002 7.995448e-002
    endloop
  endfacet
  facet normal 1.000000e+000 -0.000000e+000 0.000000e+000
    outer loop
      vertex   3.914000e+000 2.651477e-002 7.995448e-002
      vertex   3.914000e+000 4.042374e-002 2.804552e-002
      vertex   3.914000e+000 5.942374e-002 6.095448e-002
    endloop
  endfacet
  facet normal -0.000000e+000 -0.000000e+000 -1.000000e+000
    outer loop
      vertex   4.066000e+000 3.800000e-002 -1.900000e-002
      vertex   4.066000e+000 4.387701e-018 -1.900000e-002
      vertex   4.056000e+000 3.800000e-002 -1.900000e-002
    endloop
  endfacet
  facet normal -0.000000e+000 -0.000000e+000 -1.000000e+000
    outer loop
      vertex   4.056000e+000 3.800000e-002 -1.900000e-002
      vertex   4.066000e+000 4.387701e-018 -1.900000e-002
      vertex   4.056000e+000 4.387701e-018 -1.900000e-002
    endloop
  endfacet
  facet normal 0.000000e+000 1.000000e+000 1.826025e-016
    outer loop
      vertex   4.066000e+000 3.800000e-002 1.900000e-002
      vertex   4.066000e+000 3.800000e-002 -1.900000e-002
      vertex   4.056000e+000 3.800000e-002 1.900000e-002
    endloop
  endfacet
  facet normal 0.000000e+000 1.000000e+000 1.826025e-016
    outer loop
      vertex   4.056000e+000 3.800000e-002 1.900000e-002
      vertex   4.066000e+000 3.800000e-002 -1.900000e-002
      vertex   4.056000e+000 3.800000e-002 -1.900000e-002
    endloop
  endfacet
  facet normal 0.000000e+000 -9.130124e-017 1.000000e+000
    outer loop
      vertex   4.066000e+000 -4.387701e-018 1.900000e-002
      vertex   4.066000e+000 3.800000e-002 1.900000e-002
      vertex   4.056000e+000 -4.387701e-018 1.900000e-002
    endloop
  endfacet
  facet normal -3.469447e-016 0.000000e+000 1.000000e+000
    outer loop
      vertex   4.056000e+000 -4.387701e-018 1.900000e-002
      vertex   4.066000e+000 3.800000e-002 1.900000e-002
      vertex   4.056000e+000 3.800000e-002 1.900000e-002
    endloop
  endfacet
  facet normal 0.000000e+000 -1.000000e+000 -2.309316e-016
    outer loop
      vertex   4.066000e+000 4.387701e-018 -1.900000e-002
      vertex   4.066000e+000 -4.387701e-018 1.900000e-002
      vertex   4.056000e+000 4.387701e-018 -1.900000e-002
    endloop
  endfacet
  facet normal 7.703720e-032 -1.000000e+000 -2.309316e-016
    outer loop
      vertex   4.056000e+000 4.387701e-018 -1.900000e-002
      vertex   4.066000e+000 -4.387701e-018 1.900000e-002
      vertex   4.056000e+000 -4.387701e-018 1.900000e-002
    endloop
  endfacet
  facet normal -1.000000e+000 0.000000e+000 -0.000000e+000
    outer loop
      vertex   4.056000e+000 -4.387701e-018 1.900000e-002
      vertex   4.056000e+000 3.800000e-002 1.900000e-002
      vertex   4.056000e+000 4.387701e-018 -1.900000e-002
    endloop
  endfacet
  facet normal -1.000000e+000 0.000000e+000 0.000000e+000
    outer loop
      vertex   4.056000e+000 4.387701e-018 -1.900000e-002
      vertex   4.056000e+000 3.800000e-002 1.900000e-002
      vertex   4.056000e+000 3.800000e-002 -1.900000e-002
    endloop
  endfacet
  facet normal 1.000000e+000 0.000000e+000 -0.000000e+000
    outer loop
      vertex   4.066000e+000 4.387701e-018 -1.900000e-002
      vertex   4.066000e+000 3.800000e-002 -1.900000e-002
      vertex   4.066000e+000 -4.387701e-018 1.900000e-002
    endloop
  endfacet
  facet normal 1.000000e+000 -0.000000e+000 -0.000000e+000
    outer loop
      vertex   4.066000e+000 -4.387701e-018 1.900000e-002
      vertex   4.066000e+000 3.800000e-002 -1.900000e-002
      vertex   4.066000e+000 3.800000e-002 1.900000e-002
    endloop
  endfacet
  facet normal -1.426582e-015 5.000000e-001 -8.660254e-001
    outer loop
      vertex   4.066000e+000 5.942374e-002 -6.095448e-002
      vertex   4.066000e+000 2.651477e-002 -7.995448e-002
      vertex   4.056000e+000 5.942374e-002 -6.095448e-002
    endloop
  endfacet
  facet normal -3.469447e-016 5.000000e-001 -8.660254e-001
    outer loop
      vertex   4.056000e+000 5.942374e-002 -6.095448e-002
      vertex   4.066000e+000 2.651477e-002 -7.995448e-002
      vertex   4.056000e+000 2.651477e-002 -7.995448e-002
    endloop
  endfacet
  facet normal -5.706327e-016 8.660254e-001 5.000000e-001
    outer loop
      vertex   4.066000e+000 4.042374e-002 -2.804552e-002
      vertex   4.066000e+000 5.942374e-002 -6.095448e-002
      vertex   4.056000e+000 4.042374e-002 -2.804552e-002
    endloop
  endfacet
  facet normal -8.549070e-016 8.660254e-001 5.000000e-001
    outer loop
      vertex   4.056000e+000 4.042374e-002 -2.804552e-002
      vertex   4.066000e+000 5.942374e-002 -6.095448e-002
      vertex   4.056000e+000 5.942374e-002 -6.095448e-002
    endloop
  endfacet
  facet normal 2.853164e-016 -5.000000e-001 8.660254e-001
    outer loop
      vertex   4.066000e+000 7.514774e-003 -4.704552e-002
      vertex   4.066000e+000 4.042374e-002 -2.804552e-002
      vertex   4.056000e+000 7.514774e-003 -4.704552e-002
    endloop
  endfacet
  facet normal 3.469447e-016 -5.000000e-001 8.660254e-001
    outer loop
      vertex   4.056000e+000 7.514774e-003 -4.704552e-002
      vertex   4.066000e+000 4.042374e-002 -2.804552e-002
      vertex   4.056000e+000 4.042374e-002 -2.804552e-002
    endloop
  endfacet
  facet normal 8.559491e-016 -8.660254e-001 -5.000000e-001
    outer loop
      vertex   4.066000e+000 2.651477e-002 -7.995448e-002
      vertex   4.066000e+000 7.514774e-003 -4.704552e-002
      vertex   4.056000e+000 2.651477e-002 -7.995448e-002
    endloop
  endfacet
  facet normal 9.013888e-016 -8.660254e-001 -5.000000e-001
    outer loop
      vertex   4.056000e+000 2.651477e-002 -7.995448e-002
      vertex   4.066000e+000 7.514774e-003 -4.704552e-002
      vertex   4.056000e+000 7.514774e-003 -4.704552e-002
    endloop
  endfacet
  facet normal -1.000000e+000 0.000000e+000 -0.000000e+000
    outer loop
      vertex   4.056000e+000 7.514774e-003 -4.704552e-002
      vertex   4.056000e+000 4.042374e-002 -2.804552e-002
      vertex   4.056000e+000 2.651477e-002 -7.995448e-002
    endloop
  endfacet
  facet normal -1.000000e+000 0.000000e+000 0.000000e+000
    outer loop
      vertex   4.056000e+000 2.651477e-002 -7.995448e-002
      vertex   4.056000e+000 4.042374e-002 -2.804552e-002
      vertex   4.056000e+000 5.942374e-002 -6.095448e-002
    endloop
  endfacet
  facet normal 1.000000e+000 0.000000e+000 -0.000000e+000
    outer loop
      vertex   4.066000e+000 2.651477e-002 -7.995448e-002
      vertex   4.066000e+000 5.942374e-002 -6.095448e-002
      vertex   4.066000e+000 7.514774e-003 -4.704552e-002
    endloop
  endfacet
  facet normal 1.000000e+000 -0.000000e+000 -0.000000e+000
    outer loop
      vertex   4.066000e+000 7.514774e-003 -4.704552e-002
      vertex   4.066000e+000 5.942374e-002 -6.095448e-002
      vertex   4.066000e+000 4.042374e-002 -2.804552e-002
    endloop
  endfacet
  facet normal 5.706327e-016 -5.000000e-001 -8.660254e-001
    outer loop
      vertex   4.066000e+000 4.042374e-002 2.804552e-002
      vertex   4.066000e+000 7.514774e-003 4.704552e-002
      vertex   4.056000e+000 4.042374e-002 2.804552e-002
    endloop
  endfacet
  facet normal 2.106131e-016 -5.000000e-001 -8.660254e-001
    outer loop
      vertex   4.056000e+000 4.042374e-002 2.804552e-002
      vertex   4.066000e+000 7.514774e-003 4.704552e-002
      vertex   4.056000e+000 7.514774e-003 4.704552e-002
    endloop
  endfacet
  facet normal 0.000000e+000 8.660254e-001 -5.000000e-001
    outer loop
      vertex   4.066000e+000 5.942374e-002 6.095448e-002
      vertex   4.066000e+000 4.042374e-002 2.804552e-002
      vertex   4.056000e+000 5.942374e-002 6.095448e-002
    endloop
  endfacet
  facet normal 1.121343e-015 8.660254e-001 -5.000000e-001
    outer loop
      vertex   4.056000e+000 5.942374e-002 6.095448e-002
      vertex   4.066000e+000 4.042374e-002 2.804552e-002
      vertex   4.056000e+000 4.042374e-002 2.804552e-002
    endloop
  endfacet
  facet normal -8.559491e-016 5.000000e-001 8.660254e-001
    outer loop
      vertex   4.066000e+000 2.651477e-002 7.995448e-002
      vertex   4.066000e+000 5.942374e-002 6.095448e-002
      vertex   4.056000e+000 2.651477e-002 7.995448e-002
    endloop
  endfacet
  facet normal 0.000000e+000 5.000000e-001 8.660254e-001
    outer loop
      vertex   4.056000e+000 2.651477e-002 7.995448e-002
      vertex   4.066000e+000 5.942374e-002 6.095448e-002
      vertex   4.056000e+000 5.942374e-002 6.095448e-002
    endloop
  endfacet
  facet normal -8.559491e-016 -8.660254e-001 5.000000e-001
    outer loop
      vertex   4.066000e+000 7.514774e-003 4.704552e-002
      vertex   4.066000e+000 2.651477e-002 7.995448e-002
      vertex   4.056000e+000 7.514774e-003 4.704552e-002
    endloop
  endfacet
  facet normal -1.294815e-015 -8.660254e-001 5.000000e-001
    outer loop
      vertex   4.056000e+000 7.514774e-003 4.704552e-002
      vertex   4.066000e+000 2.651477e-002 7.995448e-002
      vertex   4.056000e+000 2.651477e-002 7.995448e-002
    endloop
  endfacet
  facet normal -1.000000e+000 0.000000e+000 -0.000000e+000
    outer loop
      vertex   4.056000e+000 2.651477e-002 7.995448e-002
      vertex   4.056000e+000 5.942374e-002 6.095448e-002
      vertex   4.056000e+000 7.514774e-003 4.704552e-002
    endloop
  endfacet
  facet normal -1.000000e+000 0.000000e+000 -0.000000e+000
    outer loop
      vertex   4.056000e+000 7.514774e-003 4.704552e-002
      vertex   4.056000e+000 5.942374e-002 6.095448e-002
      vertex   4.056000e+000 4.042374e-002 2.804552e-002
    endloop
  endfacet
  facet normal 1.000000e+000 -0.000000e+000 -0.000000e+000
    outer loop
      vertex   4.066000e+000 7.514774e-003 4.704552e-002
      vertex   4.066000e+000 4.042374e-002 2.804552e-002
      vertex   4.066000e+000 2.651477e-002 7.995448e-002
    endloop
  endfacet
  facet normal 1.000000e+000 -0.000000e+000 0.000000e+000
    outer loop
      vertex   4.066000e+000 2.651477e-002 7.995448e-002
      vertex   4.066000e+000 4.042374e-002 2.804552e-002
      vertex   4.066000e+000 5.942374e-002 6.095448e-002
    endloop
  endfacet
  facet normal -0.000000e+000 -0.000000e+000 -1.000000e+000
    outer loop
      vertex   4.218000e+000 3.800000e-002 -1.900000e-002
      vertex   4.218000e+000 4.387701e-018 -1.900000e-002
      vertex   4.208000e+000 3.800000e-002 -1.900000e-002
    endloop
  endfacet
  facet normal -0.000000e+000 -0.000000e+000 -1.000000e+000
    outer loop
      vertex   4.208000e+000 3.800000e-002 -1.900000e-002
      vertex   4.218000e+000 4.387701e-018 -1.900000e-002
      vertex   4.208000e+000 4.387701e-018 -1.900000e-002
    endloop
  endfacet
  facet normal 0.000000e+000 1.000000e+000 1.826025e-016
    outer loop
      vertex   4.218000e+000 3.800000e-002 1.900000e-002
      vertex   4.218000e+000 3.800000e-002 -1.900000e-002
      vertex   4.208000e+000 3.800000e-002 1.900000e-002
    endloop
  endfacet
  facet normal 0.000000e+000 1.000000e+000 1.826025e-016
    outer loop
      vertex   4.208000e+000 3.800000e-002 1.900000e-002
      vertex   4.218000e+000 3.800000e-002 -1.900000e-002
      vertex   4.208000e+000 3.800000e-002 -1.900000e-002
    endloop
  endfacet
  facet normal 0.000000e+000 -9.130124e-017 1.000000e+000
    outer loop
      vertex   4.218000e+000 -4.387701e-018 1.900000e-002
      vertex   4.218000e+000 3.800000e-002 1.900000e-002
      vertex   4.208000e+000 -4.387701e-018 1.900000e-002
    endloop
  endfacet
  facet normal -3.469447e-016 0.000000e+000 1.000000e+000
    outer loop
      vertex   4.208000e+000 -4.387701e-018 1.900000e-002
      vertex   4.218000e+000 3.800000e-002 1.900000e-002
      vertex   4.208000e+000 3.800000e-002 1.900000e-002
    endloop
  endfacet
  facet normal 0.000000e+000 -1.000000e+000 -2.309316e-016
    outer loop
      vertex   4.218000e+000 4.387701e-018 -1.900000e-002
      vertex   4.218000e+000 -4.387701e-018 1.900000e-002
      vertex   4.208000e+000 4.387701e-018 -1.900000e-002
    endloop
  endfacet
  facet normal 7.703720e-032 -1.000000e+000 -2.309316e-016
    outer loop
      vertex   4.208000e+000 4.387701e-018 -1.900000e-002
      vertex   4.218000e+000 -4.387701e-018 1.900000e-002
      vertex   4.208000e+000 -4.387701e-018 1.900000e-002
    endloop
  endfacet
  facet normal -1.000000e+000 0.000000e+000 -0.000000e+000
    outer loop
      vertex   4.208000e+000 -4.387701e-018 1.900000e-002
      vertex   4.208000e+000 3.800000e-002 1.900000e-002
      vertex   4.208000e+000 4.387701e-018 -1.900000e-002
    endloop
  endfacet
  facet normal -1.000000e+000 0.000000e+000 0.000000e+000
    outer loop
      vertex   4.208000e+000 4.387701e-018 -1.900000e-002
      vertex   4.208000e+000 3.800000e-002 1.900000e-002
      vertex   4.208000e+000 3.800000e-002 -1.900000e-002
    endloop
  endfacet
  facet normal 1.000000e+000 0.000000e+000 -0.000000e+000
    outer loop
      vertex   4.218000e+000 4.387701e-018 -1.900000e-002
      vertex   4.218000e+000 3.800000e-002 -1.900000e-002
      vertex   4.218000e+000 -4.387701e-018 1.900000e-002
    endloop
  endfacet
  facet normal 1.000000e+000 -0.000000e+000 -0.000000e+000
    outer loop
      vertex   4.218000e+000 -4.387701e-018 1.900000e-002
      vertex   4.218000e+000 3.800000e-002 -1.900000e-002
      vertex   4.218000e+000 3.800000e-002 1.900000e-002
    endloop
  endfacet
  facet normal -1.426582e-015 5.000000e-001 -8.660254e-001
    outer loop
      vertex   4.218000e+000 5.942374e-002 -6.095448e-002
      vertex   4.218000e+000 2.651477e-002 -7.995448e-002
      vertex   4.208000e+000 5.942374e-002 -6.095448e-002
    endloop
  endfacet
  facet normal -3.469447e-016 5.000000e-001 -8.660254e-001
    outer loop
      vertex   4.208000e+000 5.942374e-002 -6.095448e-002
      vertex   4.218000e+000 2.651477e-002 -7.995448e-002
      vertex   4.208000e+000 2.651477e-002 -7.995448e-002
    endloop
  endfacet
  facet normal -5.706327e-016 8.660254e-001 5.000000e-001
    outer loop
      vertex   4.218000e+000 4.042374e-002 -2.804552e-002
      vertex   4.218000e+000 5.942374e-002 -6.095448e-002
      vertex   4.208000e+000 4.042374e-002 -2.804552e-002
    endloop
  endfacet
  facet normal -8.549070e-016 8.660254e-001 5.000000e-001
    outer loop
      vertex   4.208000e+000 4.042374e-002 -2.804552e-002
      vertex   4.218000e+000 5.942374e-002 -6.095448e-002
      vertex   4.208000e+000 5.942374e-002 -6.095448e-002
    endloop
  endfacet
  facet normal 2.853164e-016 -5.000000e-001 8.660254e-001
    outer loop
      vertex   4.218000e+000 7.514774e-003 -4.704552e-002
      vertex   4.218000e+000 4.042374e-002 -2.804552e-002
      vertex   4.208000e+000 7.514774e-003 -4.704552e-002
    endloop
  endfacet
  facet normal 3.469447e-016 -5.000000e-001 8.660254e-001
    outer loop
      vertex   4.208000e+000 7.514774e-003 -4.704552e-002
      vertex   4.218000e+000 4.042374e-002 -2.804552e-002
      vertex   4.208000e+000 4.042374e-002 -2.804552e-002
    endloop
  endfacet
  facet normal 8.559491e-016 -8.660254e-001 -5.000000e-001
    outer loop
      vertex   4.218000e+000 2.651477e-002 -7.995448e-002
      vertex   4.218000e+000 7.514774e-003 -4.704552e-002
      vertex   4.208000e+000 2.651477e-002 -7.995448e-002
    endloop
  endfacet
  facet normal 9.013888e-016 -8.660254e-001 -5.000000e-001
    outer loop
      vertex   4.208000e+000 2.651477e-002 -7.995448e-002
      vertex   4.218000e+000 7.514774e-003 -4.704552e-002
      vertex   4.208000e+000 7.514774e-003 -4.704552e-002
    endloop
  endfacet
  facet normal -1.000000e+000 0.000000e+000 -0.000000e+000
    outer loop
      vertex   4.208000e+000 7.514774e-003 -4.704552e-002
      vertex   4.208000e+000 4.042374e-002 -2.804552e-002
      vertex   4.208000e+000 2.651477e-002 -7.995448e-002
    endloop
  endfacet
  facet normal -1.000000e+000 0.000000e+000 0.000000e+000
    outer loop
      vertex   4.208000e+000 2.651477e-002 -7.995448e-002
      vertex   4.208000e+000 4.042374e-002 -2.804552e-002
      vertex   4.208000e+000 5.942374e-002 -6.095448e-002
    endloop
  endfacet
  facet normal 1.000000e+000 0.000000e+000 -0.000000e+000
    outer loop
      vertex   4.218000e+000 2.651477e-002 -7.995448e-002
      vertex   4.218000e+000 5.942374e-002 -6.095448e-002
      vertex   4.218000e+000 7.514774e-003 -4.704552e-002
    endloop
  endfacet
  facet normal 1.000000e+000 -0.000000e+000 -0.000000e+000
    outer loop
      vertex   4.218000e+000 7.514774e-003 -4.704552e-002
      vertex   4.218000e+000 5.942374e-002 -6.095448e-002
      vertex   4.218000e+000 4.042374e-002 -2.804552e-002
    endloop
  endfacet
  facet normal 5.706327e-016 -5.000000e-001 -8.660254e-001
    outer loop
      vertex   4.218000e+000 4.042374e-002 2.804552e-002
      vertex   4.218000e+000 7.514774e-003 4.704552e-002
      vertex   4.208000e+000 4.042374e-002 2.804552e-002
    endloop
  endfacet
  facet normal 2.106131e-016 -5.000000e-001 -8.660254e-001
    outer loop
      vertex   4.208000e+000 4.042374e-002 2.804552e-002
      vertex   4.218000e+000 7.514774e-003 4.704552e-002
      vertex   4.208000e+000 7.514774e-003 4.704552e-002
    endloop
  endfacet
  facet normal 0.000000e+000 8.660254e-001 -5.000000e-001
    outer loop
      vertex   4.218000e+000 5.942374e-002 6.095448e-002
      vertex   4.218000e+000 4.042374e-002 2.804552e-002
      vertex   4.208000e+000 5.942374e-002 6.095448e-002
    endloop
  endfacet
  facet normal 1.121343e-015 8.660254e-001 -5.000000e-001
    outer loop
      vertex   4.208000e+000 5.942374e-002 6.095448e-002
      vertex   4.218000e+000 4.042374e-002 2.804552e-002
      vertex   4.208000e+000 4.042374e-002 2.804552e-002
    endloop
  endfacet
  facet normal -8.559491e-016 5.000000e-001 8.660254e-001
    outer loop
      vertex   4.218000e+000 2.651477e-002 7.995448e-002
      vertex   4.218000e+000 5.942374e-002 6.095448e-002
      vertex   4.208000e+000 2.651477e-002 7.995448e-002
    endloop
  endfacet
  facet normal 0.000000e+000 5.000000e-001 8.660254e-001
    outer loop
      vertex   4.208000e+000 2.651477e-002 7.995448e-002
      vertex   4.218000e+000 5.942374e-002 6.095448e-002
      vertex   4.208000e+000 5.942374e-002 6.095448e-002
    endloop
  endfacet
  facet normal -8.559491e-016 -8.660254e-001 5.000000e-001
    outer loop
      vertex   4.218000e+000 7.514774e-003 4.704552e-002
      vertex   4.218000e+000 2.651477e-002 7.995448e-002
      vertex   4.208000e+000 7.514774e-003 4.704552e-002
    endloop
  endfacet
  facet normal -1.294815e-015 -8.660254e-001 5.000000e-001
    outer loop
      vertex   4.208000e+000 7.514774e-003 4.704552e-002
      vertex   4.218000e+000 2.651477e-002 7.995448e-002
      vertex   4.208000e+000 2.651477e-002 7.995448e-002
    endloop
  endfacet
  facet normal -1.000000e+000 0.000000e+000 -0.000000e+000
    outer loop
      vertex   4.208000e+000 2.651477e-002 7.995448e-002
      vertex   4.208000e+000 5.942374e-002 6.095448e-002
      vertex   4.208000e+000 7.514774e-003 4.704552e-002
    endloop
  endfacet
  facet normal -1.000000e+000 0.000000e+000 -0.000000e+000
    outer loop
      vertex   4.208000e+000 7.514774e-003 4.704552e-002
      vertex   4.208000e+000 5.942374e-002 6.095448e-002
      vertex   4.208000e+000 4.042374e-002 2.804552e-002
    endloop
  endfacet
  facet normal 1.000000e+000 -0.000000e+000 -0.000000e+000
    outer loop
      vertex   4.218000e+000 7.514774e-003 4.704552e-002
      vertex   4.218000e+000 4.042374e-002 2.804552e-002
      vertex   4.218000e+000 2.651477e-002 7.995448e-002
    endloop
  endfacet
  facet normal 1.000000e+000 -0.000000e+000 0.000000e+000
    outer loop
      vertex   4.218000e+000 2.651477e-002 7.995448e-002
      vertex   4.218000e+000 4.042374e-002 2.804552e-002
      vertex   4.218000e+000 5.942374e-002 6.095448e-002
    endloop
  endfacet
  facet normal -0.000000e+000 -0.000000e+000 -1.000000e+000
    outer loop
      vertex   4.370000e+000 3.800000e-002 -1.900000e-002
      vertex   4.370000e+000 4.387701e-018 -1.900000e-002
      vertex   4.360000e+000 3.800000e-002 -1.900000e-002
    endloop
  endfacet
  facet normal -0.000000e+000 -0.000000e+000 -1.000000e+000
    outer loop
      vertex   4.360000e+000 3.800000e-002 -1.900000e-002
      vertex   4.370000e+000 4.387701e-018 -1.900000e-002
      vertex   4.360000e+000 4.387701e-018 -1.900000e-002
    endloop
  endfacet
  facet normal 0.000000e+000 1.000000e+000 1.826025e-016
    outer loop
      vertex   4.370000e+000 3.800000e-002 1.900000e-002
      vertex   4.370000e+000 3.800000e-002 -1.900000e-002
      vertex   4.360000e+000 3.800000e-002 1.900000e-002
    endloop
  endfacet
  facet normal 0.000000e+000 1.000000e+000 1.826025e-016
    outer loop
      vertex   4.360000e+000 3.800000e-002 1.900000e-002
      vertex   4.370000e+000 3.800000e-002 -1.900000e-002
      vertex   4.360000e+000 3.800000e-002 -1.900000e-002
    endloop
  endfacet
  facet normal 0.000000e+000 -9.130124e-017 1.000000e+000
    outer loop
      vertex   4.370000e+000 -4.387701e-018 1.900000e-002
      vertex   4.370000e+000 3.800000e-002 1.900000e-002
      vertex   4.360000e+000 -4.387701e-018 1.900000e-002
    endloop
  endfacet
  facet normal -3.469447e-016 0.000000e+000 1.000000e+000
    outer loop
      vertex   4.360000e+000 -4.387701e-018 1.900000e-002
      vertex   4.370000e+000 3.800000e-002 1.900000e-002
      vertex   4.360000e+000 3.800000e-002 1.900000e-002
    endloop
  endfacet
  facet normal 0.000000e+000 -1.000000e+000 -2.309316e-016
    outer loop
      vertex   4.370000e+000 4.387701e-018 -1.900000e-002
      vertex   4.370000e+000 -4.387701e-018 1.900000e-002
      vertex   4.360000e+000 4.387701e-018 -1.900000e-002
    endloop
  endfacet
  facet normal 7.703720e-032 -1.000000e+000 -2.309316e-016
    outer loop
      vertex   4.360000e+000 4.387701e-018 -1.900000e-002
      vertex   4.370000e+000 -4.387701e-018 1.900000e-002
      vertex   4.360000e+000 -4.387701e-018 1.900000e-002
    endloop
  endfacet
  facet normal -1.000000e+000 0.000000e+000 -0.000000e+000
    outer loop
      vertex   4.360000e+000 -4.387701e-018 1.900000e-002
      vertex   4.360000e+000 3.800000e-002 1.900000e-002
      vertex   4.360000e+000 4.387701e-018 -1.900000e-002
    endloop
  endfacet
  facet normal -1.000000e+000 0.000000e+000 0.000000e+000
    outer loop
      vertex   4.360000e+000 4.387701e-018 -1.900000e-002
      vertex   4.360000e+000 3.800000e-002 1.900000e-002
      vertex   4.360000e+000 3.800000e-002 -1.900000e-002
    endloop
  endfacet
  facet normal 1.000000e+000 0.000000e+000 -0.000000e+000
    outer loop
      vertex   4.370000e+000 4.387701e-018 -1.900000e-002
      vertex   4.370000e+000 3.800000e-002 -1.900000e-002
      vertex   4.370000e+000 -4.387701e-018 1.900000e-002
    endloop
  endfacet
  facet normal 1.000000e+000 -0.000000e+000 -0.000000e+000
    outer loop
      vertex   4.370000e+000 -4.387701e-018 1.900000e-002
      vertex   4.370000e+000 3.800000e-002 -1.900000e-002
      vertex   4.370000e+000 3.800000e-002 1.900000e-002
    endloop
  endfacet
  facet normal -1.426582e-015 5.000000e-001 -8.660254e-001
    outer loop
      vertex   4.370000e+000 5.942374e-002 -6.095448e-002
      vertex   4.370000e+000 2.651477e-002 -7.995448e-002
      vertex   4.360000e+000 5.942374e-002 -6.095448e-002
    endloop
  endfacet
  facet normal -3.469447e-016 5.000000e-001 -8.660254e-001
    outer loop
      vertex   4.360000e+000 5.942374e-002 -6.095448e-002
      vertex   4.370000e+000 2.651477e-002 -7.995448e-002
      vertex   4.360000e+000 2.651477e-002 -7.995448e-002
    endloop
  endfacet
  facet normal -5.706327e-016 8.660254e-001 5.000000e-001
    outer loop
      vertex   4.370000e+000 4.042374e-002 -2.804552e-002
      vertex   4.370000e+000 5.942374e-002 -6.095448e-002
      vertex   4.360000e+000 4.042374e-002 -2.804552e-002
    endloop
  endfacet
  facet normal -8.549070e-016 8.660254e-001 5.000000e-001
    outer loop
      vertex   4.360000e+000 4.042374e-002 -2.804552e-002
      vertex   4.370000e+000 5.942374e-002 -6.095448e-002
      vertex   4.360000e+000 5.942374e-002 -6.095448e-002
    endloop
  endfacet
  facet normal 2.853164e-016 -5.000000e-001 8.660254e-001
    outer loop
      vertex   4.370000e+000 7.514774e-003 -4.704552e-002
      vertex   4.370000e+000 4.042374e-002 -2.804552e-002
      vertex   4.360000e+000 7.514774e-003 -4.704552e-002
    endloop
  endfacet
  facet normal 3.469447e-016 -5.000000e-001 8.660254e-001
    outer loop
      vertex   4.360000e+000 7.514774e-003 -4.704552e-002
      vertex   4.370000e+000 4.042374e-002 -2.804552e-002
      vertex   4.360000e+000 4.042374e-002 -2.804552e-002
    endloop
  endfacet
  facet normal 8.559491e-016 -8.660254e-001 -5.000000e-001
    outer loop
      vertex   4.370000e+000 2.651477e-002 -7.995448e-002
      vertex   4.370000e+000 7.514774e-003 -4.704552e-002
      vertex   4.360000e+000 2.651477e-002 -7.995448e-002
    endloop
  endfacet
  facet normal 9.013888e-016 -8.660254e-001 -5.000000e-001
    outer loop
      vertex   4.360000e+000 2.651477e-002 -7.995448e-002
      vertex   4.370000e+000 7.514774e-003 -4.704552e-002
      vertex   4.360000e+000 7.514774e-003 -4.704552e-002
    endloop
  endfacet
  facet normal -1.000000e+000 0.000000e+000 -0.000000e+000
    outer loop
      vertex   4.360000e+000 7.514774e-003 -4.704552e-002
      vertex   4.360000e+000 4.042374e-002 -2.804552e-002
      vertex   4.360000e+000 2.651477e-002 -7.995448e-002
    endloop
  endfacet
  facet normal -1.000000e+000 0.000000e+000 0.000000e+000
    outer loop
      vertex   4.360000e+000 2.651477e-002 -7.995448e-002
      vertex   4.360000e+000 4.042374e-002 -2.804552e-002
      vertex   4.360000e+000 5.942374e-002 -6.095448e-002
    endloop
  endfacet
  facet normal 1.000000e+000 0.000000e+000 -0.000000e+000
    outer loop
      vertex   4.370000e+000 2.651477e-002 -7.995448e-002
      vertex   4.370000e+000 5.942374e-002 -6.095448e-002
      vertex   4.370000e+000 7.514774e-003 -4.704552e-002
    endloop
  endfacet
  facet normal 1.000000e+000 -0.000000e+000 -0.000000e+000
    outer loop
      vertex   4.370000e+000 7.514774e-003 -4.704552e-002
      vertex   4.370000e+000 5.942374e-002 -6.095448e-002
      vertex   4.370000e+000 4.042374e-002 -2.804552e-002
    endloop
  endfacet
  facet normal 5.706327e-016 -5.000000e-001 -8.660254e-001
    outer loop
      vertex   4.370000e+000 4.042374e-002 2.804552e-002
      vertex   4.370000e+000 7.514774e-003 4.704552e-002
      vertex   4.360000e+000 4.042374e-002 2.804552e-002
    endloop
  endfacet
  facet normal 2.106131e-016 -5.000000e-001 -8.660254e-001
    outer loop
      vertex   4.360000e+000 4.042374e-002 2.804552e-002
      vertex   4.370000e+000 7.514774e-003 4.704552e-002
      vertex   4.360000e+000 7.514774e-003 4.704552e-002
    endloop
  endfacet
  facet normal 0.000000e+000 8.660254e-001 -5.000000e-001
    outer loop
      vertex   4.370000e+000 5.942374e-002 6.095448e-002
      vertex   4.370000e+000 4.042374e-002 2.804552e-002
      vertex   4.360000e+000 5.942374e-002 6.095448e-002
    endloop
  endfacet
  facet normal 1.121343e-015 8.660254e-001 -5.000000e-001
    outer loop
      vertex   4.360000e+000 5.942374e-002 6.095448e-002
      vertex   4.370000e+000 4.042374e-002 2.804552e-002
      vertex   4.360000e+000 4.042374e-002 2.804552e-002
    endloop
  endfacet
  facet normal -8.559491e-016 5.000000e-001 8.660254e-001
    outer loop
      vertex   4.370000e+000 2.651477e-002 7.995448e-002
      vertex   4.370000e+000 5.942374e-002 6.095448e-002
      vertex   4.360000e+000 2.651477e-002 7.995448e-002
    endloop
  endfacet
  facet normal 0.000000e+000 5.000000e-001 8.660254e-001
    outer loop
      vertex   4.360000e+000 2.651477e-002 7.995448e-002
      vertex   4.370000e+000 5.942374e-002 6.095448e-002
      vertex   4.360000e+000 5.942374e-002 6.095448e-002
    endloop
  endfacet
  facet normal -8.559491e-016 -8.660254e-001 5.000000e-001
    outer loop
      vertex   4.370000e+000 7.514774e-003 4.704552e-002
      vertex   4.370000e+000 2.651477e-002 7.995448e-002
      vertex   4.360000e+000 7.514774e-003 4.704552e-002
    endloop
  endfacet
  facet normal -1.294815e-015 -8.660254e-001 5.000000e-001
    outer loop
      vertex   4.360000e+000 7.514774e-003 4.704552e-002
      vertex   4.370000e+000 2.651477e-002 7.995448e-002
      vertex   4.360000e+000 2.651477e-002 7.995448e-002
    endloop
  endfacet
  facet normal -1.000000e+000 0.000000e+000 -0.000000e+000
    outer loop
      vertex   4.360000e+000 2.651477e-002 7.995448e-002
      vertex   4.360000e+000 5.942374e-002 6.095448e-002
      vertex   4.360000e+000 7.514774e-003 4.704552e-002
    endloop
  endfacet
  facet normal -1.000000e+000 0.000000e+000 -0.000000e+000
    outer loop
      vertex   4.360000e+000 7.514774e-003 4.704552e-002
      vertex   4.360000e+000 5.942374e-002 6.095448e-002
      vertex   4.360000e+000 4.042374e-002 2.804552e-002
    endloop
  endfacet
  facet normal 1.000000e+000 -0.000000e+000 -0.000000e+000
    outer loop
      vertex   4.370000e+000 7.514774e-003 4.704552e-002
      vertex   4.370000e+000 4.042374e-002 2.804552e-002
      vertex   4.370000e+000 2.651477e-002 7.995448e-002
    endloop
  endfacet
  facet normal 1.000000e+000 -0.000000e+000 0.000000e+000
    outer loop
      vertex   4.370000e+000 2.651477e-002 7.995448e-002
      vertex   4.370000e+000 4.042374e-002 2.804552e-002
      vertex   4.370000e+000 5.942374e-002 6.095448e-002
    endloop
  endfacet
  facet normal -0.000000e+000 -0.000000e+000 -1.000000e+000
    outer loop
      vertex   4.522000e+000 3.800000e-002 -1.900000e-002
      vertex   4.522000e+000 4.387701e-018 -1.900000e-002
      vertex   4.512000e+000 3.800000e-002 -1.900000e-002
    endloop
  endfacet
  facet normal -0.000000e+000 -0.000000e+000 -1.000000e+000
    outer loop
      vertex   4.512000e+000 3.800000e-002 -1.900000e-002
      vertex   4.522000e+000 4.387701e-018 -1.900000e-002
      vertex   4.512000e+000 4.387701e-018 -1.900000e-002
    endloop
  endfacet
  facet normal 0.000000e+000 1.000000e+000 1.826025e-016
    outer loop
      vertex   4.522000e+000 3.800000e-002 1.900000e-002
      vertex   4.522000e+000 3.800000e-002 -1.900000e-002
      vertex   4.512000e+000 3.800000e-002 1.900000e-002
    endloop
  endfacet
  facet normal 0.000000e+000 1.000000e+000 1.826025e-016
    outer loop
      vertex   4.512000e+000 3.800000e-002 1.900000e-002
      vertex   4.522000e+000 3.800000e-002 -1.900000e-002
      vertex   4.512000e+000 3.800000e-002 -1.900000e-002
    endloop
  endfacet
  facet normal 0.000000e+000 -9.130124e-017 1.000000e+000
    outer loop
      vertex   4.522000e+000 -4.387701e-018 1.900000e-002
      vertex   4.522000e+000 3.800000e-002 1.900000e-002
      vertex   4.512000e+000 -4.387701e-018 1.900000e-002
    endloop
  endfacet
  facet normal -3.469447e-016 0.000000e+000 1.000000e+000
    outer loop
      vertex   4.512000e+000 -4.387701e-018 1.900000e-002
      vertex   4.522000e+000 3.800000e-002 1.900000e-002
      vertex   4.512000e+000 3.800000e-002 1.900000e-002
    endloop
  endfacet
  facet normal 0.000000e+000 -1.000000e+000 -2.309316e-016
    outer loop
      vertex   4.522000e+000 4.387701e-018 -1.900000e-002
      vertex   4.522000e+000 -4.387701e-018 1.900000e-002
      vertex   4.512000e+000 4.387701e-018 -1.900000e-002
    endloop
  endfacet
  facet normal 7.703720e-032 -1.000000e+000 -2.309316e-016
    outer loop
      vertex   4.512000e+000 4.387701e-018 -1.900000e-002
      vertex   4.522000e+000 -4.387701e-018 1.900000e-002
      vertex   4.512000e+000 -4.387701e-018 1.900000e-002
    endloop
  endfacet
  facet normal -1.000000e+000 0.000000e+000 -0.000000e+000
    outer loop
      vertex   4.512000e+000 -4.387701e-018 1.900000e-002
      vertex   4.512000e+000 3.800000e-002 1.900000e-002
      vertex   4.512000e+000 4.387701e-018 -1.900000e-002
    endloop
  endfacet
  facet normal -1.000000e+000 0.000000e+000 0.000000e+000
    outer loop
      vertex   4.512000e+000 4.387701e-018 -1.900000e-002
      vertex   4.512000e+000 3.800000e-002 1.900000e-002
      vertex   4.512000e+000 3.800000e-002 -1.900000e-002
    endloop
  endfacet
  facet normal 1.000000e+000 0.000000e+000 -0.000000e+000
    outer loop
      vertex   4.522000e+000 4.387701e-018 -1.900000e-002
      vertex   4.522000e+000 3.800000e-002 -1.900000e-002
      vertex   4.522000e+000 -4.387701e-018 1.900000e-002
    endloop
  endfacet
  facet normal 1.000000e+000 -0.000000e+000 -0.000000e+000
    outer loop
      vertex   4.522000e+000 -4.387701e-018 1.900000e-002
      vertex   4.522000e+000 3.800000e-002 -1.900000e-002
      vertex   4.522000e+000 3.800000e-002 1.900000e-002
    endloop
  endfacet
  facet normal -1.426582e-015 5.000000e-001 -8.660254e-001
    outer loop
      vertex   4.522000e+000 5.942374e-002 -6.095448e-002
      vertex   4.522000e+000 2.651477e-002 -7.995448e-002
      vertex   4.512000e+000 5.942374e-002 -6.095448e-002
    endloop
  endfacet
  facet normal -3.469447e-016 5.000000e-001 -8.660254e-001
    outer loop
      vertex   4.512000e+000 5.942374e-002 -6.095448e-002
      vertex   4.522000e+000 2.651477e-002 -7.995448e-002
      vertex   4.512000e+000 2.651477e-002 -7.995448e-002
    endloop
  endfacet
  facet normal -5.706327e-016 8.660254e-001 5.000000e-001
    outer loop
      vertex   4.522000e+000 4.042374e-002 -2.804552e-002
      vertex   4.522000e+000 5.942374e-002 -6.095448e-002
      vertex   4.512000e+000 4.042374e-002 -2.804552e-002
    endloop
  endfacet
  facet normal -8.549070e-016 8.660254e-001 5.000000e-001
    outer loop
      vertex   4.512000e+000 4.042374e-002 -2.804552e-002
      vertex   4.522000e+000 5.942374e-002 -6.095448e-002
      vertex   4.512000e+000 5.942374e-002 -6.095448e-002
    endloop
  endfacet
  facet normal 2.853164e-016 -5.000000e-001 8.660254e-001
    outer loop
      vertex   4.522000e+000 7.514774e-003 -4.704552e-002
      vertex   4.522000e+000 4.042374e-002 -2.804552e-002
      vertex   4.512000e+000 7.514774e-003 -4.704552e-002
    endloop
  endfacet
  facet normal 3.469447e-016 -5.000000e-001 8.660254e-001
    outer loop
      vertex   4.512000e+000 7.514774e-003 -4.704552e-002
      vertex   4.522000e+000 4.042374e-002 -2.804552e-002
      vertex   4.512000e+000 4.042374e-002 -2.804552e-002
    endloop
  endfacet
  facet normal 8.559491e-016 -8.660254e-001 -5.000000e-001
    outer loop
      vertex   4.522000e+000 2.651477e-002 -7.995448e-002
      vertex   4.522000e+000 7.514774e-003 -4.704552e-002
      vertex   4.512000e+000 2.651477e-002 -7.995448e-002
    endloop
  endfacet
  facet normal 9.013888e-016 -8.660254e-001 -5.000000e-001
    outer loop
      vertex   4.512000e+000 2.651477e-002 -7.995448e-002
      vertex   4.522000e+000 7.514774e-003 -4.704552e-002
      vertex   4.512000e+000 7.514774e-003 -4.704552e-002
    endloop
  endfacet
  facet normal -1.000000e+000 0.000000e+000 -0.000000e+000
    outer loop
      vertex   4.512000e+000 7.514774e-003 -4.704552e-002
      vertex   4.512000e+000 4.042374e-002 -2.804552e-002
      vertex   4.512000e+000 2.651477e-002 -7.995448e-002
    endloop
  endfacet
  facet normal -1.000000e+000 0.000000e+000 0.000000e+000
    outer loop
      vertex   4.512000e+000 2.651477e-002 -7.995448e-002
      vertex   4.512000e+000 4.042374e-002 -2.804552e-002
      vertex   4.512000e+000 5.942374e-002 -6.095448e-002
    endloop
  endfacet
  facet normal 1.000000e+000 0.000000e+000 -0.000000e+000
    outer loop
      vertex   4.522000e+000 2.651477e-002 -7.995448e-002
      vertex   4.522000e+000 5.942374e-002 -6.095448e-002
      vertex   4.522000e+000 7.514774e-003 -4.704552e-002
    endloop
  endfacet
  facet normal 1.000000e+000 -0.000000e+000 -0.000000e+000
    outer loop
      vertex   4.522000e+000 7.514774e-003 -4.704552e-002
      vertex   4.522000e+000 5.942374e-002 -6.095448e-002
      vertex   4.522000e+000 4.042374e-002 -2.804552e-002
    endloop
  endfacet
  facet normal 5.706327e-016 -5.000000e-001 -8.660254e-001
    outer loop
      vertex   4.522000e+000 4.042374e-002 2.804552e-002
      vertex   4.522000e+000 7.514774e-003 4.704552e-002
      vertex   4.512000e+000 4.042374e-002 2.804552e-002
    endloop
  endfacet
  facet normal 2.106131e-016 -5.000000e-001 -8.660254e-001
    outer loop
      vertex   4.512000e+000 4.042374e-002 2.804552e-002
      vertex   4.522000e+000 7.514774e-003 4.704552e-002
      vertex   4.512000e+000 7.514774e-003 4.704552e-002
    endloop
  endfacet
  facet normal 0.000000e+000 8.660254e-001 -5.000000e-001
    outer loop
      vertex   4.522000e+000 5.942374e-002 6.095448e-002
      vertex   4.522000e+000 4.042374e-002 2.804552e-002
      vertex   4.512000e+000 5.942374e-002 6.095448e-002
    endloop
  endfacet
  facet normal 1.121343e-015 8.660254e-001 -5.000000e-001
    outer loop
      vertex   4.512000e+000 5.942374e-002 6.095448e-002
      vertex   4.522000e+000 4.042374e-002 2.804552e-002
      vertex   4.512000e+000 4.042374e-002 2.804552e-002
    endloop
  endfacet
  facet normal -8.559491e-016 5.000000e-001 8.660254e-001
    outer loop
      vertex   4.522000e+000 2.651477e-002 7.995448e-002
      vertex   4.522000e+000 5.942374e-002 6.095448e-002
      vertex   4.512000e+000 2.651477e-002 7.995448e-002
    endloop
  endfacet
  facet normal 0.000000e+000 5.000000e-001 8.660254e-001
    outer loop
      vertex   4.512000e+000 2.651477e-002 7.995448e-002
      vertex   4.522000e+000 5.942374e-002 6.095448e-002
      vertex   4.512000e+000 5.942374e-002 6.095448e-002
    endloop
  endfacet
  facet normal -8.559491e-016 -8.660254e-001 5.000000e-001
    outer loop
      vertex   4.522000e+000 7.514774e-003 4.704552e-002
      vertex   4.522000e+000 2.651477e-002 7.995448e-002
      vertex   4.512000e+000 7.514774e-003 4.704552e-002
    endloop
  endfacet
  facet normal -1.294815e-015 -8.660254e-001 5.000000e-001
    outer loop
      vertex   4.512000e+000 7.514774e-003 4.704552e-002
      vertex   4.522000e+000 2.651477e-002 7.995448e-002
      vertex   4.512000e+000 2.651477e-002 7.995448e-002
    endloop
  endfacet
  facet normal -1.000000e+000 0.000000e+000 -0.000000e+000
    outer loop
      vertex   4.512000e+000 2.651477e-002 7.995448e-002
      vertex   4.512000e+000 5.942374e-002 6.095448e-002
      vertex   4.512000e+000 7.514774e-003 4.704552e-002
    endloop
  endfacet
  facet normal -1.000000e+000 0.000000e+000 -0.000000e+000
    outer loop
      vertex   4.512000e+000 7.514774e-003 4.704552e-002
      vertex   4.512000e+000 5.942374e-002 6.095448e-002
      vertex   4.512000e+000 4.042374e-002 2.804552e-002
    endloop
  endfacet
  facet normal 1.000000e+000 -0.000000e+000 -0.000000e+000
    outer loop
      vertex   4.522000e+000 7.514774e-003 4.704552e-002
      vertex   4.522000e+000 4.042374e-002 2.804552e-002
      vertex   4.522000e+000 2.651477e-002 7.995448e-002
    endloop
  endfacet
  facet normal 1.000000e+000 -0.000000e+000 0.000000e+000
    outer loop
      vertex   4.522000e+000 2.651477e-002 7.995448e-002
      vertex   4.522000e+000 4.042374e-002 2.804552e-002
      vertex   4.522000e+000 5.942374e-002 6.095448e-002
    endloop
  endfacet
  facet normal -0.000000e+000 -0.000000e+000 -1.000000e+000
    outer loop
      vertex   4.674000e+000 3.800000e-002 -1.900000e-002
      vertex   4.674000e+000 4.387701e-018 -1.900000e-002
      vertex   4.664000e+000 3.800000e-002 -1.900000e-002
    endloop
  endfacet
  facet normal -0.000000e+000 -0.000000e+000 -1.000000e+000
    outer loop
      vertex   4.664000e+000 3.800000e-002 -1.900000e-002
      vertex   4.674000e+000 4.387701e-018 -1.900000e-002
      vertex   4.664000e+000 4.387701e-018 -1.900000e-002
    endloop
  endfacet
  facet normal 0.000000e+000 1.000000e+000 1.826025e-016
    outer loop
      vertex   4.674000e+000 3.800000e-002 1.900000e-002
      vertex   4.674000e+000 3.800000e-002 -1.900000e-002
      vertex   4.664000e+000 3.800000e-002 1.900000e-002
    endloop
  endfacet
  facet normal 0.000000e+000 1.000000e+000 1.826025e-016
    outer loop
      vertex   4.664000e+000 3.800000e-002 1.900000e-002
      vertex   4.674000e+000 3.800000e-002 -1.900000e-002
      vertex   4.664000e+000 3.800000e-002 -1.900000e-002
    endloop
  endfacet
  facet normal 0.000000e+000 -9.130124e-017 1.000000e+000
    outer loop
      vertex   4.674000e+000 -4.387701e-018 1.900000e-002
      vertex   4.674000e+000 3.800000e-002 1.900000e-002
      vertex   4.664000e+000 -4.387701e-018 1.900000e-002
    endloop
  endfacet
  facet normal -3.469447e-016 0.000000e+000 1.000000e+000
    outer loop
      vertex   4.664000e+000 -4.387701e-018 1.900000e-002
      vertex   4.674000e+000 3.800000e-002 1.900000e-002
      vertex   4.664000e+000 3.800000e-002 1.900000e-002
    endloop
  endfacet
  facet normal 0.000000e+000 -1.000000e+000 -2.309316e-016
    outer loop
      vertex   4.674000e+000 4.387701e-018 -1.900000e-002
      vertex   4.674000e+000 -4.387701e-018 1.900000e-002
      vertex   4.664000e+000 4.387701e-018 -1.900000e-002
    endloop
  endfacet
  facet normal 7.703720e-032 -1.000000e+000 -2.309316e-016
    outer loop
      vertex   4.664000e+000 4.387701e-018 -1.900000e-002
      vertex   4.674000e+000 -4.387701e-018 1.900000e-002
      vertex   4.664000e+000 -4.387701e-018 1.900000e-002
    endloop
  endfacet
  facet normal -1.000000e+000 0.000000e+000 -0.000000e+000
    outer loop
      vertex   4.664000e+000 -4.387701e-018 1.900000e-002
      vertex   4.664000e+000 3.800000e-002 1.900000e-002
      vertex   4.664000e+000 4.387701e-018 -1.900000e-002
    endloop
  endfacet
  facet normal -1.000000e+000 0.000000e+000 0.000000e+000
    outer loop
      vertex   4.664000e+000 4.387701e-018 -1.900000e-002
      vertex   4.664000e+000 3.800000e-002 1.900000e-002
      vertex   4.664000e+000 3.800000e-002 -1.900000e-002
    endloop
  endfacet
  facet normal 1.000000e+000 0.000000e+000 -0.000000e+000
    outer loop
      vertex   4.674000e+000 4.387701e-018 -1.900000e-002
      vertex   4.674000e+000 3.800000e-002 -1.900000e-002
      vertex   4.674000e+000 -4.387701e-018 1.900000e-002
    endloop
  endfacet
  facet normal 1.000000e+000 -0.000000e+000 -0.000000e+000
    outer loop
      vertex   4.674000e+000 -4.387701e-018 1.900000e-002
      vertex   4.674000e+000 3.800000e-002 -1.900000e-002
      vertex   4.674000e+000 3.800000e-002 1.900000e-002
    endloop
  endfacet
  facet normal -1.426582e-015 5.000000e-001 -8.660254e-001
    outer loop
      vertex   4.674000e+000 5.942374e-002 -6.095448e-002
      vertex   4.674000e+000 2.651477e-002 -7.995448e-002
      vertex   4.664000e+000 5.942374e-002 -6.095448e-002
    endloop
  endfacet
  facet normal -3.469447e-016 5.000000e-001 -8.660254e-001
    outer loop
      vertex   4.664000e+000 5.942374e-002 -6.095448e-002
      vertex   4.674000e+000 2.651477e-002 -7.995448e-002
      vertex   4.664000e+000 2.651477e-002 -7.995448e-002
    endloop
  endfacet
  facet normal -5.706327e-016 8.660254e-001 5.000000e-001
    outer loop
      vertex   4.674000e+000 4.042374e-002 -2.804552e-002
      vertex   4.674000e+000 5.942374e-002 -6.095448e-002
      vertex   4.664000e+000 4.042374e-002 -2.804552e-002
    endloop
  endfacet
  facet normal -8.549070e-016 8.660254e-001 5.000000e-001
    outer loop
      vertex   4.664000e+000 4.042374e-002 -2.804552e-002
      vertex   4.674000e+000 5.942374e-002 -6.095448e-002
      vertex   4.664000e+000 5.942374e-002 -6.095448e-002
    endloop
  endfacet
  facet normal 2.853164e-016 -5.000000e-001 8.660254e-001
    outer loop
      vertex   4.674000e+000 7.514774e-003 -4.704552e-002
      vertex   4.674000e+000 4.042374e-002 -2.804552e-002
      vertex   4.664000e+000 7.514774e-003 -4.704552e-002
    endloop
  endfacet
  facet normal 3.469447e-016 -5.000000e-001 8.660254e-001
    outer loop
      vertex   4.664000e+000 7.514774e-003 -4.704552e-002
      vertex   4.674000e+000 4.042374e-002 -2.804552e-002
      vertex   4.664000e+000 4.042374e-002 -2.804552e-002
    endloop
  endfacet
  facet normal 8.559491e-016 -8.660254e-001 -5.000000e-001
    outer loop
      vertex   4.674000e+000 2.651477e-002 -7.995448e-002
      vertex   4.674000e+000 7.514774e-003 -4.704552e-002
      vertex   4.664000e+000 2.651477e-002 -7.995448e-002
    endloop
  endfacet
  facet normal 9.013888e-016 -8.660254e-001 -5.000000e-001
    outer loop
      vertex   4.664000e+000 2.651477e-002 -7.995448e-002
      vertex   4.674000e+000 7.514774e-003 -4.704552e-002
      vertex   4.664000e+000 7.514774e-003 -4.704552e-002
    endloop
  endfacet
  facet normal -1.000000e+000 0.000000e+000 -0.000000e+000
    outer loop
      vertex   4.664000e+000 7.514774e-003 -4.704552e-002
      vertex   4.664000e+000 4.042374e-002 -2.804552e-002
      vertex   4.664000e+000 2.651477e-002 -7.995448e-002
    endloop
  endfacet
  facet normal -1.000000e+000 0.000000e+000 0.000000e+000
    outer loop
      vertex   4.664000e+000 2.651477e-002 -7.995448e-002
      vertex   4.664000e+000 4.042374e-002 -2.804552e-002
      vertex   4.664000e+000 5.942374e-002 -6.095448e-002
    endloop
  endfacet
  facet normal 1.000000e+000 0.000000e+000 -0.000000e+000
    outer loop
      vertex   4.674000e+000 2.651477e-002 -7.995448e-002
      vertex   4.674000e+000 5.942374e-002 -6.095448e-002
      vertex   4.674000e+000 7.514774e-003 -4.704552e-002
    endloop
  endfacet
  facet normal 1.000000e+000 -0.000000e+000 -0.000000e+000
    outer loop
      vertex   4.674000e+000 7.514774e-003 -4.704552e-002
      vertex   4.674000e+000 5.942374e-002 -6.095448e-002
      vertex   4.674000e+000 4.042374e-002 -2.804552e-002
    endloop
  endfacet
  facet normal 5.706327e-016 -5.000000e-001 -8.660254e-001
    outer loop
      vertex   4.674000e+000 4.042374e-002 2.804552e-002
      vertex   4.674000e+000 7.514774e-003 4.704552e-002
      vertex   4.664000e+000 4.042374e-002 2.804552e-002
    endloop
  endfacet
  facet normal 2.106131e-016 -5.000000e-001 -8.660254e-001
    outer loop
      vertex   4.664000e+000 4.042374e-002 2.804552e-002
      vertex   4.674000e+000 7.514774e-003 4.704552e-002
      vertex   4.664000e+000 7.514774e-003 4.704552e-002
    endloop
  endfacet
  facet normal 0.000000e+000 8.660254e-001 -5.000000e-001
    outer loop
      vertex   4.674000e+000 5.942374e-002 6.095448e-002
      vertex   4.674000e+000 4.042374e-002 2.804552e-002
      vertex   4.664000e+000 5.942374e-002 6.095448e-002
    endloop
  endfacet
  facet normal 1.121343e-015 8.660254e-001 -5.000000e-001
    outer loop
      vertex   4.664000e+000 5.942374e-002 6.095448e-002
      vertex   4.674000e+000 4.042374e-002 2.804552e-002
      vertex   4.664000e+000 4.042374e-002 2.804552e-002
    endloop
  endfacet
  facet normal -8.559491e-016 5.000000e-001 8.660254e-001
    outer loop
      vertex   4.674000e+000 2.651477e-002 7.995448e-002
      vertex   4.674000e+000 5.942374e-002 6.095448e-002
      vertex   4.664000e+000 2.651477e-002 7.995448e-002
    endloop
  endfacet
  facet normal 0.000000e+000 5.000000e-001 8.660254e-001
    outer loop
      vertex   4.664000e+000 2.651477e-002 7.995448e-002
      vertex   4.674000e+000 5.942374e-002 6.095448e-002
      vertex   4.664000e+000 5.942374e-002 6.095448e-002
    endloop
  endfacet
  facet normal -8.559491e-016 -8.660254e-001 5.000000e-001
    outer loop
      vertex   4.674000e+000 7.514774e-003 4.704552e-002
      vertex   4.674000e+000 2.651477e-002 7.995448e-002
      vertex   4.664000e+000 7.514774e-003 4.704552e-002
    endloop
  endfacet
  facet normal -1.294815e-015 -8.660254e-001 5.000000e-001
    outer loop
      vertex   4.664000e+000 7.514774e-003 4.704552e-002
      vertex   4.674000e+000 2.651477e-002 7.995448e-002
      vertex   4.664000e+000 2.651477e-002 7.995448e-002
    endloop
  endfacet
  facet normal -1.000000e+000 0.000000e+000 -0.000000e+000
    outer loop
      vertex   4.664000e+000 2.651477e-002 7.995448e-002
      vertex   4.664000e+000 5.942374e-002 6.095448e-002
      vertex   4.664000e+000 7.514774e-003 4.704552e-002
    endloop
  endfacet
  facet normal -1.000000e+000 0.000000e+000 -0.000000e+000
    outer loop
      vertex   4.664000e+000 7.514774e-003 4.704552e-002
      vertex   4.664000e+000 5.942374e-002 6.095448e-002
      vertex   4.664000e+000 4.042374e-002 2.804552e-002
    endloop
  endfacet
  facet normal 1.000000e+000 -0.000000e+000 -0.000000e+000
    outer loop
      vertex   4.674000e+000 7.514774e-003 4.704552e-002
      vertex   4.674000e+000 4.042374e-002 2.804552e-002
      vertex   4.674000e+000 2.651477e-002 7.995448e-002
    endloop
  endfacet
  facet normal 1.000000e+000 -0.000000e+000 0.000000e+000
    outer loop
      vertex   4.674000e+000 2.651477e-002 7.995448e-002
      vertex   4.674000e+000 4.042374e-002 2.804552e-002
      vertex   4.674000e+000 5.942374e-002 6.095448e-002
    endloop
  endfacet
  facet normal -0.000000e+000 -0.000000e+000 -1.000000e+000
    outer loop
      vertex   4.826000e+000 3.800000e-002 -1.900000e-002
      vertex   4.826000e+000 4.387701e-018 -1.900000e-002
      vertex   4.816000e+000 3.800000e-002 -1.900000e-002
    endloop
  endfacet
  facet normal -0.000000e+000 -0.000000e+000 -1.000000e+000
    outer loop
      vertex   4.816000e+000 3.800000e-002 -1.900000e-002
      vertex   4.826000e+000 4.387701e-018 -1.900000e-002
      vertex   4.816000e+000 4.387701e-018 -1.900000e-002
    endloop
  endfacet
  facet normal 0.000000e+000 1.000000e+000 1.826025e-016
    outer loop
      vertex   4.826000e+000 3.800000e-002 1.900000e-002
      vertex   4.826000e+000 3.800000e-002 -1.900000e-002
      vertex   4.816000e+000 3.800000e-002 1.900000e-002
    endloop
  endfacet
  facet normal 0.000000e+000 1.000000e+000 1.826025e-016
    outer loop
      vertex   4.816000e+000 3.800000e-002 1.900000e-002
      vertex   4.826000e+000 3.800000e-002 -1.900000e-002
      vertex   4.816000e+000 3.800000e-002 -1.900000e-002
    endloop
  endfacet
  facet normal 0.000000e+000 -9.130124e-017 1.000000e+000
    outer loop
      vertex   4.826000e+000 -4.387701e-018 1.900000e-002
      vertex   4.826000e+000 3.800000e-002 1.900000e-002
      vertex   4.816000e+000 -4.387701e-018 1.900000e-002
    endloop
  endfacet
  facet normal -3.469447e-016 0.000000e+000 1.000000e+000
    outer loop
      vertex   4.816000e+000 -4.387701e-018 1.900000e-002
      vertex   4.826000e+000 3.800000e-002 1.900000e-002
      vertex   4.816000e+000 3.800000e-002 1.900000e-002
    endloop
  endfacet
  facet normal 0.000000e+000 -1.000000e+000 -2.309316e-016
    outer loop
      vertex   4.826000e+000 4.387701e-018 -1.900000e-002
      vertex   4.826000e+000 -4.387701e-018 1.900000e-002
      vertex   4.816000e+000 4.387701e-018 -1.900000e-002
    endloop
  endfacet
  facet normal 7.703720e-032 -1.000000e+000 -2.309316e-016
    outer loop
      vertex   4.816000e+000 4.387701e-018 -1.900000e-002
      vertex   4.826000e+000 -4.387701e-018 1.900000e-002
      vertex   4.816000e+000 -4.387701e-018 1.900000e-002
    endloop
  endfacet
  facet normal -1.000000e+000 0.000000e+000 -0.000000e+000
    outer loop
      vertex   4.816000e+000 -4.387701e-018 1.900000e-002
      vertex   4.816000e+000 3.800000e-002 1.900000e-002
      vertex   4.816000e+000 4.387701e-018 -1.900000e-002
    endloop
  endfacet
  facet normal -1.000000e+000 0.000000e+000 0.000000e+000
    outer loop
      vertex   4.816000e+000 4.387701e-018 -1.900000e-002
      vertex   4.816000e+000 3.800000e-002 1.900000e-002
      vertex   4.816000e+000 3.800000e-002 -1.900000e-002
    endloop
  endfacet
  facet normal 1.000000e+000 0.000000e+000 -0.000000e+000
    outer loop
      vertex   4.826000e+000 4.387701e-018 -1.900000e-002
      vertex   4.826000e+000 3.800000e-002 -1.900000e-002
      vertex   4.826000e+000 -4.387701e-018 1.900000e-002
    endloop
  endfacet
  facet normal 1.000000e+000 -0.000000e+000 -0.000000e+000
    outer loop
      vertex   4.826000e+000 -4.387701e-018 1.900000e-002
      vertex   4.826000e+000 3.800000e-002 -1.900000e-002
      vertex   4.826000e+000 3.800000e-002 1.900000e-002
    endloop
  endfacet
  facet normal -1.426582e-015 5.000000e-001 -8.660254e-001
    outer loop
      vertex   4.826000e+000 5.942374e-002 -6.095448e-002
      vertex   4.826000e+000 2.651477e-002 -7.995448e-002
      vertex   4.816000e+000 5.942374e-002 -6.095448e-002
    endloop
  endfacet
  facet normal -3.469447e-016 5.000000e-001 -8.660254e-001
    outer loop
      vertex   4.816000e+000 5.942374e-002 -6.095448e-002
      vertex   4.826000e+000 2.651477e-002 -7.995448e-002
      vertex   4.816000e+000 2.651477e-002 -7.995448e-002
    endloop
  endfacet
  facet normal -5.706327e-016 8.660254e-001 5.000000e-001
    outer loop
      vertex   4.826000e+000 4.042374e-002 -2.804552e-002
      vertex   4.826000e+000 5.942374e-002 -6.095448e-002
      vertex   4.816000e+000 4.042374e-002 -2.804552e-002
    endloop
  endfacet
  facet normal -8.549070e-016 8.660254e-001 5.000000e-001
    outer loop
      vertex   4.816000e+000 4.042374e-002 -2.804552e-002
      vertex   4.826000e+000 5.942374e-002 -6.095448e-002
      vertex   4.816000e+000 5.942374e-002 -6.095448e-002
    endloop
  endfacet
  facet normal 2.853164e-016 -5.000000e-001 8.660254e-001
    outer loop
      vertex   4.826000e+000 7.514774e-003 -4.704552e-002
      vertex   4.826000e+000 4.042374e-002 -2.804552e-002
      vertex   4.816000e+000 7.514774e-003 -4.704552e-002
    endloop
  endfacet
  facet normal 3.469447e-016 -5.000000e-001 8.660254e-001
    outer loop
      vertex   4.816000e+000 7.514774e-003 -4.704552e-002
      vertex   4.826000e+000 4.042374e-002 -2.804552e-002
      vertex   4.816000e+000 4.042374e-002 -2.804552e-002
    endloop
  endfacet
  facet normal 8.559491e-016 -8.660254e-001 -5.000000e-001
    outer loop
      vertex   4.826000e+000 2.651477e-002 -7.995448e-002
      vertex   4.826000e+000 7.514774e-003 -4.704552e-002
      vertex   4.816000e+000 2.651477e-002 -7.995448e-002
    endloop
  endfacet
  facet normal 9.013888e-016 -8.660254e-001 -5.000000e-001
    outer loop
      vertex   4.816000e+000 2.651477e-002 -7.995448e-002
      vertex   4.826000e+000 7.514774e-003 -4.704552e-002
      vertex   4.816000e+000 7.514774e-003 -4.704552e-002
    endloop
  endfacet
  facet normal -1.000000e+000 0.000000e+000 -0.000000e+000
    outer loop
      vertex   4.816000e+000 7.514774e-003 -4.704552e-002
      vertex   4.816000e+000 4.042374e-002 -2.804552e-002
      vertex   4.816000e+000 2.651477e-002 -7.995448e-002
    endloop
  endfacet
  facet normal -1.000000e+000 0.000000e+000 0.000000e+000
    outer loop
      vertex   4.816000e+000 2.651477e-002 -7.995448e-002
      vertex   4.816000e+000 4.042374e-002 -2.804552e-002
      vertex   4.816000e+000 5.942374e-002 -6.095448e-002
    endloop
  endfacet
  facet normal 1.000000e+000 0.000000e+000 -0.000000e+000
    outer loop
      vertex   4.826000e+000 2.651477e-002 -7.995448e-002
      vertex   4.826000e+000 5.942374e-002 -6.095448e-002
      vertex   4.826000e+000 7.514774e-003 -4.704552e-002
    endloop
  endfacet
  facet normal 1.000000e+000 -0.000000e+000 -0.000000e+000
    outer loop
      vertex   4.826000e+000 7.514774e-003 -4.704552e-002
      vertex   4.826000e+000 5.942374e-002 -6.095448e-002
      vertex   4.826000e+000 4.042374e-002 -2.804552e-002
    endloop
  endfacet
  facet normal 5.706327e-016 -5.000000e-001 -8.660254e-001
    outer loop
      vertex   4.826000e+000 4.042374e-002 2.804552e-002
      vertex   4.826000e+000 7.514774e-003 4.704552e-002
      vertex   4.816000e+000 4.042374e-002 2.804552e-002
    endloop
  endfacet
  facet normal 2.106131e-016 -5.000000e-001 -8.660254e-001
    outer loop
      vertex   4.816000e+000 4.042374e-002 2.804552e-002
      vertex   4.826000e+000 7.514774e-003 4.704552e-002
      vertex   4.816000e+000 7.514774e-003 4.704552e-002
    endloop
  endfacet
  facet normal 0.000000e+000 8.660254e-001 -5.000000e-001
    outer loop
      vertex   4.826000e+000 5.942374e-002 6.095448e-002
      vertex   4.826000e+000 4.042374e-002 2.804552e-002
      vertex   4.816000e+000 5.942374e-002 6.095448e-002
    endloop
  endfacet
  facet normal 1.121343e-015 8.660254e-001 -5.000000e-001
    outer loop
      vertex   4.816000e+000 5.942374e-002 6.095448e-002
      vertex   4.826000e+000 4.042374e-002 2.804552e-002
      vertex   4.816000e+000 4.042374e-002 2.804552e-002
    endloop
  endfacet
  facet normal -8.559491e-016 5.000000e-001 8.660254e-001
    outer loop
      vertex   4.826000e+000 2.651477e-002 7.995448e-002
      vertex   4.826000e+000 5.942374e-002 6.095448e-002
      vertex   4.816000e+000 2.651477e-002 7.995448e-002
    endloop
  endfacet
  facet normal 0.000000e+000 5.000000e-001 8.660254e-001
    outer loop
      vertex   4.816000e+000 2.651477e-002 7.995448e-002
      vertex   4.826000e+000 5.942374e-002 6.095448e-002
      vertex   4.816000e+000 5.942374e-002 6.095448e-002
    endloop
  endfacet
  facet normal -8.559491e-016 -8.660254e-001 5.000000e-001
    outer loop
      vertex   4.826000e+000 7.514774e-003 4.704552e-002
      vertex   4.826000e+000 2.651477e-002 7.995448e-002
      vertex   4.816000e+000 7.514774e-003 4.704552e-002
    endloop
  endfacet
  facet normal -1.294815e-015 -8.660254e-001 5.000000e-001
    outer loop
      vertex   4.816000e+000 7.514774e-003 4.704552e-002
      vertex   4.826000e+000 2.651477e-002 7.995448e-002
      vertex   4.816000e+000 2.651477e-002 7.995448e-002
    endloop
  endfacet
  facet normal -1.000000e+000 0.000000e+000 -0.000000e+000
    outer loop
      vertex   4.816000e+000 2.651477e-002 7.995448e-002
      vertex   4.816000e+000 5.942374e-002 6.095448e-002
      vertex   4.816000e+000 7.514774e-003 4.704552e-002
    endloop
  endfacet
  facet normal -1.000000e+000 0.000000e+000 -0.000000e+000
    outer loop
      vertex   4.816000e+000 7.514774e-003 4.704552e-002
      vertex   4.816000e+000 5.942374e-002 6.095448e-002
      vertex   4.816000e+000 4.042374e-002 2.804552e-002
    endloop
  endfacet
  facet normal 1.000000e+000 -0.000000e+000 -0.000000e+000
    outer loop
      vertex   4.826000e+000 7.514774e-003 4.704552e-002
      vertex   4.826000e+000 4.042374e-002 2.804552e-002
      vertex   4.826000e+000 2.651477e-002 7.995448e-002
    endloop
  endfacet
  facet normal 1.000000e+000 -0.000000e+000 0.000000e+000
    outer loop
      vertex   4.826000e+000 2.651477e-002 7.995448e-002
      vertex   4.826000e+000 4.042374e-002 2.804552e-002
      vertex   4.826000e+000 5.942374e-002 6.095448e-002
    endloop
  endfacet
  facet normal -0.000000e+000 -0.000000e+000 -1.000000e+000
    outer loop
      vertex   4.978000e+000 3.800000e-002 -1.900000e-002
      vertex   4.978000e+000 4.387701e-018 -1.900000e-002
      vertex   4.968000e+000 3.800000e-002 -1.900000e-002
    endloop
  endfacet
  facet normal -0.000000e+000 -0.000000e+000 -1.000000e+000
    outer loop
      vertex   4.968000e+000 3.800000e-002 -1.900000e-002
      vertex   4.978000e+000 4.387701e-018 -1.900000e-002
      vertex   4.968000e+000 4.387701e-018 -1.900000e-002
    endloop
  endfacet
  facet normal 0.000000e+000 1.000000e+000 1.826025e-016
    outer loop
      vertex   4.978000e+000 3.800000e-002 1.900000e-002
      vertex   4.978000e+000 3.800000e-002 -1.900000e-002
      vertex   4.968000e+000 3.800000e-002 1.900000e-002
    endloop
  endfacet
  facet normal 0.000000e+000 1.000000e+000 1.826025e-016
    outer loop
      vertex   4.968000e+000 3.800000e-002 1.900000e-002
      vertex   4.978000e+000 3.800000e-002 -1.900000e-002
      vertex   4.968000e+000 3.800000e-002 -1.900000e-002
    endloop
  endfacet
  facet normal 0.000000e+000 -9.130124e-017 1.000000e+000
    outer loop
      vertex   4.978000e+000 -4.387701e-018 1.900000e-002
      vertex   4.978000e+000 3.800000e-002 1.900000e-002
      vertex   4.968000e+000 -4.387701e-018 1.900000e-002
    endloop
  endfacet
  facet normal -3.469447e-016 0.000000e+000 1.000000e+000
    outer loop
      vertex   4.968000e+000 -4.387701e-018 1.900000e-002
      vertex   4.978000e+000 3.800000e-002 1.900000e-002
      vertex   4.968000e+000 3.800000e-002 1.900000e-002
    endloop
  endfacet
  facet normal 0.000000e+000 -1.000000e+000 -2.309316e-016
    outer loop
      vertex   4.978000e+000 4.387701e-018 -1.900000e-002
      vertex   4.978000e+000 -4.387701e-018 1.900000e-002
      vertex   4.968000e+000 4.387701e-018 -1.900000e-002
    endloop
  endfacet
  facet normal 7.703720e-032 -1.000000e+000 -2.309316e-016
    outer loop
      vertex   4.968000e+000 4.387701e-018 -1.900000e-002
      vertex   4.978000e+000 -4.387701e-018 1.900000e-002
      vertex   4.968000e+000 -4.387701e-018 1.900000e-002
    endloop
  endfacet
  facet normal -1.000000e+000 0.000000e+000 -0.000000e+000
    outer loop
      vertex   4.968000e+000 -4.387701e-018 1.900000e-002
      vertex   4.968000e+000 3.800000e-002 1.900000e-002
      vertex   4.968000e+000 4.387701e-018 -1.900000e-002
    endloop
  endfacet
  facet normal -1.000000e+000 0.000000e+000 0.000000e+000
    outer loop
      vertex   4.968000e+000 4.387701e-018 -1.900000e-002
      vertex   4.968000e+000 3.800000e-002 1.900000e-002
      vertex   4.968000e+000 3.800000e-002 -1.900000e-002
    endloop
  endfacet
  facet normal 1.000000e+000 0.000000e+000 -0.000000e+000
    outer loop
      vertex   4.978000e+000 4.387701e-018 -1.900000e-002
      vertex   4.978000e+000 3.800000e-002 -1.900000e-002
      vertex   4.978000e+000 -4.387701e-018 1.900000e-002
    endloop
  endfacet
  facet normal 1.000000e+000 -0.000000e+000 -0.000000e+000
    outer loop
      vertex   4.978000e+000 -4.387701e-018 1.900000e-002
      vertex   4.978000e+000 3.800000e-002 -1.900000e-002
      vertex   4.978000e+000 3.800000e-002 1.900000e-002
    endloop
  endfacet
  facet normal -1.426582e-015 5.000000e-001 -8.660254e-001
    outer loop
      vertex   4.978000e+000 5.942374e-002 -6.095448e-002
      vertex   4.978000e+000 2.651477e-002 -7.995448e-002
      vertex   4.968000e+000 5.942374e-002 -6.095448e-002
    endloop
  endfacet
  facet normal -3.469447e-016 5.000000e-001 -8.660254e-001
    outer loop
      vertex   4.968000e+000 5.942374e-002 -6.095448e-002
      vertex   4.978000e+000 2.651477e-002 -7.995448e-002
      vertex   4.968000e+000 2.651477e-002 -7.995448e-002
    endloop
  endfacet
  facet normal -5.706327e-016 8.660254e-001 5.000000e-001
    outer loop
      vertex   4.978000e+000 4.042374e-002 -2.804552e-002
      vertex   4.978000e+000 5.942374e-002 -6.095448e-002
      vertex   4.968000e+000 4.042374e-002 -2.804552e-002
    endloop
  endfacet
  facet normal -8.549070e-016 8.660254e-001 5.000000e-001
    outer loop
      vertex   4.968000e+000 4.042374e-002 -2.804552e-002
      vertex   4.978000e+000 5.942374e-002 -6.095448e-002
      vertex   4.968000e+000 5.942374e-002 -6.095448e-002
    endloop
  endfacet
  facet normal 2.853164e-016 -5.000000e-001 8.660254e-001
    outer loop
      vertex   4.978000e+000 7.514774e-003 -4.704552e-002
      vertex   4.978000e+000 4.042374e-002 -2.804552e-002
      vertex   4.968000e+000 7.514774e-003 -4.704552e-002
    endloop
  endfacet
  facet normal 3.469447e-016 -5.000000e-001 8.660254e-001
    outer loop
      vertex   4.968000e+000 7.514774e-003 -4.704552e-002
      vertex   4.978000e+000 4.042374e-002 -2.804552e-002
      vertex   4.968000e+000 4.042374e-002 -2.804552e-002
    endloop
  endfacet
  facet normal 8.559491e-016 -8.660254e-001 -5.000000e-001
    outer loop
      vertex   4.978000e+000 2.651477e-002 -7.995448e-002
      vertex   4.978000e+000 7.514774e-003 -4.704552e-002
      vertex   4.968000e+000 2.651477e-002 -7.995448e-002
    endloop
  endfacet
  facet normal 9.013888e-016 -8.660254e-001 -5.000000e-001
    outer loop
      vertex   4.968000e+000 2.651477e-002 -7.995448e-002
      vertex   4.978000e+000 7.514774e-003 -4.704552e-002
      vertex   4.968000e+000 7.514774e-003 -4.704552e-002
    endloop
  endfacet
  facet normal -1.000000e+000 0.000000e+000 -0.000000e+000
    outer loop
      vertex   4.968000e+000 7.514774e-003 -4.704552e-002
      vertex   4.968000e+000 4.042374e-002 -2.804552e-002
      vertex   4.968000e+000 2.651477e-002 -7.995448e-002
    endloop
  endfacet
  facet normal -1.000000e+000 0.000000e+000 0.000000e+000
    outer loop
      vertex   4.968000e+000 2.651477e-002 -7.995448e-002
      vertex   4.968000e+000 4.042374e-002 -2.804552e-002
      vertex   4.968000e+000 5.942374e-002 -6.095448e-002
    endloop
  endfacet
  facet normal 1.000000e+000 0.000000e+000 -0.000000e+000
    outer loop
      vertex   4.978000e+000 2.651477e-002 -7.995448e-002
      vertex   4.978000e+000 5.942374e-002 -6.095448e-002
      vertex   4.978000e+000 7.514774e-003 -4.704552e-002
    endloop
  endfacet
  facet normal 1.000000e+000 -0.000000e+000 -0.000000e+000
    outer loop
      vertex   4.978000e+000 7.514774e-003 -4.704552e-002
      vertex   4.978000e+000 5.942374e-002 -6.095448e-002
      vertex   4.978000e+000 4.042374e-002 -2.804552e-002
    endloop
  endfacet
  facet normal 5.706327e-016 -5.000000e-001 -8.660254e-001
    outer loop
      vertex   4.978000e+000 4.042374e-002 2.804552e-002
      vertex   4.978000e+000 7.514774e-003 4.704552e-002
      vertex   4.968000e+000 4.042374e-002 2.804552e-002
    endloop
  endfacet
  facet normal 2.106131e-016 -5.000000e-001 -8.660254e-001
    outer loop
      vertex   4.968000e+000 4.042374e-002 2.804552e-002
      vertex   4.978000e+000 7.514774e-003 4.704552e-002
      vertex   4.968000e+000 7.514774e-003 4.704552e-002
    endloop
  endfacet
  facet normal 0.000000e+000 8.660254e-001 -5.000000e-001
    outer loop
      vertex   4.978000e+000 5.942374e-002 6.095448e-002
      vertex   4.978000e+000 4.042374e-002 2.804552e-002
      vertex   4.968000e+000 5.942374e-002 6.095448e-002
    endloop
  endfacet
  facet normal 1.121343e-015 8.660254e-001 -5.000000e-001
    outer loop
      vertex   4.968000e+000 5.942374e-002 6.095448e-002
      vertex   4.978000e+000 4.042374e-002 2.804552e-002
      vertex   4.968000e+000 4.042374e-002 2.804552e-002
    endloop
  endfacet
  facet normal -8.559491e-016 5.000000e-001 8.660254e-001
    outer loop
      vertex   4.978000e+000 2.651477e-002 7.995448e-002
      vertex   4.978000e+000 5.942374e-002 6.095448e-002
      vertex   4.968000e+000 2.651477e-002 7.995448e-002
    endloop
  endfacet
  facet normal 0.000000e+000 5.000000e-001 8.660254e-001
    outer loop
      vertex   4.968000e+000 2.651477e-002 7.995448e-002
      vertex   4.978000e+000 5.942374e-002 6.095448e-002
      vertex   4.968000e+000 5.942374e-002 6.095448e-002
    endloop
  endfacet
  facet normal -8.559491e-016 -8.660254e-001 5.000000e-001
    outer loop
      vertex   4.978000e+000 7.514774e-003 4.704552e-002
      vertex   4.978000e+000 2.651477e-002 7.995448e-002
      vertex   4.968000e+000 7.514774e-003 4.704552e-002
    endloop
  endfacet
  facet normal -1.294815e-015 -8.660254e-001 5.000000e-001
    outer loop
      vertex   4.968000e+000 7.514774e-003 4.704552e-002
      vertex   4.978000e+000 2.651477e-002 7.995448e-002
      vertex   4.968000e+000 2.651477e-002 7.995448e-002
    endloop
  endfacet
  facet normal -1.000000e+000 0.000000e+000 -0.000000e+000
    outer loop
      vertex   4.968000e+000 2.651477e-002 7.995448e-002
      vertex   4.968000e+000 5.942374e-002 6.095448e-002
      vertex   4.968000e+000 7.514774e-003 4.704552e-002
    endloop
  endfacet
  facet normal -1.000000e+000 0.000000e+000 -0.000000e+000
    outer loop
      vertex   4.968000e+000 7.514774e-003 4.704552e-002
      vertex   4.968000e+000 5.942374e-002 6.095448e-002
      vertex   4.968000e+000 4.042374e-002 2.804552e-002
    endloop
  endfacet
  facet normal 1.000000e+000 -0.000000e+000 -0.000000e+000
    outer loop
      vertex   4.978000e+000 7.514774e-003 4.704552e-002
      vertex   4.978000e+000 4.042374e-002 2.804552e-002
      vertex   4.978000e+000 2.651477e-002 7.995448e-002
    endloop
  endfacet
  facet normal 1.000000e+000 -0.000000e+000 0.000000e+000
    outer loop
      vertex   4.978000e+000 2.651477e-002 7.995448e-002
      vertex   4.978000e+000 4.042374e-002 2.804552e-002
      vertex   4.978000e+000 5.942374e-002 6.095448e-002
    endloop
  endfacet
  facet normal -0.000000e+000 -0.000000e+000 -1.000000e+000
    outer loop
      vertex   5.130000e+000 3.800000e-002 -1.900000e-002
      vertex   5.130000e+000 4.387701e-018 -1.900000e-002
      vertex   5.120000e+000 3.800000e-002 -1.900000e-002
    endloop
  endfacet
  facet normal -0.000000e+000 -0.000000e+000 -1.000000e+000
    outer loop
      vertex   5.120000e+000 3.800000e-002 -1.900000e-002
      vertex   5.130000e+000 4.387701e-018 -1.900000e-002
      vertex   5.120000e+000 4.387701e-018 -1.900000e-002
    endloop
  endfacet
  facet normal 0.000000e+000 1.000000e+000 1.826025e-016
    outer loop
      vertex   5.130000e+000 3.800000e-002 1.900000e-002
      vertex   5.130000e+000 3.800000e-002 -1.900000e-002
      vertex   5.120000e+000 3.800000e-002 1.900000e-002
    endloop
  endfacet
  facet normal 0.000000e+000 1.000000e+000 1.826025e-016
    outer loop
      vertex   5.120000e+000 3.800000e-002 1.900000e-002
      vertex   5.130000e+000 3.800000e-002 -1.900000e-002
      vertex   5.120000e+000 3.800000e-002 -1.900000e-002
    endloop
  endfacet
  facet normal 0.000000e+000 -9.130124e-017 1.000000e+000
    outer loop
      vertex   5.130000e+000 -4.387701e-018 1.900000e-002
      vertex   5.130000e+000 3.800000e-002 1.900000e-002
      vertex   5.120000e+000 -4.387701e-018 1.900000e-002
    endloop
  endfacet
  facet normal -3.469447e-016 0.000000e+000 1.000000e+000
    outer loop
      vertex   5.120000e+000 -4.387701e-018 1.900000e-002
      vertex   5.130000e+000 3.800000e-002 1.900000e-002
      vertex   5.120000e+000 3.800000e-002 1.900000e-002
    endloop
  endfacet
  facet normal 0.000000e+000 -1.000000e+000 -2.309316e-016
    outer loop
      vertex   5.130000e+000 4.387701e-018 -1.900000e-002
      vertex   5.130000e+000 -4.387701e-018 1.900000e-002
      vertex   5.120000e+000 4.387701e-018 -1.900000e-002
    endloop
  endfacet
  facet normal 7.703720e-032 -1.000000e+000 -2.309316e-016
    outer loop
      vertex   5.120000e+000 4.387701e-018 -1.900000e-002
      vertex   5.130000e+000 -4.387701e-018 1.900000e-002
      vertex   5.120000e+000 -4.387701e-018 1.900000e-002
    endloop
  endfacet
  facet normal -1.000000e+000 0.000000e+000 -0.000000e+000
    outer loop
      vertex   5.120000e+000 -4.387701e-018 1.900000e-002
      vertex   5.120000e+000 3.800000e-002 1.900000e-002
      vertex   5.120000e+000 4.387701e-018 -1.900000e-002
    endloop
  endfacet
  facet normal -1.000000e+000 0.000000e+000 0.000000e+000
    outer loop
      vertex   5.120000e+000 4.387701e-018 -1.900000e-002
      vertex   5.120000e+000 3.800000e-002 1.900000e-002
      vertex   5.120000e+000 3.800000e-002 -1.900000e-002
    endloop
  endfacet
  facet normal 1.000000e+000 0.000000e+000 -0.000000e+000
    outer loop
      vertex   5.130000e+000 4.387701e-018 -1.900000e-002
      vertex   5.130000e+000 3.800000e-002 -1.900000e-002
      vertex   5.130000e+000 -4.387701e-018 1.900000e-002
    endloop
  endfacet
  facet normal 1.000000e+000 -0.000000e+000 -0.000000e+000
    outer loop
      vertex   5.130000e+000 -4.387701e-018 1.900000e-002
      vertex   5.130000e+000 3.800000e-002 -1.900000e-002
      vertex   5.130000e+000 3.800000e-002 1.900000e-002
    endloop
  endfacet
  facet normal -1.426582e-015 5.000000e-001 -8.660254e-001
    outer loop
      vertex   5.130000e+000 5.942374e-002 -6.095448e-002
      vertex   5.130000e+000 2.651477e-002 -7.995448e-002
      vertex   5.120000e+000 5.942374e-002 -6.095448e-002
    endloop
  endfacet
  facet normal -3.469447e-016 5.000000e-001 -8.660254e-001
    outer loop
      vertex   5.120000e+000 5.942374e-002 -6.095448e-002
      vertex   5.130000e+000 2.651477e-002 -7.995448e-002
      vertex   5.120000e+000 2.651477e-002 -7.995448e-002
    endloop
  endfacet
  facet normal -5.706327e-016 8.660254e-001 5.000000e-001
    outer loop
      vertex   5.130000e+000 4.042374e-002 -2.804552e-002
      vertex   5.130000e+000 5.942374e-002 -6.095448e-002
      vertex   5.120000e+000 4.042374e-002 -2.804552e-002
    endloop
  endfacet
  facet normal -8.549070e-016 8.660254e-001 5.000000e-001
    outer loop
      vertex   5.120000e+000 4.042374e-002 -2.804552e-002
      vertex   5.130000e+000 5.942374e-002 -6.095448e-002
      vertex   5.120000e+000 5.942374e-002 -6.095448e-002
    endloop
  endfacet
  facet normal 2.853164e-016 -5.000000e-001 8.660254e-001
    outer loop
      vertex   5.130000e+000 7.514774e-003 -4.704552e-002
      vertex   5.130000e+000 4.042374e-002 -2.804552e-002
      vertex   5.120000e+000 7.514774e-003 -4.704552e-002
    endloop
  endfacet
  facet normal 3.469447e-016 -5.000000e-001 8.660254e-001
    outer loop
      vertex   5.120000e+000 7.514774e-003 -4.704552e-002
      vertex   5.130000e+000 4.042374e-002 -2.804552e-002
      vertex   5.120000e+000 4.042374e-002 -2.804552e-002
    endloop
  endfacet
  facet normal 8.559491e-016 -8.660254e-001 -5.000000e-001
    outer loop
      vertex   5.130000e+000 2.651477e-002 -7.995448e-002
      vertex   5.130000e+000 7.514774e-003 -4.704552e-002
      vertex   5.120000e+000 2.651477e-002 -7.995448e-002
    endloop
  endfacet
  facet normal 9.013888e-016 -8.660254e-001 -5.000000e-001
    outer loop
      vertex   5.120000e+000 2.651477e-002 -7.995448e-002
      vertex   5.130000e+000 7.514774e-003 -4.704552e-002
      vertex   5.120000e+000 7.514774e-003 -4.704552e-002
    endloop
  endfacet
  facet normal -1.000000e+000 0.000000e+000 -0.000000e+000
    outer loop
      vertex   5.120000e+000 7.514774e-003 -4.704552e-002
      vertex   5.120000e+000 4.042374e-002 -2.804552e-002
      vertex   5.120000e+000 2.651477e-002 -7.995448e-002
    endloop
  endfacet
  facet normal -1.000000e+000 0.000000e+000 0.000000e+000
    outer loop
      vertex   5.120000e+000 2.651477e-002 -7.995448e-002
      vertex   5.120000e+000 4.042374e-002 -2.804552e-002
      vertex   5.120000e+000 5.942374e-002 -6.095448e-002
    endloop
  endfacet
  facet normal 1.000000e+000 0.000000e+000 -0.000000e+000
    outer loop
      vertex   5.130000e+000 2.651477e-002 -7.995448e-002
      vertex   5.130000e+000 5.942374e-002 -6.095448e-002
      vertex   5.130000e+000 7.514774e-003 -4.704552e-002
    endloop
  endfacet
  facet normal 1.000000e+000 -0.000000e+000 -0.000000e+000
    outer loop
      vertex   5.130000e+000 7.514774e-003 -4.704552e-002
      vertex   5.130000e+000 5.942374e-002 -6.095448e-002
      vertex   5.130000e+000 4.042374e-002 -2.804552e-002
    endloop
  endfacet
  facet normal 5.706327e-016 -5.000000e-001 -8.660254e-001
    outer loop
      vertex   5.130000e+000 4.042374e-002 2.804552e-002
      vertex   5.130000e+000 7.514774e-003 4.704552e-002
      vertex   5.120000e+000 4.042374e-002 2.804552e-002
    endloop
  endfacet
  facet normal 2.106131e-016 -5.000000e-001 -8.660254e-001
    outer loop
      vertex   5.120000e+000 4.042374e-002 2.804552e-002
      vertex   5.130000e+000 7.514774e-003 4.704552e-002
      vertex   5.120000e+000 7.514774e-003 4.704552e-002
    endloop
  endfacet
  facet normal 0.000000e+000 8.660254e-001 -5.000000e-001
    outer loop
      vertex   5.130000e+000 5.942374e-002 6.095448e-002
      vertex   5.130000e+000 4.042374e-002 2.804552e-002
      vertex   5.120000e+000 5.942374e-002 6.095448e-002
    endloop
  endfacet
  facet normal 1.121343e-015 8.660254e-001 -5.000000e-001
    outer loop
      vertex   5.120000e+000 5.942374e-002 6.095448e-002
      vertex   5.130000e+000 4.042374e-002 2.804552e-002
      vertex   5.120000e+000 4.042374e-002 2.804552e-002
    endloop
  endfacet
  facet normal -8.559491e-016 5.000000e-001 8.660254e-001
    outer loop
      vertex   5.130000e+000 2.651477e-002 7.995448e-002
      vertex   5.130000e+000 5.942374e-002 6.095448e-002
      vertex   5.120000e+000 2.651477e-002 7.995448e-002
    endloop
  endfacet
  facet normal 0.000000e+000 5.000000e-001 8.660254e-001
    outer loop
      vertex   5.120000e+000 2.651477e-002 7.995448e-002
      vertex   5.130000e+000 5.942374e-002 6.095448e-002
      vertex   5.120000e+000 5.942374e-002 6.095448e-002
    endloop
  endfacet
  facet normal -8.559491e-016 -8.660254e-001 5.000000e-001
    outer loop
      vertex   5.130000e+000 7.514774e-003 4.704552e-002
      vertex   5.130000e+000 2.651477e-002 7.995448e-002
      vertex   5.120000e+000 7.514774e-003 4.704552e-002
    endloop
  endfacet
  facet normal -1.294815e-015 -8.660254e-001 5.000000e-001
    outer loop
      vertex   5.120000e+000 7.514774e-003 4.704552e-002
      vertex   5.130000e+000 2.651477e-002 7.995448e-002
      vertex   5.120000e+000 2.651477e-002 7.995448e-002
    endloop
  endfacet
  facet normal -1.000000e+000 0.000000e+000 -0.000000e+000
    outer loop
      vertex   5.120000e+000 2.651477e-002 7.995448e-002
      vertex   5.120000e+000 5.942374e-002 6.095448e-002
      vertex   5.120000e+000 7.514774e-003 4.704552e-002
    endloop
  endfacet
  facet normal -1.000000e+000 0.000000e+000 -0.000000e+000
    outer loop
      vertex   5.120000e+000 7.514774e-003 4.704552e-002
      vertex   5.120000e+000 5.942374e-002 6.095448e-002
      vertex   5.120000e+000 4.042374e-002 2.804552e-002
    endloop
  endfacet
  facet normal 1.000000e+000 -0.000000e+000 -0.000000e+000
    outer loop
      vertex   5.130000e+000 7.514774e-003 4.704552e-002
      vertex   5.130000e+000 4.042374e-002 2.804552e-002
      vertex   5.130000e+000 2.651477e-002 7.995448e-002
    endloop
  endfacet
  facet normal 1.000000e+000 -0.000000e+000 0.000000e+000
    outer loop
      vertex   5.130000e+000 2.651477e-002 7.995448e-002
      vertex   5.130000e+000 4.042374e-002 2.804552e-002
      vertex   5.130000e+000 5.942374e-002 6.095448e-002
    endloop
  endfacet
  facet normal -0.000000e+000 -0.000000e+000 -1.000000e+000
    outer loop
      vertex   5.282000e+000 3.800000e-002 -1.900000e-002
      vertex   5.282000e+000 4.387701e-018 -1.900000e-002
      vertex   5.272000e+000 3.800000e-002 -1.900000e-002
    endloop
  endfacet
  facet normal -0.000000e+000 -0.000000e+000 -1.000000e+000
    outer loop
      vertex   5.272000e+000 3.800000e-002 -1.900000e-002
      vertex   5.282000e+000 4.387701e-018 -1.900000e-002
      vertex   5.272000e+000 4.387701e-018 -1.900000e-002
    endloop
  endfacet
  facet normal 0.000000e+000 1.000000e+000 1.826025e-016
    outer loop
      vertex   5.282000e+000 3.800000e-002 1.900000e-002
      vertex   5.282000e+000 3.800000e-002 -1.900000e-002
      vertex   5.272000e+000 3.800000e-002 1.900000e-002
    endloop
  endfacet
  facet normal 0.000000e+000 1.000000e+000 1.826025e-016
    outer loop
      vertex   5.272000e+000 3.800000e-002 1.900000e-002
      vertex   5.282000e+000 3.800000e-002 -1.900000e-002
      vertex   5.272000e+000 3.800000e-002 -1.900000e-002
    endloop
  endfacet
  facet normal 0.000000e+000 -9.130124e-017 1.000000e+000
    outer loop
      vertex   5.282000e+000 -4.387701e-018 1.900000e-002
      vertex   5.282000e+000 3.800000e-002 1.900000e-002
      vertex   5.272000e+000 -4.387701e-018 1.900000e-002
    endloop
  endfacet
  facet normal -3.469447e-016 0.000000e+000 1.000000e+000
    outer loop
      vertex   5.272000e+000 -4.387701e-018 1.900000e-002
      vertex   5.282000e+000 3.800000e-002 1.900000e-002
      vertex   5.272000e+000 3.800000e-002 1.900000e-002
    endloop
  endfacet
  facet normal 0.000000e+000 -1.000000e+000 -2.309316e-016
    outer loop
      vertex   5.282000e+000 4.387701e-018 -1.900000e-002
      vertex   5.282000e+000 -4.387701e-018 1.900000e-002
      vertex   5.272000e+000 4.387701e-018 -1.900000e-002
    endloop
  endfacet
  facet normal 7.703720e-032 -1.000000e+000 -2.309316e-016
    outer loop
      vertex   5.272000e+000 4.387701e-018 -1.900000e-002
      vertex   5.282000e+000 -4.387701e-018 1.900000e-002
      vertex   5.272000e+000 -4.387701e-018 1.900000e-002
    endloop
  endfacet
  facet normal -1.000000e+000 0.000000e+000 -0.000000e+000
    outer loop
      vertex   5.272000e+000 -4.387701e-018 1.900000e-002
      vertex   5.272000e+000 3.800000e-002 1.900000e-002
      vertex   5.272000e+000 4.387701e-018 -1.900000e-002
    endloop
  endfacet
  facet normal -1.000000e+000 0.000000e+000 0.000000e+000
    outer loop
      vertex   5.272000e+000 4.387701e-018 -1.900000e-002
      vertex   5.272000e+000 3.800000e-002 1.900000e-002
      vertex   5.272000e+000 3.800000e-002 -1.900000e-002
    endloop
  endfacet
  facet normal 1.000000e+000 0.000000e+000 -0.000000e+000
    outer loop
      vertex   5.282000e+000 4.387701e-018 -1.900000e-002
      vertex   5.282000e+000 3.800000e-002 -1.900000e-002
      vertex   5.282000e+000 -4.387701e-018 1.900000e-002
    endloop
  endfacet
  facet normal 1.000000e+000 -0.000000e+000 -0.000000e+000
    outer loop
      vertex   5.282000e+000 -4.387701e-018 1.900000e-002
      vertex   5.282000e+000 3.800000e-002 -1.900000e-002
      vertex   5.282000e+000 3.800000e-002 1.900000e-002
    endloop
  endfacet
  facet normal -1.426582e-015 5.000000e-001 -8.660254e-001
    outer loop
      vertex   5.282000e+000 5.942374e-002 -6.095448e-002
      vertex   5.282000e+000 2.651477e-002 -7.995448e-002
      vertex   5.272000e+000 5.942374e-002 -6.095448e-002
    endloop
  endfacet
  facet normal -3.469447e-016 5.000000e-001 -8.660254e-001
    outer loop
      vertex   5.272000e+000 5.942374e-002 -6.095448e-002
      vertex   5.282000e+000 2.651477e-002 -7.995448e-002
      vertex   5.272000e+000 2.651477e-002 -7.995448e-002
    endloop
  endfacet
  facet normal -5.706327e-016 8.660254e-001 5.000000e-001
    outer loop
      vertex   5.282000e+000 4.042374e-002 -2.804552e-002
      vertex   5.282000e+000 5.942374e-002 -6.095448e-002
      vertex   5.272000e+000 4.042374e-002 -2.804552e-002
    endloop
  endfacet
  facet normal -8.549070e-016 8.660254e-001 5.000000e-001
    outer loop
      vertex   5.272000e+000 4.042374e-002 -2.804552e-002
      vertex   5.282000e+000 5.942374e-002 -6.095448e-002
      vertex   5.272000e+000 5.942374e-002 -6.095448e-002
    endloop
  endfacet
  facet normal 2.853164e-016 -5.000000e-001 8.660254e-001
    outer loop
      vertex   5.282000e+000 7.514774e-003 -4.704552e-002
      vertex   5.282000e+000 4.042374e-002 -2.804552e-002
      vertex   5.272000e+000 7.514774e-003 -4.704552e-002
    endloop
  endfacet
  facet normal 3.469447e-016 -5.000000e-001 8.660254e-001
    outer loop
      vertex   5.272000e+000 7.514774e-003 -4.704552e-002
      vertex   5.282000e+000 4.042374e-002 -2.804552e-002
      vertex   5.272000e+000 4.042374e-002 -2.804552e-002
    endloop
  endfacet
  facet normal 8.559491e-016 -8.660254e-001 -5.000000e-001
    outer loop
      vertex   5.282000e+000 2.651477e-002 -7.995448e-002
      vertex   5.282000e+000 7.514774e-003 -4.704552e-002
      vertex   5.272000e+000 2.651477e-002 -7.995448e-002
    endloop
  endfacet
  facet normal 9.013888e-016 -8.660254e-001 -5.000000e-001
    outer loop
      vertex   5.272000e+000 2.651477e-002 -7.995448e-002
      vertex   5.282000e+000 7.514774e-003 -4.704552e-002
      vertex   5.272000e+000 7.514774e-003 -4.704552e-002
    endloop
  endfacet
  facet normal -1.000000e+000 0.000000e+000 -0.000000e+000
    outer loop
      vertex   5.272000e+000 7.514774e-003 -4.704552e-002
      vertex   5.272000e+000 4.042374e-002 -2.804552e-002
      vertex   5.272000e+000 2.651477e-002 -7.995448e-002
    endloop
  endfacet
  facet normal -1.000000e+000 0.000000e+000 0.000000e+000
    outer loop
      vertex   5.272000e+000 2.651477e-002 -7.995448e-002
      vertex   5.272000e+000 4.042374e-002 -2.804552e-002
      vertex   5.272000e+000 5.942374e-002 -6.095448e-002
    endloop
  endfacet
  facet normal 1.000000e+000 0.000000e+000 -0.000000e+000
    outer loop
      vertex   5.282000e+000 2.651477e-002 -7.995448e-002
      vertex   5.282000e+000 5.942374e-002 -6.095448e-002
      vertex   5.282000e+000 7.514774e-003 -4.704552e-002
    endloop
  endfacet
  facet normal 1.000000e+000 -0.000000e+000 -0.000000e+000
    outer loop
      vertex   5.282000e+000 7.514774e-003 -4.704552e-002
      vertex   5.282000e+000 5.942374e-002 -6.095448e-002
      vertex   5.282000e+000 4.042374e-002 -2.804552e-002
    endloop
  endfacet
  facet normal 5.706327e-016 -5.000000e-001 -8.660254e-001
    outer loop
      vertex   5.282000e+000 4.042374e-002 2.804552e-002
      vertex   5.282000e+000 7.514774e-003 4.704552e-002
      vertex   5.272000e+000 4.042374e-002 2.804552e-002
    endloop
  endfacet
  facet normal 2.106131e-016 -5.000000e-001 -8.660254e-001
    outer loop
      vertex   5.272000e+000 4.042374e-002 2.804552e-002
      vertex   5.282000e+000 7.514774e-003 4.704552e-002
      vertex   5.272000e+000 7.514774e-003 4.704552e-002
    endloop
  endfacet
  facet normal 0.000000e+000 8.660254e-001 -5.000000e-001
    outer loop
      vertex   5.282000e+000 5.942374e-002 6.095448e-002
      vertex   5.282000e+000 4.042374e-002 2.804552e-002
      vertex   5.272000e+000 5.942374e-002 6.095448e-002
    endloop
  endfacet
  facet normal 1.121343e-015 8.660254e-001 -5.000000e-001
    outer loop
      vertex   5.272000e+000 5.942374e-002 6.095448e-002
      vertex   5.282000e+000 4.042374e-002 2.804552e-002
      vertex   5.272000e+000 4.042374e-002 2.804552e-002
    endloop
  endfacet
  facet normal -8.559491e-016 5.000000e-001 8.660254e-001
    outer loop
      vertex   5.282000e+000 2.651477e-002 7.995448e-002
      vertex   5.282000e+000 5.942374e-002 6.095448e-002
      vertex   5.272000e+000 2.651477e-002 7.995448e-002
    endloop
  endfacet
  facet normal 0.000000e+000 5.000000e-001 8.660254e-001
    outer loop
      vertex   5.272000e+000 2.651477e-002 7.995448e-002
      vertex   5.282000e+000 5.942374e-002 6.095448e-002
      vertex   5.272000e+000 5.942374e-002 6.095448e-002
    endloop
  endfacet
  facet normal -8.559491e-016 -8.660254e-001 5.000000e-001
    outer loop
      vertex   5.282000e+000 7.514774e-003 4.704552e-002
      vertex   5.282000e+000 2.651477e-002 7.995448e-002
      vertex   5.272000e+000 7.514774e-003 4.704552e-002
    endloop
  endfacet
  facet normal -1.294815e-015 -8.660254e-001 5.000000e-001
    outer loop
      vertex   5.272000e+000 7.514774e-003 4.704552e-002
      vertex   5.282000e+000 2.651477e-002 7.995448e-002
      vertex   5.272000e+000 2.651477e-002 7.995448e-002
    endloop
  endfacet
  facet normal -1.000000e+000 0.000000e+000 -0.000000e+000
    outer loop
      vertex   5.272000e+000 2.651477e-002 7.995448e-002
      vertex   5.272000e+000 5.942374e-002 6.095448e-002
      vertex   5.272000e+000 7.514774e-003 4.704552e-002
    endloop
  endfacet
  facet normal -1.000000e+000 0.000000e+000 -0.000000e+000
    outer loop
      vertex   5.272000e+000 7.514774e-003 4.704552e-002
      vertex   5.272000e+000 5.942374e-002 6.095448e-002
      vertex   5.272000e+000 4.042374e-002 2.804552e-002
    endloop
  endfacet
  facet normal 1.000000e+000 -0.000000e+000 -0.000000e+000
    outer loop
      vertex   5.282000e+000 7.514774e-003 4.704552e-002
      vertex   5.282000e+000 4.042374e-002 2.804552e-002
      vertex   5.282000e+000 2.651477e-002 7.995448e-002
    endloop
  endfacet
  facet normal 1.000000e+000 -0.000000e+000 0.000000e+000
    outer loop
      vertex   5.282000e+000 2.651477e-002 7.995448e-002
      vertex   5.282000e+000 4.042374e-002 2.804552e-002
      vertex   5.282000e+000 5.942374e-002 6.095448e-002
    endloop
  endfacet
endsolid
