solid ascii
  facet normal 0.000000e+000 -6.829620e-017 -1.000000e+000
    outer loop
      vertex   3.914000e+000 1.270000e-002 -6.350000e-003
      vertex   3.914000e+000 7.626552e-019 -6.350000e-003
      vertex   3.904000e+000 1.270000e-002 -6.350000e-003
    endloop
  endfacet
  facet normal -0.000000e+000 -6.829620e-017 -1.000000e+000
    outer loop
      vertex   3.904000e+000 1.270000e-002 -6.350000e-003
      vertex   3.914000e+000 7.626552e-019 -6.350000e-003
      vertex   3.904000e+000 7.626552e-019 -6.350000e-003
    endloop
  endfacet
  facet normal 0.000000e+000 1.000000e+000 4.097772e-016
    outer loop
      vertex   3.914000e+000 1.270000e-002 6.350000e-003
      vertex   3.914000e+000 1.270000e-002 -6.350000e-003
      vertex   3.904000e+000 1.270000e-002 6.350000e-003
    endloop
  endfacet
  facet normal 0.000000e+000 1.000000e+000 4.097772e-016
    outer loop
      vertex   3.904000e+000 1.270000e-002 6.350000e-003
      vertex   3.914000e+000 1.270000e-002 -6.350000e-003
      vertex   3.904000e+000 1.270000e-002 -6.350000e-003
    endloop
  endfacet
  facet normal 0.000000e+000 -1.365924e-016 1.000000e+000
    outer loop
      vertex   3.914000e+000 -3.654369e-018 6.350000e-003
      vertex   3.914000e+000 1.270000e-002 6.350000e-003
      vertex   3.904000e+000 -3.654369e-018 6.350000e-003
    endloop
  endfacet
  facet normal -8.673617e-017 -6.829620e-017 1.000000e+000
    outer loop
      vertex   3.904000e+000 -3.654369e-018 6.350000e-003
      vertex   3.914000e+000 1.270000e-002 6.350000e-003
      vertex   3.904000e+000 1.270000e-002 6.350000e-003
    endloop
  endfacet
  facet normal 0.000000e+000 -1.000000e+000 -3.477972e-016
    outer loop
      vertex   3.914000e+000 7.626552e-019 -6.350000e-003
      vertex   3.914000e+000 -3.654369e-018 6.350000e-003
      vertex   3.904000e+000 7.626552e-019 -6.350000e-003
    endloop
  endfacet
  facet normal -0.000000e+000 -1.000000e+000 -3.477972e-016
    outer loop
      vertex   3.904000e+000 7.626552e-019 -6.350000e-003
      vertex   3.914000e+000 -3.654369e-018 6.350000e-003
      vertex   3.904000e+000 -3.654369e-018 6.350000e-003
    endloop
  endfacet
  facet normal -1.000000e+000 0.000000e+000 -0.000000e+000
    outer loop
      vertex   3.904000e+000 -3.654369e-018 6.350000e-003
      vertex   3.904000e+000 1.270000e-002 6.350000e-003
      vertex   3.904000e+000 7.626552e-019 -6.350000e-003
    endloop
  endfacet
  facet normal -1.000000e+000 0.000000e+000 0.000000e+000
    outer loop
      vertex   3.904000e+000 7.626552e-019 -6.350000e-003
      vertex   3.904000e+000 1.270000e-002 6.350000e-003
      vertex   3.904000e+000 1.270000e-002 -6.350000e-003
    endloop
  endfacet
  facet normal 1.000000e+000 -0.000000e+000 -0.000000e+000
    outer loop
      vertex   3.914000e+000 7.626552e-019 -6.350000e-003
      vertex   3.914000e+000 1.270000e-002 -6.350000e-003
      vertex   3.914000e+000 -3.654369e-018 6.350000e-003
    endloop
  endfacet
  facet normal 1.000000e+000 -0.000000e+000 -0.000000e+000
    outer loop
      vertex   3.914000e+000 -3.654369e-018 6.350000e-003
      vertex   3.914000e+000 1.270000e-002 -6.350000e-003
      vertex   3.914000e+000 1.270000e-002 6.350000e-003
    endloop
  endfacet
  facet normal -5.335641e-016 5.000000e-001 -8.660254e-001
    outer loop
      vertex   3.914000e+000 3.118830e-002 -6.264926e-002
      vertex   3.914000e+000 2.018977e-002 -6.899926e-002
      vertex   3.904000e+000 3.118830e-002 -6.264926e-002
    endloop
  endfacet
  facet normal -5.204170e-016 5.000000e-001 -8.660254e-001
    outer loop
      vertex   3.904000e+000 3.118830e-002 -6.264926e-002
      vertex   3.914000e+000 2.018977e-002 -6.899926e-002
      vertex   3.904000e+000 2.018977e-002 -6.899926e-002
    endloop
  endfacet
  facet normal -5.335641e-016 8.660254e-001 5.000000e-001
    outer loop
      vertex   3.914000e+000 2.483830e-002 -5.165074e-002
      vertex   3.914000e+000 3.118830e-002 -6.264926e-002
      vertex   3.904000e+000 2.483830e-002 -5.165074e-002
    endloop
  endfacet
  facet normal -9.013888e-016 8.660254e-001 5.000000e-001
    outer loop
      vertex   3.904000e+000 2.483830e-002 -5.165074e-002
      vertex   3.914000e+000 3.118830e-002 -6.264926e-002
      vertex   3.904000e+000 3.118830e-002 -6.264926e-002
    endloop
  endfacet
  facet normal 1.707405e-015 -5.000000e-001 8.660254e-001
    outer loop
      vertex   3.914000e+000 1.383977e-002 -5.800074e-002
      vertex   3.914000e+000 2.483830e-002 -5.165074e-002
      vertex   3.904000e+000 1.383977e-002 -5.800074e-002
    endloop
  endfacet
  facet normal 3.469447e-016 -5.000000e-001 8.660254e-001
    outer loop
      vertex   3.904000e+000 1.383977e-002 -5.800074e-002
      vertex   3.914000e+000 2.483830e-002 -5.165074e-002
      vertex   3.904000e+000 2.483830e-002 -5.165074e-002
    endloop
  endfacet
  facet normal 8.537025e-016 -8.660254e-001 -5.000000e-001
    outer loop
      vertex   3.914000e+000 2.018977e-002 -6.899926e-002
      vertex   3.914000e+000 1.383977e-002 -5.800074e-002
      vertex   3.904000e+000 2.018977e-002 -6.899926e-002
    endloop
  endfacet
  facet normal 2.074994e-016 -8.660254e-001 -5.000000e-001
    outer loop
      vertex   3.904000e+000 2.018977e-002 -6.899926e-002
      vertex   3.914000e+000 1.383977e-002 -5.800074e-002
      vertex   3.904000e+000 1.383977e-002 -5.800074e-002
    endloop
  endfacet
  facet normal -1.000000e+000 0.000000e+000 -0.000000e+000
    outer loop
      vertex   3.904000e+000 1.383977e-002 -5.800074e-002
      vertex   3.904000e+000 2.483830e-002 -5.165074e-002
      vertex   3.904000e+000 2.018977e-002 -6.899926e-002
    endloop
  endfacet
  facet normal -1.000000e+000 0.000000e+000 0.000000e+000
    outer loop
      vertex   3.904000e+000 2.018977e-002 -6.899926e-002
      vertex   3.904000e+000 2.483830e-002 -5.165074e-002
      vertex   3.904000e+000 3.118830e-002 -6.264926e-002
    endloop
  endfacet
  facet normal 1.000000e+000 0.000000e+000 -0.000000e+000
    outer loop
      vertex   3.914000e+000 2.018977e-002 -6.899926e-002
      vertex   3.914000e+000 3.118830e-002 -6.264926e-002
      vertex   3.914000e+000 1.383977e-002 -5.800074e-002
    endloop
  endfacet
  facet normal 1.000000e+000 -0.000000e+000 -0.000000e+000
    outer loop
      vertex   3.914000e+000 1.383977e-002 -5.800074e-002
      vertex   3.914000e+000 3.118830e-002 -6.264926e-002
      vertex   3.914000e+000 2.483830e-002 -5.165074e-002
    endloop
  endfacet
  facet normal -4.268512e-016 -5.000000e-001 -8.660254e-001
    outer loop
      vertex   3.914000e+000 2.483830e-002 5.165074e-002
      vertex   3.914000e+000 1.383977e-002 5.800074e-002
      vertex   3.904000e+000 2.483830e-002 5.165074e-002
    endloop
  endfacet
  facet normal 3.407173e-016 -5.000000e-001 -8.660254e-001
    outer loop
      vertex   3.904000e+000 2.483830e-002 5.165074e-002
      vertex   3.914000e+000 1.383977e-002 5.800074e-002
      vertex   3.904000e+000 1.383977e-002 5.800074e-002
    endloop
  endfacet
  facet normal 9.604153e-016 8.660254e-001 -5.000000e-001
    outer loop
      vertex   3.914000e+000 3.118830e-002 6.264926e-002
      vertex   3.914000e+000 2.483830e-002 5.165074e-002
      vertex   3.904000e+000 3.118830e-002 6.264926e-002
    endloop
  endfacet
  facet normal 6.009258e-016 8.660254e-001 -5.000000e-001
    outer loop
      vertex   3.904000e+000 3.118830e-002 6.264926e-002
      vertex   3.914000e+000 2.483830e-002 5.165074e-002
      vertex   3.904000e+000 2.483830e-002 5.165074e-002
    endloop
  endfacet
  facet normal -6.402769e-016 5.000000e-001 8.660254e-001
    outer loop
      vertex   3.914000e+000 2.018977e-002 6.899926e-002
      vertex   3.914000e+000 3.118830e-002 6.264926e-002
      vertex   3.904000e+000 2.018977e-002 6.899926e-002
    endloop
  endfacet
  facet normal -1.028379e-015 5.000000e-001 8.660254e-001
    outer loop
      vertex   3.904000e+000 2.018977e-002 6.899926e-002
      vertex   3.914000e+000 3.118830e-002 6.264926e-002
      vertex   3.904000e+000 3.118830e-002 6.264926e-002
    endloop
  endfacet
  facet normal -7.469897e-016 -8.660254e-001 5.000000e-001
    outer loop
      vertex   3.914000e+000 1.383977e-002 5.800074e-002
      vertex   3.914000e+000 2.018977e-002 6.899926e-002
      vertex   3.904000e+000 1.383977e-002 5.800074e-002
    endloop
  endfacet
  facet normal -1.595278e-015 -8.660254e-001 5.000000e-001
    outer loop
      vertex   3.904000e+000 1.383977e-002 5.800074e-002
      vertex   3.914000e+000 2.018977e-002 6.899926e-002
      vertex   3.904000e+000 2.018977e-002 6.899926e-002
    endloop
  endfacet
  facet normal -1.000000e+000 0.000000e+000 -0.000000e+000
    outer loop
      vertex   3.904000e+000 2.018977e-002 6.899926e-002
      vertex   3.904000e+000 3.118830e-002 6.264926e-002
      vertex   3.904000e+000 1.383977e-002 5.800074e-002
    endloop
  endfacet
  facet normal -1.000000e+000 0.000000e+000 -0.000000e+000
    outer loop
      vertex   3.904000e+000 1.383977e-002 5.800074e-002
      vertex   3.904000e+000 3.118830e-002 6.264926e-002
      vertex   3.904000e+000 2.483830e-002 5.165074e-002
    endloop
  endfacet
  facet normal 1.000000e+000 -0.000000e+000 -0.000000e+000
    outer loop
      vertex   3.914000e+000 1.383977e-002 5.800074e-002
      vertex   3.914000e+000 2.483830e-002 5.165074e-002
      vertex   3.914000e+000 2.018977e-002 6.899926e-002
    endloop
  endfacet
  facet normal 1.000000e+000 -0.000000e+000 0.000000e+000
    outer loop
      vertex   3.914000e+000 2.018977e-002 6.899926e-002
      vertex   3.914000e+000 2.483830e-002 5.165074e-002
      vertex   3.914000e+000 3.118830e-002 6.264926e-002
    endloop
  endfacet
  facet normal 0.000000e+000 -6.829620e-017 -1.000000e+000
    outer loop
      vertex   4.066000e+000 1.270000e-002 -6.350000e-003
      vertex   4.066000e+000 7.626552e-019 -6.350000e-003
      vertex   4.056000e+000 1.270000e-002 -6.350000e-003
    endloop
  endfacet
  facet normal -0.000000e+000 -6.829620e-017 -1.000000e+000
    outer loop
      vertex   4.056000e+000 1.270000e-002 -6.350000e-003
      vertex   4.066000e+000 7.626552e-019 -6.350000e-003
      vertex   4.056000e+000 7.626552e-019 -6.350000e-003
    endloop
  endfacet
  facet normal 0.000000e+000 1.000000e+000 4.097772e-016
    outer loop
      vertex   4.066000e+000 1.270000e-002 6.350000e-003
      vertex   4.066000e+000 1.270000e-002 -6.350000e-003
      vertex   4.056000e+000 1.270000e-002 6.350000e-003
    endloop
  endfacet
  facet normal 0.000000e+000 1.000000e+000 4.097772e-016
    outer loop
      vertex   4.056000e+000 1.270000e-002 6.350000e-003
      vertex   4.066000e+000 1.270000e-002 -6.350000e-003
      vertex   4.056000e+000 1.270000e-002 -6.350000e-003
    endloop
  endfacet
  facet normal 0.000000e+000 -1.365924e-016 1.000000e+000
    outer loop
      vertex   4.066000e+000 -3.654369e-018 6.350000e-003
      vertex   4.066000e+000 1.270000e-002 6.350000e-003
      vertex   4.056000e+000 -3.654369e-018 6.350000e-003
    endloop
  endfacet
  facet normal -8.673617e-017 -6.829620e-017 1.000000e+000
    outer loop
      vertex   4.056000e+000 -3.654369e-018 6.350000e-003
      vertex   4.066000e+000 1.270000e-002 6.350000e-003
      vertex   4.056000e+000 1.270000e-002 6.350000e-003
    endloop
  endfacet
  facet normal 0.000000e+000 -1.000000e+000 -3.477972e-016
    outer loop
      vertex   4.066000e+000 7.626552e-019 -6.350000e-003
      vertex   4.066000e+000 -3.654369e-018 6.350000e-003
      vertex   4.056000e+000 7.626552e-019 -6.350000e-003
    endloop
  endfacet
  facet normal -0.000000e+000 -1.000000e+000 -3.477972e-016
    outer loop
      vertex   4.056000e+000 7.626552e-019 -6.350000e-003
      vertex   4.066000e+000 -3.654369e-018 6.350000e-003
      vertex   4.056000e+000 -3.654369e-018 6.350000e-003
    endloop
  endfacet
  facet normal -1.000000e+000 0.000000e+000 -0.000000e+000
    outer loop
      vertex   4.056000e+000 -3.654369e-018 6.350000e-003
      vertex   4.056000e+000 1.270000e-002 6.350000e-003
      vertex   4.056000e+000 7.626552e-019 -6.350000e-003
    endloop
  endfacet
  facet normal -1.000000e+000 0.000000e+000 0.000000e+000
    outer loop
      vertex   4.056000e+000 7.626552e-019 -6.350000e-003
      vertex   4.056000e+000 1.270000e-002 6.350000e-003
      vertex   4.056000e+000 1.270000e-002 -6.350000e-003
    endloop
  endfacet
  facet normal 1.000000e+000 -0.000000e+000 -0.000000e+000
    outer loop
      vertex   4.066000e+000 7.626552e-019 -6.350000e-003
      vertex   4.066000e+000 1.270000e-002 -6.350000e-003
      vertex   4.066000e+000 -3.654369e-018 6.350000e-003
    endloop
  endfacet
  facet normal 1.000000e+000 -0.000000e+000 -0.000000e+000
    outer loop
      vertex   4.066000e+000 -3.654369e-018 6.350000e-003
      vertex   4.066000e+000 1.270000e-002 -6.350000e-003
      vertex   4.066000e+000 1.270000e-002 6.350000e-003
    endloop
  endfacet
  facet normal -5.335641e-016 5.000000e-001 -8.660254e-001
    outer loop
      vertex   4.066000e+000 3.118830e-002 -6.264926e-002
      vertex   4.066000e+000 2.018977e-002 -6.899926e-002
      vertex   4.056000e+000 3.118830e-002 -6.264926e-002
    endloop
  endfacet
  facet normal -5.204170e-016 5.000000e-001 -8.660254e-001
    outer loop
      vertex   4.056000e+000 3.118830e-002 -6.264926e-002
      vertex   4.066000e+000 2.018977e-002 -6.899926e-002
      vertex   4.056000e+000 2.018977e-002 -6.899926e-002
    endloop
  endfacet
  facet normal -5.335641e-016 8.660254e-001 5.000000e-001
    outer loop
      vertex   4.066000e+000 2.483830e-002 -5.165074e-002
      vertex   4.066000e+000 3.118830e-002 -6.264926e-002
      vertex   4.056000e+000 2.483830e-002 -5.165074e-002
    endloop
  endfacet
  facet normal -9.013888e-016 8.660254e-001 5.000000e-001
    outer loop
      vertex   4.056000e+000 2.483830e-002 -5.165074e-002
      vertex   4.066000e+000 3.118830e-002 -6.264926e-002
      vertex   4.056000e+000 3.118830e-002 -6.264926e-002
    endloop
  endfacet
  facet normal 1.707405e-015 -5.000000e-001 8.660254e-001
    outer loop
      vertex   4.066000e+000 1.383977e-002 -5.800074e-002
      vertex   4.066000e+000 2.483830e-002 -5.165074e-002
      vertex   4.056000e+000 1.383977e-002 -5.800074e-002
    endloop
  endfacet
  facet normal 3.469447e-016 -5.000000e-001 8.660254e-001
    outer loop
      vertex   4.056000e+000 1.383977e-002 -5.800074e-002
      vertex   4.066000e+000 2.483830e-002 -5.165074e-002
      vertex   4.056000e+000 2.483830e-002 -5.165074e-002
    endloop
  endfacet
  facet normal 8.537025e-016 -8.660254e-001 -5.000000e-001
    outer loop
      vertex   4.066000e+000 2.018977e-002 -6.899926e-002
      vertex   4.066000e+000 1.383977e-002 -5.800074e-002
      vertex   4.056000e+000 2.018977e-002 -6.899926e-002
    endloop
  endfacet
  facet normal 2.074994e-016 -8.660254e-001 -5.000000e-001
    outer loop
      vertex   4.056000e+000 2.018977e-002 -6.899926e-002
      vertex   4.066000e+000 1.383977e-002 -5.800074e-002
      vertex   4.056000e+000 1.383977e-002 -5.800074e-002
    endloop
  endfacet
  facet normal -1.000000e+000 0.000000e+000 -0.000000e+000
    outer loop
      vertex   4.056000e+000 1.383977e-002 -5.800074e-002
      vertex   4.056000e+000 2.483830e-002 -5.165074e-002
      vertex   4.056000e+000 2.018977e-002 -6.899926e-002
    endloop
  endfacet
  facet normal -1.000000e+000 0.000000e+000 0.000000e+000
    outer loop
      vertex   4.056000e+000 2.018977e-002 -6.899926e-002
      vertex   4.056000e+000 2.483830e-002 -5.165074e-002
      vertex   4.056000e+000 3.118830e-002 -6.264926e-002
    endloop
  endfacet
  facet normal 1.000000e+000 0.000000e+000 -0.000000e+000
    outer loop
      vertex   4.066000e+000 2.018977e-002 -6.899926e-002
      vertex   4.066000e+000 3.118830e-002 -6.264926e-002
      vertex   4.066000e+000 1.383977e-002 -5.800074e-002
    endloop
  endfacet
  facet normal 1.000000e+000 -0.000000e+000 -0.000000e+000
    outer loop
      vertex   4.066000e+000 1.383977e-002 -5.800074e-002
      vertex   4.066000e+000 3.118830e-002 -6.264926e-002
      vertex   4.066000e+000 2.483830e-002 -5.165074e-002
    endloop
  endfacet
  facet normal -4.268512e-016 -5.000000e-001 -8.660254e-001
    outer loop
      vertex   4.066000e+000 2.483830e-002 5.165074e-002
      vertex   4.066000e+000 1.383977e-002 5.800074e-002
      vertex   4.056000e+000 2.483830e-002 5.165074e-002
    endloop
  endfacet
  facet normal 3.407173e-016 -5.000000e-001 -8.660254e-001
    outer loop
      vertex   4.056000e+000 2.483830e-002 5.165074e-002
      vertex   4.066000e+000 1.383977e-002 5.800074e-002
      vertex   4.056000e+000 1.383977e-002 5.800074e-002
    endloop
  endfacet
  facet normal 9.604153e-016 8.660254e-001 -5.000000e-001
    outer loop
      vertex   4.066000e+000 3.118830e-002 6.264926e-002
      vertex   4.066000e+000 2.483830e-002 5.165074e-002
      vertex   4.056000e+000 3.118830e-002 6.264926e-002
    endloop
  endfacet
  facet normal 6.009258e-016 8.660254e-001 -5.000000e-001
    outer loop
      vertex   4.056000e+000 3.118830e-002 6.264926e-002
      vertex   4.066000e+000 2.483830e-002 5.165074e-002
      vertex   4.056000e+000 2.483830e-002 5.165074e-002
    endloop
  endfacet
  facet normal -6.402769e-016 5.000000e-001 8.660254e-001
    outer loop
      vertex   4.066000e+000 2.018977e-002 6.899926e-002
      vertex   4.066000e+000 3.118830e-002 6.264926e-002
      vertex   4.056000e+000 2.018977e-002 6.899926e-002
    endloop
  endfacet
  facet normal -1.028379e-015 5.000000e-001 8.660254e-001
    outer loop
      vertex   4.056000e+000 2.018977e-002 6.899926e-002
      vertex   4.066000e+000 3.118830e-002 6.264926e-002
      vertex   4.056000e+000 3.118830e-002 6.264926e-002
    endloop
  endfacet
  facet normal -7.469897e-016 -8.660254e-001 5.000000e-001
    outer loop
      vertex   4.066000e+000 1.383977e-002 5.800074e-002
      vertex   4.066000e+000 2.018977e-002 6.899926e-002
      vertex   4.056000e+000 1.383977e-002 5.800074e-002
    endloop
  endfacet
  facet normal -1.595278e-015 -8.660254e-001 5.000000e-001
    outer loop
      vertex   4.056000e+000 1.383977e-002 5.800074e-002
      vertex   4.066000e+000 2.018977e-002 6.899926e-002
      vertex   4.056000e+000 2.018977e-002 6.899926e-002
    endloop
  endfacet
  facet normal -1.000000e+000 0.000000e+000 -0.000000e+000
    outer loop
      vertex   4.056000e+000 2.018977e-002 6.899926e-002
      vertex   4.056000e+000 3.118830e-002 6.264926e-002
      vertex   4.056000e+000 1.383977e-002 5.800074e-002
    endloop
  endfacet
  facet normal -1.000000e+000 0.000000e+000 -0.000000e+000
    outer loop
      vertex   4.056000e+000 1.383977e-002 5.800074e-002
      vertex   4.056000e+000 3.118830e-002 6.264926e-002
      vertex   4.056000e+000 2.483830e-002 5.165074e-002
    endloop
  endfacet
  facet normal 1.000000e+000 -0.000000e+000 -0.000000e+000
    outer loop
      vertex   4.066000e+000 1.383977e-002 5.800074e-002
      vertex   4.066000e+000 2.483830e-002 5.165074e-002
      vertex   4.066000e+000 2.018977e-002 6.899926e-002
    endloop
  endfacet
  facet normal 1.000000e+000 -0.000000e+000 0.000000e+000
    outer loop
      vertex   4.066000e+000 2.018977e-002 6.899926e-002
      vertex   4.066000e+000 2.483830e-002 5.165074e-002
      vertex   4.066000e+000 3.118830e-002 6.264926e-002
    endloop
  endfacet
  facet normal 0.000000e+000 -6.829620e-017 -1.000000e+000
    outer loop
      vertex   4.218000e+000 1.270000e-002 -6.350000e-003
      vertex   4.218000e+000 7.626552e-019 -6.350000e-003
      vertex   4.208000e+000 1.270000e-002 -6.350000e-003
    endloop
  endfacet
  facet normal -0.000000e+000 -6.829620e-017 -1.000000e+000
    outer loop
      vertex   4.208000e+000 1.270000e-002 -6.350000e-003
      vertex   4.218000e+000 7.626552e-019 -6.350000e-003
      vertex   4.208000e+000 7.626552e-019 -6.350000e-003
    endloop
  endfacet
  facet normal 0.000000e+000 1.000000e+000 4.097772e-016
    outer loop
      vertex   4.218000e+000 1.270000e-002 6.350000e-003
      vertex   4.218000e+000 1.270000e-002 -6.350000e-003
      vertex   4.208000e+000 1.270000e-002 6.350000e-003
    endloop
  endfacet
  facet normal 0.000000e+000 1.000000e+000 4.097772e-016
    outer loop
      vertex   4.208000e+000 1.270000e-002 6.350000e-003
      vertex   4.218000e+000 1.270000e-002 -6.350000e-003
      vertex   4.208000e+000 1.270000e-002 -6.350000e-003
    endloop
  endfacet
  facet normal 0.000000e+000 -1.365924e-016 1.000000e+000
    outer loop
      vertex   4.218000e+000 -3.654369e-018 6.350000e-003
      vertex   4.218000e+000 1.270000e-002 6.350000e-003
      vertex   4.208000e+000 -3.654369e-018 6.350000e-003
    endloop
  endfacet
  facet normal -8.673617e-017 -6.829620e-017 1.000000e+000
    outer loop
      vertex   4.208000e+000 -3.654369e-018 6.350000e-003
      vertex   4.218000e+000 1.270000e-002 6.350000e-003
      vertex   4.208000e+000 1.270000e-002 6.350000e-003
    endloop
  endfacet
  facet normal 0.000000e+000 -1.000000e+000 -3.477972e-016
    outer loop
      vertex   4.218000e+000 7.626552e-019 -6.350000e-003
      vertex   4.218000e+000 -3.654369e-018 6.350000e-003
      vertex   4.208000e+000 7.626552e-019 -6.350000e-003
    endloop
  endfacet
  facet normal -0.000000e+000 -1.000000e+000 -3.477972e-016
    outer loop
      vertex   4.208000e+000 7.626552e-019 -6.350000e-003
      vertex   4.218000e+000 -3.654369e-018 6.350000e-003
      vertex   4.208000e+000 -3.654369e-018 6.350000e-003
    endloop
  endfacet
  facet normal -1.000000e+000 0.000000e+000 -0.000000e+000
    outer loop
      vertex   4.208000e+000 -3.654369e-018 6.350000e-003
      vertex   4.208000e+000 1.270000e-002 6.350000e-003
      vertex   4.208000e+000 7.626552e-019 -6.350000e-003
    endloop
  endfacet
  facet normal -1.000000e+000 0.000000e+000 0.000000e+000
    outer loop
      vertex   4.208000e+000 7.626552e-019 -6.350000e-003
      vertex   4.208000e+000 1.270000e-002 6.350000e-003
      vertex   4.208000e+000 1.270000e-002 -6.350000e-003
    endloop
  endfacet
  facet normal 1.000000e+000 -0.000000e+000 -0.000000e+000
    outer loop
      vertex   4.218000e+000 7.626552e-019 -6.350000e-003
      vertex   4.218000e+000 1.270000e-002 -6.350000e-003
      vertex   4.218000e+000 -3.654369e-018 6.350000e-003
    endloop
  endfacet
  facet normal 1.000000e+000 -0.000000e+000 -0.000000e+000
    outer loop
      vertex   4.218000e+000 -3.654369e-018 6.350000e-003
      vertex   4.218000e+000 1.270000e-002 -6.350000e-003
      vertex   4.218000e+000 1.270000e-002 6.350000e-003
    endloop
  endfacet
  facet normal -5.335641e-016 5.000000e-001 -8.660254e-001
    outer loop
      vertex   4.218000e+000 3.118830e-002 -6.264926e-002
      vertex   4.218000e+000 2.018977e-002 -6.899926e-002
      vertex   4.208000e+000 3.118830e-002 -6.264926e-002
    endloop
  endfacet
  facet normal -5.204170e-016 5.000000e-001 -8.660254e-001
    outer loop
      vertex   4.208000e+000 3.118830e-002 -6.264926e-002
      vertex   4.218000e+000 2.018977e-002 -6.899926e-002
      vertex   4.208000e+000 2.018977e-002 -6.899926e-002
    endloop
  endfacet
  facet normal -5.335641e-016 8.660254e-001 5.000000e-001
    outer loop
      vertex   4.218000e+000 2.483830e-002 -5.165074e-002
      vertex   4.218000e+000 3.118830e-002 -6.264926e-002
      vertex   4.208000e+000 2.483830e-002 -5.165074e-002
    endloop
  endfacet
  facet normal -9.013888e-016 8.660254e-001 5.000000e-001
    outer loop
      vertex   4.208000e+000 2.483830e-002 -5.165074e-002
      vertex   4.218000e+000 3.118830e-002 -6.264926e-002
      vertex   4.208000e+000 3.118830e-002 -6.264926e-002
    endloop
  endfacet
  facet normal 1.707405e-015 -5.000000e-001 8.660254e-001
    outer loop
      vertex   4.218000e+000 1.383977e-002 -5.800074e-002
      vertex   4.218000e+000 2.483830e-002 -5.165074e-002
      vertex   4.208000e+000 1.383977e-002 -5.800074e-002
    endloop
  endfacet
  facet normal 3.469447e-016 -5.000000e-001 8.660254e-001
    outer loop
      vertex   4.208000e+000 1.383977e-002 -5.800074e-002
      vertex   4.218000e+000 2.483830e-002 -5.165074e-002
      vertex   4.208000e+000 2.483830e-002 -5.165074e-002
    endloop
  endfacet
  facet normal 8.537025e-016 -8.660254e-001 -5.000000e-001
    outer loop
      vertex   4.218000e+000 2.018977e-002 -6.899926e-002
      vertex   4.218000e+000 1.383977e-002 -5.800074e-002
      vertex   4.208000e+000 2.018977e-002 -6.899926e-002
    endloop
  endfacet
  facet normal 2.074994e-016 -8.660254e-001 -5.000000e-001
    outer loop
      vertex   4.208000e+000 2.018977e-002 -6.899926e-002
      vertex   4.218000e+000 1.383977e-002 -5.800074e-002
      vertex   4.208000e+000 1.383977e-002 -5.800074e-002
    endloop
  endfacet
  facet normal -1.000000e+000 0.000000e+000 -0.000000e+000
    outer loop
      vertex   4.208000e+000 1.383977e-002 -5.800074e-002
      vertex   4.208000e+000 2.483830e-002 -5.165074e-002
      vertex   4.208000e+000 2.018977e-002 -6.899926e-002
    endloop
  endfacet
  facet normal -1.000000e+000 0.000000e+000 0.000000e+000
    outer loop
      vertex   4.208000e+000 2.018977e-002 -6.899926e-002
      vertex   4.208000e+000 2.483830e-002 -5.165074e-002
      vertex   4.208000e+000 3.118830e-002 -6.264926e-002
    endloop
  endfacet
  facet normal 1.000000e+000 0.000000e+000 -0.000000e+000
    outer loop
      vertex   4.218000e+000 2.018977e-002 -6.899926e-002
      vertex   4.218000e+000 3.118830e-002 -6.264926e-002
      vertex   4.218000e+000 1.383977e-002 -5.800074e-002
    endloop
  endfacet
  facet normal 1.000000e+000 -0.000000e+000 -0.000000e+000
    outer loop
      vertex   4.218000e+000 1.383977e-002 -5.800074e-002
      vertex   4.218000e+000 3.118830e-002 -6.264926e-002
      vertex   4.218000e+000 2.483830e-002 -5.165074e-002
    endloop
  endfacet
  facet normal -4.268512e-016 -5.000000e-001 -8.660254e-001
    outer loop
      vertex   4.218000e+000 2.483830e-002 5.165074e-002
      vertex   4.218000e+000 1.383977e-002 5.800074e-002
      vertex   4.208000e+000 2.483830e-002 5.165074e-002
    endloop
  endfacet
  facet normal 3.407173e-016 -5.000000e-001 -8.660254e-001
    outer loop
      vertex   4.208000e+000 2.483830e-002 5.165074e-002
      vertex   4.218000e+000 1.383977e-002 5.800074e-002
      vertex   4.208000e+000 1.383977e-002 5.800074e-002
    endloop
  endfacet
  facet normal 9.604153e-016 8.660254e-001 -5.000000e-001
    outer loop
      vertex   4.218000e+000 3.118830e-002 6.264926e-002
      vertex   4.218000e+000 2.483830e-002 5.165074e-002
      vertex   4.208000e+000 3.118830e-002 6.264926e-002
    endloop
  endfacet
  facet normal 6.009258e-016 8.660254e-001 -5.000000e-001
    outer loop
      vertex   4.208000e+000 3.118830e-002 6.264926e-002
      vertex   4.218000e+000 2.483830e-002 5.165074e-002
      vertex   4.208000e+000 2.483830e-002 5.165074e-002
    endloop
  endfacet
  facet normal -6.402769e-016 5.000000e-001 8.660254e-001
    outer loop
      vertex   4.218000e+000 2.018977e-002 6.899926e-002
      vertex   4.218000e+000 3.118830e-002 6.264926e-002
      vertex   4.208000e+000 2.018977e-002 6.899926e-002
    endloop
  endfacet
  facet normal -1.028379e-015 5.000000e-001 8.660254e-001
    outer loop
      vertex   4.208000e+000 2.018977e-002 6.899926e-002
      vertex   4.218000e+000 3.118830e-002 6.264926e-002
      vertex   4.208000e+000 3.118830e-002 6.264926e-002
    endloop
  endfacet
  facet normal -7.469897e-016 -8.660254e-001 5.000000e-001
    outer loop
      vertex   4.218000e+000 1.383977e-002 5.800074e-002
      vertex   4.218000e+000 2.018977e-002 6.899926e-002
      vertex   4.208000e+000 1.383977e-002 5.800074e-002
    endloop
  endfacet
  facet normal -1.595278e-015 -8.660254e-001 5.000000e-001
    outer loop
      vertex   4.208000e+000 1.383977e-002 5.800074e-002
      vertex   4.218000e+000 2.018977e-002 6.899926e-002
      vertex   4.208000e+000 2.018977e-002 6.899926e-002
    endloop
  endfacet
  facet normal -1.000000e+000 0.000000e+000 -0.000000e+000
    outer loop
      vertex   4.208000e+000 2.018977e-002 6.899926e-002
      vertex   4.208000e+000 3.118830e-002 6.264926e-002
      vertex   4.208000e+000 1.383977e-002 5.800074e-002
    endloop
  endfacet
  facet normal -1.000000e+000 0.000000e+000 -0.000000e+000
    outer loop
      vertex   4.208000e+000 1.383977e-002 5.800074e-002
      vertex   4.208000e+000 3.118830e-002 6.264926e-002
      vertex   4.208000e+000 2.483830e-002 5.165074e-002
    endloop
  endfacet
  facet normal 1.000000e+000 -0.000000e+000 -0.000000e+000
    outer loop
      vertex   4.218000e+000 1.383977e-002 5.800074e-002
      vertex   4.218000e+000 2.483830e-002 5.165074e-002
      vertex   4.218000e+000 2.018977e-002 6.899926e-002
    endloop
  endfacet
  facet normal 1.000000e+000 -0.000000e+000 0.000000e+000
    outer loop
      vertex   4.218000e+000 2.018977e-002 6.899926e-002
      vertex   4.218000e+000 2.483830e-002 5.165074e-002
      vertex   4.218000e+000 3.118830e-002 6.264926e-002
    endloop
  endfacet
  facet normal 0.000000e+000 -6.829620e-017 -1.000000e+000
    outer loop
      vertex   4.370000e+000 1.270000e-002 -6.350000e-003
      vertex   4.370000e+000 7.626552e-019 -6.350000e-003
      vertex   4.360000e+000 1.270000e-002 -6.350000e-003
    endloop
  endfacet
  facet normal -0.000000e+000 -6.829620e-017 -1.000000e+000
    outer loop
      vertex   4.360000e+000 1.270000e-002 -6.350000e-003
      vertex   4.370000e+000 7.626552e-019 -6.350000e-003
      vertex   4.360000e+000 7.626552e-019 -6.350000e-003
    endloop
  endfacet
  facet normal 0.000000e+000 1.000000e+000 4.097772e-016
    outer loop
      vertex   4.370000e+000 1.270000e-002 6.350000e-003
      vertex   4.370000e+000 1.270000e-002 -6.350000e-003
      vertex   4.360000e+000 1.270000e-002 6.350000e-003
    endloop
  endfacet
  facet normal 0.000000e+000 1.000000e+000 4.097772e-016
    outer loop
      vertex   4.360000e+000 1.270000e-002 6.350000e-003
      vertex   4.370000e+000 1.270000e-002 -6.350000e-003
      vertex   4.360000e+000 1.270000e-002 -6.350000e-003
    endloop
  endfacet
  facet normal 0.000000e+000 -1.365924e-016 1.000000e+000
    outer loop
      vertex   4.370000e+000 -3.654369e-018 6.350000e-003
      vertex   4.370000e+000 1.270000e-002 6.350000e-003
      vertex   4.360000e+000 -3.654369e-018 6.350000e-003
    endloop
  endfacet
  facet normal -8.673617e-017 -6.829620e-017 1.000000e+000
    outer loop
      vertex   4.360000e+000 -3.654369e-018 6.350000e-003
      vertex   4.370000e+000 1.270000e-002 6.350000e-003
      vertex   4.360000e+000 1.270000e-002 6.350000e-003
    endloop
  endfacet
  facet normal 0.000000e+000 -1.000000e+000 -3.477972e-016
    outer loop
      vertex   4.370000e+000 7.626552e-019 -6.350000e-003
      vertex   4.370000e+000 -3.654369e-018 6.350000e-003
      vertex   4.360000e+000 7.626552e-019 -6.350000e-003
    endloop
  endfacet
  facet normal -0.000000e+000 -1.000000e+000 -3.477972e-016
    outer loop
      vertex   4.360000e+000 7.626552e-019 -6.350000e-003
      vertex   4.370000e+000 -3.654369e-018 6.350000e-003
      vertex   4.360000e+000 -3.654369e-018 6.350000e-003
    endloop
  endfacet
  facet normal -1.000000e+000 0.000000e+000 -0.000000e+000
    outer loop
      vertex   4.360000e+000 -3.654369e-018 6.350000e-003
      vertex   4.360000e+000 1.270000e-002 6.350000e-003
      vertex   4.360000e+000 7.626552e-019 -6.350000e-003
    endloop
  endfacet
  facet normal -1.000000e+000 0.000000e+000 0.000000e+000
    outer loop
      vertex   4.360000e+000 7.626552e-019 -6.350000e-003
      vertex   4.360000e+000 1.270000e-002 6.350000e-003
      vertex   4.360000e+000 1.270000e-002 -6.350000e-003
    endloop
  endfacet
  facet normal 1.000000e+000 -0.000000e+000 -0.000000e+000
    outer loop
      vertex   4.370000e+000 7.626552e-019 -6.350000e-003
      vertex   4.370000e+000 1.270000e-002 -6.350000e-003
      vertex   4.370000e+000 -3.654369e-018 6.350000e-003
    endloop
  endfacet
  facet normal 1.000000e+000 -0.000000e+000 -0.000000e+000
    outer loop
      vertex   4.370000e+000 -3.654369e-018 6.350000e-003
      vertex   4.370000e+000 1.270000e-002 -6.350000e-003
      vertex   4.370000e+000 1.270000e-002 6.350000e-003
    endloop
  endfacet
  facet normal -5.335641e-016 5.000000e-001 -8.660254e-001
    outer loop
      vertex   4.370000e+000 3.118830e-002 -6.264926e-002
      vertex   4.370000e+000 2.018977e-002 -6.899926e-002
      vertex   4.360000e+000 3.118830e-002 -6.264926e-002
    endloop
  endfacet
  facet normal -5.204170e-016 5.000000e-001 -8.660254e-001
    outer loop
      vertex   4.360000e+000 3.118830e-002 -6.264926e-002
      vertex   4.370000e+000 2.018977e-002 -6.899926e-002
      vertex   4.360000e+000 2.018977e-002 -6.899926e-002
    endloop
  endfacet
  facet normal -5.335641e-016 8.660254e-001 5.000000e-001
    outer loop
      vertex   4.370000e+000 2.483830e-002 -5.165074e-002
      vertex   4.370000e+000 3.118830e-002 -6.264926e-002
      vertex   4.360000e+000 2.483830e-002 -5.165074e-002
    endloop
  endfacet
  facet normal -9.013888e-016 8.660254e-001 5.000000e-001
    outer loop
      vertex   4.360000e+000 2.483830e-002 -5.165074e-002
      vertex   4.370000e+000 3.118830e-002 -6.264926e-002
      vertex   4.360000e+000 3.118830e-002 -6.264926e-002
    endloop
  endfacet
  facet normal 1.707405e-015 -5.000000e-001 8.660254e-001
    outer loop
      vertex   4.370000e+000 1.383977e-002 -5.800074e-002
      vertex   4.370000e+000 2.483830e-002 -5.165074e-002
      vertex   4.360000e+000 1.383977e-002 -5.800074e-002
    endloop
  endfacet
  facet normal 3.469447e-016 -5.000000e-001 8.660254e-001
    outer loop
      vertex   4.360000e+000 1.383977e-002 -5.800074e-002
      vertex   4.370000e+000 2.483830e-002 -5.165074e-002
      vertex   4.360000e+000 2.483830e-002 -5.165074e-002
    endloop
  endfacet
  facet normal 8.537025e-016 -8.660254e-001 -5.000000e-001
    outer loop
      vertex   4.370000e+000 2.018977e-002 -6.899926e-002
      vertex   4.370000e+000 1.383977e-002 -5.800074e-002
      vertex   4.360000e+000 2.018977e-002 -6.899926e-002
    endloop
  endfacet
  facet normal 2.074994e-016 -8.660254e-001 -5.000000e-001
    outer loop
      vertex   4.360000e+000 2.018977e-002 -6.899926e-002
      vertex   4.370000e+000 1.383977e-002 -5.800074e-002
      vertex   4.360000e+000 1.383977e-002 -5.800074e-002
    endloop
  endfacet
  facet normal -1.000000e+000 0.000000e+000 -0.000000e+000
    outer loop
      vertex   4.360000e+000 1.383977e-002 -5.800074e-002
      vertex   4.360000e+000 2.483830e-002 -5.165074e-002
      vertex   4.360000e+000 2.018977e-002 -6.899926e-002
    endloop
  endfacet
  facet normal -1.000000e+000 0.000000e+000 0.000000e+000
    outer loop
      vertex   4.360000e+000 2.018977e-002 -6.899926e-002
      vertex   4.360000e+000 2.483830e-002 -5.165074e-002
      vertex   4.360000e+000 3.118830e-002 -6.264926e-002
    endloop
  endfacet
  facet normal 1.000000e+000 0.000000e+000 -0.000000e+000
    outer loop
      vertex   4.370000e+000 2.018977e-002 -6.899926e-002
      vertex   4.370000e+000 3.118830e-002 -6.264926e-002
      vertex   4.370000e+000 1.383977e-002 -5.800074e-002
    endloop
  endfacet
  facet normal 1.000000e+000 -0.000000e+000 -0.000000e+000
    outer loop
      vertex   4.370000e+000 1.383977e-002 -5.800074e-002
      vertex   4.370000e+000 3.118830e-002 -6.264926e-002
      vertex   4.370000e+000 2.483830e-002 -5.165074e-002
    endloop
  endfacet
  facet normal -4.268512e-016 -5.000000e-001 -8.660254e-001
    outer loop
      vertex   4.370000e+000 2.483830e-002 5.165074e-002
      vertex   4.370000e+000 1.383977e-002 5.800074e-002
      vertex   4.360000e+000 2.483830e-002 5.165074e-002
    endloop
  endfacet
  facet normal 3.407173e-016 -5.000000e-001 -8.660254e-001
    outer loop
      vertex   4.360000e+000 2.483830e-002 5.165074e-002
      vertex   4.370000e+000 1.383977e-002 5.800074e-002
      vertex   4.360000e+000 1.383977e-002 5.800074e-002
    endloop
  endfacet
  facet normal 9.604153e-016 8.660254e-001 -5.000000e-001
    outer loop
      vertex   4.370000e+000 3.118830e-002 6.264926e-002
      vertex   4.370000e+000 2.483830e-002 5.165074e-002
      vertex   4.360000e+000 3.118830e-002 6.264926e-002
    endloop
  endfacet
  facet normal 6.009258e-016 8.660254e-001 -5.000000e-001
    outer loop
      vertex   4.360000e+000 3.118830e-002 6.264926e-002
      vertex   4.370000e+000 2.483830e-002 5.165074e-002
      vertex   4.360000e+000 2.483830e-002 5.165074e-002
    endloop
  endfacet
  facet normal -6.402769e-016 5.000000e-001 8.660254e-001
    outer loop
      vertex   4.370000e+000 2.018977e-002 6.899926e-002
      vertex   4.370000e+000 3.118830e-002 6.264926e-002
      vertex   4.360000e+000 2.018977e-002 6.899926e-002
    endloop
  endfacet
  facet normal -1.028379e-015 5.000000e-001 8.660254e-001
    outer loop
      vertex   4.360000e+000 2.018977e-002 6.899926e-002
      vertex   4.370000e+000 3.118830e-002 6.264926e-002
      vertex   4.360000e+000 3.118830e-002 6.264926e-002
    endloop
  endfacet
  facet normal -7.469897e-016 -8.660254e-001 5.000000e-001
    outer loop
      vertex   4.370000e+000 1.383977e-002 5.800074e-002
      vertex   4.370000e+000 2.018977e-002 6.899926e-002
      vertex   4.360000e+000 1.383977e-002 5.800074e-002
    endloop
  endfacet
  facet normal -1.595278e-015 -8.660254e-001 5.000000e-001
    outer loop
      vertex   4.360000e+000 1.383977e-002 5.800074e-002
      vertex   4.370000e+000 2.018977e-002 6.899926e-002
      vertex   4.360000e+000 2.018977e-002 6.899926e-002
    endloop
  endfacet
  facet normal -1.000000e+000 0.000000e+000 -0.000000e+000
    outer loop
      vertex   4.360000e+000 2.018977e-002 6.899926e-002
      vertex   4.360000e+000 3.118830e-002 6.264926e-002
      vertex   4.360000e+000 1.383977e-002 5.800074e-002
    endloop
  endfacet
  facet normal -1.000000e+000 0.000000e+000 -0.000000e+000
    outer loop
      vertex   4.360000e+000 1.383977e-002 5.800074e-002
      vertex   4.360000e+000 3.118830e-002 6.264926e-002
      vertex   4.360000e+000 2.483830e-002 5.165074e-002
    endloop
  endfacet
  facet normal 1.000000e+000 -0.000000e+000 -0.000000e+000
    outer loop
      vertex   4.370000e+000 1.383977e-002 5.800074e-002
      vertex   4.370000e+000 2.483830e-002 5.165074e-002
      vertex   4.370000e+000 2.018977e-002 6.899926e-002
    endloop
  endfacet
  facet normal 1.000000e+000 -0.000000e+000 0.000000e+000
    outer loop
      vertex   4.370000e+000 2.018977e-002 6.899926e-002
      vertex   4.370000e+000 2.483830e-002 5.165074e-002
      vertex   4.370000e+000 3.118830e-002 6.264926e-002
    endloop
  endfacet
  facet normal 0.000000e+000 -6.829620e-017 -1.000000e+000
    outer loop
      vertex   4.522000e+000 1.270000e-002 -6.350000e-003
      vertex   4.522000e+000 7.626552e-019 -6.350000e-003
      vertex   4.512000e+000 1.270000e-002 -6.350000e-003
    endloop
  endfacet
  facet normal -0.000000e+000 -6.829620e-017 -1.000000e+000
    outer loop
      vertex   4.512000e+000 1.270000e-002 -6.350000e-003
      vertex   4.522000e+000 7.626552e-019 -6.350000e-003
      vertex   4.512000e+000 7.626552e-019 -6.350000e-003
    endloop
  endfacet
  facet normal 0.000000e+000 1.000000e+000 4.097772e-016
    outer loop
      vertex   4.522000e+000 1.270000e-002 6.350000e-003
      vertex   4.522000e+000 1.270000e-002 -6.350000e-003
      vertex   4.512000e+000 1.270000e-002 6.350000e-003
    endloop
  endfacet
  facet normal 0.000000e+000 1.000000e+000 4.097772e-016
    outer loop
      vertex   4.512000e+000 1.270000e-002 6.350000e-003
      vertex   4.522000e+000 1.270000e-002 -6.350000e-003
      vertex   4.512000e+000 1.270000e-002 -6.350000e-003
    endloop
  endfacet
  facet normal 0.000000e+000 -1.365924e-016 1.000000e+000
    outer loop
      vertex   4.522000e+000 -3.654369e-018 6.350000e-003
      vertex   4.522000e+000 1.270000e-002 6.350000e-003
      vertex   4.512000e+000 -3.654369e-018 6.350000e-003
    endloop
  endfacet
  facet normal -8.673617e-017 -6.829620e-017 1.000000e+000
    outer loop
      vertex   4.512000e+000 -3.654369e-018 6.350000e-003
      vertex   4.522000e+000 1.270000e-002 6.350000e-003
      vertex   4.512000e+000 1.270000e-002 6.350000e-003
    endloop
  endfacet
  facet normal 0.000000e+000 -1.000000e+000 -3.477972e-016
    outer loop
      vertex   4.522000e+000 7.626552e-019 -6.350000e-003
      vertex   4.522000e+000 -3.654369e-018 6.350000e-003
      vertex   4.512000e+000 7.626552e-019 -6.350000e-003
    endloop
  endfacet
  facet normal -0.000000e+000 -1.000000e+000 -3.477972e-016
    outer loop
      vertex   4.512000e+000 7.626552e-019 -6.350000e-003
      vertex   4.522000e+000 -3.654369e-018 6.350000e-003
      vertex   4.512000e+000 -3.654369e-018 6.350000e-003
    endloop
  endfacet
  facet normal -1.000000e+000 0.000000e+000 -0.000000e+000
    outer loop
      vertex   4.512000e+000 -3.654369e-018 6.350000e-003
      vertex   4.512000e+000 1.270000e-002 6.350000e-003
      vertex   4.512000e+000 7.626552e-019 -6.350000e-003
    endloop
  endfacet
  facet normal -1.000000e+000 0.000000e+000 0.000000e+000
    outer loop
      vertex   4.512000e+000 7.626552e-019 -6.350000e-003
      vertex   4.512000e+000 1.270000e-002 6.350000e-003
      vertex   4.512000e+000 1.270000e-002 -6.350000e-003
    endloop
  endfacet
  facet normal 1.000000e+000 -0.000000e+000 -0.000000e+000
    outer loop
      vertex   4.522000e+000 7.626552e-019 -6.350000e-003
      vertex   4.522000e+000 1.270000e-002 -6.350000e-003
      vertex   4.522000e+000 -3.654369e-018 6.350000e-003
    endloop
  endfacet
  facet normal 1.000000e+000 -0.000000e+000 -0.000000e+000
    outer loop
      vertex   4.522000e+000 -3.654369e-018 6.350000e-003
      vertex   4.522000e+000 1.270000e-002 -6.350000e-003
      vertex   4.522000e+000 1.270000e-002 6.350000e-003
    endloop
  endfacet
  facet normal -5.335641e-016 5.000000e-001 -8.660254e-001
    outer loop
      vertex   4.522000e+000 3.118830e-002 -6.264926e-002
      vertex   4.522000e+000 2.018977e-002 -6.899926e-002
      vertex   4.512000e+000 3.118830e-002 -6.264926e-002
    endloop
  endfacet
  facet normal -5.204170e-016 5.000000e-001 -8.660254e-001
    outer loop
      vertex   4.512000e+000 3.118830e-002 -6.264926e-002
      vertex   4.522000e+000 2.018977e-002 -6.899926e-002
      vertex   4.512000e+000 2.018977e-002 -6.899926e-002
    endloop
  endfacet
  facet normal -5.335641e-016 8.660254e-001 5.000000e-001
    outer loop
      vertex   4.522000e+000 2.483830e-002 -5.165074e-002
      vertex   4.522000e+000 3.118830e-002 -6.264926e-002
      vertex   4.512000e+000 2.483830e-002 -5.165074e-002
    endloop
  endfacet
  facet normal -9.013888e-016 8.660254e-001 5.000000e-001
    outer loop
      vertex   4.512000e+000 2.483830e-002 -5.165074e-002
      vertex   4.522000e+000 3.118830e-002 -6.264926e-002
      vertex   4.512000e+000 3.118830e-002 -6.264926e-002
    endloop
  endfacet
  facet normal 1.707405e-015 -5.000000e-001 8.660254e-001
    outer loop
      vertex   4.522000e+000 1.383977e-002 -5.800074e-002
      vertex   4.522000e+000 2.483830e-002 -5.165074e-002
      vertex   4.512000e+000 1.383977e-002 -5.800074e-002
    endloop
  endfacet
  facet normal 3.469447e-016 -5.000000e-001 8.660254e-001
    outer loop
      vertex   4.512000e+000 1.383977e-002 -5.800074e-002
      vertex   4.522000e+000 2.483830e-002 -5.165074e-002
      vertex   4.512000e+000 2.483830e-002 -5.165074e-002
    endloop
  endfacet
  facet normal 8.537025e-016 -8.660254e-001 -5.000000e-001
    outer loop
      vertex   4.522000e+000 2.018977e-002 -6.899926e-002
      vertex   4.522000e+000 1.383977e-002 -5.800074e-002
      vertex   4.512000e+000 2.018977e-002 -6.899926e-002
    endloop
  endfacet
  facet normal 2.074994e-016 -8.660254e-001 -5.000000e-001
    outer loop
      vertex   4.512000e+000 2.018977e-002 -6.899926e-002
      vertex   4.522000e+000 1.383977e-002 -5.800074e-002
      vertex   4.512000e+000 1.383977e-002 -5.800074e-002
    endloop
  endfacet
  facet normal -1.000000e+000 0.000000e+000 -0.000000e+000
    outer loop
      vertex   4.512000e+000 1.383977e-002 -5.800074e-002
      vertex   4.512000e+000 2.483830e-002 -5.165074e-002
      vertex   4.512000e+000 2.018977e-002 -6.899926e-002
    endloop
  endfacet
  facet normal -1.000000e+000 0.000000e+000 0.000000e+000
    outer loop
      vertex   4.512000e+000 2.018977e-002 -6.899926e-002
      vertex   4.512000e+000 2.483830e-002 -5.165074e-002
      vertex   4.512000e+000 3.118830e-002 -6.264926e-002
    endloop
  endfacet
  facet normal 1.000000e+000 0.000000e+000 -0.000000e+000
    outer loop
      vertex   4.522000e+000 2.018977e-002 -6.899926e-002
      vertex   4.522000e+000 3.118830e-002 -6.264926e-002
      vertex   4.522000e+000 1.383977e-002 -5.800074e-002
    endloop
  endfacet
  facet normal 1.000000e+000 -0.000000e+000 -0.000000e+000
    outer loop
      vertex   4.522000e+000 1.383977e-002 -5.800074e-002
      vertex   4.522000e+000 3.118830e-002 -6.264926e-002
      vertex   4.522000e+000 2.483830e-002 -5.165074e-002
    endloop
  endfacet
  facet normal -4.268512e-016 -5.000000e-001 -8.660254e-001
    outer loop
      vertex   4.522000e+000 2.483830e-002 5.165074e-002
      vertex   4.522000e+000 1.383977e-002 5.800074e-002
      vertex   4.512000e+000 2.483830e-002 5.165074e-002
    endloop
  endfacet
  facet normal 3.407173e-016 -5.000000e-001 -8.660254e-001
    outer loop
      vertex   4.512000e+000 2.483830e-002 5.165074e-002
      vertex   4.522000e+000 1.383977e-002 5.800074e-002
      vertex   4.512000e+000 1.383977e-002 5.800074e-002
    endloop
  endfacet
  facet normal 9.604153e-016 8.660254e-001 -5.000000e-001
    outer loop
      vertex   4.522000e+000 3.118830e-002 6.264926e-002
      vertex   4.522000e+000 2.483830e-002 5.165074e-002
      vertex   4.512000e+000 3.118830e-002 6.264926e-002
    endloop
  endfacet
  facet normal 6.009258e-016 8.660254e-001 -5.000000e-001
    outer loop
      vertex   4.512000e+000 3.118830e-002 6.264926e-002
      vertex   4.522000e+000 2.483830e-002 5.165074e-002
      vertex   4.512000e+000 2.483830e-002 5.165074e-002
    endloop
  endfacet
  facet normal -6.402769e-016 5.000000e-001 8.660254e-001
    outer loop
      vertex   4.522000e+000 2.018977e-002 6.899926e-002
      vertex   4.522000e+000 3.118830e-002 6.264926e-002
      vertex   4.512000e+000 2.018977e-002 6.899926e-002
    endloop
  endfacet
  facet normal -1.028379e-015 5.000000e-001 8.660254e-001
    outer loop
      vertex   4.512000e+000 2.018977e-002 6.899926e-002
      vertex   4.522000e+000 3.118830e-002 6.264926e-002
      vertex   4.512000e+000 3.118830e-002 6.264926e-002
    endloop
  endfacet
  facet normal -7.469897e-016 -8.660254e-001 5.000000e-001
    outer loop
      vertex   4.522000e+000 1.383977e-002 5.800074e-002
      vertex   4.522000e+000 2.018977e-002 6.899926e-002
      vertex   4.512000e+000 1.383977e-002 5.800074e-002
    endloop
  endfacet
  facet normal -1.595278e-015 -8.660254e-001 5.000000e-001
    outer loop
      vertex   4.512000e+000 1.383977e-002 5.800074e-002
      vertex   4.522000e+000 2.018977e-002 6.899926e-002
      vertex   4.512000e+000 2.018977e-002 6.899926e-002
    endloop
  endfacet
  facet normal -1.000000e+000 0.000000e+000 -0.000000e+000
    outer loop
      vertex   4.512000e+000 2.018977e-002 6.899926e-002
      vertex   4.512000e+000 3.118830e-002 6.264926e-002
      vertex   4.512000e+000 1.383977e-002 5.800074e-002
    endloop
  endfacet
  facet normal -1.000000e+000 0.000000e+000 -0.000000e+000
    outer loop
      vertex   4.512000e+000 1.383977e-002 5.800074e-002
      vertex   4.512000e+000 3.118830e-002 6.264926e-002
      vertex   4.512000e+000 2.483830e-002 5.165074e-002
    endloop
  endfacet
  facet normal 1.000000e+000 -0.000000e+000 -0.000000e+000
    outer loop
      vertex   4.522000e+000 1.383977e-002 5.800074e-002
      vertex   4.522000e+000 2.483830e-002 5.165074e-002
      vertex   4.522000e+000 2.018977e-002 6.899926e-002
    endloop
  endfacet
  facet normal 1.000000e+000 -0.000000e+000 0.000000e+000
    outer loop
      vertex   4.522000e+000 2.018977e-002 6.899926e-002
      vertex   4.522000e+000 2.483830e-002 5.165074e-002
      vertex   4.522000e+000 3.118830e-002 6.264926e-002
    endloop
  endfacet
  facet normal 0.000000e+000 -6.829620e-017 -1.000000e+000
    outer loop
      vertex   4.674000e+000 1.270000e-002 -6.350000e-003
      vertex   4.674000e+000 7.626552e-019 -6.350000e-003
      vertex   4.664000e+000 1.270000e-002 -6.350000e-003
    endloop
  endfacet
  facet normal -0.000000e+000 -6.829620e-017 -1.000000e+000
    outer loop
      vertex   4.664000e+000 1.270000e-002 -6.350000e-003
      vertex   4.674000e+000 7.626552e-019 -6.350000e-003
      vertex   4.664000e+000 7.626552e-019 -6.350000e-003
    endloop
  endfacet
  facet normal 0.000000e+000 1.000000e+000 4.097772e-016
    outer loop
      vertex   4.674000e+000 1.270000e-002 6.350000e-003
      vertex   4.674000e+000 1.270000e-002 -6.350000e-003
      vertex   4.664000e+000 1.270000e-002 6.350000e-003
    endloop
  endfacet
  facet normal 0.000000e+000 1.000000e+000 4.097772e-016
    outer loop
      vertex   4.664000e+000 1.270000e-002 6.350000e-003
      vertex   4.674000e+000 1.270000e-002 -6.350000e-003
      vertex   4.664000e+000 1.270000e-002 -6.350000e-003
    endloop
  endfacet
  facet normal 0.000000e+000 -1.365924e-016 1.000000e+000
    outer loop
      vertex   4.674000e+000 -3.654369e-018 6.350000e-003
      vertex   4.674000e+000 1.270000e-002 6.350000e-003
      vertex   4.664000e+000 -3.654369e-018 6.350000e-003
    endloop
  endfacet
  facet normal -8.673617e-017 -6.829620e-017 1.000000e+000
    outer loop
      vertex   4.664000e+000 -3.654369e-018 6.350000e-003
      vertex   4.674000e+000 1.270000e-002 6.350000e-003
      vertex   4.664000e+000 1.270000e-002 6.350000e-003
    endloop
  endfacet
  facet normal 0.000000e+000 -1.000000e+000 -3.477972e-016
    outer loop
      vertex   4.674000e+000 7.626552e-019 -6.350000e-003
      vertex   4.674000e+000 -3.654369e-018 6.350000e-003
      vertex   4.664000e+000 7.626552e-019 -6.350000e-003
    endloop
  endfacet
  facet normal -0.000000e+000 -1.000000e+000 -3.477972e-016
    outer loop
      vertex   4.664000e+000 7.626552e-019 -6.350000e-003
      vertex   4.674000e+000 -3.654369e-018 6.350000e-003
      vertex   4.664000e+000 -3.654369e-018 6.350000e-003
    endloop
  endfacet
  facet normal -1.000000e+000 0.000000e+000 -0.000000e+000
    outer loop
      vertex   4.664000e+000 -3.654369e-018 6.350000e-003
      vertex   4.664000e+000 1.270000e-002 6.350000e-003
      vertex   4.664000e+000 7.626552e-019 -6.350000e-003
    endloop
  endfacet
  facet normal -1.000000e+000 0.000000e+000 0.000000e+000
    outer loop
      vertex   4.664000e+000 7.626552e-019 -6.350000e-003
      vertex   4.664000e+000 1.270000e-002 6.350000e-003
      vertex   4.664000e+000 1.270000e-002 -6.350000e-003
    endloop
  endfacet
  facet normal 1.000000e+000 -0.000000e+000 -0.000000e+000
    outer loop
      vertex   4.674000e+000 7.626552e-019 -6.350000e-003
      vertex   4.674000e+000 1.270000e-002 -6.350000e-003
      vertex   4.674000e+000 -3.654369e-018 6.350000e-003
    endloop
  endfacet
  facet normal 1.000000e+000 -0.000000e+000 -0.000000e+000
    outer loop
      vertex   4.674000e+000 -3.654369e-018 6.350000e-003
      vertex   4.674000e+000 1.270000e-002 -6.350000e-003
      vertex   4.674000e+000 1.270000e-002 6.350000e-003
    endloop
  endfacet
  facet normal -5.335641e-016 5.000000e-001 -8.660254e-001
    outer loop
      vertex   4.674000e+000 3.118830e-002 -6.264926e-002
      vertex   4.674000e+000 2.018977e-002 -6.899926e-002
      vertex   4.664000e+000 3.118830e-002 -6.264926e-002
    endloop
  endfacet
  facet normal -5.204170e-016 5.000000e-001 -8.660254e-001
    outer loop
      vertex   4.664000e+000 3.118830e-002 -6.264926e-002
      vertex   4.674000e+000 2.018977e-002 -6.899926e-002
      vertex   4.664000e+000 2.018977e-002 -6.899926e-002
    endloop
  endfacet
  facet normal -5.335641e-016 8.660254e-001 5.000000e-001
    outer loop
      vertex   4.674000e+000 2.483830e-002 -5.165074e-002
      vertex   4.674000e+000 3.118830e-002 -6.264926e-002
      vertex   4.664000e+000 2.483830e-002 -5.165074e-002
    endloop
  endfacet
  facet normal -9.013888e-016 8.660254e-001 5.000000e-001
    outer loop
      vertex   4.664000e+000 2.483830e-002 -5.165074e-002
      vertex   4.674000e+000 3.118830e-002 -6.264926e-002
      vertex   4.664000e+000 3.118830e-002 -6.264926e-002
    endloop
  endfacet
  facet normal 1.707405e-015 -5.000000e-001 8.660254e-001
    outer loop
      vertex   4.674000e+000 1.383977e-002 -5.800074e-002
      vertex   4.674000e+000 2.483830e-002 -5.165074e-002
      vertex   4.664000e+000 1.383977e-002 -5.800074e-002
    endloop
  endfacet
  facet normal 3.469447e-016 -5.000000e-001 8.660254e-001
    outer loop
      vertex   4.664000e+000 1.383977e-002 -5.800074e-002
      vertex   4.674000e+000 2.483830e-002 -5.165074e-002
      vertex   4.664000e+000 2.483830e-002 -5.165074e-002
    endloop
  endfacet
  facet normal 8.537025e-016 -8.660254e-001 -5.000000e-001
    outer loop
      vertex   4.674000e+000 2.018977e-002 -6.899926e-002
      vertex   4.674000e+000 1.383977e-002 -5.800074e-002
      vertex   4.664000e+000 2.018977e-002 -6.899926e-002
    endloop
  endfacet
  facet normal 2.074994e-016 -8.660254e-001 -5.000000e-001
    outer loop
      vertex   4.664000e+000 2.018977e-002 -6.899926e-002
      vertex   4.674000e+000 1.383977e-002 -5.800074e-002
      vertex   4.664000e+000 1.383977e-002 -5.800074e-002
    endloop
  endfacet
  facet normal -1.000000e+000 0.000000e+000 -0.000000e+000
    outer loop
      vertex   4.664000e+000 1.383977e-002 -5.800074e-002
      vertex   4.664000e+000 2.483830e-002 -5.165074e-002
      vertex   4.664000e+000 2.018977e-002 -6.899926e-002
    endloop
  endfacet
  facet normal -1.000000e+000 0.000000e+000 0.000000e+000
    outer loop
      vertex   4.664000e+000 2.018977e-002 -6.899926e-002
      vertex   4.664000e+000 2.483830e-002 -5.165074e-002
      vertex   4.664000e+000 3.118830e-002 -6.264926e-002
    endloop
  endfacet
  facet normal 1.000000e+000 0.000000e+000 -0.000000e+000
    outer loop
      vertex   4.674000e+000 2.018977e-002 -6.899926e-002
      vertex   4.674000e+000 3.118830e-002 -6.264926e-002
      vertex   4.674000e+000 1.383977e-002 -5.800074e-002
    endloop
  endfacet
  facet normal 1.000000e+000 -0.000000e+000 -0.000000e+000
    outer loop
      vertex   4.674000e+000 1.383977e-002 -5.800074e-002
      vertex   4.674000e+000 3.118830e-002 -6.264926e-002
      vertex   4.674000e+000 2.483830e-002 -5.165074e-002
    endloop
  endfacet
  facet normal -4.268512e-016 -5.000000e-001 -8.660254e-001
    outer loop
      vertex   4.674000e+000 2.483830e-002 5.165074e-002
      vertex   4.674000e+000 1.383977e-002 5.800074e-002
      vertex   4.664000e+000 2.483830e-002 5.165074e-002
    endloop
  endfacet
  facet normal 3.407173e-016 -5.000000e-001 -8.660254e-001
    outer loop
      vertex   4.664000e+000 2.483830e-002 5.165074e-002
      vertex   4.674000e+000 1.383977e-002 5.800074e-002
      vertex   4.664000e+000 1.383977e-002 5.800074e-002
    endloop
  endfacet
  facet normal 9.604153e-016 8.660254e-001 -5.000000e-001
    outer loop
      vertex   4.674000e+000 3.118830e-002 6.264926e-002
      vertex   4.674000e+000 2.483830e-002 5.165074e-002
      vertex   4.664000e+000 3.118830e-002 6.264926e-002
    endloop
  endfacet
  facet normal 6.009258e-016 8.660254e-001 -5.000000e-001
    outer loop
      vertex   4.664000e+000 3.118830e-002 6.264926e-002
      vertex   4.674000e+000 2.483830e-002 5.165074e-002
      vertex   4.664000e+000 2.483830e-002 5.165074e-002
    endloop
  endfacet
  facet normal -6.402769e-016 5.000000e-001 8.660254e-001
    outer loop
      vertex   4.674000e+000 2.018977e-002 6.899926e-002
      vertex   4.674000e+000 3.118830e-002 6.264926e-002
      vertex   4.664000e+000 2.018977e-002 6.899926e-002
    endloop
  endfacet
  facet normal -1.028379e-015 5.000000e-001 8.660254e-001
    outer loop
      vertex   4.664000e+000 2.018977e-002 6.899926e-002
      vertex   4.674000e+000 3.118830e-002 6.264926e-002
      vertex   4.664000e+000 3.118830e-002 6.264926e-002
    endloop
  endfacet
  facet normal -7.469897e-016 -8.660254e-001 5.000000e-001
    outer loop
      vertex   4.674000e+000 1.383977e-002 5.800074e-002
      vertex   4.674000e+000 2.018977e-002 6.899926e-002
      vertex   4.664000e+000 1.383977e-002 5.800074e-002
    endloop
  endfacet
  facet normal -1.595278e-015 -8.660254e-001 5.000000e-001
    outer loop
      vertex   4.664000e+000 1.383977e-002 5.800074e-002
      vertex   4.674000e+000 2.018977e-002 6.899926e-002
      vertex   4.664000e+000 2.018977e-002 6.899926e-002
    endloop
  endfacet
  facet normal -1.000000e+000 0.000000e+000 -0.000000e+000
    outer loop
      vertex   4.664000e+000 2.018977e-002 6.899926e-002
      vertex   4.664000e+000 3.118830e-002 6.264926e-002
      vertex   4.664000e+000 1.383977e-002 5.800074e-002
    endloop
  endfacet
  facet normal -1.000000e+000 0.000000e+000 -0.000000e+000
    outer loop
      vertex   4.664000e+000 1.383977e-002 5.800074e-002
      vertex   4.664000e+000 3.118830e-002 6.264926e-002
      vertex   4.664000e+000 2.483830e-002 5.165074e-002
    endloop
  endfacet
  facet normal 1.000000e+000 -0.000000e+000 -0.000000e+000
    outer loop
      vertex   4.674000e+000 1.383977e-002 5.800074e-002
      vertex   4.674000e+000 2.483830e-002 5.165074e-002
      vertex   4.674000e+000 2.018977e-002 6.899926e-002
    endloop
  endfacet
  facet normal 1.000000e+000 -0.000000e+000 0.000000e+000
    outer loop
      vertex   4.674000e+000 2.018977e-002 6.899926e-002
      vertex   4.674000e+000 2.483830e-002 5.165074e-002
      vertex   4.674000e+000 3.118830e-002 6.264926e-002
    endloop
  endfacet
  facet normal 0.000000e+000 -6.829620e-017 -1.000000e+000
    outer loop
      vertex   4.826000e+000 1.270000e-002 -6.350000e-003
      vertex   4.826000e+000 7.626552e-019 -6.350000e-003
      vertex   4.816000e+000 1.270000e-002 -6.350000e-003
    endloop
  endfacet
  facet normal -0.000000e+000 -6.829620e-017 -1.000000e+000
    outer loop
      vertex   4.816000e+000 1.270000e-002 -6.350000e-003
      vertex   4.826000e+000 7.626552e-019 -6.350000e-003
      vertex   4.816000e+000 7.626552e-019 -6.350000e-003
    endloop
  endfacet
  facet normal 0.000000e+000 1.000000e+000 4.097772e-016
    outer loop
      vertex   4.826000e+000 1.270000e-002 6.350000e-003
      vertex   4.826000e+000 1.270000e-002 -6.350000e-003
      vertex   4.816000e+000 1.270000e-002 6.350000e-003
    endloop
  endfacet
  facet normal 0.000000e+000 1.000000e+000 4.097772e-016
    outer loop
      vertex   4.816000e+000 1.270000e-002 6.350000e-003
      vertex   4.826000e+000 1.270000e-002 -6.350000e-003
      vertex   4.816000e+000 1.270000e-002 -6.350000e-003
    endloop
  endfacet
  facet normal 0.000000e+000 -1.365924e-016 1.000000e+000
    outer loop
      vertex   4.826000e+000 -3.654369e-018 6.350000e-003
      vertex   4.826000e+000 1.270000e-002 6.350000e-003
      vertex   4.816000e+000 -3.654369e-018 6.350000e-003
    endloop
  endfacet
  facet normal -8.673617e-017 -6.829620e-017 1.000000e+000
    outer loop
      vertex   4.816000e+000 -3.654369e-018 6.350000e-003
      vertex   4.826000e+000 1.270000e-002 6.350000e-003
      vertex   4.816000e+000 1.270000e-002 6.350000e-003
    endloop
  endfacet
  facet normal 0.000000e+000 -1.000000e+000 -3.477972e-016
    outer loop
      vertex   4.826000e+000 7.626552e-019 -6.350000e-003
      vertex   4.826000e+000 -3.654369e-018 6.350000e-003
      vertex   4.816000e+000 7.626552e-019 -6.350000e-003
    endloop
  endfacet
  facet normal -0.000000e+000 -1.000000e+000 -3.477972e-016
    outer loop
      vertex   4.816000e+000 7.626552e-019 -6.350000e-003
      vertex   4.826000e+000 -3.654369e-018 6.350000e-003
      vertex   4.816000e+000 -3.654369e-018 6.350000e-003
    endloop
  endfacet
  facet normal -1.000000e+000 0.000000e+000 -0.000000e+000
    outer loop
      vertex   4.816000e+000 -3.654369e-018 6.350000e-003
      vertex   4.816000e+000 1.270000e-002 6.350000e-003
      vertex   4.816000e+000 7.626552e-019 -6.350000e-003
    endloop
  endfacet
  facet normal -1.000000e+000 0.000000e+000 0.000000e+000
    outer loop
      vertex   4.816000e+000 7.626552e-019 -6.350000e-003
      vertex   4.816000e+000 1.270000e-002 6.350000e-003
      vertex   4.816000e+000 1.270000e-002 -6.350000e-003
    endloop
  endfacet
  facet normal 1.000000e+000 -0.000000e+000 -0.000000e+000
    outer loop
      vertex   4.826000e+000 7.626552e-019 -6.350000e-003
      vertex   4.826000e+000 1.270000e-002 -6.350000e-003
      vertex   4.826000e+000 -3.654369e-018 6.350000e-003
    endloop
  endfacet
  facet normal 1.000000e+000 -0.000000e+000 -0.000000e+000
    outer loop
      vertex   4.826000e+000 -3.654369e-018 6.350000e-003
      vertex   4.826000e+000 1.270000e-002 -6.350000e-003
      vertex   4.826000e+000 1.270000e-002 6.350000e-003
    endloop
  endfacet
  facet normal -5.335641e-016 5.000000e-001 -8.660254e-001
    outer loop
      vertex   4.826000e+000 3.118830e-002 -6.264926e-002
      vertex   4.826000e+000 2.018977e-002 -6.899926e-002
      vertex   4.816000e+000 3.118830e-002 -6.264926e-002
    endloop
  endfacet
  facet normal -5.204170e-016 5.000000e-001 -8.660254e-001
    outer loop
      vertex   4.816000e+000 3.118830e-002 -6.264926e-002
      vertex   4.826000e+000 2.018977e-002 -6.899926e-002
      vertex   4.816000e+000 2.018977e-002 -6.899926e-002
    endloop
  endfacet
  facet normal -5.335641e-016 8.660254e-001 5.000000e-001
    outer loop
      vertex   4.826000e+000 2.483830e-002 -5.165074e-002
      vertex   4.826000e+000 3.118830e-002 -6.264926e-002
      vertex   4.816000e+000 2.483830e-002 -5.165074e-002
    endloop
  endfacet
  facet normal -9.013888e-016 8.660254e-001 5.000000e-001
    outer loop
      vertex   4.816000e+000 2.483830e-002 -5.165074e-002
      vertex   4.826000e+000 3.118830e-002 -6.264926e-002
      vertex   4.816000e+000 3.118830e-002 -6.264926e-002
    endloop
  endfacet
  facet normal 1.707405e-015 -5.000000e-001 8.660254e-001
    outer loop
      vertex   4.826000e+000 1.383977e-002 -5.800074e-002
      vertex   4.826000e+000 2.483830e-002 -5.165074e-002
      vertex   4.816000e+000 1.383977e-002 -5.800074e-002
    endloop
  endfacet
  facet normal 3.469447e-016 -5.000000e-001 8.660254e-001
    outer loop
      vertex   4.816000e+000 1.383977e-002 -5.800074e-002
      vertex   4.826000e+000 2.483830e-002 -5.165074e-002
      vertex   4.816000e+000 2.483830e-002 -5.165074e-002
    endloop
  endfacet
  facet normal 8.537025e-016 -8.660254e-001 -5.000000e-001
    outer loop
      vertex   4.826000e+000 2.018977e-002 -6.899926e-002
      vertex   4.826000e+000 1.383977e-002 -5.800074e-002
      vertex   4.816000e+000 2.018977e-002 -6.899926e-002
    endloop
  endfacet
  facet normal 2.074994e-016 -8.660254e-001 -5.000000e-001
    outer loop
      vertex   4.816000e+000 2.018977e-002 -6.899926e-002
      vertex   4.826000e+000 1.383977e-002 -5.800074e-002
      vertex   4.816000e+000 1.383977e-002 -5.800074e-002
    endloop
  endfacet
  facet normal -1.000000e+000 0.000000e+000 -0.000000e+000
    outer loop
      vertex   4.816000e+000 1.383977e-002 -5.800074e-002
      vertex   4.816000e+000 2.483830e-002 -5.165074e-002
      vertex   4.816000e+000 2.018977e-002 -6.899926e-002
    endloop
  endfacet
  facet normal -1.000000e+000 0.000000e+000 0.000000e+000
    outer loop
      vertex   4.816000e+000 2.018977e-002 -6.899926e-002
      vertex   4.816000e+000 2.483830e-002 -5.165074e-002
      vertex   4.816000e+000 3.118830e-002 -6.264926e-002
    endloop
  endfacet
  facet normal 1.000000e+000 0.000000e+000 -0.000000e+000
    outer loop
      vertex   4.826000e+000 2.018977e-002 -6.899926e-002
      vertex   4.826000e+000 3.118830e-002 -6.264926e-002
      vertex   4.826000e+000 1.383977e-002 -5.800074e-002
    endloop
  endfacet
  facet normal 1.000000e+000 -0.000000e+000 -0.000000e+000
    outer loop
      vertex   4.826000e+000 1.383977e-002 -5.800074e-002
      vertex   4.826000e+000 3.118830e-002 -6.264926e-002
      vertex   4.826000e+000 2.483830e-002 -5.165074e-002
    endloop
  endfacet
  facet normal -4.268512e-016 -5.000000e-001 -8.660254e-001
    outer loop
      vertex   4.826000e+000 2.483830e-002 5.165074e-002
      vertex   4.826000e+000 1.383977e-002 5.800074e-002
      vertex   4.816000e+000 2.483830e-002 5.165074e-002
    endloop
  endfacet
  facet normal 3.407173e-016 -5.000000e-001 -8.660254e-001
    outer loop
      vertex   4.816000e+000 2.483830e-002 5.165074e-002
      vertex   4.826000e+000 1.383977e-002 5.800074e-002
      vertex   4.816000e+000 1.383977e-002 5.800074e-002
    endloop
  endfacet
  facet normal 9.604153e-016 8.660254e-001 -5.000000e-001
    outer loop
      vertex   4.826000e+000 3.118830e-002 6.264926e-002
      vertex   4.826000e+000 2.483830e-002 5.165074e-002
      vertex   4.816000e+000 3.118830e-002 6.264926e-002
    endloop
  endfacet
  facet normal 6.009258e-016 8.660254e-001 -5.000000e-001
    outer loop
      vertex   4.816000e+000 3.118830e-002 6.264926e-002
      vertex   4.826000e+000 2.483830e-002 5.165074e-002
      vertex   4.816000e+000 2.483830e-002 5.165074e-002
    endloop
  endfacet
  facet normal -6.402769e-016 5.000000e-001 8.660254e-001
    outer loop
      vertex   4.826000e+000 2.018977e-002 6.899926e-002
      vertex   4.826000e+000 3.118830e-002 6.264926e-002
      vertex   4.816000e+000 2.018977e-002 6.899926e-002
    endloop
  endfacet
  facet normal -1.028379e-015 5.000000e-001 8.660254e-001
    outer loop
      vertex   4.816000e+000 2.018977e-002 6.899926e-002
      vertex   4.826000e+000 3.118830e-002 6.264926e-002
      vertex   4.816000e+000 3.118830e-002 6.264926e-002
    endloop
  endfacet
  facet normal -7.469897e-016 -8.660254e-001 5.000000e-001
    outer loop
      vertex   4.826000e+000 1.383977e-002 5.800074e-002
      vertex   4.826000e+000 2.018977e-002 6.899926e-002
      vertex   4.816000e+000 1.383977e-002 5.800074e-002
    endloop
  endfacet
  facet normal -1.595278e-015 -8.660254e-001 5.000000e-001
    outer loop
      vertex   4.816000e+000 1.383977e-002 5.800074e-002
      vertex   4.826000e+000 2.018977e-002 6.899926e-002
      vertex   4.816000e+000 2.018977e-002 6.899926e-002
    endloop
  endfacet
  facet normal -1.000000e+000 0.000000e+000 -0.000000e+000
    outer loop
      vertex   4.816000e+000 2.018977e-002 6.899926e-002
      vertex   4.816000e+000 3.118830e-002 6.264926e-002
      vertex   4.816000e+000 1.383977e-002 5.800074e-002
    endloop
  endfacet
  facet normal -1.000000e+000 0.000000e+000 -0.000000e+000
    outer loop
      vertex   4.816000e+000 1.383977e-002 5.800074e-002
      vertex   4.816000e+000 3.118830e-002 6.264926e-002
      vertex   4.816000e+000 2.483830e-002 5.165074e-002
    endloop
  endfacet
  facet normal 1.000000e+000 -0.000000e+000 -0.000000e+000
    outer loop
      vertex   4.826000e+000 1.383977e-002 5.800074e-002
      vertex   4.826000e+000 2.483830e-002 5.165074e-002
      vertex   4.826000e+000 2.018977e-002 6.899926e-002
    endloop
  endfacet
  facet normal 1.000000e+000 -0.000000e+000 0.000000e+000
    outer loop
      vertex   4.826000e+000 2.018977e-002 6.899926e-002
      vertex   4.826000e+000 2.483830e-002 5.165074e-002
      vertex   4.826000e+000 3.118830e-002 6.264926e-002
    endloop
  endfacet
  facet normal 0.000000e+000 -6.829620e-017 -1.000000e+000
    outer loop
      vertex   4.978000e+000 1.270000e-002 -6.350000e-003
      vertex   4.978000e+000 7.626552e-019 -6.350000e-003
      vertex   4.968000e+000 1.270000e-002 -6.350000e-003
    endloop
  endfacet
  facet normal -0.000000e+000 -6.829620e-017 -1.000000e+000
    outer loop
      vertex   4.968000e+000 1.270000e-002 -6.350000e-003
      vertex   4.978000e+000 7.626552e-019 -6.350000e-003
      vertex   4.968000e+000 7.626552e-019 -6.350000e-003
    endloop
  endfacet
  facet normal 0.000000e+000 1.000000e+000 4.097772e-016
    outer loop
      vertex   4.978000e+000 1.270000e-002 6.350000e-003
      vertex   4.978000e+000 1.270000e-002 -6.350000e-003
      vertex   4.968000e+000 1.270000e-002 6.350000e-003
    endloop
  endfacet
  facet normal 0.000000e+000 1.000000e+000 4.097772e-016
    outer loop
      vertex   4.968000e+000 1.270000e-002 6.350000e-003
      vertex   4.978000e+000 1.270000e-002 -6.350000e-003
      vertex   4.968000e+000 1.270000e-002 -6.350000e-003
    endloop
  endfacet
  facet normal 0.000000e+000 -1.365924e-016 1.000000e+000
    outer loop
      vertex   4.978000e+000 -3.654369e-018 6.350000e-003
      vertex   4.978000e+000 1.270000e-002 6.350000e-003
      vertex   4.968000e+000 -3.654369e-018 6.350000e-003
    endloop
  endfacet
  facet normal -8.673617e-017 -6.829620e-017 1.000000e+000
    outer loop
      vertex   4.968000e+000 -3.654369e-018 6.350000e-003
      vertex   4.978000e+000 1.270000e-002 6.350000e-003
      vertex   4.968000e+000 1.270000e-002 6.350000e-003
    endloop
  endfacet
  facet normal 0.000000e+000 -1.000000e+000 -3.477972e-016
    outer loop
      vertex   4.978000e+000 7.626552e-019 -6.350000e-003
      vertex   4.978000e+000 -3.654369e-018 6.350000e-003
      vertex   4.968000e+000 7.626552e-019 -6.350000e-003
    endloop
  endfacet
  facet normal -0.000000e+000 -1.000000e+000 -3.477972e-016
    outer loop
      vertex   4.968000e+000 7.626552e-019 -6.350000e-003
      vertex   4.978000e+000 -3.654369e-018 6.350000e-003
      vertex   4.968000e+000 -3.654369e-018 6.350000e-003
    endloop
  endfacet
  facet normal -1.000000e+000 0.000000e+000 -0.000000e+000
    outer loop
      vertex   4.968000e+000 -3.654369e-018 6.350000e-003
      vertex   4.968000e+000 1.270000e-002 6.350000e-003
      vertex   4.968000e+000 7.626552e-019 -6.350000e-003
    endloop
  endfacet
  facet normal -1.000000e+000 0.000000e+000 0.000000e+000
    outer loop
      vertex   4.968000e+000 7.626552e-019 -6.350000e-003
      vertex   4.968000e+000 1.270000e-002 6.350000e-003
      vertex   4.968000e+000 1.270000e-002 -6.350000e-003
    endloop
  endfacet
  facet normal 1.000000e+000 -0.000000e+000 -0.000000e+000
    outer loop
      vertex   4.978000e+000 7.626552e-019 -6.350000e-003
      vertex   4.978000e+000 1.270000e-002 -6.350000e-003
      vertex   4.978000e+000 -3.654369e-018 6.350000e-003
    endloop
  endfacet
  facet normal 1.000000e+000 -0.000000e+000 -0.000000e+000
    outer loop
      vertex   4.978000e+000 -3.654369e-018 6.350000e-003
      vertex   4.978000e+000 1.270000e-002 -6.350000e-003
      vertex   4.978000e+000 1.270000e-002 6.350000e-003
    endloop
  endfacet
  facet normal -5.335641e-016 5.000000e-001 -8.660254e-001
    outer loop
      vertex   4.978000e+000 3.118830e-002 -6.264926e-002
      vertex   4.978000e+000 2.018977e-002 -6.899926e-002
      vertex   4.968000e+000 3.118830e-002 -6.264926e-002
    endloop
  endfacet
  facet normal -5.204170e-016 5.000000e-001 -8.660254e-001
    outer loop
      vertex   4.968000e+000 3.118830e-002 -6.264926e-002
      vertex   4.978000e+000 2.018977e-002 -6.899926e-002
      vertex   4.968000e+000 2.018977e-002 -6.899926e-002
    endloop
  endfacet
  facet normal -5.335641e-016 8.660254e-001 5.000000e-001
    outer loop
      vertex   4.978000e+000 2.483830e-002 -5.165074e-002
      vertex   4.978000e+000 3.118830e-002 -6.264926e-002
      vertex   4.968000e+000 2.483830e-002 -5.165074e-002
    endloop
  endfacet
  facet normal -9.013888e-016 8.660254e-001 5.000000e-001
    outer loop
      vertex   4.968000e+000 2.483830e-002 -5.165074e-002
      vertex   4.978000e+000 3.118830e-002 -6.264926e-002
      vertex   4.968000e+000 3.118830e-002 -6.264926e-002
    endloop
  endfacet
  facet normal 1.707405e-015 -5.000000e-001 8.660254e-001
    outer loop
      vertex   4.978000e+000 1.383977e-002 -5.800074e-002
      vertex   4.978000e+000 2.483830e-002 -5.165074e-002
      vertex   4.968000e+000 1.383977e-002 -5.800074e-002
    endloop
  endfacet
  facet normal 3.469447e-016 -5.000000e-001 8.660254e-001
    outer loop
      vertex   4.968000e+000 1.383977e-002 -5.800074e-002
      vertex   4.978000e+000 2.483830e-002 -5.165074e-002
      vertex   4.968000e+000 2.483830e-002 -5.165074e-002
    endloop
  endfacet
  facet normal 8.537025e-016 -8.660254e-001 -5.000000e-001
    outer loop
      vertex   4.978000e+000 2.018977e-002 -6.899926e-002
      vertex   4.978000e+000 1.383977e-002 -5.800074e-002
      vertex   4.968000e+000 2.018977e-002 -6.899926e-002
    endloop
  endfacet
  facet normal 2.074994e-016 -8.660254e-001 -5.000000e-001
    outer loop
      vertex   4.968000e+000 2.018977e-002 -6.899926e-002
      vertex   4.978000e+000 1.383977e-002 -5.800074e-002
      vertex   4.968000e+000 1.383977e-002 -5.800074e-002
    endloop
  endfacet
  facet normal -1.000000e+000 0.000000e+000 -0.000000e+000
    outer loop
      vertex   4.968000e+000 1.383977e-002 -5.800074e-002
      vertex   4.968000e+000 2.483830e-002 -5.165074e-002
      vertex   4.968000e+000 2.018977e-002 -6.899926e-002
    endloop
  endfacet
  facet normal -1.000000e+000 0.000000e+000 0.000000e+000
    outer loop
      vertex   4.968000e+000 2.018977e-002 -6.899926e-002
      vertex   4.968000e+000 2.483830e-002 -5.165074e-002
      vertex   4.968000e+000 3.118830e-002 -6.264926e-002
    endloop
  endfacet
  facet normal 1.000000e+000 0.000000e+000 -0.000000e+000
    outer loop
      vertex   4.978000e+000 2.018977e-002 -6.899926e-002
      vertex   4.978000e+000 3.118830e-002 -6.264926e-002
      vertex   4.978000e+000 1.383977e-002 -5.800074e-002
    endloop
  endfacet
  facet normal 1.000000e+000 -0.000000e+000 -0.000000e+000
    outer loop
      vertex   4.978000e+000 1.383977e-002 -5.800074e-002
      vertex   4.978000e+000 3.118830e-002 -6.264926e-002
      vertex   4.978000e+000 2.483830e-002 -5.165074e-002
    endloop
  endfacet
  facet normal -4.268512e-016 -5.000000e-001 -8.660254e-001
    outer loop
      vertex   4.978000e+000 2.483830e-002 5.165074e-002
      vertex   4.978000e+000 1.383977e-002 5.800074e-002
      vertex   4.968000e+000 2.483830e-002 5.165074e-002
    endloop
  endfacet
  facet normal 3.407173e-016 -5.000000e-001 -8.660254e-001
    outer loop
      vertex   4.968000e+000 2.483830e-002 5.165074e-002
      vertex   4.978000e+000 1.383977e-002 5.800074e-002
      vertex   4.968000e+000 1.383977e-002 5.800074e-002
    endloop
  endfacet
  facet normal 9.604153e-016 8.660254e-001 -5.000000e-001
    outer loop
      vertex   4.978000e+000 3.118830e-002 6.264926e-002
      vertex   4.978000e+000 2.483830e-002 5.165074e-002
      vertex   4.968000e+000 3.118830e-002 6.264926e-002
    endloop
  endfacet
  facet normal 6.009258e-016 8.660254e-001 -5.000000e-001
    outer loop
      vertex   4.968000e+000 3.118830e-002 6.264926e-002
      vertex   4.978000e+000 2.483830e-002 5.165074e-002
      vertex   4.968000e+000 2.483830e-002 5.165074e-002
    endloop
  endfacet
  facet normal -6.402769e-016 5.000000e-001 8.660254e-001
    outer loop
      vertex   4.978000e+000 2.018977e-002 6.899926e-002
      vertex   4.978000e+000 3.118830e-002 6.264926e-002
      vertex   4.968000e+000 2.018977e-002 6.899926e-002
    endloop
  endfacet
  facet normal -1.028379e-015 5.000000e-001 8.660254e-001
    outer loop
      vertex   4.968000e+000 2.018977e-002 6.899926e-002
      vertex   4.978000e+000 3.118830e-002 6.264926e-002
      vertex   4.968000e+000 3.118830e-002 6.264926e-002
    endloop
  endfacet
  facet normal -7.469897e-016 -8.660254e-001 5.000000e-001
    outer loop
      vertex   4.978000e+000 1.383977e-002 5.800074e-002
      vertex   4.978000e+000 2.018977e-002 6.899926e-002
      vertex   4.968000e+000 1.383977e-002 5.800074e-002
    endloop
  endfacet
  facet normal -1.595278e-015 -8.660254e-001 5.000000e-001
    outer loop
      vertex   4.968000e+000 1.383977e-002 5.800074e-002
      vertex   4.978000e+000 2.018977e-002 6.899926e-002
      vertex   4.968000e+000 2.018977e-002 6.899926e-002
    endloop
  endfacet
  facet normal -1.000000e+000 0.000000e+000 -0.000000e+000
    outer loop
      vertex   4.968000e+000 2.018977e-002 6.899926e-002
      vertex   4.968000e+000 3.118830e-002 6.264926e-002
      vertex   4.968000e+000 1.383977e-002 5.800074e-002
    endloop
  endfacet
  facet normal -1.000000e+000 0.000000e+000 -0.000000e+000
    outer loop
      vertex   4.968000e+000 1.383977e-002 5.800074e-002
      vertex   4.968000e+000 3.118830e-002 6.264926e-002
      vertex   4.968000e+000 2.483830e-002 5.165074e-002
    endloop
  endfacet
  facet normal 1.000000e+000 -0.000000e+000 -0.000000e+000
    outer loop
      vertex   4.978000e+000 1.383977e-002 5.800074e-002
      vertex   4.978000e+000 2.483830e-002 5.165074e-002
      vertex   4.978000e+000 2.018977e-002 6.899926e-002
    endloop
  endfacet
  facet normal 1.000000e+000 -0.000000e+000 0.000000e+000
    outer loop
      vertex   4.978000e+000 2.018977e-002 6.899926e-002
      vertex   4.978000e+000 2.483830e-002 5.165074e-002
      vertex   4.978000e+000 3.118830e-002 6.264926e-002
    endloop
  endfacet
  facet normal 0.000000e+000 -6.829620e-017 -1.000000e+000
    outer loop
      vertex   5.130000e+000 1.270000e-002 -6.350000e-003
      vertex   5.130000e+000 7.626552e-019 -6.350000e-003
      vertex   5.120000e+000 1.270000e-002 -6.350000e-003
    endloop
  endfacet
  facet normal -0.000000e+000 -6.829620e-017 -1.000000e+000
    outer loop
      vertex   5.120000e+000 1.270000e-002 -6.350000e-003
      vertex   5.130000e+000 7.626552e-019 -6.350000e-003
      vertex   5.120000e+000 7.626552e-019 -6.350000e-003
    endloop
  endfacet
  facet normal 0.000000e+000 1.000000e+000 4.097772e-016
    outer loop
      vertex   5.130000e+000 1.270000e-002 6.350000e-003
      vertex   5.130000e+000 1.270000e-002 -6.350000e-003
      vertex   5.120000e+000 1.270000e-002 6.350000e-003
    endloop
  endfacet
  facet normal 0.000000e+000 1.000000e+000 4.097772e-016
    outer loop
      vertex   5.120000e+000 1.270000e-002 6.350000e-003
      vertex   5.130000e+000 1.270000e-002 -6.350000e-003
      vertex   5.120000e+000 1.270000e-002 -6.350000e-003
    endloop
  endfacet
  facet normal 0.000000e+000 -1.365924e-016 1.000000e+000
    outer loop
      vertex   5.130000e+000 -3.654369e-018 6.350000e-003
      vertex   5.130000e+000 1.270000e-002 6.350000e-003
      vertex   5.120000e+000 -3.654369e-018 6.350000e-003
    endloop
  endfacet
  facet normal -8.673617e-017 -6.829620e-017 1.000000e+000
    outer loop
      vertex   5.120000e+000 -3.654369e-018 6.350000e-003
      vertex   5.130000e+000 1.270000e-002 6.350000e-003
      vertex   5.120000e+000 1.270000e-002 6.350000e-003
    endloop
  endfacet
  facet normal 0.000000e+000 -1.000000e+000 -3.477972e-016
    outer loop
      vertex   5.130000e+000 7.626552e-019 -6.350000e-003
      vertex   5.130000e+000 -3.654369e-018 6.350000e-003
      vertex   5.120000e+000 7.626552e-019 -6.350000e-003
    endloop
  endfacet
  facet normal -0.000000e+000 -1.000000e+000 -3.477972e-016
    outer loop
      vertex   5.120000e+000 7.626552e-019 -6.350000e-003
      vertex   5.130000e+000 -3.654369e-018 6.350000e-003
      vertex   5.120000e+000 -3.654369e-018 6.350000e-003
    endloop
  endfacet
  facet normal -1.000000e+000 0.000000e+000 -0.000000e+000
    outer loop
      vertex   5.120000e+000 -3.654369e-018 6.350000e-003
      vertex   5.120000e+000 1.270000e-002 6.350000e-003
      vertex   5.120000e+000 7.626552e-019 -6.350000e-003
    endloop
  endfacet
  facet normal -1.000000e+000 0.000000e+000 0.000000e+000
    outer loop
      vertex   5.120000e+000 7.626552e-019 -6.350000e-003
      vertex   5.120000e+000 1.270000e-002 6.350000e-003
      vertex   5.120000e+000 1.270000e-002 -6.350000e-003
    endloop
  endfacet
  facet normal 1.000000e+000 -0.000000e+000 -0.000000e+000
    outer loop
      vertex   5.130000e+000 7.626552e-019 -6.350000e-003
      vertex   5.130000e+000 1.270000e-002 -6.350000e-003
      vertex   5.130000e+000 -3.654369e-018 6.350000e-003
    endloop
  endfacet
  facet normal 1.000000e+000 -0.000000e+000 -0.000000e+000
    outer loop
      vertex   5.130000e+000 -3.654369e-018 6.350000e-003
      vertex   5.130000e+000 1.270000e-002 -6.350000e-003
      vertex   5.130000e+000 1.270000e-002 6.350000e-003
    endloop
  endfacet
  facet normal -5.335641e-016 5.000000e-001 -8.660254e-001
    outer loop
      vertex   5.130000e+000 3.118830e-002 -6.264926e-002
      vertex   5.130000e+000 2.018977e-002 -6.899926e-002
      vertex   5.120000e+000 3.118830e-002 -6.264926e-002
    endloop
  endfacet
  facet normal -5.204170e-016 5.000000e-001 -8.660254e-001
    outer loop
      vertex   5.120000e+000 3.118830e-002 -6.264926e-002
      vertex   5.130000e+000 2.018977e-002 -6.899926e-002
      vertex   5.120000e+000 2.018977e-002 -6.899926e-002
    endloop
  endfacet
  facet normal -5.335641e-016 8.660254e-001 5.000000e-001
    outer loop
      vertex   5.130000e+000 2.483830e-002 -5.165074e-002
      vertex   5.130000e+000 3.118830e-002 -6.264926e-002
      vertex   5.120000e+000 2.483830e-002 -5.165074e-002
    endloop
  endfacet
  facet normal -9.013888e-016 8.660254e-001 5.000000e-001
    outer loop
      vertex   5.120000e+000 2.483830e-002 -5.165074e-002
      vertex   5.130000e+000 3.118830e-002 -6.264926e-002
      vertex   5.120000e+000 3.118830e-002 -6.264926e-002
    endloop
  endfacet
  facet normal 1.707405e-015 -5.000000e-001 8.660254e-001
    outer loop
      vertex   5.130000e+000 1.383977e-002 -5.800074e-002
      vertex   5.130000e+000 2.483830e-002 -5.165074e-002
      vertex   5.120000e+000 1.383977e-002 -5.800074e-002
    endloop
  endfacet
  facet normal 3.469447e-016 -5.000000e-001 8.660254e-001
    outer loop
      vertex   5.120000e+000 1.383977e-002 -5.800074e-002
      vertex   5.130000e+000 2.483830e-002 -5.165074e-002
      vertex   5.120000e+000 2.483830e-002 -5.165074e-002
    endloop
  endfacet
  facet normal 8.537025e-016 -8.660254e-001 -5.000000e-001
    outer loop
      vertex   5.130000e+000 2.018977e-002 -6.899926e-002
      vertex   5.130000e+000 1.383977e-002 -5.800074e-002
      vertex   5.120000e+000 2.018977e-002 -6.899926e-002
    endloop
  endfacet
  facet normal 2.074994e-016 -8.660254e-001 -5.000000e-001
    outer loop
      vertex   5.120000e+000 2.018977e-002 -6.899926e-002
      vertex   5.130000e+000 1.383977e-002 -5.800074e-002
      vertex   5.120000e+000 1.383977e-002 -5.800074e-002
    endloop
  endfacet
  facet normal -1.000000e+000 0.000000e+000 -0.000000e+000
    outer loop
      vertex   5.120000e+000 1.383977e-002 -5.800074e-002
      vertex   5.120000e+000 2.483830e-002 -5.165074e-002
      vertex   5.120000e+000 2.018977e-002 -6.899926e-002
    endloop
  endfacet
  facet normal -1.000000e+000 0.000000e+000 0.000000e+000
    outer loop
      vertex   5.120000e+000 2.018977e-002 -6.899926e-002
      vertex   5.120000e+000 2.483830e-002 -5.165074e-002
      vertex   5.120000e+000 3.118830e-002 -6.264926e-002
    endloop
  endfacet
  facet normal 1.000000e+000 0.000000e+000 -0.000000e+000
    outer loop
      vertex   5.130000e+000 2.018977e-002 -6.899926e-002
      vertex   5.130000e+000 3.118830e-002 -6.264926e-002
      vertex   5.130000e+000 1.383977e-002 -5.800074e-002
    endloop
  endfacet
  facet normal 1.000000e+000 -0.000000e+000 -0.000000e+000
    outer loop
      vertex   5.130000e+000 1.383977e-002 -5.800074e-002
      vertex   5.130000e+000 3.118830e-002 -6.264926e-002
      vertex   5.130000e+000 2.483830e-002 -5.165074e-002
    endloop
  endfacet
  facet normal -4.268512e-016 -5.000000e-001 -8.660254e-001
    outer loop
      vertex   5.130000e+000 2.483830e-002 5.165074e-002
      vertex   5.130000e+000 1.383977e-002 5.800074e-002
      vertex   5.120000e+000 2.483830e-002 5.165074e-002
    endloop
  endfacet
  facet normal 3.407173e-016 -5.000000e-001 -8.660254e-001
    outer loop
      vertex   5.120000e+000 2.483830e-002 5.165074e-002
      vertex   5.130000e+000 1.383977e-002 5.800074e-002
      vertex   5.120000e+000 1.383977e-002 5.800074e-002
    endloop
  endfacet
  facet normal 9.604153e-016 8.660254e-001 -5.000000e-001
    outer loop
      vertex   5.130000e+000 3.118830e-002 6.264926e-002
      vertex   5.130000e+000 2.483830e-002 5.165074e-002
      vertex   5.120000e+000 3.118830e-002 6.264926e-002
    endloop
  endfacet
  facet normal 6.009258e-016 8.660254e-001 -5.000000e-001
    outer loop
      vertex   5.120000e+000 3.118830e-002 6.264926e-002
      vertex   5.130000e+000 2.483830e-002 5.165074e-002
      vertex   5.120000e+000 2.483830e-002 5.165074e-002
    endloop
  endfacet
  facet normal -6.402769e-016 5.000000e-001 8.660254e-001
    outer loop
      vertex   5.130000e+000 2.018977e-002 6.899926e-002
      vertex   5.130000e+000 3.118830e-002 6.264926e-002
      vertex   5.120000e+000 2.018977e-002 6.899926e-002
    endloop
  endfacet
  facet normal -1.028379e-015 5.000000e-001 8.660254e-001
    outer loop
      vertex   5.120000e+000 2.018977e-002 6.899926e-002
      vertex   5.130000e+000 3.118830e-002 6.264926e-002
      vertex   5.120000e+000 3.118830e-002 6.264926e-002
    endloop
  endfacet
  facet normal -7.469897e-016 -8.660254e-001 5.000000e-001
    outer loop
      vertex   5.130000e+000 1.383977e-002 5.800074e-002
      vertex   5.130000e+000 2.018977e-002 6.899926e-002
      vertex   5.120000e+000 1.383977e-002 5.800074e-002
    endloop
  endfacet
  facet normal -1.595278e-015 -8.660254e-001 5.000000e-001
    outer loop
      vertex   5.120000e+000 1.383977e-002 5.800074e-002
      vertex   5.130000e+000 2.018977e-002 6.899926e-002
      vertex   5.120000e+000 2.018977e-002 6.899926e-002
    endloop
  endfacet
  facet normal -1.000000e+000 0.000000e+000 -0.000000e+000
    outer loop
      vertex   5.120000e+000 2.018977e-002 6.899926e-002
      vertex   5.120000e+000 3.118830e-002 6.264926e-002
      vertex   5.120000e+000 1.383977e-002 5.800074e-002
    endloop
  endfacet
  facet normal -1.000000e+000 0.000000e+000 -0.000000e+000
    outer loop
      vertex   5.120000e+000 1.383977e-002 5.800074e-002
      vertex   5.120000e+000 3.118830e-002 6.264926e-002
      vertex   5.120000e+000 2.483830e-002 5.165074e-002
    endloop
  endfacet
  facet normal 1.000000e+000 -0.000000e+000 -0.000000e+000
    outer loop
      vertex   5.130000e+000 1.383977e-002 5.800074e-002
      vertex   5.130000e+000 2.483830e-002 5.165074e-002
      vertex   5.130000e+000 2.018977e-002 6.899926e-002
    endloop
  endfacet
  facet normal 1.000000e+000 -0.000000e+000 0.000000e+000
    outer loop
      vertex   5.130000e+000 2.018977e-002 6.899926e-002
      vertex   5.130000e+000 2.483830e-002 5.165074e-002
      vertex   5.130000e+000 3.118830e-002 6.264926e-002
    endloop
  endfacet
  facet normal 0.000000e+000 -6.829620e-017 -1.000000e+000
    outer loop
      vertex   5.282000e+000 1.270000e-002 -6.350000e-003
      vertex   5.282000e+000 7.626552e-019 -6.350000e-003
      vertex   5.272000e+000 1.270000e-002 -6.350000e-003
    endloop
  endfacet
  facet normal -0.000000e+000 -6.829620e-017 -1.000000e+000
    outer loop
      vertex   5.272000e+000 1.270000e-002 -6.350000e-003
      vertex   5.282000e+000 7.626552e-019 -6.350000e-003
      vertex   5.272000e+000 7.626552e-019 -6.350000e-003
    endloop
  endfacet
  facet normal 0.000000e+000 1.000000e+000 4.097772e-016
    outer loop
      vertex   5.282000e+000 1.270000e-002 6.350000e-003
      vertex   5.282000e+000 1.270000e-002 -6.350000e-003
      vertex   5.272000e+000 1.270000e-002 6.350000e-003
    endloop
  endfacet
  facet normal 0.000000e+000 1.000000e+000 4.097772e-016
    outer loop
      vertex   5.272000e+000 1.270000e-002 6.350000e-003
      vertex   5.282000e+000 1.270000e-002 -6.350000e-003
      vertex   5.272000e+000 1.270000e-002 -6.350000e-003
    endloop
  endfacet
  facet normal 0.000000e+000 -1.365924e-016 1.000000e+000
    outer loop
      vertex   5.282000e+000 -3.654369e-018 6.350000e-003
      vertex   5.282000e+000 1.270000e-002 6.350000e-003
      vertex   5.272000e+000 -3.654369e-018 6.350000e-003
    endloop
  endfacet
  facet normal -8.673617e-017 -6.829620e-017 1.000000e+000
    outer loop
      vertex   5.272000e+000 -3.654369e-018 6.350000e-003
      vertex   5.282000e+000 1.270000e-002 6.350000e-003
      vertex   5.272000e+000 1.270000e-002 6.350000e-003
    endloop
  endfacet
  facet normal 0.000000e+000 -1.000000e+000 -3.477972e-016
    outer loop
      vertex   5.282000e+000 7.626552e-019 -6.350000e-003
      vertex   5.282000e+000 -3.654369e-018 6.350000e-003
      vertex   5.272000e+000 7.626552e-019 -6.350000e-003
    endloop
  endfacet
  facet normal -0.000000e+000 -1.000000e+000 -3.477972e-016
    outer loop
      vertex   5.272000e+000 7.626552e-019 -6.350000e-003
      vertex   5.282000e+000 -3.654369e-018 6.350000e-003
      vertex   5.272000e+000 -3.654369e-018 6.350000e-003
    endloop
  endfacet
  facet normal -1.000000e+000 0.000000e+000 -0.000000e+000
    outer loop
      vertex   5.272000e+000 -3.654369e-018 6.350000e-003
      vertex   5.272000e+000 1.270000e-002 6.350000e-003
      vertex   5.272000e+000 7.626552e-019 -6.350000e-003
    endloop
  endfacet
  facet normal -1.000000e+000 0.000000e+000 0.000000e+000
    outer loop
      vertex   5.272000e+000 7.626552e-019 -6.350000e-003
      vertex   5.272000e+000 1.270000e-002 6.350000e-003
      vertex   5.272000e+000 1.270000e-002 -6.350000e-003
    endloop
  endfacet
  facet normal 1.000000e+000 -0.000000e+000 -0.000000e+000
    outer loop
      vertex   5.282000e+000 7.626552e-019 -6.350000e-003
      vertex   5.282000e+000 1.270000e-002 -6.350000e-003
      vertex   5.282000e+000 -3.654369e-018 6.350000e-003
    endloop
  endfacet
  facet normal 1.000000e+000 -0.000000e+000 -0.000000e+000
    outer loop
      vertex   5.282000e+000 -3.654369e-018 6.350000e-003
      vertex   5.282000e+000 1.270000e-002 -6.350000e-003
      vertex   5.282000e+000 1.270000e-002 6.350000e-003
    endloop
  endfacet
  facet normal -5.335641e-016 5.000000e-001 -8.660254e-001
    outer loop
      vertex   5.282000e+000 3.118830e-002 -6.264926e-002
      vertex   5.282000e+000 2.018977e-002 -6.899926e-002
      vertex   5.272000e+000 3.118830e-002 -6.264926e-002
    endloop
  endfacet
  facet normal -5.204170e-016 5.000000e-001 -8.660254e-001
    outer loop
      vertex   5.272000e+000 3.118830e-002 -6.264926e-002
      vertex   5.282000e+000 2.018977e-002 -6.899926e-002
      vertex   5.272000e+000 2.018977e-002 -6.899926e-002
    endloop
  endfacet
  facet normal -5.335641e-016 8.660254e-001 5.000000e-001
    outer loop
      vertex   5.282000e+000 2.483830e-002 -5.165074e-002
      vertex   5.282000e+000 3.118830e-002 -6.264926e-002
      vertex   5.272000e+000 2.483830e-002 -5.165074e-002
    endloop
  endfacet
  facet normal -9.013888e-016 8.660254e-001 5.000000e-001
    outer loop
      vertex   5.272000e+000 2.483830e-002 -5.165074e-002
      vertex   5.282000e+000 3.118830e-002 -6.264926e-002
      vertex   5.272000e+000 3.118830e-002 -6.264926e-002
    endloop
  endfacet
  facet normal 1.707405e-015 -5.000000e-001 8.660254e-001
    outer loop
      vertex   5.282000e+000 1.383977e-002 -5.800074e-002
      vertex   5.282000e+000 2.483830e-002 -5.165074e-002
      vertex   5.272000e+000 1.383977e-002 -5.800074e-002
    endloop
  endfacet
  facet normal 3.469447e-016 -5.000000e-001 8.660254e-001
    outer loop
      vertex   5.272000e+000 1.383977e-002 -5.800074e-002
      vertex   5.282000e+000 2.483830e-002 -5.165074e-002
      vertex   5.272000e+000 2.483830e-002 -5.165074e-002
    endloop
  endfacet
  facet normal 8.537025e-016 -8.660254e-001 -5.000000e-001
    outer loop
      vertex   5.282000e+000 2.018977e-002 -6.899926e-002
      vertex   5.282000e+000 1.383977e-002 -5.800074e-002
      vertex   5.272000e+000 2.018977e-002 -6.899926e-002
    endloop
  endfacet
  facet normal 2.074994e-016 -8.660254e-001 -5.000000e-001
    outer loop
      vertex   5.272000e+000 2.018977e-002 -6.899926e-002
      vertex   5.282000e+000 1.383977e-002 -5.800074e-002
      vertex   5.272000e+000 1.383977e-002 -5.800074e-002
    endloop
  endfacet
  facet normal -1.000000e+000 0.000000e+000 -0.000000e+000
    outer loop
      vertex   5.272000e+000 1.383977e-002 -5.800074e-002
      vertex   5.272000e+000 2.483830e-002 -5.165074e-002
      vertex   5.272000e+000 2.018977e-002 -6.899926e-002
    endloop
  endfacet
  facet normal -1.000000e+000 0.000000e+000 0.000000e+000
    outer loop
      vertex   5.272000e+000 2.018977e-002 -6.899926e-002
      vertex   5.272000e+000 2.483830e-002 -5.165074e-002
      vertex   5.272000e+000 3.118830e-002 -6.264926e-002
    endloop
  endfacet
  facet normal 1.000000e+000 0.000000e+000 -0.000000e+000
    outer loop
      vertex   5.282000e+000 2.018977e-002 -6.899926e-002
      vertex   5.282000e+000 3.118830e-002 -6.264926e-002
      vertex   5.282000e+000 1.383977e-002 -5.800074e-002
    endloop
  endfacet
  facet normal 1.000000e+000 -0.000000e+000 -0.000000e+000
    outer loop
      vertex   5.282000e+000 1.383977e-002 -5.800074e-002
      vertex   5.282000e+000 3.118830e-002 -6.264926e-002
      vertex   5.282000e+000 2.483830e-002 -5.165074e-002
    endloop
  endfacet
  facet normal -4.268512e-016 -5.000000e-001 -8.660254e-001
    outer loop
      vertex   5.282000e+000 2.483830e-002 5.165074e-002
      vertex   5.282000e+000 1.383977e-002 5.800074e-002
      vertex   5.272000e+000 2.483830e-002 5.165074e-002
    endloop
  endfacet
  facet normal 3.407173e-016 -5.000000e-001 -8.660254e-001
    outer loop
      vertex   5.272000e+000 2.483830e-002 5.165074e-002
      vertex   5.282000e+000 1.383977e-002 5.800074e-002
      vertex   5.272000e+000 1.383977e-002 5.800074e-002
    endloop
  endfacet
  facet normal 9.604153e-016 8.660254e-001 -5.000000e-001
    outer loop
      vertex   5.282000e+000 3.118830e-002 6.264926e-002
      vertex   5.282000e+000 2.483830e-002 5.165074e-002
      vertex   5.272000e+000 3.118830e-002 6.264926e-002
    endloop
  endfacet
  facet normal 6.009258e-016 8.660254e-001 -5.000000e-001
    outer loop
      vertex   5.272000e+000 3.118830e-002 6.264926e-002
      vertex   5.282000e+000 2.483830e-002 5.165074e-002
      vertex   5.272000e+000 2.483830e-002 5.165074e-002
    endloop
  endfacet
  facet normal -6.402769e-016 5.000000e-001 8.660254e-001
    outer loop
      vertex   5.282000e+000 2.018977e-002 6.899926e-002
      vertex   5.282000e+000 3.118830e-002 6.264926e-002
      vertex   5.272000e+000 2.018977e-002 6.899926e-002
    endloop
  endfacet
  facet normal -1.028379e-015 5.000000e-001 8.660254e-001
    outer loop
      vertex   5.272000e+000 2.018977e-002 6.899926e-002
      vertex   5.282000e+000 3.118830e-002 6.264926e-002
      vertex   5.272000e+000 3.118830e-002 6.264926e-002
    endloop
  endfacet
  facet normal -7.469897e-016 -8.660254e-001 5.000000e-001
    outer loop
      vertex   5.282000e+000 1.383977e-002 5.800074e-002
      vertex   5.282000e+000 2.018977e-002 6.899926e-002
      vertex   5.272000e+000 1.383977e-002 5.800074e-002
    endloop
  endfacet
  facet normal -1.595278e-015 -8.660254e-001 5.000000e-001
    outer loop
      vertex   5.272000e+000 1.383977e-002 5.800074e-002
      vertex   5.282000e+000 2.018977e-002 6.899926e-002
      vertex   5.272000e+000 2.018977e-002 6.899926e-002
    endloop
  endfacet
  facet normal -1.000000e+000 0.000000e+000 -0.000000e+000
    outer loop
      vertex   5.272000e+000 2.018977e-002 6.899926e-002
      vertex   5.272000e+000 3.118830e-002 6.264926e-002
      vertex   5.272000e+000 1.383977e-002 5.800074e-002
    endloop
  endfacet
  facet normal -1.000000e+000 0.000000e+000 -0.000000e+000
    outer loop
      vertex   5.272000e+000 1.383977e-002 5.800074e-002
      vertex   5.272000e+000 3.118830e-002 6.264926e-002
      vertex   5.272000e+000 2.483830e-002 5.165074e-002
    endloop
  endfacet
  facet normal 1.000000e+000 -0.000000e+000 -0.000000e+000
    outer loop
      vertex   5.282000e+000 1.383977e-002 5.800074e-002
      vertex   5.282000e+000 2.483830e-002 5.165074e-002
      vertex   5.282000e+000 2.018977e-002 6.899926e-002
    endloop
  endfacet
  facet normal 1.000000e+000 -0.000000e+000 0.000000e+000
    outer loop
      vertex   5.282000e+000 2.018977e-002 6.899926e-002
      vertex   5.282000e+000 2.483830e-002 5.165074e-002
      vertex   5.282000e+000 3.118830e-002 6.264926e-002
    endloop
  endfacet
endsolid
